<?xml version="1.0" encoding="utf-8"?>
<!-- Generator: Adobe Illustrator 23.0.3, SVG Export Plug-In . SVG Version: 6.00 Build 0)  -->
<svg version="1.1" id="Layer_1" xmlns="http://www.w3.org/2000/svg" xmlns:xlink="http://www.w3.org/1999/xlink" x="0px" y="0px"
	 viewBox="0 0 750 500" style="enable-background:new 0 0 750 500;" xml:space="preserve">
<style type="text/css">
	.st0{fill:#1A1A1A;}
	.st1{opacity:0.4;fill:#FBB03B;}
	.st2{fill:#FBB03B;}
</style>
<rect x="0" width="750" height="500"/>
<path class="st0" d="M0,343h34v88l5,1v-9l19-1v-53l25-15l24,12l5,7l6-2v28h11v15l31,1v-10l39-5v-65l18-40v-11h4l24,10v8l18,36v120h5
	v-21l24-5l10-24l47-9v-78c0,0,20-65,22-62s28,17,28,17l21,48v97l6-7l22-2v31l19-12v-59l72-2v30h17v19l6-1v-5l16-1v-7l8-5v-59l38-20
	v16h8v63h91l4-42h51v142H0V343z"/>
<polygon class="st1" points="477.9,106.6 371,259 395.4,274 617.6,214.9 "/>
<ellipse class="st2" cx="574.5" cy="144" rx="110.5" ry="77"/>
<path d="M604,103.5c2.6,3.8,15.2,24.5-3.9,33.3c0,0-11.3,6.3-14.2-34l-4.4,6h-6h-6l-4.4-6c-2.8,40.3-14.2,34-14.2,34
	c-21.1-9.7-3.5-33.9-3.5-33.9c-28.1,6.2-48.1,21.9-48.1,40.2c0,14.3,12.1,26.9,30.6,34.7c-0.1-0.1-8.6-13.4-0.1-17.1
	c8.5-3.8,16,3.1,20.4,11c0,0,4.7-9.7,10.4-8.8c5.7,0.9,13.2,15.4,14.8,23.3c0,0,0,0,0.1,0c1.6-7.9,9.1-22.3,14.8-23.3
	c5.7-0.9,10.4,8.8,10.4,8.8c4.4-7.9,11.9-14.8,20.4-11c6.8,3,2.6,12.3,0.7,15.8c16.8-7.9,27.6-19.9,27.6-33.4
	C649.5,125.3,630.8,110,604,103.5z"/>
<g>
</g>
<g>
</g>
<g>
</g>
<g>
</g>
<g>
</g>
<g>
</g>
<g>
</g>
<g>
</g>
<g>
</g>
<g>
</g>
<g>
</g>
<g>
</g>
<g>
</g>
<g>
</g>
<g>
</g>
</svg>
