<?xml version="1.0" encoding="utf-8"?>
<!-- Generator: Adobe Illustrator 23.0.3, SVG Export Plug-In . SVG Version: 6.00 Build 0)  -->
<svg version="1.1" id="Layer_1" xmlns="http://www.w3.org/2000/svg" xmlns:xlink="http://www.w3.org/1999/xlink" x="0px" y="0px"
	 viewBox="0 0 750 500" style="enable-background:new 0 0 750 500;" xml:space="preserve">
<style type="text/css">
	.st0{fill:none;stroke:#000000;stroke-linecap:round;stroke-linejoin:round;stroke-miterlimit:10;}
	.st1{fill:none;stroke:#000000;stroke-width:5;stroke-linecap:round;stroke-linejoin:round;stroke-miterlimit:10;}
</style>
<g>
	<g>
		<g>
			<circle class="st0" cx="0" cy="0" r="47.5"/>
			<path class="st0" d="M0-45c24.8,0,45,20.2,45,45S24.8,45,0,45S-45,24.8-45,0S-24.8-45,0-45 M0-50c-27.6,0-50,22.4-50,50
				s22.4,50,50,50S50,27.6,50,0S27.6-50,0-50L0-50z"/>
		</g>
		<polyline class="st1" points="-0.5,-39.5 -0.5,0.5 19.5,22.5 		"/>
	</g>
	<g>
		<g>
			<circle class="st0" cx="107.1" cy="0" r="47.5"/>
			<path class="st0" d="M107.1-45c24.8,0,45,20.2,45,45s-20.2,45-45,45s-45-20.2-45-45S82.3-45,107.1-45 M107.1-50
				c-27.6,0-50,22.4-50,50s22.4,50,50,50s50-22.4,50-50S134.8-50,107.1-50L107.1-50z"/>
		</g>
		<polyline class="st1" points="106.6,-39.5 106.6,0.5 126.6,22.5 		"/>
	</g>
	<g>
		<g>
			<circle class="st0" cx="214.3" cy="0" r="47.5"/>
			<path class="st0" d="M214.3-45c24.8,0,45,20.2,45,45s-20.2,45-45,45s-45-20.2-45-45S189.5-45,214.3-45 M214.3-50
				c-27.6,0-50,22.4-50,50s22.4,50,50,50s50-22.4,50-50S241.9-50,214.3-50L214.3-50z"/>
		</g>
		<polyline class="st1" points="213.8,-39.5 213.8,0.5 233.8,22.5 		"/>
	</g>
	<g>
		<g>
			<circle class="st0" cx="321.4" cy="0" r="47.5"/>
			<path class="st0" d="M321.4-45c24.8,0,45,20.2,45,45s-20.2,45-45,45c-24.8,0-45-20.2-45-45S296.6-45,321.4-45 M321.4-50
				c-27.6,0-50,22.4-50,50s22.4,50,50,50c27.6,0,50-22.4,50-50S349-50,321.4-50L321.4-50z"/>
		</g>
		<polyline class="st1" points="320.9,-39.5 320.9,0.5 340.9,22.5 		"/>
	</g>
	<g>
		<g>
			<circle class="st0" cx="428.6" cy="0" r="47.5"/>
			<path class="st0" d="M428.6-45c24.8,0,45,20.2,45,45s-20.2,45-45,45c-24.8,0-45-20.2-45-45S403.8-45,428.6-45 M428.6-50
				c-27.6,0-50,22.4-50,50s22.4,50,50,50c27.6,0,50-22.4,50-50S456.2-50,428.6-50L428.6-50z"/>
		</g>
		<polyline class="st1" points="428.1,-39.5 428.1,0.5 448.1,22.5 		"/>
	</g>
	<g>
		<g>
			<circle class="st0" cx="535.7" cy="0" r="47.5"/>
			<path class="st0" d="M535.7-45c24.8,0,45,20.2,45,45s-20.2,45-45,45c-24.8,0-45-20.2-45-45S510.9-45,535.7-45 M535.7-50
				c-27.6,0-50,22.4-50,50s22.4,50,50,50s50-22.4,50-50S563.3-50,535.7-50L535.7-50z"/>
		</g>
		<polyline class="st1" points="535.2,-39.5 535.2,0.5 555.2,22.5 		"/>
	</g>
	<g>
		<g>
			<circle class="st0" cx="642.9" cy="0" r="47.5"/>
			<path class="st0" d="M642.9-45c24.8,0,45,20.2,45,45s-20.2,45-45,45s-45-20.2-45-45S618-45,642.9-45 M642.9-50
				c-27.6,0-50,22.4-50,50s22.4,50,50,50s50-22.4,50-50S670.5-50,642.9-50L642.9-50z"/>
		</g>
		<polyline class="st1" points="642.4,-39.5 642.4,0.5 662.4,22.5 		"/>
	</g>
	<g>
		<g>
			<circle class="st0" cx="750" cy="0" r="47.5"/>
			<path class="st0" d="M750-45c24.8,0,45,20.2,45,45s-20.2,45-45,45s-45-20.2-45-45S725.2-45,750-45 M750-50c-27.6,0-50,22.4-50,50
				s22.4,50,50,50s50-22.4,50-50S777.6-50,750-50L750-50z"/>
		</g>
		<polyline class="st1" points="749.5,-39.5 749.5,0.5 769.5,22.5 		"/>
	</g>
</g>
<g>
	<g>
		<g>
			<circle class="st0" cx="750" cy="500" r="47.5"/>
			<path class="st0" d="M750,455c24.8,0,45,20.2,45,45c0,24.8-20.2,45-45,45s-45-20.2-45-45C705,475.2,725.2,455,750,455 M750,450
				c-27.6,0-50,22.4-50,50c0,27.6,22.4,50,50,50s50-22.4,50-50C800,472.4,777.6,450,750,450L750,450z"/>
		</g>
		<polyline class="st1" points="750.5,460.5 750.5,500.5 730.5,522.5 		"/>
	</g>
	<g>
		<g>
			<circle class="st0" cx="642.9" cy="500" r="47.5"/>
			<path class="st0" d="M642.9,455c24.8,0,45,20.2,45,45c0,24.8-20.2,45-45,45s-45-20.2-45-45C597.9,475.2,618,455,642.9,455
				 M642.9,450c-27.6,0-50,22.4-50,50c0,27.6,22.4,50,50,50s50-22.4,50-50C692.9,472.4,670.5,450,642.9,450L642.9,450z"/>
		</g>
		<polyline class="st1" points="643.4,460.5 643.4,500.5 623.4,522.5 		"/>
	</g>
	<g>
		<g>
			<circle class="st0" cx="535.7" cy="500" r="47.5"/>
			<path class="st0" d="M535.7,455c24.8,0,45,20.2,45,45c0,24.8-20.2,45-45,45c-24.8,0-45-20.2-45-45
				C490.7,475.2,510.9,455,535.7,455 M535.7,450c-27.6,0-50,22.4-50,50c0,27.6,22.4,50,50,50s50-22.4,50-50
				C585.7,472.4,563.3,450,535.7,450L535.7,450z"/>
		</g>
		<polyline class="st1" points="536.2,460.5 536.2,500.5 516.2,522.5 		"/>
	</g>
	<g>
		<g>
			<circle class="st0" cx="428.6" cy="500" r="47.5"/>
			<path class="st0" d="M428.6,455c24.8,0,45,20.2,45,45c0,24.8-20.2,45-45,45c-24.8,0-45-20.2-45-45
				C383.6,475.2,403.8,455,428.6,455 M428.6,450c-27.6,0-50,22.4-50,50c0,27.6,22.4,50,50,50c27.6,0,50-22.4,50-50
				C478.6,472.4,456.2,450,428.6,450L428.6,450z"/>
		</g>
		<polyline class="st1" points="429.1,460.5 429.1,500.5 409.1,522.5 		"/>
	</g>
	<g>
		<g>
			<circle class="st0" cx="321.4" cy="500" r="47.5"/>
			<path class="st0" d="M321.4,455c24.8,0,45,20.2,45,45c0,24.8-20.2,45-45,45c-24.8,0-45-20.2-45-45
				C276.4,475.2,296.6,455,321.4,455 M321.4,450c-27.6,0-50,22.4-50,50c0,27.6,22.4,50,50,50c27.6,0,50-22.4,50-50
				C371.4,472.4,349,450,321.4,450L321.4,450z"/>
		</g>
		<polyline class="st1" points="321.9,460.5 321.9,500.5 301.9,522.5 		"/>
	</g>
	<g>
		<g>
			<circle class="st0" cx="214.3" cy="500" r="47.5"/>
			<path class="st0" d="M214.3,455c24.8,0,45,20.2,45,45c0,24.8-20.2,45-45,45s-45-20.2-45-45C169.3,475.2,189.5,455,214.3,455
				 M214.3,450c-27.6,0-50,22.4-50,50c0,27.6,22.4,50,50,50s50-22.4,50-50C264.3,472.4,241.9,450,214.3,450L214.3,450z"/>
		</g>
		<polyline class="st1" points="214.8,460.5 214.8,500.5 194.8,522.5 		"/>
	</g>
	<g>
		<g>
			<circle class="st0" cx="107.1" cy="500" r="47.5"/>
			<path class="st0" d="M107.1,455c24.8,0,45,20.2,45,45c0,24.8-20.2,45-45,45s-45-20.2-45-45C62.1,475.2,82.3,455,107.1,455
				 M107.1,450c-27.6,0-50,22.4-50,50c0,27.6,22.4,50,50,50s50-22.4,50-50C157.1,472.4,134.8,450,107.1,450L107.1,450z"/>
		</g>
		<polyline class="st1" points="107.6,460.5 107.6,500.5 87.6,522.5 		"/>
	</g>
	<g>
		<g>
			<circle class="st0" cx="0" cy="500" r="47.5"/>
			<path class="st0" d="M0,455c24.8,0,45,20.2,45,45c0,24.8-20.2,45-45,45s-45-20.2-45-45C-45,475.2-24.8,455,0,455 M0,450
				c-27.6,0-50,22.4-50,50c0,27.6,22.4,50,50,50s50-22.4,50-50C50,472.4,27.6,450,0,450L0,450z"/>
		</g>
		<polyline class="st1" points="0.5,460.5 0.5,500.5 -19.5,522.5 		"/>
	</g>
</g>
<g>
	<g>
		<g>
			<circle class="st0" cx="750" cy="373" r="47.5"/>
			<path class="st0" d="M750,328c24.8,0,45,20.2,45,45c0,24.8-20.2,45-45,45s-45-20.2-45-45C705,348.2,725.2,328,750,328 M750,323
				c-27.6,0-50,22.4-50,50c0,27.6,22.4,50,50,50s50-22.4,50-50C800,345.4,777.6,323,750,323L750,323z"/>
		</g>
		<polyline class="st1" points="750.5,333.5 750.5,373.5 730.5,395.5 		"/>
	</g>
	<g>
		<g>
			<circle class="st0" cx="642.9" cy="373" r="47.5"/>
			<path class="st0" d="M642.9,328c24.8,0,45,20.2,45,45c0,24.8-20.2,45-45,45s-45-20.2-45-45C597.9,348.2,618,328,642.9,328
				 M642.9,323c-27.6,0-50,22.4-50,50c0,27.6,22.4,50,50,50s50-22.4,50-50C692.9,345.4,670.5,323,642.9,323L642.9,323z"/>
		</g>
		<polyline class="st1" points="643.4,333.5 643.4,373.5 623.4,395.5 		"/>
	</g>
	<g>
		<g>
			<circle class="st0" cx="535.7" cy="373" r="47.5"/>
			<path class="st0" d="M535.7,328c24.8,0,45,20.2,45,45c0,24.8-20.2,45-45,45c-24.8,0-45-20.2-45-45
				C490.7,348.2,510.9,328,535.7,328 M535.7,323c-27.6,0-50,22.4-50,50c0,27.6,22.4,50,50,50s50-22.4,50-50
				C585.7,345.4,563.3,323,535.7,323L535.7,323z"/>
		</g>
		<polyline class="st1" points="536.2,333.5 536.2,373.5 516.2,395.5 		"/>
	</g>
	<g>
		<g>
			<circle class="st0" cx="428.6" cy="373" r="47.5"/>
			<path class="st0" d="M428.6,328c24.8,0,45,20.2,45,45c0,24.8-20.2,45-45,45c-24.8,0-45-20.2-45-45
				C383.6,348.2,403.8,328,428.6,328 M428.6,323c-27.6,0-50,22.4-50,50c0,27.6,22.4,50,50,50c27.6,0,50-22.4,50-50
				C478.6,345.4,456.2,323,428.6,323L428.6,323z"/>
		</g>
		<polyline class="st1" points="429.1,333.5 429.1,373.5 409.1,395.5 		"/>
	</g>
	<g>
		<g>
			<circle class="st0" cx="321.4" cy="373" r="47.5"/>
			<path class="st0" d="M321.4,328c24.8,0,45,20.2,45,45c0,24.8-20.2,45-45,45c-24.8,0-45-20.2-45-45
				C276.4,348.2,296.6,328,321.4,328 M321.4,323c-27.6,0-50,22.4-50,50c0,27.6,22.4,50,50,50c27.6,0,50-22.4,50-50
				C371.4,345.4,349,323,321.4,323L321.4,323z"/>
		</g>
		<polyline class="st1" points="321.9,333.5 321.9,373.5 301.9,395.5 		"/>
	</g>
	<g>
		<g>
			<circle class="st0" cx="214.3" cy="373" r="47.5"/>
			<path class="st0" d="M214.3,328c24.8,0,45,20.2,45,45c0,24.8-20.2,45-45,45s-45-20.2-45-45C169.3,348.2,189.5,328,214.3,328
				 M214.3,323c-27.6,0-50,22.4-50,50c0,27.6,22.4,50,50,50s50-22.4,50-50C264.3,345.4,241.9,323,214.3,323L214.3,323z"/>
		</g>
		<polyline class="st1" points="214.8,333.5 214.8,373.5 194.8,395.5 		"/>
	</g>
	<g>
		<g>
			<circle class="st0" cx="107.1" cy="373" r="47.5"/>
			<path class="st0" d="M107.1,328c24.8,0,45,20.2,45,45c0,24.8-20.2,45-45,45s-45-20.2-45-45C62.1,348.2,82.3,328,107.1,328
				 M107.1,323c-27.6,0-50,22.4-50,50c0,27.6,22.4,50,50,50s50-22.4,50-50C157.1,345.4,134.8,323,107.1,323L107.1,323z"/>
		</g>
		<polyline class="st1" points="107.6,333.5 107.6,373.5 87.6,395.5 		"/>
	</g>
	<g>
		<g>
			<circle class="st0" cx="0" cy="373" r="47.5"/>
			<path class="st0" d="M0,328c24.8,0,45,20.2,45,45c0,24.8-20.2,45-45,45s-45-20.2-45-45C-45,348.2-24.8,328,0,328 M0,323
				c-27.6,0-50,22.4-50,50c0,27.6,22.4,50,50,50s50-22.4,50-50C50,345.4,27.6,323,0,323L0,323z"/>
		</g>
		<polyline class="st1" points="0.5,333.5 0.5,373.5 -19.5,395.5 		"/>
	</g>
</g>
<g>
	<g>
		<g>
			<circle class="st0" cx="750" cy="246" r="47.5"/>
			<path class="st0" d="M750,201c24.8,0,45,20.2,45,45c0,24.8-20.2,45-45,45s-45-20.2-45-45C705,221.2,725.2,201,750,201 M750,196
				c-27.6,0-50,22.4-50,50c0,27.6,22.4,50,50,50s50-22.4,50-50C800,218.4,777.6,196,750,196L750,196z"/>
		</g>
		<polyline class="st1" points="750.5,206.5 750.5,246.5 730.5,268.5 		"/>
	</g>
	<g>
		<g>
			<circle class="st0" cx="642.9" cy="246" r="47.5"/>
			<path class="st0" d="M642.9,201c24.8,0,45,20.2,45,45c0,24.8-20.2,45-45,45s-45-20.2-45-45C597.9,221.2,618,201,642.9,201
				 M642.9,196c-27.6,0-50,22.4-50,50c0,27.6,22.4,50,50,50s50-22.4,50-50C692.9,218.4,670.5,196,642.9,196L642.9,196z"/>
		</g>
		<polyline class="st1" points="643.4,206.5 643.4,246.5 623.4,268.5 		"/>
	</g>
	<g>
		<g>
			<circle class="st0" cx="535.7" cy="246" r="47.5"/>
			<path class="st0" d="M535.7,201c24.8,0,45,20.2,45,45c0,24.8-20.2,45-45,45c-24.8,0-45-20.2-45-45
				C490.7,221.2,510.9,201,535.7,201 M535.7,196c-27.6,0-50,22.4-50,50c0,27.6,22.4,50,50,50s50-22.4,50-50
				C585.7,218.4,563.3,196,535.7,196L535.7,196z"/>
		</g>
		<polyline class="st1" points="536.2,206.5 536.2,246.5 516.2,268.5 		"/>
	</g>
	<g>
		<g>
			<circle class="st0" cx="428.6" cy="246" r="47.5"/>
			<path class="st0" d="M428.6,201c24.8,0,45,20.2,45,45c0,24.8-20.2,45-45,45c-24.8,0-45-20.2-45-45
				C383.6,221.2,403.8,201,428.6,201 M428.6,196c-27.6,0-50,22.4-50,50c0,27.6,22.4,50,50,50c27.6,0,50-22.4,50-50
				C478.6,218.4,456.2,196,428.6,196L428.6,196z"/>
		</g>
		<polyline class="st1" points="429.1,206.5 429.1,246.5 409.1,268.5 		"/>
	</g>
	<g>
		<g>
			<circle class="st0" cx="321.4" cy="246" r="47.5"/>
			<path class="st0" d="M321.4,201c24.8,0,45,20.2,45,45c0,24.8-20.2,45-45,45c-24.8,0-45-20.2-45-45
				C276.4,221.2,296.6,201,321.4,201 M321.4,196c-27.6,0-50,22.4-50,50c0,27.6,22.4,50,50,50c27.6,0,50-22.4,50-50
				C371.4,218.4,349,196,321.4,196L321.4,196z"/>
		</g>
		<polyline class="st1" points="321.9,206.5 321.9,246.5 301.9,268.5 		"/>
	</g>
	<g>
		<g>
			<circle class="st0" cx="214.3" cy="246" r="47.5"/>
			<path class="st0" d="M214.3,201c24.8,0,45,20.2,45,45c0,24.8-20.2,45-45,45s-45-20.2-45-45C169.3,221.2,189.5,201,214.3,201
				 M214.3,196c-27.6,0-50,22.4-50,50c0,27.6,22.4,50,50,50s50-22.4,50-50C264.3,218.4,241.9,196,214.3,196L214.3,196z"/>
		</g>
		<polyline class="st1" points="214.8,206.5 214.8,246.5 194.8,268.5 		"/>
	</g>
	<g>
		<g>
			<circle class="st0" cx="107.1" cy="246" r="47.5"/>
			<path class="st0" d="M107.1,201c24.8,0,45,20.2,45,45c0,24.8-20.2,45-45,45s-45-20.2-45-45C62.1,221.2,82.3,201,107.1,201
				 M107.1,196c-27.6,0-50,22.4-50,50c0,27.6,22.4,50,50,50s50-22.4,50-50C157.1,218.4,134.8,196,107.1,196L107.1,196z"/>
		</g>
		<polyline class="st1" points="107.6,206.5 107.6,246.5 87.6,268.5 		"/>
	</g>
	<g>
		<g>
			<circle class="st0" cx="0" cy="246" r="47.5"/>
			<path class="st0" d="M0,201c24.8,0,45,20.2,45,45c0,24.8-20.2,45-45,45s-45-20.2-45-45C-45,221.2-24.8,201,0,201 M0,196
				c-27.6,0-50,22.4-50,50c0,27.6,22.4,50,50,50s50-22.4,50-50C50,218.4,27.6,196,0,196L0,196z"/>
		</g>
		<polyline class="st1" points="0.5,206.5 0.5,246.5 -19.5,268.5 		"/>
	</g>
</g>
<g>
	<g>
		<g>
			<circle class="st0" cx="750" cy="119" r="47.5"/>
			<path class="st0" d="M750,74c24.8,0,45,20.2,45,45c0,24.8-20.2,45-45,45s-45-20.2-45-45C705,94.2,725.2,74,750,74 M750,69
				c-27.6,0-50,22.4-50,50c0,27.6,22.4,50,50,50s50-22.4,50-50C800,91.4,777.6,69,750,69L750,69z"/>
		</g>
		<polyline class="st1" points="750.5,79.5 750.5,119.5 730.5,141.5 		"/>
	</g>
	<g>
		<g>
			<circle class="st0" cx="642.9" cy="119" r="47.5"/>
			<path class="st0" d="M642.9,74c24.8,0,45,20.2,45,45c0,24.8-20.2,45-45,45s-45-20.2-45-45C597.9,94.2,618,74,642.9,74 M642.9,69
				c-27.6,0-50,22.4-50,50c0,27.6,22.4,50,50,50s50-22.4,50-50C692.9,91.4,670.5,69,642.9,69L642.9,69z"/>
		</g>
		<polyline class="st1" points="643.4,79.5 643.4,119.5 623.4,141.5 		"/>
	</g>
	<g>
		<g>
			<circle class="st0" cx="535.7" cy="119" r="47.5"/>
			<path class="st0" d="M535.7,74c24.8,0,45,20.2,45,45c0,24.8-20.2,45-45,45c-24.8,0-45-20.2-45-45C490.7,94.2,510.9,74,535.7,74
				 M535.7,69c-27.6,0-50,22.4-50,50c0,27.6,22.4,50,50,50s50-22.4,50-50C585.7,91.4,563.3,69,535.7,69L535.7,69z"/>
		</g>
		<polyline class="st1" points="536.2,79.5 536.2,119.5 516.2,141.5 		"/>
	</g>
	<g>
		<g>
			<circle class="st0" cx="428.6" cy="119" r="47.5"/>
			<path class="st0" d="M428.6,74c24.8,0,45,20.2,45,45c0,24.8-20.2,45-45,45c-24.8,0-45-20.2-45-45C383.6,94.2,403.8,74,428.6,74
				 M428.6,69c-27.6,0-50,22.4-50,50c0,27.6,22.4,50,50,50c27.6,0,50-22.4,50-50C478.6,91.4,456.2,69,428.6,69L428.6,69z"/>
		</g>
		<polyline class="st1" points="429.1,79.5 429.1,119.5 409.1,141.5 		"/>
	</g>
	<g>
		<g>
			<circle class="st0" cx="321.4" cy="119" r="47.5"/>
			<path class="st0" d="M321.4,74c24.8,0,45,20.2,45,45c0,24.8-20.2,45-45,45c-24.8,0-45-20.2-45-45C276.4,94.2,296.6,74,321.4,74
				 M321.4,69c-27.6,0-50,22.4-50,50c0,27.6,22.4,50,50,50c27.6,0,50-22.4,50-50C371.4,91.4,349,69,321.4,69L321.4,69z"/>
		</g>
		<polyline class="st1" points="321.9,79.5 321.9,119.5 301.9,141.5 		"/>
	</g>
	<g>
		<g>
			<circle class="st0" cx="214.3" cy="119" r="47.5"/>
			<path class="st0" d="M214.3,74c24.8,0,45,20.2,45,45c0,24.8-20.2,45-45,45s-45-20.2-45-45C169.3,94.2,189.5,74,214.3,74
				 M214.3,69c-27.6,0-50,22.4-50,50c0,27.6,22.4,50,50,50s50-22.4,50-50C264.3,91.4,241.9,69,214.3,69L214.3,69z"/>
		</g>
		<polyline class="st1" points="214.8,79.5 214.8,119.5 194.8,141.5 		"/>
	</g>
	<g>
		<g>
			<circle class="st0" cx="107.1" cy="119" r="47.5"/>
			<path class="st0" d="M107.1,74c24.8,0,45,20.2,45,45c0,24.8-20.2,45-45,45s-45-20.2-45-45C62.1,94.2,82.3,74,107.1,74 M107.1,69
				c-27.6,0-50,22.4-50,50c0,27.6,22.4,50,50,50s50-22.4,50-50C157.1,91.4,134.8,69,107.1,69L107.1,69z"/>
		</g>
		<polyline class="st1" points="107.6,79.5 107.6,119.5 87.6,141.5 		"/>
	</g>
	<g>
		<g>
			<circle class="st0" cx="0" cy="119" r="47.5"/>
			<path class="st0" d="M0,74c24.8,0,45,20.2,45,45c0,24.8-20.2,45-45,45s-45-20.2-45-45C-45,94.2-24.8,74,0,74 M0,69
				c-27.6,0-50,22.4-50,50c0,27.6,22.4,50,50,50s50-22.4,50-50C50,91.4,27.6,69,0,69L0,69z"/>
		</g>
		<polyline class="st1" points="0.5,79.5 0.5,119.5 -19.5,141.5 		"/>
	</g>
</g>
</svg>
