<?xml version="1.0" encoding="utf-8"?>
<!-- Generator: Adobe Illustrator 23.0.3, SVG Export Plug-In . SVG Version: 6.00 Build 0)  -->
<svg version="1.1" id="Layer_1" xmlns="http://www.w3.org/2000/svg" xmlns:xlink="http://www.w3.org/1999/xlink" x="0px" y="0px"
	 viewBox="0 0 700 500" style="enable-background:new 0 0 700 500;" xml:space="preserve">
<style type="text/css">
	.st0{display:none;fill:#FFFFFF;}
	.st1{fill:#05003B;}
</style>
<image style="display:none;overflow:visible;" width="3246" height="1855" xlink:href="../../Documents/San_Diego,_CA_USA_-_View_from_Coronado_-_panoramio.jpg"  transform="matrix(0.2311 0 0 0.2311 -25 35.1978)">
</image>
<polyline class="st0" points="0,339 28,339 28,309 32,309 32,303 34,303 34,301 40,301 49,301 51,303 51,310 54,310 54,329 60,324 
	62,325 72,320 72,310 75,310 75,309 81,309 88,309 88,328 88,330 90,330 90,308 92,306 92,288 94,288 95,283 103,283 103,286 
	107,286 107,289 107,307 109,309 109,328 113,328 113,324 115,324 115,321 117,321 117,315 120,315 120,298 "/>
<path class="st1" d="M-37.5,505.5c0,0,68.4-125,72.2-280H72c0,0-39.5,266-82.1,280H-37.5z"/>
<path class="st1" d="M27.5,225.5c0,0-80-2-84,39c0,0,0-93,72-92c0,0-30-36-80-16c0,0,45-63,100-30c0,0-10-40-40-44c0,0,75-7,104,55
	c0,0,36-35,78,36c0,0-74-24-85,13c0,0,68,10,85,72c0,0-98-53-103-26S27.5,225.5,27.5,225.5z"/>
<path class="st1" d="M255.5,506.5c0,0,68.4-125,72.2-280H365c0,0-39.5,266-82.1,280H255.5z"/>
<path class="st1" d="M320.5,226.5c0,0-80-2-84,39c0,0,0-93,72-92c0,0-30-36-80-16c0,0,45-63,100-30c0,0-10-40-40-44c0,0,75-7,104,55
	c0,0,36-35,78,36c0,0-74-24-85,13c0,0,68,10,85,72c0,0-98-53-103-26S320.5,226.5,320.5,226.5z"/>
<path class="st1" d="M548.5,510.5c0,0,68.4-125,72.2-280H658c0,0-39.5,266-82.1,280H548.5z"/>
<path class="st1" d="M613.5,230.5c0,0-80-2-84,39c0,0,0-93,72-92c0,0-30-36-80-16c0,0,45-63,100-30c0,0-10-40-40-44c0,0,75-7,104,55
	c0,0,36-35,78,36c0,0-74-24-85,13c0,0,68,10,85,72c0,0-98-53-103-26S613.5,230.5,613.5,230.5z"/>
</svg>
