<?xml version="1.0" encoding="utf-8"?>
<!-- Generator: Adobe Illustrator 23.0.3, SVG Export Plug-In . SVG Version: 6.00 Build 0)  -->
<svg version="1.1" id="Layer_1" xmlns="http://www.w3.org/2000/svg" xmlns:xlink="http://www.w3.org/1999/xlink" x="0px" y="0px"
	 viewBox="0 0 750 500" style="enable-background:new 0 0 750 500;" xml:space="preserve">
<style type="text/css">
	.st0{fill:#003C37;}
	.st1{fill:#00A837;}
	.st2{fill:#004B37;}
	.st3{fill:#003237;}
</style>
<g>
	<circle class="st0" cx="-24" cy="350" r="100"/>
	<path class="st0" d="M-24,500h-100c0-54.9,45.1-100,100-100S76,445.1,76,500H-24z"/>
</g>
<g>
	<circle class="st1" cx="776" cy="350" r="100"/>
	<path class="st1" d="M776,500H676c0-54.9,45.1-100,100-100s100,45.1,100,100H776z"/>
</g>
<g>
	<circle class="st0" cx="376" cy="350" r="100"/>
	<path class="st0" d="M376,500H276c0-54.9,45.1-100,100-100s100,45.1,100,100H376z"/>
</g>
<g>
	<circle class="st2" cx="176" cy="350" r="100"/>
	<path class="st2" d="M176,500H76c0-54.9,45.1-100,100-100s100,45.1,100,100H176z"/>
</g>
<g>
	<circle class="st3" cx="576" cy="350" r="100"/>
	<path class="st3" d="M576,500H476c0-54.9,45.1-100,100-100s100,45.1,100,100H576z"/>
</g>
</svg>
