<?xml version="1.0" encoding="utf-8"?>
<!-- Generator: Adobe Illustrator 23.0.3, SVG Export Plug-In . SVG Version: 6.00 Build 0)  -->
<svg version="1.1" id="Layer_1" xmlns="http://www.w3.org/2000/svg" xmlns:xlink="http://www.w3.org/1999/xlink" x="0px" y="0px"
	 viewBox="0 0 750 500" style="enable-background:new 0 0 750 500;" xml:space="preserve">
<style type="text/css">
	.st0{fill:#004437;}
	.st1{fill:#006837;}
</style>
<g>
	<g>
		<circle class="st0" cx="0" cy="301" r="100"/>
	</g>
	<g>
		<path class="st0" d="M0,501h-100c0-54.9,45.1-100,100-100s100,45.1,100,100H0z"/>
	</g>
</g>
<g>
	<g>
		<circle class="st0" cx="550" cy="301" r="100"/>
	</g>
	<g>
		<path class="st0" d="M550,501H450c0-54.9,45.1-100,100-100s100,45.1,100,100H550z"/>
	</g>
</g>
<g>
	<g>
		<circle class="st0" cx="750" cy="301" r="100"/>
	</g>
	<g>
		<path class="st0" d="M750,501H650c0-54.9,45.1-100,100-100s100,45.1,100,100H750z"/>
	</g>
</g>
<g>
	<g>
		<circle class="st0" cx="275" cy="301" r="100"/>
	</g>
	<g>
		<path class="st0" d="M275,501H175c0-54.9,45.1-100,100-100s100,45.1,100,100H275z"/>
	</g>
</g>
<g>
	<g>
		<circle class="st1" cx="100" cy="300" r="100"/>
	</g>
	<g>
		<path class="st1" d="M100,500H0c0-54.9,45.1-100,100-100s100,45.1,100,100H100z"/>
	</g>
</g>
<g>
	<g>
		<circle class="st1" cx="650" cy="300" r="100"/>
	</g>
	<g>
		<path class="st1" d="M650,500H550c0-54.9,45.1-100,100-100s100,45.1,100,100H650z"/>
	</g>
</g>
<g>
	<g>
		<circle class="st1" cx="375" cy="300" r="100"/>
	</g>
	<g>
		<path class="st1" d="M375,500H275c0-54.9,45.1-100,100-100s100,45.1,100,100H375z"/>
	</g>
</g>
</svg>
