<?xml version="1.0" standalone="no"?>
<!DOCTYPE svg PUBLIC "-//W3C//DTD SVG 20010904//EN"
 "http://www.w3.org/TR/2001/REC-SVG-20010904/DTD/svg10.dtd">
<svg version="1.0" xmlns="http://www.w3.org/2000/svg"
 width="2048.000000pt" height="2048.000000pt" viewBox="0 0 2048.000000 2048.000000"
 preserveAspectRatio="xMidYMid meet">
<metadata>
Created by potrace 1.11, written by Peter Selinger 2001-2013
</metadata>
<g transform="translate(0.000000,2048.000000) scale(0.100000,-0.100000)"
fill="#000000" stroke="none">
<path d="M3487 17755 c-57 -55 -186 -179 -287 -275 -244 -234 -268 -257 -485
-465 -103 -99 -213 -205 -245 -235 -60 -57 -365 -349 -475 -455 -77 -74 -397
-381 -485 -465 -35 -34 -147 -141 -248 -238 -102 -97 -213 -204 -247 -237 -35
-33 -145 -139 -245 -235 -101 -96 -206 -197 -235 -225 -29 -27 -137 -131 -240
-230 -103 -99 -212 -203 -241 -231 -76 -71 -74 -82 23 -194 39 -45 64 -74 103
-120 21 -25 48 -56 60 -70 12 -14 39 -45 60 -70 21 -25 48 -56 60 -70 12 -14
40 -47 63 -74 87 -103 181 -212 211 -246 17 -19 69 -80 116 -135 47 -55 87
-102 90 -105 3 -3 18 -21 34 -40 16 -19 52 -62 81 -95 29 -33 137 -159 240
-280 103 -121 211 -247 240 -280 29 -33 85 -98 124 -145 40 -47 80 -94 90
-105 10 -11 60 -69 112 -130 51 -60 103 -121 115 -135 19 -22 267 -311 395
-461 152 -177 547 -638 565 -659 12 -14 349 -407 749 -875 818 -955 822 -960
850 -991 11 -12 29 -33 39 -46 11 -13 74 -86 140 -164 67 -77 141 -164 166
-194 25 -29 50 -58 55 -64 10 -10 240 -279 276 -322 18 -22 137 -160 214 -249
28 -33 109 -127 180 -210 164 -193 235 -276 278 -325 12 -14 62 -73 112 -130
49 -58 92 -107 95 -110 3 -3 27 -32 55 -65 27 -33 52 -62 55 -65 3 -3 18 -21
34 -40 16 -19 52 -62 81 -95 29 -33 139 -161 245 -285 106 -124 202 -236 214
-250 11 -14 88 -104 171 -200 82 -96 152 -177 155 -180 7 -6 99 -114 176 -205
32 -38 68 -81 80 -95 12 -14 95 -110 184 -215 90 -104 186 -217 214 -249 49
-57 63 -73 96 -113 29 -33 812 -948 839 -978 14 -17 80 -93 146 -170 65 -77
122 -142 125 -145 3 -3 27 -32 55 -65 27 -33 52 -62 55 -65 3 -3 34 -39 69
-80 35 -41 85 -100 111 -130 26 -30 80 -93 120 -140 40 -47 94 -110 120 -140
55 -64 417 -486 440 -514 8 -10 20 -23 25 -30 6 -6 66 -76 134 -156 68 -80
138 -161 155 -181 l31 -36 110 130 c61 71 121 142 135 157 14 16 44 50 66 77
23 26 76 89 119 138 42 50 87 101 99 115 11 14 48 57 81 95 71 83 66 77 240
280 75 88 149 174 163 190 15 17 63 73 107 125 44 52 82 97 85 100 3 3 30 34
60 70 30 35 69 80 86 100 17 19 64 73 104 120 40 47 94 110 120 140 26 30 80
93 120 140 39 47 82 96 94 110 12 14 91 106 175 205 85 99 166 194 180 210 25
29 494 575 536 624 11 13 25 29 30 35 6 6 48 56 95 111 47 55 87 102 90 105 3
3 59 68 125 145 65 77 122 142 125 145 3 3 29 34 59 70 29 36 79 94 111 130
31 36 157 182 279 325 122 143 242 283 265 310 40 46 167 194 220 255 11 14
58 68 103 120 45 52 130 151 188 220 59 69 119 138 134 155 14 16 39 45 54 65
16 19 45 53 65 75 21 22 57 65 82 95 25 30 52 62 60 70 8 9 33 38 55 64 22 27
47 56 56 65 8 9 37 43 65 76 27 33 54 65 60 70 5 6 35 39 65 75 29 36 56 67
59 70 3 3 59 68 125 145 65 77 122 142 125 145 3 3 54 62 113 132 58 69 112
132 119 140 7 7 35 40 63 73 27 33 54 65 60 71 5 6 30 35 55 64 25 29 50 58
55 64 6 6 91 106 190 221 99 116 184 215 190 221 5 6 28 32 50 58 22 27 47 56
55 66 8 9 38 44 66 76 28 32 124 145 214 249 179 210 221 258 335 390 42 50
87 101 99 115 96 113 194 229 211 249 11 13 25 29 31 35 5 6 149 173 318 371
170 198 330 385 356 415 26 30 80 93 120 140 39 47 82 96 94 110 13 14 56 63
96 110 39 47 82 96 94 110 11 14 46 54 76 90 30 35 60 70 65 76 6 6 29 33 52
61 24 27 53 61 65 75 13 14 43 49 68 78 25 29 50 58 55 64 6 6 35 40 65 76 30
36 57 67 60 70 3 3 30 34 60 70 30 36 57 67 60 70 3 3 28 32 55 65 28 33 64
76 81 95 17 19 64 73 104 120 104 123 117 138 185 215 33 39 74 86 90 106 28
33 122 144 184 214 14 17 64 75 110 130 47 55 90 105 95 110 6 6 47 53 90 105
44 52 84 100 90 105 6 6 33 37 61 70 27 33 55 66 62 73 7 7 13 17 13 21 0 5
-57 62 -126 127 -69 66 -152 144 -183 174 -32 30 -134 127 -227 215 -346 329
-339 322 -580 552 -82 77 -174 165 -204 193 -30 28 -120 114 -200 190 -80 75
-161 152 -180 170 -29 27 -237 224 -389 370 -64 61 -362 344 -400 380 -41 39
-275 261 -387 367 -39 37 -145 138 -235 223 -90 85 -180 171 -200 190 -20 19
-67 64 -105 100 -38 36 -104 99 -147 140 l-79 75 -6573 0 -6573 0 -105 -100z"/>
</g>
</svg>
