<?xml version="1.0" standalone="no"?>
<!DOCTYPE svg PUBLIC "-//W3C//DTD SVG 20010904//EN"
 "http://www.w3.org/TR/2001/REC-SVG-20010904/DTD/svg10.dtd">
<svg version="1.0" xmlns="http://www.w3.org/2000/svg"
 width="700.000000pt" height="700.000000pt" viewBox="0 0 700.000000 700.000000"
 preserveAspectRatio="xMidYMid meet">
<metadata>
Created by potrace 1.11, written by Peter Selinger 2001-2013
</metadata>
<g transform="translate(0.000000,700.000000) scale(0.100000,-0.100000)"
fill="#000000" stroke="none">
<path d="M1154 5982 c-131 -125 -415 -397 -578 -553 -139 -134 -165 -158 -403
-386 -102 -97 -150 -150 -145 -158 4 -7 21 -28 37 -47 17 -18 66 -76 110 -128
44 -52 83 -97 86 -100 3 -3 100 -115 215 -250 115 -135 221 -258 236 -275 14
-16 72 -84 128 -150 56 -66 112 -131 124 -145 12 -14 116 -135 231 -270 115
-135 221 -258 236 -275 15 -16 71 -82 124 -145 54 -63 119 -140 145 -170 43
-50 186 -216 299 -349 25 -30 51 -59 56 -65 6 -6 104 -121 220 -256 115 -135
214 -250 220 -256 5 -6 30 -35 55 -65 79 -94 284 -334 290 -339 3 -3 30 -34
60 -70 30 -36 67 -78 81 -95 15 -16 59 -68 99 -115 77 -90 158 -185 175 -204
6 -6 35 -41 65 -76 77 -91 100 -117 142 -164 l37 -41 45 50 c24 28 78 91 121
140 86 99 96 111 175 205 30 36 57 67 60 70 3 3 73 84 155 180 82 96 162 189
176 205 15 17 127 147 249 290 122 143 244 285 270 315 26 30 120 141 210 245
89 105 174 204 189 220 14 17 172 201 351 410 179 209 337 394 351 410 15 17
181 210 369 430 330 385 386 451 481 560 23 28 50 58 58 69 9 10 21 23 26 30
6 6 52 60 104 120 l95 108 -85 82 c-46 44 -167 160 -269 256 -101 96 -207 197
-234 223 -28 27 -109 103 -180 170 -71 67 -145 138 -165 157 -21 19 -99 94
-174 165 l-137 130 -2244 1 -2244 1 -98 -95z m4467 -267 c30 -26 35 -31 240
-226 96 -91 192 -183 214 -203 22 -21 108 -102 190 -181 83 -78 172 -163 199
-187 l48 -45 -83 -99 c-45 -54 -88 -104 -93 -110 -18 -19 -96 -109 -271 -314
-180 -211 -254 -297 -270 -314 -5 -6 -32 -38 -60 -71 -27 -33 -64 -76 -81 -95
-24 -28 -232 -269 -377 -440 -47 -55 -323 -377 -343 -400 -12 -14 -55 -63 -94
-110 -40 -47 -87 -101 -104 -120 -17 -19 -44 -51 -60 -70 -16 -19 -52 -62 -81
-95 -51 -59 -160 -185 -203 -235 -11 -14 -30 -36 -42 -50 -12 -14 -40 -47 -63
-75 -23 -27 -60 -70 -82 -95 -22 -25 -62 -72 -90 -104 -27 -33 -55 -64 -60
-70 -6 -6 -89 -103 -185 -216 -182 -213 -198 -232 -249 -290 -17 -19 -48 -56
-68 -82 -21 -26 -43 -49 -49 -52 -6 -2 -51 43 -100 101 -49 58 -94 111 -99
117 -17 18 -136 157 -185 216 -25 29 -50 58 -55 64 -6 6 -51 58 -100 116 -49
58 -92 107 -95 110 -3 3 -68 79 -145 170 -77 91 -144 170 -150 176 -25 27 -74
84 -120 139 -27 33 -60 71 -72 85 -48 55 -67 77 -111 129 -26 30 -65 76 -87
101 -131 152 -264 308 -322 376 -42 50 -67 79 -106 124 -12 14 -47 54 -77 90
-30 35 -59 70 -65 76 -5 6 -30 35 -55 64 -25 29 -50 58 -55 64 -6 6 -39 45
-74 86 -136 160 -156 183 -166 194 -6 6 -48 56 -95 111 -46 55 -95 111 -107
125 -12 14 -30 35 -40 46 -10 12 -39 46 -64 75 -25 30 -133 155 -238 279 -106
124 -201 236 -212 248 l-21 24 59 55 c32 31 115 110 184 177 127 122 454 436
586 563 l72 68 2104 0 c2090 0 2105 0 2128 -20z"/>
<path d="M1333 5643 c3 -5 28 -64 57 -133 28 -69 59 -141 67 -160 26 -60 30
-69 121 -290 176 -424 284 -686 298 -715 7 -16 185 -445 396 -952 341 -819
388 -927 428 -974 25 -29 58 -69 75 -88 16 -20 32 -38 35 -41 4 -4 88 -101
146 -170 12 -14 55 -63 95 -110 41 -47 95 -110 121 -140 25 -30 58 -68 72 -85
l26 -30 0 1026 0 1025 230 0 c200 0 230 -2 230 -16 0 -8 1 -469 1 -1024 l0
-1010 22 25 c27 30 140 162 446 518 77 91 147 179 155 195 8 17 87 207 176
421 89 215 172 414 186 443 13 29 24 57 24 62 0 6 4 18 9 28 21 41 47 103 156
367 64 154 120 289 125 300 5 11 66 157 135 325 69 168 133 321 141 340 17 40
30 70 43 103 5 12 16 38 25 58 19 44 238 570 271 652 l24 57 -969 0 -969 0 0
-502 c0 -277 -1 -511 -1 -520 0 -17 -18 -18 -230 -18 l-230 0 0 520 0 520
-971 0 c-533 0 -968 -3 -966 -7z"/>
</g>
</svg>
