<?xml version="1.0" standalone="no"?>
<!DOCTYPE svg PUBLIC "-//W3C//DTD SVG 20010904//EN"
 "http://www.w3.org/TR/2001/REC-SVG-20010904/DTD/svg10.dtd">
<svg version="1.0" xmlns="http://www.w3.org/2000/svg"
 width="2048.000000pt" height="2048.000000pt" viewBox="0 0 2048.000000 2048.000000"
 preserveAspectRatio="xMidYMid meet">
<metadata>
Created by potrace 1.11, written by Peter Selinger 2001-2013
</metadata>
<g transform="translate(0.000000,2048.000000) scale(0.100000,-0.100000)"
fill="#000000" stroke="none">
<path d="M10109 20476 c-2 -2 -25 -7 -51 -10 -78 -11 -214 -54 -291 -92 -312
-157 -517 -425 -587 -763 -19 -95 -20 -152 -20 -3931 0 -2109 -3 -3868 -5
-3909 -2 -40 -7 -87 -10 -105 -34 -175 -83 -295 -180 -441 -38 -58 -217 -245
-234 -245 -5 0 -26 -14 -47 -31 -22 -17 -75 -48 -120 -70 -77 -37 -224 -92
-224 -84 0 3 -11 0 -24 -4 -65 -25 -307 -32 -413 -11 -355 67 -632 276 -790
596 -37 75 -78 206 -93 303 -9 54 -13 650 -15 2340 -1 1246 -6 2284 -10 2306
-64 342 -272 627 -568 778 -104 53 -125 62 -217 86 -105 28 -141 33 -256 36
-130 3 -260 -17 -378 -57 -153 -52 -291 -140 -412 -262 -139 -141 -232 -306
-286 -508 l-23 -83 -2 -3852 -3 -3853 37 -1 c21 0 781 -1 1688 -3 908 -1 1664
-6 1680 -10 17 -4 55 -14 85 -22 30 -8 62 -17 72 -19 80 -18 242 -106 345
-187 111 -87 252 -263 285 -355 7 -18 16 -33 20 -33 4 0 8 -8 8 -18 0 -10 4
-22 9 -28 9 -9 52 -151 68 -224 4 -19 8 -960 10 -2090 2 -1130 4 -2653 6
-3385 l2 -1330 28 -99 c111 -394 405 -681 797 -777 76 -19 123 -23 235 -24
141 0 215 8 285 30 10 3 27 7 37 9 75 15 242 101 340 175 226 170 379 431 419
711 4 30 8 1549 9 3375 2 1826 5 3340 8 3365 9 68 43 191 73 267 136 340 460
598 827 656 71 12 384 14 1734 15 907 0 1653 1 1660 1 9 1 11 879 8 3819 -2
2099 -6 3842 -10 3872 -14 108 -80 303 -127 372 -10 14 -18 29 -18 33 0 17
-101 145 -168 211 -132 131 -335 246 -493 280 -145 30 -326 38 -429 19 -248
-45 -437 -144 -608 -316 -159 -160 -277 -411 -298 -632 -4 -38 -7 -1082 -8
-2321 l-2 -2251 -21 -90 c-63 -261 -214 -486 -429 -641 -66 -46 -156 -96 -249
-135 -46 -19 -175 -49 -240 -56 -136 -14 -318 -3 -400 24 -11 4 -22 7 -25 8
-29 5 -130 45 -190 75 -321 162 -537 467 -586 830 -4 30 -8 1803 -9 3940 -1
3578 -3 3891 -18 3960 -70 316 -240 556 -508 718 -108 66 -194 99 -363 139
-27 6 -311 15 -317 9z"/>
</g>
</svg>
