<?xml version="1.0" encoding="utf-8"?>
<!-- Generator: Adobe Illustrator 23.0.3, SVG Export Plug-In . SVG Version: 6.00 Build 0)  -->
<svg version="1.1" id="Layer_1" xmlns="http://www.w3.org/2000/svg" xmlns:xlink="http://www.w3.org/1999/xlink" x="0px" y="0px"
	 viewBox="0 0 1920 1080" style="enable-background:new 0 0 1920 1080;" xml:space="preserve">
<style type="text/css">
	.st0{fill:#0071BC;}
	.st1{fill:#148ECF;}
	.st2{fill:#2997E2;}
	.st3{fill:#29ABE2;}
</style>
<rect class="st0" width="1920" height="1080"/>
<path class="st1" d="M-0.5,645.5c0,0,68-253,441-250s1146,407,1479,404v280H-0.5V645.5z"/>
<path class="st2" d="M-0.5,949.5c0,0,57-126,663-124s880,167,1257,164v90H-0.5V949.5z"/>
<g>
	<path class="st3" d="M0,1089.5c-5.5,0-10-4.5-10-10V692c0-5.5,4.5-10,10-10h83.9c5.5,0,10,4.5,10,10v187.7c0.6-0.1,1.2-0.2,1.8-0.3
		l37.4-2V756.2c0-3.5,1.8-6.8,4.9-8.6l61.7-37c1.6-0.9,3.4-1.4,5.1-1.4c1.5,0,3.1,0.4,4.5,1.1l59.2,29.6c1.5,0.7,2.7,1.8,3.7,3.1
		l8,11.3l7.8-2.6c1-0.3,2.1-0.5,3.2-0.5c2.1,0,4.1,0.6,5.8,1.9c2.6,1.9,4.2,4.9,4.2,8.1v59.1h17.1c5.5,0,10,4.5,10,10v27.3l56.5,1.8
		v-14.4c0-5,3.7-9.3,8.7-9.9l87.5-11.2V672.3c0-1.4,0.3-2.8,0.9-4.1l43.5-96.8v-25c0-5.5,4.5-10,10-10h9.9c1.3,0,2.6,0.3,3.8,0.8
		l59.2,24.7c3.7,1.6,6.2,5.2,6.2,9.2v17.4l43.4,86.7c0.7,1.4,1.1,2.9,1.1,4.5v234.6c0.1,0,0.2,0,0.3-0.1l54.1-11.3l22.7-54.4
		c1.3-3.1,4.1-5.3,7.3-6L851.3,822V637.8c0-1,0.1-2,0.4-2.9c0.1-0.4,12-38.8,24.5-76.8c7.4-22.4,13.5-40.2,18.3-53.1
		c2.9-7.9,5.3-13.8,7.3-18.1c2.4-5.2,5.7-12.4,13.3-12.4c3.3,0,6.4,1.6,8.4,4.3c4.8,4.9,37.8,24,65.8,39.1c2,1.1,3.5,2.7,4.4,4.8
		l51.8,118.5c0.6,1.3,0.8,2.6,0.8,4v213.3c1.2-0.7,2.5-1.1,3.9-1.2l54.3-4.9c0.3,0,0.6,0,0.9,0c2.5,0,4.9,0.9,6.7,2.6
		c2.1,1.9,3.3,4.6,3.3,7.4v58.4l26.9-17V763.6c0-5.4,4.3-9.8,9.7-10l177.7-4.9c0.1,0,0.2,0,0.3,0c2.6,0,5.1,1,7,2.8
		c1.9,1.9,3,4.5,3,7.2v64h32c5.5,0,10,4.5,10,10V856c1.3-0.7,2.7-1.1,4.2-1.2l30.1-1.9v-7.9c0-3.4,1.8-6.7,4.7-8.5l15-9.4V687.1
		c0-3.7,2.1-7.1,5.3-8.8l93.8-49.4c1.5-0.8,3.1-1.2,4.7-1.2c1.8,0,3.6,0.5,5.2,1.4c3,1.8,4.8,5.1,4.8,8.6v29.5h9.7
		c5.5,0,10,4.5,10,10v145.5h205.5l9-94.6c0.5-5.1,4.8-9.1,10-9.1H1920c5.5,0,10,4.5,10,10v350.4c0,5.5-4.5,10-10,10H0z"/>
	<path class="st0" d="M915.2,484.5c0.2,0,0.3,0.1,0.4,0.2c4.9,7.4,69.1,42,69.1,42l51.8,118.5v239.4l14.8-17.3l54.3-4.9v76.5
		l46.9-29.6V763.6l177.7-4.9v74h42v46.9l14.8-2.5v-12.3l39.5-2.5v-17.3l19.7-12.3V687.1l93.8-49.4v39.5h19.7v155.5h224.6l9.9-103.7
		H1920v350.4H0V692h83.9v217.2l12.3,2.5v-22.2l46.9-2.5V756.2l61.7-37l59.2,29.6l12.3,17.3l14.8-4.9v69.1h27.1v37l76.5,2.5v-24.7
		l96.2-12.3V672.3l44.4-98.7v-27.1h9.9l59.2,24.7v19.7l44.4,88.8v296.1h12.3V924l59.2-12.3l24.7-59.2l116-22.2V637.8
		C861.3,637.8,908.4,484.5,915.2,484.5 M915.2,464.5c-4.3,0-12.5,1.4-18.6,11c-1.2,1.9-2.4,4.2-3.8,7.2c-2.1,4.5-4.6,10.6-7.6,18.7
		c-4.8,13-11.1,30.9-18.5,53.4c-12.5,38.1-24.4,76.6-24.5,77c-0.6,1.9-0.9,3.9-0.9,5.9v176l-99.8,19.1c-6.6,1.3-12.1,5.8-14.7,12
		l-20.6,49.5L669,902V679.7c0-3.1-0.7-6.2-2.1-8.9l-42.3-84.6v-15c0-8.1-4.9-15.4-12.3-18.5L553.1,528c-2.4-1-5.1-1.5-7.7-1.5h-9.9
		c-11,0-20,9-20,20v22.9l-42.7,94.8c-1.2,2.6-1.8,5.4-1.8,8.2v142.8l-78.8,10.1c-10,1.3-17.5,9.8-17.5,19.8v4l-36.5-1.2v-17.7
		c0-11-9-20-20-20h-7.1v-49.1c0-6.4-3.1-12.5-8.3-16.2c-3.4-2.5-7.6-3.8-11.7-3.8c-2.1,0-4.3,0.3-6.3,1l-0.8,0.3l-3.8-5.3
		c-1.9-2.7-4.4-4.8-7.3-6.3l-59.2-29.6c-2.8-1.4-5.9-2.1-8.9-2.1c-3.6,0-7.1,1-10.3,2.8l-61.7,37c-6,3.6-9.7,10.1-9.7,17.2V868
		l-19.2,1V692c0-11-9-20-20-20H0c-11,0-20,9-20,20v387.5c0,11,9,20,20,20h1920c11,0,20-9,20-20V729.1c0-11-9-20-20-20h-125.9
		c-10.3,0-18.9,7.8-19.9,18.1l-8.1,85.5h-186.4V677.2c0-11-8.8-19.9-19.7-20v-19.5c0-7-3.7-13.5-9.7-17.1c-3.2-1.9-6.8-2.9-10.3-2.9
		c-3.2,0-6.4,0.8-9.3,2.3l-93.8,49.4c-6.6,3.5-10.7,10.3-10.7,17.7v134.5l-10.3,6.5c-5.4,3.4-8.9,9.1-9.3,15.4l-14.4,0.9v-11.7
		c0-11-9-20-20-20h-22v-54c0-5.4-2.2-10.6-6.1-14.3c-3.7-3.6-8.7-5.7-13.9-5.7c-0.2,0-0.4,0-0.6,0l-177.7,4.9
		c-10.8,0.3-19.4,9.2-19.4,20v134.6l-6.9,4.4v-40.2c0-5.6-2.4-11-6.5-14.8c-3.7-3.4-8.5-5.2-13.5-5.2c-0.6,0-1.2,0-1.8,0.1
		l-47.3,4.3V645.2c0-2.8-0.6-5.5-1.7-8L1003,518.7c-1.8-4.1-4.9-7.5-8.8-9.6c-25.9-13.9-56.9-31.9-63.3-37.2
		C927,467.2,921.3,464.5,915.2,464.5L915.2,464.5z"/>
</g>
</svg>
