<?xml version="1.0" encoding="utf-8"?>
<!-- Generator: Adobe Illustrator 23.0.3, SVG Export Plug-In . SVG Version: 6.00 Build 0)  -->
<svg version="1.1" id="Layer_1" xmlns="http://www.w3.org/2000/svg" xmlns:xlink="http://www.w3.org/1999/xlink" x="0px" y="0px"
	 viewBox="0 0 1920 1080" style="enable-background:new 0 0 1920 1080;" xml:space="preserve">
<style type="text/css">
	.st0{fill:#0071BC;}
	.st1{fill:#29ABE2;}
</style>
<rect class="st0" width="1920" height="1080"/>
<path class="st1" d="M0,1089.5c-5.5,0-10-4.5-10-10V692c0-5.5,4.5-10,10-10h83.9c5.5,0,10,4.5,10,10v187.7c0.6-0.1,1.2-0.2,1.8-0.3
	l37.4-2V756.2c0-3.5,1.8-6.8,4.9-8.6l61.7-37c1.6-0.9,3.4-1.4,5.1-1.4c1.5,0,3.1,0.4,4.5,1.1l59.2,29.6c1.5,0.7,2.7,1.8,3.7,3.1
	l8,11.3l7.8-2.6c1-0.3,2.1-0.5,3.2-0.5c2.1,0,4.1,0.6,5.8,1.9c2.6,1.9,4.2,4.9,4.2,8.1v59.1h17.1c5.5,0,10,4.5,10,10v27.3l56.5,1.8
	V845c0-5,3.7-9.3,8.7-9.9l87.5-11.2V672.3c0-1.4,0.3-2.8,0.9-4.1l43.5-96.8v-25c0-5.5,4.5-10,10-10h9.9c1.3,0,2.6,0.3,3.8,0.8
	l59.2,24.7c3.7,1.6,6.2,5.2,6.2,9.2v17.4l43.4,86.7c0.7,1.4,1.1,2.9,1.1,4.5v234.6c0.1,0,0.2,0,0.3-0.1l54.1-11.3l22.7-54.4
	c1.3-3.1,4.1-5.3,7.3-6L851.3,822V637.8c0-1,0.1-2,0.4-2.9c0.1-0.4,12-38.8,24.5-76.8c7.4-22.4,13.5-40.2,18.3-53.1
	c2.9-7.9,5.3-13.8,7.3-18.1c2.4-5.2,5.7-12.4,13.3-12.4c3.3,0,6.4,1.6,8.4,4.3c4.8,4.9,37.8,24,65.8,39.1c2,1.1,3.5,2.7,4.4,4.8
	l51.8,118.5c0.6,1.3,0.8,2.6,0.8,4v213.3c1.2-0.7,2.5-1.1,3.9-1.2l54.3-4.9c0.3,0,0.6,0,0.9,0c2.5,0,4.9,0.9,6.7,2.6
	c2.1,1.9,3.3,4.6,3.3,7.4v58.4l26.9-17V763.6c0-5.4,4.3-9.8,9.7-10l177.7-4.9c0.1,0,0.2,0,0.3,0c2.6,0,5.1,1,7,2.8
	c1.9,1.9,3,4.5,3,7.2v64h32c5.5,0,10,4.5,10,10V856c1.3-0.7,2.7-1.1,4.2-1.2l30.1-1.9V845c0-3.4,1.8-6.7,4.7-8.5l15-9.4v-140
	c0-3.7,2.1-7.1,5.3-8.8l93.8-49.4c1.5-0.8,3.1-1.2,4.7-1.2c1.8,0,3.6,0.5,5.2,1.4c3,1.8,4.8,5.1,4.8,8.6v29.5h9.7
	c5.5,0,10,4.5,10,10v145.5H1775l9-94.6c0.5-5.1,4.8-9.1,10-9.1h126c5.5,0,10,4.5,10,10v350.4c0,5.5-4.5,10-10,10L0,1089.5L0,1089.5z
	"/>
<path class="st0" d="M915.2,484.5c0.2,0,0.3,0.1,0.4,0.2c4.5,6.8,59.8,36.9,68.1,41.4c0.7,0.4,1.2,0.9,1.5,1.7l51,116.8
	c0.2,0.4,0.3,0.9,0.3,1.4v229.3c0,3.2,4,4.7,6.1,2.2l7.8-9.1c0.6-0.7,1.4-1.1,2.3-1.2l49.1-4.4c2-0.2,3.8,1.4,3.8,3.4v66.5
	c0,2.7,3,4.4,5.3,2.9l40-25.2c1-0.6,1.6-1.7,1.6-2.9V767c0-1.9,1.5-3.4,3.4-3.4l170.8-4.7c1.9-0.1,3.5,1.5,3.5,3.4v67
	c0,1.9,1.5,3.5,3.4,3.5h35.1c1.9,0,3.4,1.5,3.4,3.5v39.4c0,2.1,1.9,3.8,4,3.4l7.9-1.3c1.7-0.3,2.9-1.7,2.9-3.4V868
	c0-1.8,1.4-3.3,3.2-3.4l33-2.1c1.8-0.1,3.2-1.6,3.2-3.4v-12.1c0-1.2,0.6-2.3,1.6-2.9l16.5-10.3c1-0.6,1.6-1.7,1.6-2.9V689.2
	c0-1.3,0.7-2.5,1.8-3.1l86.9-45.8c2.3-1.2,5.1,0.5,5.1,3.1v30.3c0,1.9,1.5,3.5,3.4,3.5h12.8c1.9,0,3.4,1.5,3.4,3.5v148.6
	c0,1.9,1.5,3.5,3.4,3.5h218c1.8,0,3.3-1.4,3.4-3.1l9.3-97.5c0.2-1.8,1.7-3.1,3.4-3.1h119.2c1.9,0,3.4,1.5,3.4,3.5v343.5
	c0,1.9-1.5,3.4-3.4,3.4H3.5c-1.9,0-3.5-1.5-3.5-3.4V695.5c0-1.9,1.5-3.5,3.5-3.5h77c1.9,0,3.5,1.5,3.5,3.5v210.9
	c0,1.6,1.2,3.1,2.8,3.4l5.4,1.1c2.1,0.4,4.1-1.2,4.1-3.4v-14.7c0-1.8,1.4-3.3,3.3-3.4l40.4-2.2c1.8-0.1,3.3-1.6,3.3-3.4V758.2
	c0-1.2,0.6-2.3,1.7-3l58.4-35c1-0.6,2.3-0.7,3.3-0.1l56.7,28.4c0.5,0.3,0.9,0.6,1.3,1.1l10.3,14.5c0.9,1.2,2.5,1.8,3.9,1.3l7.8-2.6
	c2.2-0.7,4.5,0.9,4.5,3.3v60.9c0,1.9,1.5,3.5,3.5,3.5h20.2c1.9,0,3.5,1.5,3.5,3.5V864c0,1.9,1.5,3.4,3.3,3.4l69.6,2.3
	c1.9,0.1,3.6-1.5,3.6-3.4v-18.1c0-1.7,1.3-3.2,3-3.4l90.2-11.5c1.7-0.2,3-1.7,3-3.4V673c0-0.5,0.1-1,0.3-1.4l43.8-97.3
	c0.2-0.4,0.3-0.9,0.3-1.4V550c0-1.9,1.5-3.5,3.5-3.5h5.8c0.5,0,0.9,0.1,1.3,0.3l56.4,23.5c1.3,0.5,2.1,1.8,2.1,3.2v16.6
	c0,0.5,0.1,1.1,0.4,1.5l43.7,87.3c0.2,0.5,0.4,1,0.4,1.5v291.8c0,1.9,1.5,3.5,3.5,3.5h5.4c1.9,0,3.5-1.5,3.5-3.5v-45.5
	c0-1.6,1.1-3,2.7-3.4l54.7-11.4c1.1-0.2,2-1,2.5-2l23.3-55.8c0.4-1.1,1.4-1.8,2.5-2.1l111.4-21.3c1.6-0.3,2.8-1.7,2.8-3.4v-189
	c0-0.4,0.1-0.7,0.2-1.1C864.4,627.8,908.6,484.5,915.2,484.5 M915.2,464.5c-4.3,0-12.5,1.4-18.6,11c-1.2,1.9-2.4,4.2-3.8,7.2
	c-2.1,4.5-4.6,10.6-7.6,18.7c-4.8,13-11.1,30.9-18.5,53.4c-12.5,38.1-24.4,76.6-24.5,77c-0.6,1.9-0.9,3.9-0.9,5.9v173.1
	c0,1.7-1.2,3.1-2.8,3.4l-97,18.6c-6.6,1.3-12.1,5.8-14.7,12l-19.9,47.8c-0.4,1.1-1.4,1.8-2.5,2.1l-31.3,6.5
	c-2.1,0.4-4.1-1.2-4.1-3.4V679.7c0-3.1-0.7-6.2-2.1-8.9L625,586.9c-0.2-0.5-0.4-1-0.4-1.5v-14.2c0-8.1-4.9-15.4-12.3-18.5L553.1,528
	c-2.4-1-5.1-1.5-7.7-1.5h-6.5c-12.9,0-23.5,10.6-23.5,23.5v18.7c0,0.5-0.1,1-0.3,1.4l-42.4,94.1c-1.2,2.6-1.8,5.4-1.8,8.2v139.8
	c0,1.7-1.3,3.2-3,3.4l-75.8,9.7c-10,1.3-17.5,9.8-17.5,19.8v0.4c0,1.9-1.6,3.5-3.6,3.4l-29.6-1c-1.9-0.1-3.3-1.6-3.3-3.4v-10.9
	c0-12.9-10.6-23.5-23.5-23.5h-0.2c-1.9,0-3.5-1.5-3.5-3.5v-45.6c0-6.4-3.1-12.5-8.3-16.2c-3.4-2.5-7.6-3.8-11.7-3.8
	c-2.1,0-4.3,0.3-6.3,1l-0.8,0.3l-3.8-5.3c-1.9-2.7-4.4-4.8-7.3-6.3l-59.2-29.6c-2.8-1.4-5.9-2.1-8.9-2.1c-3.6,0-7.1,1-10.3,2.8
	l-61.7,37c-6,3.6-9.7,10.1-9.7,17.2v108.6c0,1.8-1.4,3.3-3.3,3.4l-12.3,0.6c-2,0.1-3.6-1.5-3.6-3.4V695.5
	c0-12.9-10.6-23.5-23.5-23.5h-77C-9.4,672-20,682.6-20,695.5v380.6c0,12.9,10.6,23.4,23.5,23.4h1913.1c12.9,0,23.4-10.6,23.4-23.4
	V732.5c0-12.9-10.6-23.5-23.4-23.5h-122.5c-10.3,0-18.9,7.8-19.9,18.1l-7.8,82.4c-0.2,1.8-1.7,3.1-3.4,3.1h-179.8
	c-1.9,0-3.4-1.5-3.4-3.5v-132c0-10-7.3-18.3-16.8-19.8c-1.7-0.3-2.9-1.7-2.9-3.4v-16.3c0-7-3.7-13.5-9.7-17.1
	c-3.2-1.9-6.8-2.9-10.3-2.9c-3.2,0-6.4,0.8-9.3,2.3l-93.8,49.4c-6.6,3.5-10.7,10.3-10.7,17.7v132.6c0,1.2-0.6,2.3-1.6,2.9l-8.7,5.5
	c-4.7,2.9-7.9,7.6-9,12.8c-0.3,1.5-1.6,2.7-3.2,2.8l-7.9,0.5c-2,0.1-3.7-1.5-3.7-3.4v-4.6c0-12.9-10.6-23.5-23.4-23.5h-15.1
	c-1.9,0-3.4-1.5-3.4-3.5v-50.5c0-5.4-2.2-10.6-6.1-14.3c-3.7-3.6-8.7-5.7-13.9-5.7c-0.2,0-0.4,0-0.6,0l-177.7,4.9
	c-10.8,0.3-19.4,9.2-19.4,20v132.7c0,1.2-0.6,2.3-1.6,2.9l0,0c-2.3,1.5-5.3-0.2-5.3-2.9v-33.9c0-5.6-2.4-11-6.5-14.8
	c-3.7-3.4-8.5-5.2-13.5-5.2c-0.6,0-1.2,0-1.8,0.1l-43.5,4c-2,0.2-3.8-1.4-3.8-3.4V645.2c0-2.8-0.6-5.5-1.7-8L1003,518.7
	c-1.8-4.1-4.9-7.5-8.8-9.6c-25.6-13.7-56.2-31.5-63.1-37c-0.2-0.1-0.3-0.3-0.4-0.4C926.8,467.1,921.2,464.5,915.2,464.5L915.2,464.5
	z"/>
</svg>
