<?xml version="1.0" encoding="utf-8"?>
<!-- Generator: Adobe Illustrator 17.0.0, SVG Export Plug-In . SVG Version: 6.00 Build 0)  -->
<!DOCTYPE svg PUBLIC "-//W3C//DTD SVG 1.1//EN" "http://www.w3.org/Graphics/SVG/1.1/DTD/svg11.dtd">
<svg version="1.1" id="Layer_1" xmlns="http://www.w3.org/2000/svg" xmlns:xlink="http://www.w3.org/1999/xlink" x="0px" y="0px"
	 width="2048px" height="2048px" viewBox="0 0 2048 2048" enable-background="new 0 0 2048 2048" xml:space="preserve">
<linearGradient id="SVGID_1_" gradientUnits="userSpaceOnUse" x1="920" y1="626" x2="-1123.2043" y2="-1417.2043" gradientTransform="matrix(1 0 0 1 1128 1422)">
	<stop  offset="0" style="stop-color:#9976B7"/>
	<stop  offset="1" style="stop-color:#2393C1"/>
</linearGradient>
<rect display="none" fill="url(#SVGID_1_)" stroke="#FFFFFF" stroke-miterlimit="10" width="2048" height="2048"/>
<g display="none">
	
		<linearGradient id="SVGID_2_" gradientUnits="userSpaceOnUse" x1="-1106.5" y1="-398" x2="898.5" y2="-398" gradientTransform="matrix(1 0 0 1 1128 1422)">
		<stop  offset="0" style="stop-color:#386CB0"/>
		<stop  offset="1" style="stop-color:#AA1382"/>
	</linearGradient>
	<path display="inline" fill="url(#SVGID_2_)" d="M1024,2026.5c-135.342,0-266.629-26.504-390.214-78.776
		c-119.375-50.491-226.588-122.777-318.66-214.849s-164.358-199.285-214.849-318.66C48.004,1290.63,21.5,1159.342,21.5,1024
		s26.504-266.629,78.776-390.214c50.491-119.375,122.777-226.588,214.849-318.66s199.285-164.358,318.66-214.849
		C757.371,48.004,888.658,21.5,1024,21.5s266.63,26.504,390.215,78.776c119.375,50.491,226.588,122.777,318.66,214.849
		c92.071,92.072,164.357,199.285,214.849,318.66C1999.996,757.371,2026.5,888.658,2026.5,1024s-26.504,266.63-78.776,390.215
		c-50.491,119.375-122.777,226.588-214.849,318.66c-92.072,92.071-199.285,164.357-318.66,214.849
		C1290.63,1999.996,1159.342,2026.5,1024,2026.5z"/>
	<path display="inline" fill="#FFFFFF" d="M1024,34c67.187,0,134.323,6.767,199.546,20.114
		c63.552,13.005,126.064,32.409,185.799,57.675c58.656,24.81,115.232,55.518,168.156,91.273
		c52.427,35.419,101.729,76.097,146.535,120.903s85.483,94.107,120.903,146.535c35.755,52.924,66.463,109.5,91.273,168.156
		c25.266,59.735,44.67,122.247,57.675,185.799C2007.233,889.677,2014,956.813,2014,1024s-6.767,134.323-20.114,199.546
		c-13.005,63.552-32.409,126.064-57.675,185.799c-24.81,58.656-55.518,115.232-91.273,168.156
		c-35.419,52.427-76.097,101.729-120.903,146.535c-44.806,44.806-94.107,85.483-146.535,120.903
		c-52.924,35.755-109.5,66.463-168.156,91.273c-59.735,25.266-122.247,44.67-185.799,57.675
		C1158.323,2007.233,1091.187,2014,1024,2014s-134.323-6.767-199.546-20.114c-63.552-13.005-126.064-32.409-185.799-57.675
		c-58.656-24.81-115.232-55.518-168.156-91.273c-52.427-35.419-101.729-76.097-146.535-120.903
		c-44.806-44.806-85.483-94.107-120.903-146.535c-35.755-52.924-66.463-109.5-91.273-168.156
		c-25.266-59.735-44.67-122.247-57.675-185.799C40.767,1158.323,34,1091.187,34,1024s6.767-134.323,20.114-199.546
		c13.005-63.552,32.409-126.064,57.675-185.799c24.81-58.656,55.518-115.232,91.273-168.156
		c35.419-52.427,76.097-101.729,120.903-146.535s94.107-85.483,146.535-120.903c52.924-35.755,109.5-66.463,168.156-91.273
		c59.735-25.266,122.247-44.67,185.799-57.675C889.677,40.767,956.813,34,1024,34 M1024,9C463.431,9,9,463.431,9,1024
		s454.431,1015,1015,1015s1015-454.431,1015-1015S1584.569,9,1024,9L1024,9z"/>
</g>
<path fill="#FFFFFF" d="M1749.243,963.235c-86.4-168-273.6-265.638-273.6-265.638l24-19.162l-41.6-8l24-36.8l-33.6,9.6
	c6.4-30.4-49.6-62.4-38.4-46.4s0,35.2,0,35.2l-17.6-24l-9.6,19.2c-20.8-91.2-124.8-211.2-124.8-211.2v27.2
	c-17.6-48-171.2-139.2-171.2-139.2v17.6c-113.6-76.8-233.6-62.4-233.6-62.4l19.2,14.4c-371.2,100.267-345.6-25.6-345.6-25.6
	c-34.133,68.267,89.6,160,89.6,160c-241.065,12.8-315.733,128-315.733,128s78.933-10.666,96-27.733
	c17.066-17.067,110.933,6.4,130.133,19.2s-121.6,32-121.6,32l108.8,19.2c-247.466,57.6-270.933,166.4-270.933,166.4
	c119.467-74.134,330.133-37.867,301.333-37.867s-142.4,75.2-142.4,75.2s155.2,4.8,105.6,9.6s-134.4,238.4-89.6,168
	s177.6-76.8,177.6-76.8s-86.4,107.2-84.8,120c1.6,12.8,203.2-59.2,203.2-59.2s-94.4,137.6-17.6,67.2s161.6-41.6,161.6-41.6
	s-81.6,11.2-83.2,28.8c-1.6,17.6,92.8,43.2,92.8,43.2l115.2-1.6l-92.8,40c12.8,54.4,372.8-43.2,372.8-43.2
	c102.4,48,459.2,28.8,459.2,28.8l73.6,80C1795.643,1145.635,1835.643,1131.235,1749.243,963.235z M1221.405,632.435
	c-24,1.6-112-26.4-112-26.4s-64.178-27.2-107.688-12s3.688-24,3.688-24s-22.4-95.2,43.2-86.4c65.6,8.8,138.4,93.6,138.4,93.6
	s34.4,26.4,39.2,22.4c4.8-4,24.8-15.2,24-23.2s4,32.8,4,32.8S1245.405,630.835,1221.405,632.435z"/>
<g display="none">
	<circle display="inline" fill="none" cx="1024" cy="1024" r="800"/>
	<path display="inline" fill="#FFFFFF" d="M489.856,432.656c-7.789,6.89-16.293,10.408-25.512,10.552s-17.096-3.477-23.635-10.869
		c-7.066-7.988-9.515-16.992-7.343-27.016c2.171-10.019,7.801-19.05,16.89-27.09c8.088-7.156,16.054-11.533,23.898-13.131
		l-1.855-2.098c-4.771-5.393-10.44-8.075-17.006-8.054c-6.565,0.026-12.546,2.42-17.938,7.191
		c-3.995,3.534-6.775,7.688-8.343,12.454c-1.566,4.77-1.491,9.331,0.226,13.687l-17.353,5.738
		c-2.19-5.894-2.447-12.923-0.766-21.087c1.681-8.162,6.615-15.865,14.805-23.109c9.386-8.304,19.605-12.446,30.656-12.435
		c11.051,0.017,20.994,5.018,29.828,15.003l39.226,44.339l-13.183,11.662l-9.012-10.187l-0.598,0.53
		C504.771,411.985,500.44,423.292,489.856,432.656z M480.972,418.084c5.691-5.035,8.984-11.728,9.871-20.082
		c0.891-8.352-1.228-15.423-6.352-21.216c-6.721,0.25-13.978,3.82-21.768,10.71c-6.69,5.92-10.453,11.831-11.285,17.729
		c-0.833,5.902,0.473,10.797,3.918,14.691c3.18,3.595,7.245,5.073,12.197,4.431C472.503,423.707,476.976,421.62,480.972,418.084z"/>
	<path display="inline" fill="#FFFFFF" d="M536.377,385.351l-52.121-82.99L499.159,293l7.234,11.518l0.678-0.426
		c-0.111-5.439,1.422-11.085,4.595-16.938c3.175-5.851,7.188-10.3,12.045-13.351c12.872-8.084,24.954-8.27,36.25-0.566
		c0.11-14.867,6.431-26.239,18.964-34.11c9.822-6.169,19.185-7.68,28.09-4.534c8.903,3.147,16.726,10.083,23.461,20.81l31.91,50.811
		L646.805,316l-30.421-48.439c-5.248-8.354-10.494-13.325-15.742-14.912c-5.246-1.584-10.978-0.427-17.186,3.471
		c-6.098,3.83-9.52,9.603-10.266,17.312c-0.746,7.712,0.973,14.899,5.156,21.56l28.826,45.899l-15.582,9.786l-30.422-48.439
		c-5.246-8.354-10.494-13.325-15.741-14.912c-5.246-1.584-10.978-0.427-17.187,3.472c-6.098,3.829-9.52,9.602-10.266,17.312
		c-0.746,7.712,0.974,14.898,5.156,21.559l28.826,45.899L536.377,385.351z"/>
	<path display="inline" fill="#FFFFFF" d="M720.151,287.182c-13.67,5.671-26.676,5.727-39.016,0.162
		c-12.342-5.561-21.396-15.3-27.17-29.218c-5.467-13.177-6.011-26.231-1.633-39.164c4.379-12.931,13.034-22.08,25.966-27.445
		c13.422-5.568,25.982-5.653,37.677-0.257c11.693,5.4,20.582,15.425,26.662,30.08l1.117,3.217l-71.491,29.659
		c4.272,8.913,10.31,14.852,18.11,17.821c7.801,2.972,15.457,2.898,22.971-0.219c12.192-5.058,18.296-13.653,18.316-25.788
		l17.754-0.003c-0.044,8.246-2.471,16.148-7.275,23.696C737.331,277.273,730.003,283.094,720.151,287.182z M720.012,217.95
		c-2.515-5.019-6.931-8.959-13.243-11.828c-6.313-2.865-13.783-2.51-22.401,1.065c-6.282,2.606-10.913,6.838-13.896,12.694
		c-2.983,5.859-3.96,12.468-2.924,19.834L720.012,217.95z"/>
	<path display="inline" fill="#FFFFFF" d="M791.886,258.22l-17.658,5.174L746.67,169.35l16.89-4.949l4.499,15.354l0.769-0.225
		c0.291-5.641,2.733-10.942,7.324-15.901c4.592-4.957,9.507-8.205,14.756-9.743c5.245-1.537,9.884-2.062,13.918-1.577l-1.881,18.475
		c-2.565-0.218-5.834,0.251-9.799,1.412c-6.399,1.875-11.32,6.063-14.764,12.559c-3.446,6.5-3.968,13.843-1.568,22.03
		L791.886,258.22z"/>
	<path display="inline" fill="#FFFFFF" d="M835.258,120.773c-1.936,3.018-4.66,4.908-8.177,5.677
		c-3.518,0.769-6.786,0.188-9.799-1.748c-3.017-1.932-4.908-4.66-5.677-8.177c-0.769-3.517-0.187-6.782,1.748-9.799
		c1.933-3.013,4.659-4.909,8.177-5.677c3.517-0.769,6.782-0.184,9.799,1.748c3.014,1.936,4.908,4.66,5.676,8.176
		C837.774,114.491,837.19,117.76,835.258,120.773z M861.433,240.546l-17.977,3.929l-20.922-95.74l17.976-3.928L861.433,240.546z"/>
	<path display="inline" fill="#FFFFFF" d="M925.761,233.234c-14.55,1.867-27.149-1.522-37.803-10.171
		c-10.656-8.644-16.932-20.375-18.833-35.188c-1.9-14.81,1.209-27.745,9.335-38.804c8.125-11.056,19.461-17.52,34.01-19.387
		c10.842-1.392,20.177,0.101,27.997,4.472c7.82,4.375,13.901,10.383,18.243,18.024l-15.772,9.083
		c-6.589-11.521-16.427-16.443-29.519-14.762c-8.068,1.035-14.752,5.255-20.053,12.656c-5.301,7.404-7.298,16.195-5.99,26.377
		c1.307,10.185,5.459,18.188,12.458,24.009c6.999,5.825,14.53,8.217,22.599,7.181c13.619-1.748,22.229-9.035,25.826-21.866
		l17.158,4.855c-2.289,8.359-6.76,15.688-13.412,21.986C945.354,227.997,936.604,231.842,925.761,233.234z"/>
	<path display="inline" fill="#FFFFFF" d="M1010.54,227.263c-10.401,0.058-19.117-2.893-26.15-8.855
		c-7.033-5.96-10.577-13.872-10.633-23.74c-0.059-10.666,4.025-19.055,12.261-25.169c8.231-6.111,18.415-9.203,30.549-9.271
		c10.8-0.06,19.677,1.891,26.633,5.853l-0.017-2.8c-0.039-7.2-2.54-12.952-7.494-17.259c-4.959-4.304-11.037-6.438-18.236-6.398
		c-5.335,0.03-10.162,1.326-14.479,3.881c-4.321,2.558-7.268,6.04-8.843,10.449l-16.84-7.106c2.233-5.877,6.668-11.337,13.31-16.374
		c6.637-5.037,15.424-7.586,26.357-7.647c12.531-0.07,22.951,3.541,31.261,10.826c8.306,7.289,12.498,17.6,12.572,30.931
		l0.329,59.199l-17.599,0.098l-0.077-13.6l-0.799,0.004C1035.373,221.525,1024.669,227.185,1010.54,227.263z M1013.445,210.447
		c7.601-0.042,14.483-2.912,20.652-8.615c6.169-5.7,9.231-12.417,9.188-20.152c-5.224-4.237-13.035-6.327-23.436-6.269
		c-8.934,0.049-15.657,2.021-20.168,5.912c-4.512,3.894-6.752,8.438-6.723,13.637c0.026,4.8,2.112,8.589,6.263,11.366
		C1003.369,209.104,1008.11,210.477,1013.445,210.447z"/>
	<path display="inline" fill="#FFFFFF" d="M1094.063,127.104l-8.106-6.294l12.025-14.252c-2.881-0.773-5.293-2.347-7.234-4.716
		c-1.944-2.369-2.776-5.214-2.5-8.537c0.31-3.718,1.901-6.796,4.782-9.235c2.878-2.436,6.178-3.5,9.899-3.19
		c3.718,0.31,6.797,1.905,9.234,4.783c2.436,2.88,3.499,6.18,3.189,9.898c-0.32,3.855-2.723,8.604-7.207,14.251L1094.063,127.104z"
		/>
	<path display="inline" fill="#FFFFFF" d="M1148.274,236.892c-10.807-1.668-19.328-5.684-25.563-12.041
		c-6.238-6.356-10.395-13.746-12.466-22.161l17.245-4.219c3.268,12.919,11.095,20.331,23.482,22.243
		c5.664,0.875,10.502,0.34,14.515-1.605c4.009-1.942,6.33-4.958,6.962-9.044c0.975-6.324-2.78-11.287-11.262-14.891l-18.836-7.764
		c-5.951-2.538-11.351-6.438-16.203-11.709c-4.854-5.268-6.699-11.658-5.541-19.169c1.322-8.565,6.182-14.933,14.585-19.099
		c8.399-4.168,17.805-5.448,28.216-3.841c8.564,1.322,15.908,4.448,22.029,9.37c6.119,4.926,10.068,11.236,11.85,18.93
		l-16.818,4.082c-2.236-9.114-8.957-14.537-20.154-16.266c-5.405-0.833-10.125-0.414-14.158,1.255
		c-4.036,1.673-6.348,4.418-6.938,8.238c-0.854,5.535,2.847,9.951,11.109,13.25l18.472,7.505
		c8.766,3.513,14.928,8.173,18.483,13.983s4.833,11.946,3.837,18.401c-1.342,8.697-6.018,15.396-14.029,20.095
		C1169.081,237.134,1159.473,238.62,1148.274,236.892z"/>
	<path display="inline" fill="#FFFFFF" d="M1326.241,129.505c5.558,1.876,9.955,4.278,13.19,7.198l-11.118,12.922
		c-1.681-1.692-4.163-3.094-7.446-4.203c-4.548-1.536-8.734-1.436-12.556,0.298c-3.824,1.736-6.608,5.194-8.356,10.372
		l-3.968,11.749l59.121,19.962l-31.35,92.851l-17.434-5.886l25.977-76.933l-41.688-14.076l-25.977,76.933l-17.434-5.886
		l25.977-76.932l-17.434-5.886l5.375-15.918l17.433,5.886l4.159-12.316c3.199-9.476,8.79-16.031,16.772-19.668
		C1307.47,126.333,1316.388,126.179,1326.241,129.505z M1362.979,164.496c-3.212,1.591-6.521,1.809-9.933,0.657
		c-3.41-1.151-5.912-3.332-7.501-6.542c-1.591-3.21-1.808-6.522-0.657-9.932c1.152-3.412,3.332-5.911,6.543-7.501
		c3.209-1.589,6.521-1.81,9.934-0.658c3.41,1.152,5.908,3.334,7.5,6.543c1.588,3.211,1.809,6.521,0.657,9.932
		S1366.187,162.908,1362.979,164.496z"/>
	<path display="inline" fill="#FFFFFF" d="M1401.029,208.345l-6.054,12.178l0.717,0.356c4.463-2.991,9.988-4.672,16.579-5.046
		c6.586-0.373,12.807,0.895,18.657,3.803c10.863,5.401,17.501,12.871,19.908,22.405c2.405,9.537,0.819,19.916-4.76,31.137
		l-26.709,53.727l-16.477-8.19l25.463-51.22c8.072-16.236,4.885-27.948-9.561-35.129c-6.806-3.383-13.708-3.426-20.706-0.132
		c-6.999,3.297-12.279,8.525-15.841,15.689l-24.128,48.533l-16.476-8.191l43.626-87.753L1401.029,208.345z"/>
	<path display="inline" fill="#FFFFFF" d="M1469.301,363.062c-12.286-8.251-19.526-19.056-21.715-32.414
		c-2.194-13.358,0.912-26.288,9.315-38.797c7.953-11.842,18.527-19.515,31.724-23.021c13.196-3.504,25.604-1.354,37.227,6.452
		c12.063,8.102,19.081,18.519,21.054,31.247c1.969,12.729-1.467,25.679-10.313,38.849l-2.063,2.711l-64.252-43.156
		c-5.062,8.488-6.671,16.803-4.828,24.944c1.838,8.143,6.134,14.48,12.886,19.016c10.958,7.36,21.494,7.691,31.616,0.997
		l9.822,14.789c-6.896,4.525-14.82,6.874-23.767,7.045C1487.058,371.895,1478.155,369.008,1469.301,363.062z M1526.901,324.653
		c2.791-4.872,3.631-10.73,2.529-17.575c-1.105-6.845-5.532-12.871-13.278-18.073c-5.646-3.792-11.733-5.31-18.261-4.557
		c-6.531,0.756-12.578,3.599-18.142,8.536L1526.901,324.653z"/>
	<path display="inline" fill="#FFFFFF" d="M1545.192,421.248c-8.283-7.139-13.385-15.059-15.305-23.753
		c-1.924-8.696-1.534-17.165,1.165-25.399l16.862,5.556c-4.072,12.688-1.359,23.121,8.135,31.304
		c4.342,3.742,8.729,5.851,13.162,6.327c4.429,0.476,7.994-0.852,10.693-3.983c4.18-4.848,3.622-11.045-1.662-18.596l-11.863-16.563
		c-3.703-5.306-6.217-11.474-7.542-18.514s0.493-13.438,5.455-19.194c5.657-6.564,13.151-9.391,22.486-8.475
		c9.331,0.915,17.987,4.811,25.967,11.688c6.563,5.658,11.138,12.199,13.722,19.616c2.582,7.42,2.588,14.864,0.025,22.333
		l-16.429-5.447c2.931-8.914,0.104-17.073-8.479-24.471c-4.143-3.571-8.367-5.715-12.674-6.435
		c-4.31-0.719-7.725,0.385-10.248,3.313c-3.656,4.242-2.855,9.948,2.404,17.122l11.691,16.151c5.575,7.623,8.333,14.839,8.271,21.65
		c-0.063,6.812-2.229,12.694-6.492,17.641c-5.745,6.665-13.261,9.871-22.544,9.613
		C1562.71,432.474,1553.774,428.646,1545.192,421.248z"/>
	<path display="inline" fill="#FFFFFF" d="M1612.747,484.399c-7.113-7.407-10.566-14.948-10.363-22.631
		c0.204-7.68,3.914-14.984,11.127-21.911l37.076-35.599l-11.912-12.407l12.117-11.635l11.914,12.407l21.64-20.778l12.744,13.272
		l-21.642,20.778l16.622,17.312l-12.117,11.636l-16.622-17.313l-36.066,34.629c-7.695,7.389-8.494,14.255-2.399,20.603
		c2.306,2.403,4.629,4.055,6.972,4.951l-6.965,15.559C1620.853,491.587,1616.809,488.63,1612.747,484.399z"/>
</g>
<g display="none">
	<circle display="inline" fill="none" cx="1024" cy="973.038" r="1015"/>
	<path display="inline" fill="#FFFFFF" d="M643.094,1757.868l-18.609,41.191l-6.329,12.064l0.729,0.329
		c4.35-3.154,9.81-5.039,16.382-5.657c6.567-0.616,12.831,0.42,18.786,3.11c11.055,4.995,17.964,12.214,20.723,21.652
		c2.757,9.441,1.557,19.872-3.603,31.292l-24.703,54.679l-16.768-7.575l23.55-52.127c7.465-16.523,3.846-28.11-10.855-34.752
		c-6.926-3.129-13.826-2.916-20.697,0.636c-6.873,3.554-11.955,8.974-15.249,16.265l-22.314,49.393l-16.769-7.575l58.958-130.5
		L643.094,1757.868z"/>
	<path display="inline" fill="#FFFFFF" d="M703.609,1939.85c-9.901-3.183-17.266-8.7-22.095-16.554s-5.734-16.476-2.715-25.872
		c3.263-10.153,9.756-16.854,19.485-20.103c9.725-3.245,20.364-3.014,31.917,0.699c10.282,3.304,18.111,7.921,23.489,13.851
		l0.857-2.666c2.203-6.854,1.616-13.1-1.752-18.734c-3.373-5.634-8.484-9.554-15.338-11.757c-5.079-1.632-10.069-1.903-14.967-0.818
		c-4.902,1.087-8.786,3.479-11.655,7.179l-13.792-11.995c3.952-4.892,9.866-8.699,17.744-11.419
		c7.876-2.721,17.019-2.408,27.429,0.937c11.931,3.834,20.709,10.509,26.338,20.019c5.625,9.512,6.4,20.615,2.321,33.308
		l-18.112,56.361l-16.756-5.385l4.161-12.948l-0.762-0.245C728.996,1942.125,717.063,1944.173,703.609,1939.85z M711.605,1924.772
		c7.236,2.325,14.671,1.741,22.308-1.759c7.636-3.497,12.637-8.928,15.003-16.291c-3.646-5.652-10.418-10.07-20.32-13.252
		c-8.506-2.733-15.509-2.953-21.006-0.659c-5.5,2.297-9.044,5.917-10.635,10.868c-1.468,4.569-0.665,8.819,2.415,12.75
		C702.448,1920.359,706.527,1923.141,711.605,1924.772z"/>
	<path display="inline" fill="#FFFFFF" d="M824.663,1971.741c-14.377-2.91-25.218-10.17-32.525-21.785
		c-7.311-11.612-9.481-24.738-6.519-39.375c2.962-14.635,10.066-25.884,21.317-33.742c11.248-7.856,24.059-10.333,38.437-7.423
		c10.714,2.168,19.073,6.583,25.072,13.236c5.999,6.656,9.824,14.302,11.479,22.933l-17.854,3.528
		c-2.535-13.027-10.268-20.852-23.206-23.47c-7.973-1.613-15.657,0.233-23.057,5.536c-7.399,5.307-12.117,12.989-14.153,23.051
		c-2.037,10.064-0.678,18.978,4.077,26.74c4.754,7.766,11.116,12.452,19.089,14.066c13.458,2.724,23.955-1.407,31.486-12.401
		l14.686,10.114c-4.855,7.18-11.443,12.683-19.768,16.507C844.899,1973.082,835.377,1973.909,824.663,1971.741z"/>
	<path display="inline" fill="#FFFFFF" d="M924.76,1839.465l-8.037,87.833l46.142-38.958l23.502,2.15l-0.073,0.797l-41.522,34.561
		l34.531,61.603l-0.073,0.797l-22.107-2.023l-26.462-48.813l-16.087,13.39l-2.861,31.27l-18.324-1.677l13.048-142.604
		L924.76,1839.465z"/>
	<path display="inline" fill="#FFFFFF" d="M1028.352,1991.299c-10.399,0.169-19.146-2.69-26.243-8.576s-10.725-13.759-10.884-23.626
		c-0.173-10.665,3.822-19.096,11.991-25.298c8.167-6.199,18.316-9.398,30.448-9.595c10.799-0.176,19.696,1.681,26.694,5.567
		l-0.046-2.799c-0.116-7.199-2.679-12.925-7.679-17.178c-5.004-4.251-11.104-6.321-18.304-6.205
		c-5.333,0.087-10.146,1.434-14.436,4.035c-4.293,2.604-7.202,6.117-8.73,10.543l-16.915-6.927
		c2.17-5.901,6.547-11.408,13.134-16.516c6.583-5.107,15.342-7.749,26.275-7.927c12.529-0.203,22.987,3.297,31.374,10.493
		c8.384,7.199,12.685,17.465,12.901,30.795l0.959,59.192l-17.598,0.285l-0.221-13.599l-0.8,0.014
		C1053.123,1985.297,1042.48,1991.069,1028.352,1991.299z M1031.078,1974.452c7.6-0.123,14.453-3.065,20.56-8.834
		c6.107-5.766,9.099-12.515,8.974-20.248c-5.269-4.181-13.103-6.188-23.501-6.021c-8.934,0.146-15.635,2.188-20.104,6.127
		c-4.471,3.941-6.663,8.509-6.579,13.708c0.078,4.8,2.205,8.565,6.384,11.299
		C1020.988,1973.216,1025.745,1974.539,1031.078,1974.452z"/>
	<path display="inline" fill="#FFFFFF" d="M1147.321,1982.398c-10.215,1.05-18.284-0.866-24.216-5.754
		c-5.931-4.885-9.407-12.302-10.43-22.249l-5.258-51.131l-17.11,1.76l-1.718-16.712l17.109-1.76l-3.068-29.843l18.304-1.882
		l3.068,29.843l23.874-2.455l1.719,16.712l-23.875,2.455l5.115,49.737c1.091,10.613,6.013,15.466,14.767,14.566
		c3.314-0.341,6.045-1.156,8.192-2.451l7.982,15.063C1157.976,1980.429,1153.156,1981.798,1147.321,1982.398z"/>
	<path display="inline" fill="#FFFFFF" d="M1174.413,1832.288l8.992,44.297l1.921,13.487l0.784-0.159
		c1.685-5.103,5.012-9.824,9.98-14.169c4.968-4.341,10.654-7.162,17.058-8.463c11.889-2.413,21.715-0.597,29.473,5.446
		c7.758,6.046,12.883,15.21,15.376,27.49l11.937,58.801l-18.032,3.66l-11.379-56.057c-3.607-17.769-13.319-25.051-29.128-21.842
		c-7.448,1.512-12.92,5.719-16.418,12.618c-3.496,6.902-4.449,14.271-2.858,22.111l10.783,53.116l-18.032,3.66l-28.488-140.337
		L1174.413,1832.288z"/>
	<path display="inline" fill="#FFFFFF" d="M1282.032,1866.186c5.861-12.404,15.751-20.917,29.675-25.531
		c13.921-4.613,26.938-3.693,39.05,2.755c12.11,6.453,20.516,16.767,25.213,30.939c4.698,14.176,4.116,27.469-1.745,39.873
		c-5.862,12.409-15.753,20.918-29.675,25.532c-13.924,4.614-26.938,3.696-39.049-2.756c-12.112-6.448-20.516-16.763-25.214-30.938
		C1275.591,1891.886,1276.17,1878.595,1282.032,1866.186z M1314.856,1921.678c8.044,4.148,16.18,4.855,24.408,2.129
		c8.227-2.727,14.329-8.152,18.307-16.286c3.976-8.129,4.289-17.256,0.933-27.384c-3.355-10.124-9.058-17.258-17.103-21.406
		c-8.047-4.145-16.184-4.855-24.409-2.129c-8.229,2.727-14.33,8.156-18.306,16.285c-3.979,8.133-4.288,17.26-0.934,27.384
		C1301.109,1910.397,1306.81,1917.532,1314.856,1921.678z"/>
	<path display="inline" fill="#FFFFFF" d="M1389.018,1814.925l5.762,12.319l0.725-0.339c0.438-5.355,2.563-10.728,6.372-16.118
		c3.808-5.386,8.672-9.466,14.59-12.234c10.989-5.14,20.967-5.684,29.927-1.633c8.962,4.053,16.098,11.756,21.407,23.106
		l25.421,54.349l-16.666,7.796l-24.235-51.813c-7.683-16.424-18.833-21.219-33.445-14.385c-6.884,3.221-11.215,8.596-12.992,16.124
		c-1.776,7.53-0.972,14.916,2.418,22.163l22.964,49.095l-16.666,7.796l-41.522-88.77L1389.018,1814.925z"/>
</g>
<g>
	<path fill="#FFFFFF" d="M697.424,1550.739v131.399c0,7.2-4.05,11.25-11.25,11.25h-45c-7.2,0-11.25-4.05-11.25-11.25V1556.59
		c0-22.5-13.05-32.4-30.15-32.4c-20.25,0-32.85,11.25-32.85,37.8v120.149c0,7.2-4.05,11.25-11.25,11.25h-45
		c-7.2,0-11.25-4.05-11.25-11.25v-292.498c0-7.2,4.05-11.25,11.25-11.25h45c7.2,0,11.25,4.05,11.25,11.25v99.301
		c10.575-15.638,29.731-26.852,58.5-26.852C667.274,1462.09,697.424,1494.49,697.424,1550.739z"/>
	<path fill="#FFFFFF" d="M927.818,1551.64v130.499c0,7.2-4.05,11.25-11.25,11.25h-43.2c-7.2,0-11.25-4.05-11.25-11.25v-6.426
		c-12.064,14.121-29.776,23.976-58.049,23.976c-39.6,0-74.25-23.399-74.25-70.199s34.65-70.199,74.25-70.199
		c28.273,0,45.985,7.978,58.049,17.158v-20.309c0-22.05-9-31.95-27.899-31.95c-13.95,0-22.5,5.4-26.1,13.05
		c-2.7,6.301-4.95,9.9-11.7,9.9h-44.1c-7.2,0-11.7-4.05-11.25-11.7c5.85-48.6,47.25-73.35,93.149-73.35
		C883.719,1462.09,927.818,1490.89,927.818,1551.64z M862.119,1629.489c0-13.95-12.15-22.5-34.2-22.5c-20.7,0-30.6,9.45-30.6,22.5
		s9.9,22.5,30.6,22.5C849.969,1651.989,862.119,1642.539,862.119,1629.489z"/>
	<path fill="#FFFFFF" d="M1190.166,1620.489c-13.95,46.8-58.05,79.199-110.7,79.199c-68.399,0-119.249-51.749-119.249-118.799
		s50.85-118.8,119.249-118.8c52.65,0,96.75,32.4,110.7,79.2c2.699,7.649-1.801,12.6-9.45,12.6h-49.5c-5.85,0-9.9-2.7-13.5-7.65
		c-8.1-11.249-22.05-17.55-38.25-17.55c-29.249,0-51.749,21.15-51.749,52.2s22.5,52.199,51.749,52.199c16.2,0,30.15-6.3,38.25-17.1
		c3.6-5.4,7.2-8.1,13.5-8.1h49.5C1188.365,1607.89,1192.865,1612.839,1190.166,1620.489z"/>
	<path fill="#FFFFFF" d="M1419.66,1693.389h-51.3c-5.85,0-10.35-2.25-13.5-7.2l-62.55-91.479v87.43c0,7.2-4.05,11.25-11.25,11.25
		h-44.999c-7.2,0-11.25-4.05-11.25-11.25v-292.498c0-7.2,4.05-11.25,11.25-11.25h44.999c7.2,0,11.25,4.05,11.25,11.25v176.507
		l58.05-90.558c3.15-4.949,7.65-7.199,13.5-7.199h51.75c9,0,12.149,5.85,7.199,13.499l-66.149,99l69.75,98.999
		C1431.81,1687.539,1428.66,1693.389,1419.66,1693.389z"/>
</g>
<g>
	<path fill="#CCCCCC" d="M613.609,1164.253c7.65-1.351,11.7,3.6,11.7,10.8v53.1c0,7.2-3.15,10.8-9,10.8
		c-25.2-0.899-49.5,11.7-49.5,47.699v94.949c0,7.2-4.05,11.25-11.25,11.25h-45c-7.2,0-11.25-4.05-11.25-11.25v-202.498
		c0-7.2,4.05-11.25,11.25-11.25h45c7.2,0,11.25,4.05,11.25,11.25v24.322c6.714-22.59,24.444-35.815,46.799-39.168L613.609,1164.253
		L613.609,1164.253z"/>
	<path fill="#CCCCCC" d="M836.805,1251.106v130.499c0,7.2-4.05,11.25-11.25,11.25h-43.2c-7.2,0-11.25-4.05-11.25-11.25v-6.426
		c-12.064,14.121-29.776,23.976-58.049,23.976c-39.6,0-74.25-23.399-74.25-70.199s34.65-70.199,74.25-70.199
		c28.273,0,45.985,7.978,58.049,17.158v-20.309c0-22.05-9-31.949-27.899-31.949c-13.95,0-22.5,5.399-26.1,13.05
		c-2.7,6.3-4.95,9.899-11.7,9.899h-44.1c-7.2,0-11.7-4.05-11.25-11.699c5.85-48.601,47.25-73.35,93.149-73.35
		C792.705,1161.558,836.805,1190.357,836.805,1251.106z M771.105,1328.956c0-13.95-12.15-22.5-34.2-22.5
		c-20.7,0-30.6,9.45-30.6,22.5s9.9,22.5,30.6,22.5C758.955,1351.456,771.105,1342.006,771.105,1328.956z"/>
	<path fill="#CCCCCC" d="M1073.952,1180.907l-73.35,202.948c-2.25,5.85-6.3,9-12.6,9h-37.799h-10.8c-6.3,0-10.35-3.15-12.6-9
		l-73.35-202.948c-2.7-8.1,1.35-13.05,9.45-13.05h48.15c6.3,0,10.8,3.149,12.6,9.45l40.049,129.018l40.05-129.018
		c1.8-6.301,6.3-9.45,12.6-9.45h48.6C1073.053,1167.857,1076.652,1172.808,1073.952,1180.907z"/>
	<path fill="#CCCCCC" d="M1319.199,1280.356c0,5.85-0.449,11.25-0.9,16.649c-0.899,7.2-5.399,10.351-12.149,10.351h-54.899h-95.373
		c8.178,26.734,29.174,37.35,52.623,37.35c12.6,0,25.2-4.5,33.3-11.25c4.5-3.601,8.101-5.851,13.95-5.851l43.199-0.449
		c8.101,0,12.6,5.399,9,12.6c-17.549,39.149-54.449,59.399-100.35,59.399c-74.699,0-122.398-51.749-122.398-118.799
		s49.5-118.799,120.6-118.799C1271.5,1161.558,1319.199,1212.407,1319.199,1280.356z M1252.006,1256.057
		c-6.957-25.604-26.807-34.649-46.656-34.649c-25.299,0-42.803,12.208-49.756,34.649H1252.006z"/>
	<path fill="#CCCCCC" d="M1554.545,1250.206v131.399c0,7.2-4.051,11.25-11.25,11.25h-45c-7.2,0-11.25-4.05-11.25-11.25v-125.549
		c0-22.5-13.05-32.399-30.15-32.399c-20.25,0-32.85,11.25-32.85,37.799v120.149c0,7.2-4.05,11.25-11.25,11.25h-45
		c-7.199,0-11.249-4.05-11.249-11.25v-202.498c0-7.2,4.05-11.25,11.249-11.25h45c7.2,0,11.25,4.05,11.25,11.25v9.301
		c10.575-15.637,29.731-26.851,58.5-26.851C1524.395,1161.558,1554.545,1193.957,1554.545,1250.206z"/>
</g>
</svg>
