<?xml version="1.0" encoding="utf-8"?>
<!-- Generator: Adobe Illustrator 23.0.3, SVG Export Plug-In . SVG Version: 6.00 Build 0)  -->
<svg version="1.1" id="Layer_1" xmlns="http://www.w3.org/2000/svg" xmlns:xlink="http://www.w3.org/1999/xlink" x="0px" y="0px"
	 viewBox="0 0 2048 2048" style="enable-background:new 0 0 2048 2048;" xml:space="preserve">
<style type="text/css">
	.st0{display:none;fill:url(#SVGID_1_);stroke:#FFFFFF;stroke-miterlimit:10;}
	.st1{display:none;}
	.st2{display:inline;fill:url(#SVGID_2_);}
	.st3{display:inline;fill:#FFFFFF;}
	.st4{fill:#FFFFFF;}
	.st5{display:inline;fill:none;}
</style>
<linearGradient id="SVGID_1_" gradientUnits="userSpaceOnUse" x1="920" y1="1422" x2="-1123.2043" y2="3465.2043" gradientTransform="matrix(1 0 0 -1 1128 3470)">
	<stop  offset="0" style="stop-color:#9976B7"/>
	<stop  offset="1" style="stop-color:#2393C1"/>
</linearGradient>
<rect class="st0" width="2048" height="2048"/>
<g class="st1">
	
		<linearGradient id="SVGID_2_" gradientUnits="userSpaceOnUse" x1="-1106.5" y1="2446" x2="898.5" y2="2446" gradientTransform="matrix(1 0 0 -1 1128 3470)">
		<stop  offset="0" style="stop-color:#386CB0"/>
		<stop  offset="1" style="stop-color:#AA1382"/>
	</linearGradient>
	<path class="st2" d="M1024,2026.5c-135.3,0-266.6-26.5-390.2-78.8c-119.4-50.5-226.6-122.8-318.7-214.8s-164.4-199.3-214.8-318.7
		C48,1290.6,21.5,1159.3,21.5,1024S48,757.4,100.3,633.8c50.5-119.4,122.8-226.6,214.8-318.7s199.3-164.4,318.7-214.8
		C757.4,48,888.7,21.5,1024,21.5s266.6,26.5,390.2,78.8c119.4,50.5,226.6,122.8,318.7,214.8c92.1,92.1,164.4,199.3,214.8,318.7
		c52.3,123.6,78.8,254.9,78.8,390.2s-26.5,266.6-78.8,390.2c-50.5,119.4-122.8,226.6-214.8,318.7
		c-92.1,92.1-199.3,164.4-318.7,214.8C1290.6,2000,1159.3,2026.5,1024,2026.5z"/>
	<path class="st3" d="M1024,34c67.2,0,134.3,6.8,199.5,20.1c63.6,13,126.1,32.4,185.8,57.7c58.7,24.8,115.2,55.5,168.2,91.3
		c52.4,35.4,101.7,76.1,146.5,120.9s85.5,94.1,120.9,146.5c35.8,52.9,66.5,109.5,91.3,168.2c25.3,59.7,44.7,122.2,57.7,185.8
		c13.3,65.2,20.1,132.4,20.1,199.5s-6.8,134.3-20.1,199.5c-13,63.6-32.4,126.1-57.7,185.8c-24.8,58.7-55.5,115.2-91.3,168.2
		c-35.4,52.4-76.1,101.7-120.9,146.5c-44.8,44.8-94.1,85.5-146.5,120.9c-52.9,35.8-109.5,66.5-168.2,91.3
		c-59.7,25.3-122.2,44.7-185.8,57.7c-65.2,13.3-132.4,20.1-199.5,20.1s-134.3-6.8-199.5-20.1c-63.6-13-126.1-32.4-185.8-57.7
		c-58.7-24.8-115.2-55.5-168.2-91.3c-52.4-35.4-101.7-76.1-146.5-120.9c-44.8-44.8-85.5-94.1-120.9-146.5
		c-35.8-52.9-66.5-109.5-91.3-168.2c-25.3-59.7-44.7-122.2-57.7-185.8C40.8,1158.3,34,1091.2,34,1024s6.8-134.3,20.1-199.5
		c13-63.6,32.4-126.1,57.7-185.8c24.8-58.7,55.5-115.2,91.3-168.2C238.5,418.1,279.2,368.8,324,324s94.1-85.5,146.5-120.9
		c52.9-35.8,109.5-66.5,168.2-91.3c59.7-25.3,122.2-44.7,185.8-57.7C889.7,40.8,956.8,34,1024,34 M1024,9C463.4,9,9,463.4,9,1024
		s454.4,1015,1015,1015s1015-454.4,1015-1015S1584.6,9,1024,9L1024,9z"/>
</g>
<path class="st4" d="M1749.2,963.2c-86.4-168-273.6-265.6-273.6-265.6l24-19.2l-41.6-8l24-36.8l-33.6,9.6
	c6.4-30.4-49.6-62.4-38.4-46.4s0,35.2,0,35.2l-17.6-24l-9.6,19.2C1362,536,1258,416,1258,416v27.2c-17.6-48-171.2-139.2-171.2-139.2
	v17.6c-113.6-76.8-233.6-62.4-233.6-62.4l19.2,14.4C501.2,373.9,526.8,248,526.8,248c-34.1,68.3,89.6,160,89.6,160
	c-241.1,12.8-315.7,128-315.7,128s78.9-10.7,96-27.7c17.1-17.1,110.9,6.4,130.1,19.2s-121.6,32-121.6,32L514,578.7
	c-247.5,57.6-270.9,166.4-270.9,166.4c119.5-74.1,330.1-37.9,301.3-37.9S402,782.4,402,782.4s155.2,4.8,105.6,9.6
	S373.2,1030.4,418,960s177.6-76.8,177.6-76.8s-86.4,107.2-84.8,120C512.4,1016,714,944,714,944s-94.4,137.6-17.6,67.2
	S858,969.6,858,969.6s-81.6,11.2-83.2,28.8c-1.6,17.6,92.8,43.2,92.8,43.2l115.2-1.6l-92.8,40c12.8,54.4,372.8-43.2,372.8-43.2
	c102.4,48,459.2,28.8,459.2,28.8l73.6,80C1795.6,1145.6,1835.6,1131.2,1749.2,963.2z M1221.4,632.4c-24,1.6-112-26.4-112-26.4
	s-64.2-27.2-107.7-12s3.7-24,3.7-24s-22.4-95.2,43.2-86.4c65.6,8.8,138.4,93.6,138.4,93.6s34.4,26.4,39.2,22.4
	c4.8-4,24.8-15.2,24-23.2s4,32.8,4,32.8S1245.4,630.8,1221.4,632.4z"/>
<g class="st1">
	<circle class="st5" cx="1024" cy="1024" r="800"/>
	<path class="st3" d="M489.9,432.7c-7.8,6.9-16.3,10.4-25.5,10.6s-17.1-3.5-23.6-10.9c-7.1-8-9.5-17-7.3-27c2.2-10,7.8-19,16.9-27.1
		c8.1-7.2,16.1-11.5,23.9-13.1l-1.9-2.1c-4.8-5.4-10.4-8.1-17-8.1c-6.6,0-12.5,2.4-17.9,7.2c-4,3.5-6.8,7.7-8.3,12.5
		c-1.6,4.8-1.5,9.3,0.2,13.7l-17.4,5.7c-2.2-5.9-2.4-12.9-0.8-21.1c1.7-8.2,6.6-15.9,14.8-23.1c9.4-8.3,19.6-12.4,30.7-12.4
		c11.1,0,21,5,29.8,15l39.2,44.3l-13.2,11.7l-9-10.2l-0.6,0.5C504.8,412,500.4,423.3,489.9,432.7z M481,418.1c5.7-5,9-11.7,9.9-20.1
		c0.9-8.4-1.2-15.4-6.4-21.2c-6.7,0.3-14,3.8-21.8,10.7c-6.7,5.9-10.5,11.8-11.3,17.7c-0.8,5.9,0.5,10.8,3.9,14.7
		c3.2,3.6,7.2,5.1,12.2,4.4C472.5,423.7,477,421.6,481,418.1z"/>
	<path class="st3" d="M536.4,385.4l-52.1-83l14.9-9.4l7.2,11.5l0.7-0.4c-0.1-5.4,1.4-11.1,4.6-16.9c3.2-5.9,7.2-10.3,12-13.4
		c12.9-8.1,25-8.3,36.3-0.6c0.1-14.9,6.4-26.2,19-34.1c9.8-6.2,19.2-7.7,28.1-4.5c8.9,3.1,16.7,10.1,23.5,20.8l31.9,50.8l-15.6,9.8
		l-30.4-48.4c-5.2-8.4-10.5-13.3-15.7-14.9c-5.2-1.6-11-0.4-17.2,3.5c-6.1,3.8-9.5,9.6-10.3,17.3c-0.7,7.7,1,14.9,5.2,21.6
		l28.8,45.9l-15.6,9.8l-30.4-48.4c-5.2-8.4-10.5-13.3-15.7-14.9c-5.2-1.6-11-0.4-17.2,3.5c-6.1,3.8-9.5,9.6-10.3,17.3
		c-0.7,7.7,1,14.9,5.2,21.6l28.8,45.9L536.4,385.4z"/>
	<path class="st3" d="M720.2,287.2c-13.7,5.7-26.7,5.7-39,0.2c-12.3-5.6-21.4-15.3-27.2-29.2c-5.5-13.2-6-26.2-1.6-39.2
		c4.4-12.9,13-22.1,26-27.4c13.4-5.6,26-5.7,37.7-0.3c11.7,5.4,20.6,15.4,26.7,30.1l1.1,3.2l-71.5,29.7c4.3,8.9,10.3,14.9,18.1,17.8
		c7.8,3,15.5,2.9,23-0.2c12.2-5.1,18.3-13.7,18.3-25.8l17.8,0c0,8.2-2.5,16.1-7.3,23.7C737.3,277.3,730,283.1,720.2,287.2z
		 M720,217.9c-2.5-5-6.9-9-13.2-11.8c-6.3-2.9-13.8-2.5-22.4,1.1c-6.3,2.6-10.9,6.8-13.9,12.7c-3,5.9-4,12.5-2.9,19.8L720,217.9z"/>
	<path class="st3" d="M791.9,258.2l-17.7,5.2l-27.6-94l16.9-4.9l4.5,15.4l0.8-0.2c0.3-5.6,2.7-10.9,7.3-15.9c4.6-5,9.5-8.2,14.8-9.7
		c5.2-1.5,9.9-2.1,13.9-1.6l-1.9,18.5c-2.6-0.2-5.8,0.3-9.8,1.4c-6.4,1.9-11.3,6.1-14.8,12.6c-3.4,6.5-4,13.8-1.6,22L791.9,258.2z"
		/>
	<path class="st3" d="M835.3,120.8c-1.9,3-4.7,4.9-8.2,5.7c-3.5,0.8-6.8,0.2-9.8-1.7c-3-1.9-4.9-4.7-5.7-8.2
		c-0.8-3.5-0.2-6.8,1.7-9.8c1.9-3,4.7-4.9,8.2-5.7c3.5-0.8,6.8-0.2,9.8,1.7c3,1.9,4.9,4.7,5.7,8.2
		C837.8,114.5,837.2,117.8,835.3,120.8z M861.4,240.5l-18,3.9l-20.9-95.7l18-3.9L861.4,240.5z"/>
	<path class="st3" d="M925.8,233.2c-14.5,1.9-27.1-1.5-37.8-10.2c-10.7-8.6-16.9-20.4-18.8-35.2c-1.9-14.8,1.2-27.7,9.3-38.8
		c8.1-11.1,19.5-17.5,34-19.4c10.8-1.4,20.2,0.1,28,4.5c7.8,4.4,13.9,10.4,18.2,18l-15.8,9.1c-6.6-11.5-16.4-16.4-29.5-14.8
		c-8.1,1-14.8,5.3-20.1,12.7c-5.3,7.4-7.3,16.2-6,26.4c1.3,10.2,5.5,18.2,12.5,24c7,5.8,14.5,8.2,22.6,7.2
		c13.6-1.7,22.2-9,25.8-21.9l17.2,4.9c-2.3,8.4-6.8,15.7-13.4,22C945.4,228,936.6,231.8,925.8,233.2z"/>
	<path class="st3" d="M1010.5,227.3c-10.4,0.1-19.1-2.9-26.2-8.9c-7-6-10.6-13.9-10.6-23.7c-0.1-10.7,4-19.1,12.3-25.2
		c8.2-6.1,18.4-9.2,30.5-9.3c10.8-0.1,19.7,1.9,26.6,5.9l0-2.8c0-7.2-2.5-13-7.5-17.3c-5-4.3-11-6.4-18.2-6.4
		c-5.3,0-10.2,1.3-14.5,3.9c-4.3,2.6-7.3,6-8.8,10.4l-16.8-7.1c2.2-5.9,6.7-11.3,13.3-16.4c6.6-5,15.4-7.6,26.4-7.6
		c12.5-0.1,23,3.5,31.3,10.8c8.3,7.3,12.5,17.6,12.6,30.9l0.3,59.2l-17.6,0.1l-0.1-13.6l-0.8,0
		C1035.4,221.5,1024.7,227.2,1010.5,227.3z M1013.4,210.4c7.6,0,14.5-2.9,20.7-8.6c6.2-5.7,9.2-12.4,9.2-20.2
		c-5.2-4.2-13-6.3-23.4-6.3c-8.9,0-15.7,2-20.2,5.9c-4.5,3.9-6.8,8.4-6.7,13.6c0,4.8,2.1,8.6,6.3,11.4
		C1003.4,209.1,1008.1,210.5,1013.4,210.4z"/>
	<path class="st3" d="M1094.1,127.1l-8.1-6.3l12-14.3c-2.9-0.8-5.3-2.3-7.2-4.7c-1.9-2.4-2.8-5.2-2.5-8.5c0.3-3.7,1.9-6.8,4.8-9.2
		c2.9-2.4,6.2-3.5,9.9-3.2c3.7,0.3,6.8,1.9,9.2,4.8c2.4,2.9,3.5,6.2,3.2,9.9c-0.3,3.9-2.7,8.6-7.2,14.3L1094.1,127.1z"/>
	<path class="st3" d="M1148.3,236.9c-10.8-1.7-19.3-5.7-25.6-12c-6.2-6.4-10.4-13.7-12.5-22.2l17.2-4.2
		c3.3,12.9,11.1,20.3,23.5,22.2c5.7,0.9,10.5,0.3,14.5-1.6c4-1.9,6.3-5,7-9c1-6.3-2.8-11.3-11.3-14.9l-18.8-7.8
		c-6-2.5-11.4-6.4-16.2-11.7c-4.9-5.3-6.7-11.7-5.5-19.2c1.3-8.6,6.2-14.9,14.6-19.1c8.4-4.2,17.8-5.4,28.2-3.8
		c8.6,1.3,15.9,4.4,22,9.4c6.1,4.9,10.1,11.2,11.8,18.9l-16.8,4.1c-2.2-9.1-9-14.5-20.2-16.3c-5.4-0.8-10.1-0.4-14.2,1.3
		c-4,1.7-6.3,4.4-6.9,8.2c-0.9,5.5,2.8,10,11.1,13.3l18.5,7.5c8.8,3.5,14.9,8.2,18.5,14s4.8,11.9,3.8,18.4c-1.3,8.7-6,15.4-14,20.1
		C1169.1,237.1,1159.5,238.6,1148.3,236.9z"/>
	<path class="st3" d="M1326.2,129.5c5.6,1.9,10,4.3,13.2,7.2l-11.1,12.9c-1.7-1.7-4.2-3.1-7.4-4.2c-4.5-1.5-8.7-1.4-12.6,0.3
		c-3.8,1.7-6.6,5.2-8.4,10.4l-4,11.7l59.1,20l-31.3,92.9l-17.4-5.9l26-76.9l-41.7-14.1l-26,76.9l-17.4-5.9l26-76.9l-17.4-5.9
		l5.4-15.9l17.4,5.9l4.2-12.3c3.2-9.5,8.8-16,16.8-19.7C1307.5,126.3,1316.4,126.2,1326.2,129.5z M1363,164.5
		c-3.2,1.6-6.5,1.8-9.9,0.7c-3.4-1.2-5.9-3.3-7.5-6.5c-1.6-3.2-1.8-6.5-0.7-9.9c1.2-3.4,3.3-5.9,6.5-7.5c3.2-1.6,6.5-1.8,9.9-0.7
		c3.4,1.2,5.9,3.3,7.5,6.5c1.6,3.2,1.8,6.5,0.7,9.9S1366.2,162.9,1363,164.5z"/>
	<path class="st3" d="M1401,208.3l-6.1,12.2l0.7,0.4c4.5-3,10-4.7,16.6-5c6.6-0.4,12.8,0.9,18.7,3.8c10.9,5.4,17.5,12.9,19.9,22.4
		c2.4,9.5,0.8,19.9-4.8,31.1l-26.7,53.7l-16.5-8.2l25.5-51.2c8.1-16.2,4.9-27.9-9.6-35.1c-6.8-3.4-13.7-3.4-20.7-0.1
		c-7,3.3-12.3,8.5-15.8,15.7l-24.1,48.5l-16.5-8.2l43.6-87.8L1401,208.3z"/>
	<path class="st3" d="M1469.3,363.1c-12.3-8.3-19.5-19.1-21.7-32.4c-2.2-13.4,0.9-26.3,9.3-38.8c8-11.8,18.5-19.5,31.7-23
		c13.2-3.5,25.6-1.4,37.2,6.5c12.1,8.1,19.1,18.5,21.1,31.2c2,12.7-1.5,25.7-10.3,38.8l-2.1,2.7l-64.3-43.2
		c-5.1,8.5-6.7,16.8-4.8,24.9c1.8,8.1,6.1,14.5,12.9,19c11,7.4,21.5,7.7,31.6,1l9.8,14.8c-6.9,4.5-14.8,6.9-23.8,7
		C1487.1,371.9,1478.2,369,1469.3,363.1z M1526.9,324.7c2.8-4.9,3.6-10.7,2.5-17.6c-1.1-6.8-5.5-12.9-13.3-18.1
		c-5.6-3.8-11.7-5.3-18.3-4.6c-6.5,0.8-12.6,3.6-18.1,8.5L1526.9,324.7z"/>
	<path class="st3" d="M1545.2,421.2c-8.3-7.1-13.4-15.1-15.3-23.8c-1.9-8.7-1.5-17.2,1.2-25.4l16.9,5.6c-4.1,12.7-1.4,23.1,8.1,31.3
		c4.3,3.7,8.7,5.9,13.2,6.3c4.4,0.5,8-0.9,10.7-4c4.2-4.8,3.6-11-1.7-18.6l-11.9-16.6c-3.7-5.3-6.2-11.5-7.5-18.5s0.5-13.4,5.5-19.2
		c5.7-6.6,13.2-9.4,22.5-8.5c9.3,0.9,18,4.8,26,11.7c6.6,5.7,11.1,12.2,13.7,19.6c2.6,7.4,2.6,14.9,0,22.3l-16.4-5.4
		c2.9-8.9,0.1-17.1-8.5-24.5c-4.1-3.6-8.4-5.7-12.7-6.4c-4.3-0.7-7.7,0.4-10.2,3.3c-3.7,4.2-2.9,9.9,2.4,17.1l11.7,16.2
		c5.6,7.6,8.3,14.8,8.3,21.6c-0.1,6.8-2.2,12.7-6.5,17.6c-5.7,6.7-13.3,9.9-22.5,9.6C1562.7,432.5,1553.8,428.6,1545.2,421.2z"/>
	<path class="st3" d="M1612.7,484.4c-7.1-7.4-10.6-14.9-10.4-22.6c0.2-7.7,3.9-15,11.1-21.9l37.1-35.6l-11.9-12.4l12.1-11.6
		l11.9,12.4l21.6-20.8l12.7,13.3l-21.6,20.8l16.6,17.3l-12.1,11.6l-16.6-17.3l-36.1,34.6c-7.7,7.4-8.5,14.3-2.4,20.6
		c2.3,2.4,4.6,4.1,7,5l-7,15.6C1620.9,491.6,1616.8,488.6,1612.7,484.4z"/>
</g>
<g class="st1">
	<circle class="st5" cx="1024" cy="973" r="1015"/>
	<path class="st3" d="M643.1,1757.9l-18.6,41.2l-6.3,12.1l0.7,0.3c4.3-3.2,9.8-5,16.4-5.7c6.6-0.6,12.8,0.4,18.8,3.1
		c11.1,5,18,12.2,20.7,21.7c2.8,9.4,1.6,19.9-3.6,31.3l-24.7,54.7l-16.8-7.6l23.5-52.1c7.5-16.5,3.8-28.1-10.9-34.8
		c-6.9-3.1-13.8-2.9-20.7,0.6c-6.9,3.6-12,9-15.2,16.3l-22.3,49.4l-16.8-7.6l59-130.5L643.1,1757.9z"/>
	<path class="st3" d="M703.6,1939.8c-9.9-3.2-17.3-8.7-22.1-16.6s-5.7-16.5-2.7-25.9c3.3-10.2,9.8-16.9,19.5-20.1
		c9.7-3.2,20.4-3,31.9,0.7c10.3,3.3,18.1,7.9,23.5,13.9l0.9-2.7c2.2-6.9,1.6-13.1-1.8-18.7c-3.4-5.6-8.5-9.6-15.3-11.8
		c-5.1-1.6-10.1-1.9-15-0.8c-4.9,1.1-8.8,3.5-11.7,7.2l-13.8-12c4-4.9,9.9-8.7,17.7-11.4c7.9-2.7,17-2.4,27.4,0.9
		c11.9,3.8,20.7,10.5,26.3,20c5.6,9.5,6.4,20.6,2.3,33.3l-18.1,56.4l-16.8-5.4l4.2-12.9l-0.8-0.2
		C729,1942.1,717.1,1944.2,703.6,1939.8z M711.6,1924.8c7.2,2.3,14.7,1.7,22.3-1.8c7.6-3.5,12.6-8.9,15-16.3
		c-3.6-5.7-10.4-10.1-20.3-13.3c-8.5-2.7-15.5-3-21-0.7c-5.5,2.3-9,5.9-10.6,10.9c-1.5,4.6-0.7,8.8,2.4,12.8
		C702.4,1920.4,706.5,1923.1,711.6,1924.8z"/>
	<path class="st3" d="M824.7,1971.7c-14.4-2.9-25.2-10.2-32.5-21.8c-7.3-11.6-9.5-24.7-6.5-39.4c3-14.6,10.1-25.9,21.3-33.7
		c11.2-7.9,24.1-10.3,38.4-7.4c10.7,2.2,19.1,6.6,25.1,13.2c6,6.7,9.8,14.3,11.5,22.9l-17.9,3.5c-2.5-13-10.3-20.9-23.2-23.5
		c-8-1.6-15.7,0.2-23.1,5.5c-7.4,5.3-12.1,13-14.2,23.1c-2,10.1-0.7,19,4.1,26.7c4.8,7.8,11.1,12.5,19.1,14.1
		c13.5,2.7,24-1.4,31.5-12.4l14.7,10.1c-4.9,7.2-11.4,12.7-19.8,16.5C844.9,1973.1,835.4,1973.9,824.7,1971.7z"/>
	<path class="st3" d="M924.8,1839.5l-8,87.8l46.1-39l23.5,2.2l-0.1,0.8l-41.5,34.6l34.5,61.6l-0.1,0.8l-22.1-2l-26.5-48.8
		l-16.1,13.4l-2.9,31.3l-18.3-1.7l13-142.6L924.8,1839.5z"/>
	<path class="st3" d="M1028.4,1991.3c-10.4,0.2-19.1-2.7-26.2-8.6s-10.7-13.8-10.9-23.6c-0.2-10.7,3.8-19.1,12-25.3
		c8.2-6.2,18.3-9.4,30.4-9.6c10.8-0.2,19.7,1.7,26.7,5.6l0-2.8c-0.1-7.2-2.7-12.9-7.7-17.2c-5-4.3-11.1-6.3-18.3-6.2
		c-5.3,0.1-10.1,1.4-14.4,4c-4.3,2.6-7.2,6.1-8.7,10.5l-16.9-6.9c2.2-5.9,6.5-11.4,13.1-16.5c6.6-5.1,15.3-7.7,26.3-7.9
		c12.5-0.2,23,3.3,31.4,10.5c8.4,7.2,12.7,17.5,12.9,30.8l1,59.2l-17.6,0.3l-0.2-13.6l-0.8,0
		C1053.1,1985.3,1042.5,1991.1,1028.4,1991.3z M1031.1,1974.5c7.6-0.1,14.5-3.1,20.6-8.8c6.1-5.8,9.1-12.5,9-20.2
		c-5.3-4.2-13.1-6.2-23.5-6c-8.9,0.1-15.6,2.2-20.1,6.1c-4.5,3.9-6.7,8.5-6.6,13.7c0.1,4.8,2.2,8.6,6.4,11.3
		C1021,1973.2,1025.7,1974.5,1031.1,1974.5z"/>
	<path class="st3" d="M1147.3,1982.4c-10.2,1.1-18.3-0.9-24.2-5.8c-5.9-4.9-9.4-12.3-10.4-22.2l-5.3-51.1l-17.1,1.8l-1.7-16.7
		l17.1-1.8l-3.1-29.8l18.3-1.9l3.1,29.8l23.9-2.5l1.7,16.7l-23.9,2.5l5.1,49.7c1.1,10.6,6,15.5,14.8,14.6c3.3-0.3,6-1.2,8.2-2.5
		l8,15.1C1158,1980.4,1153.2,1981.8,1147.3,1982.4z"/>
	<path class="st3" d="M1174.4,1832.3l9,44.3l1.9,13.5l0.8-0.2c1.7-5.1,5-9.8,10-14.2c5-4.3,10.7-7.2,17.1-8.5
		c11.9-2.4,21.7-0.6,29.5,5.4c7.8,6,12.9,15.2,15.4,27.5l11.9,58.8l-18,3.7l-11.4-56.1c-3.6-17.8-13.3-25.1-29.1-21.8
		c-7.4,1.5-12.9,5.7-16.4,12.6c-3.5,6.9-4.4,14.3-2.9,22.1l10.8,53.1l-18,3.7l-28.5-140.3L1174.4,1832.3z"/>
	<path class="st3" d="M1282,1866.2c5.9-12.4,15.8-20.9,29.7-25.5c13.9-4.6,26.9-3.7,39.1,2.8c12.1,6.5,20.5,16.8,25.2,30.9
		c4.7,14.2,4.1,27.5-1.7,39.9c-5.9,12.4-15.8,20.9-29.7,25.5c-13.9,4.6-26.9,3.7-39-2.8c-12.1-6.4-20.5-16.8-25.2-30.9
		C1275.6,1891.9,1276.2,1878.6,1282,1866.2z M1314.9,1921.7c8,4.1,16.2,4.9,24.4,2.1c8.2-2.7,14.3-8.2,18.3-16.3
		c4-8.1,4.3-17.3,0.9-27.4c-3.4-10.1-9.1-17.3-17.1-21.4c-8-4.1-16.2-4.9-24.4-2.1c-8.2,2.7-14.3,8.2-18.3,16.3
		c-4,8.1-4.3,17.3-0.9,27.4C1301.1,1910.4,1306.8,1917.5,1314.9,1921.7z"/>
	<path class="st3" d="M1389,1814.9l5.8,12.3l0.7-0.3c0.4-5.4,2.6-10.7,6.4-16.1c3.8-5.4,8.7-9.5,14.6-12.2c11-5.1,21-5.7,29.9-1.6
		c9,4.1,16.1,11.8,21.4,23.1l25.4,54.3l-16.7,7.8l-24.2-51.8c-7.7-16.4-18.8-21.2-33.4-14.4c-6.9,3.2-11.2,8.6-13,16.1
		c-1.8,7.5-1,14.9,2.4,22.2l23,49.1l-16.7,7.8l-41.5-88.8L1389,1814.9z"/>
</g>
<g>
	<path class="st4" d="M697.4,1550.7v131.4c0,7.2-4,11.3-11.3,11.3h-45c-7.2,0-11.3-4.1-11.3-11.3v-125.5c0-22.5-13-32.4-30.2-32.4
		c-20.3,0-32.8,11.3-32.8,37.8v120.1c0,7.2-4,11.3-11.3,11.3h-45c-7.2,0-11.3-4.1-11.3-11.3v-292.5c0-7.2,4-11.3,11.3-11.3h45
		c7.2,0,11.3,4.1,11.3,11.3v99.3c10.6-15.6,29.7-26.9,58.5-26.9C667.3,1462.1,697.4,1494.5,697.4,1550.7z"/>
	<path class="st4" d="M927.8,1551.6v130.5c0,7.2-4,11.3-11.3,11.3h-43.2c-7.2,0-11.3-4.1-11.3-11.3v-6.4c-12.1,14.1-29.8,24-58,24
		c-39.6,0-74.3-23.4-74.3-70.2s34.7-70.2,74.3-70.2c28.3,0,46,8,58,17.2v-20.3c0-22.1-9-31.9-27.9-31.9c-14,0-22.5,5.4-26.1,13.1
		c-2.7,6.3-5,9.9-11.7,9.9h-44.1c-7.2,0-11.7-4.1-11.3-11.7c5.8-48.6,47.3-73.3,93.1-73.3C883.7,1462.1,927.8,1490.9,927.8,1551.6z
		 M862.1,1629.5c0-13.9-12.2-22.5-34.2-22.5c-20.7,0-30.6,9.4-30.6,22.5s9.9,22.5,30.6,22.5C850,1652,862.1,1642.5,862.1,1629.5z"/>
	<path class="st4" d="M1190.2,1620.5c-13.9,46.8-58.1,79.2-110.7,79.2c-68.4,0-119.2-51.7-119.2-118.8s50.8-118.8,119.2-118.8
		c52.7,0,96.8,32.4,110.7,79.2c2.7,7.6-1.8,12.6-9.4,12.6h-49.5c-5.8,0-9.9-2.7-13.5-7.7c-8.1-11.2-22.1-17.6-38.3-17.6
		c-29.2,0-51.7,21.2-51.7,52.2s22.5,52.2,51.7,52.2c16.2,0,30.2-6.3,38.3-17.1c3.6-5.4,7.2-8.1,13.5-8.1h49.5
		C1188.4,1607.9,1192.9,1612.8,1190.2,1620.5z"/>
	<path class="st4" d="M1419.7,1693.4h-51.3c-5.8,0-10.3-2.3-13.5-7.2l-62.6-91.5v87.4c0,7.2-4.1,11.3-11.3,11.3h-45
		c-7.2,0-11.3-4.1-11.3-11.3v-292.5c0-7.2,4.1-11.3,11.3-11.3h45c7.2,0,11.3,4.1,11.3,11.3v176.5l58.1-90.6
		c3.2-4.9,7.7-7.2,13.5-7.2h51.8c9,0,12.1,5.8,7.2,13.5l-66.1,99l69.8,99C1431.8,1687.5,1428.7,1693.4,1419.7,1693.4z"/>
</g>
<g>
	<path class="st4" d="M613.6,1164.3c7.7-1.4,11.7,3.6,11.7,10.8v53.1c0,7.2-3.2,10.8-9,10.8c-25.2-0.9-49.5,11.7-49.5,47.7v94.9
		c0,7.2-4,11.3-11.3,11.3h-45c-7.2,0-11.3-4.1-11.3-11.3v-202.5c0-7.2,4-11.3,11.3-11.3h45c7.2,0,11.3,4.1,11.3,11.3v24.3
		C573.5,1180.8,591.3,1167.6,613.6,1164.3L613.6,1164.3L613.6,1164.3z"/>
	<path class="st4" d="M836.8,1251.1v130.5c0,7.2-4,11.3-11.3,11.3h-43.2c-7.2,0-11.3-4.1-11.3-11.3v-6.4c-12.1,14.1-29.8,24-58,24
		c-39.6,0-74.3-23.4-74.3-70.2s34.7-70.2,74.3-70.2c28.3,0,46,8,58,17.2v-20.3c0-22.1-9-31.9-27.9-31.9c-14,0-22.5,5.4-26.1,13.1
		c-2.7,6.3-5,9.9-11.7,9.9h-44.1c-7.2,0-11.7-4.1-11.3-11.7c5.8-48.6,47.3-73.3,93.1-73.3C792.7,1161.6,836.8,1190.4,836.8,1251.1z
		 M771.1,1329c0-13.9-12.2-22.5-34.2-22.5c-20.7,0-30.6,9.4-30.6,22.5s9.9,22.5,30.6,22.5C759,1351.5,771.1,1342,771.1,1329z"/>
	<path class="st4" d="M1074,1180.9l-73.3,202.9c-2.3,5.8-6.3,9-12.6,9h-37.8h-10.8c-6.3,0-10.3-3.2-12.6-9l-73.3-202.9
		c-2.7-8.1,1.3-13.1,9.5-13.1h48.2c6.3,0,10.8,3.1,12.6,9.4l40,129l40-129c1.8-6.3,6.3-9.4,12.6-9.4h48.6
		C1073.1,1167.9,1076.7,1172.8,1074,1180.9z"/>
	<path class="st4" d="M1319.2,1280.4c0,5.8-0.4,11.3-0.9,16.6c-0.9,7.2-5.4,10.4-12.1,10.4h-54.9h-95.4
		c8.2,26.7,29.2,37.3,52.6,37.3c12.6,0,25.2-4.5,33.3-11.3c4.5-3.6,8.1-5.9,13.9-5.9l43.2-0.4c8.1,0,12.6,5.4,9,12.6
		c-17.5,39.1-54.4,59.4-100.3,59.4c-74.7,0-122.4-51.7-122.4-118.8s49.5-118.8,120.6-118.8
		C1271.5,1161.6,1319.2,1212.4,1319.2,1280.4z M1252,1256.1c-7-25.6-26.8-34.6-46.7-34.6c-25.3,0-42.8,12.2-49.8,34.6H1252z"/>
	<path class="st4" d="M1554.5,1250.2v131.4c0,7.2-4.1,11.3-11.3,11.3h-45c-7.2,0-11.3-4.1-11.3-11.3v-125.5
		c0-22.5-13.1-32.4-30.2-32.4c-20.3,0-32.8,11.3-32.8,37.8v120.1c0,7.2-4.1,11.3-11.3,11.3h-45c-7.2,0-11.2-4.1-11.2-11.3v-202.5
		c0-7.2,4.1-11.3,11.2-11.3h45c7.2,0,11.3,4.1,11.3,11.3v9.3c10.6-15.6,29.7-26.9,58.5-26.9
		C1524.4,1161.6,1554.5,1194,1554.5,1250.2z"/>
</g>
</svg>
