<?xml version="1.0" encoding="utf-8"?>
<!-- Generator: Adobe Illustrator 17.0.0, SVG Export Plug-In . SVG Version: 6.00 Build 0)  -->
<!DOCTYPE svg PUBLIC "-//W3C//DTD SVG 1.1//EN" "http://www.w3.org/Graphics/SVG/1.1/DTD/svg11.dtd">
<svg version="1.1" id="Layer_1" xmlns="http://www.w3.org/2000/svg" xmlns:xlink="http://www.w3.org/1999/xlink" x="0px" y="0px"
	 width="1024px" height="1024px" viewBox="0 0 1024 1024" enable-background="new 0 0 1024 1024" xml:space="preserve">
<g>
	<path d="M514.15,28.284L999.713,514.98L516.528,997.04L30.965,510.344L514.15,28.284 M514.183,0L2.681,510.311l513.814,515.013
		l511.502-510.312L514.183,0L514.183,0z"/>
</g>
<g display="none">
	<path display="inline" fill="#E0013F" stroke="#000000" stroke-width="5" stroke-miterlimit="10" d="M633.633,881.195
		l-77.074,77.075l-16.264-16.263c-0.119-46.313-0.473-76.25-1.061-89.803c-0.707-12.253-1.74-21.064-3.094-26.428
		c-1.355-5.361-4.508-10.52-9.457-15.469c-5.066-5.066-11.551-7.541-19.445-7.424c-7.897,0.118-15.203,3.535-21.92,10.252
		c-6.13,6.13-9.281,12.877-9.458,20.241c-0.177,7.37,1.268,13.643,4.331,18.827l-20.859,8.838
		c-4.361-8.365-6.188-18.561-5.48-30.582c0.707-12.021,6.126-23.097,16.264-33.234c11.194-11.194,23.807-16.967,37.83-17.323
		c14.023-0.351,25.809,4.243,35.355,13.788c11.785,11.787,17.97,30.82,18.561,57.1l0.178,70.887l56.038-56.038L633.633,881.195z"/>
	<path display="inline" fill="#E0013F" stroke="#000000" stroke-width="5" stroke-miterlimit="10" d="M717.6,766.471
		c3.183,21.097-2.475,38.891-16.971,53.387c-14.495,14.495-32.291,20.154-53.386,16.97c-21.095-3.179-40.599-13.728-58.513-31.644
		c-18.031-18.031-28.608-37.562-31.732-58.602c-3.123-21.033,2.563-38.802,17.059-53.297c14.496-14.496,32.263-20.181,53.299-17.06
		c21.037,3.126,40.57,13.7,58.602,31.731C703.872,725.872,714.418,745.379,717.6,766.471z M685.073,804.301
		c9.662-9.662,12.877-21.948,9.634-36.857c-3.239-14.908-11.694-29.196-25.367-42.869c-13.789-13.789-28.107-22.273-42.957-25.455
		c-14.849-3.183-27.107,0.061-36.77,9.723c-9.783,9.783-13.053,22.068-9.811,36.857c3.24,14.791,11.756,29.08,25.544,42.868
		c13.673,13.673,27.931,22.157,42.78,25.456C662.977,817.326,675.29,814.084,685.073,804.301z"/>
	<path display="inline" fill="#E0013F" stroke="#000000" stroke-width="5" stroke-miterlimit="10" d="M836.569,678.26
		l-77.075,77.074l-16.263-16.263c-0.118-46.313-0.473-76.249-1.061-89.803c-0.707-12.253-1.741-21.063-3.094-26.428
		c-1.356-5.361-4.508-10.519-9.458-15.468c-5.065-5.066-11.551-7.541-19.445-7.426c-7.896,0.119-15.202,3.536-21.92,10.254
		c-6.129,6.129-9.281,12.877-9.457,20.24c-0.178,7.369,1.268,13.643,4.33,18.827l-20.859,8.839
		c-4.361-8.366-6.188-18.562-5.48-30.582c0.707-12.021,6.127-23.098,16.264-33.234c11.195-11.195,23.807-16.968,37.83-17.324
		c14.023-0.351,25.811,4.242,35.355,13.789c11.787,11.785,17.971,30.819,18.562,57.099l0.177,70.888l56.039-56.039L836.569,678.26z"
		/>
	<path display="inline" fill="#E0013F" stroke="#000000" stroke-width="5" stroke-miterlimit="10" d="M920.536,563.534
		c3.183,21.097-2.475,38.891-16.97,53.386c-14.496,14.496-32.293,20.156-53.387,16.971c-21.095-3.179-40.599-13.728-58.514-31.643
		c-18.031-18.031-28.607-37.563-31.731-58.602c-3.124-21.033,2.563-38.802,17.06-53.298c14.495-14.496,32.262-20.18,53.297-17.059
		c21.037,3.126,40.57,13.7,58.602,31.731C906.809,522.936,917.354,542.442,920.536,563.534z M888.01,601.364
		c9.662-9.661,12.877-21.948,9.635-36.858c-3.24-14.906-11.695-29.195-25.368-42.868c-13.788-13.789-28.107-22.273-42.956-25.456
		c-14.85-3.182-27.108,0.061-36.77,9.723c-9.784,9.784-13.055,22.07-9.812,36.858c3.239,14.792,11.755,29.079,25.544,42.868
		c13.673,13.673,27.931,22.158,42.78,25.456C865.912,614.391,878.227,611.148,888.01,601.364z"/>
</g>
<path fill="none" stroke="#000000" stroke-width="12" stroke-miterlimit="10" d="M738.639,515.981c-27-52.5-85.5-83.012-85.5-83.012
	l7.5-5.988l-13-2.5l7.5-11.5l-10.5,3c2-9.5-15.5-19.5-12-14.5s0,11,0,11l-5.5-7.5l-3,6c-6.5-28.5-39-66-39-66v8.5
	c-5.5-15-53.5-43.5-53.5-43.5v5.5c-35.5-24-73-19.5-73-19.5l6,4.5c-116,31.333-108-8-108-8c-10.667,21.333,28,50,28,50
	c-75.333,4-98.666,40-98.666,40s24.667-3.333,30-8.667c5.333-5.333,34.666,2,40.666,6s-38,10-38,10l34,6
	c-77.333,18-84.666,52-84.666,52c37.333-23.167,103.166-11.833,94.166-11.833s-44.5,23.5-44.5,23.5s48.5,1.5,33,3s-42,74.5-28,52.5
	c14-22,55.5-24,55.5-24s-27,33.5-26.5,37.5s63.5-18.5,63.5-18.5s-29.5,43-5.5,21c24-22,50.5-13,50.5-13s-25.5,3.5-26,9
	s29,13.5,29,13.5l36-0.5l-29,12.5c4,17,116.5-13.5,116.5-13.5c32,15,143.5,9,143.5,9l23,25
	C753.138,572.981,765.638,568.481,738.639,515.981z M573.689,412.606c-7.5,0.5-35-8.25-35-8.25s-20.056-8.5-33.652-3.75
	c-13.597,4.75,1.152-7.5,1.152-7.5s-7-29.75,13.5-27s43.25,29.25,43.25,29.25s10.75,8.25,12.25,7s7.75-4.75,7.5-7.25
	s1.25,10.25,1.25,10.25S581.189,412.106,573.689,412.606z"/>
<rect x="394.696" y="707.799" transform="matrix(0.7071 -0.7071 0.7071 0.7071 -305.0767 736.9609)" display="none" fill="#E0013F" width="684.712" height="57.882"/>
<rect x="-53.291" y="707.799" transform="matrix(0.7071 0.7071 -0.7071 0.7071 605.6194 11.3866)" display="none" fill="#E0013F" width="684.712" height="57.882"/>
<g>
	<path d="M230.98,700.469l-11.1-4.5l48.45-116.7l11.1,4.5L230.98,700.469z"/>
	<path d="M288.429,609.269l3.6-10.95l16.65,6l0.75-0.3v-17.85h11.4v17.85l0.6,0.3l16.8-6l3.6,10.95l-16.8,5.7l-0.3,1.05l11.55,15.6
		l-9.3,6.75l-11.4-15.6h-0.9l-11.4,15.6l-9.3-6.75l11.55-15.6l-0.3-1.05L288.429,609.269z"/>
	<path d="M403.026,586.169v33.899l-0.6,10.2h0.6c1.999-3.499,5.149-6.474,9.45-8.925c4.298-2.449,8.899-3.675,13.8-3.675
		c9.098,0,16.05,2.801,20.85,8.399c4.8,5.602,7.2,13.102,7.2,22.5v45h-13.8v-42.899c0-13.599-6.052-20.4-18.15-20.4
		c-5.7,0-10.35,2.275-13.95,6.825c-3.6,4.552-5.4,9.825-5.4,15.825v40.649h-13.8V586.169H403.026z"/>
	<path d="M493.026,695.969c-7.8,0-14.325-2.25-19.575-6.75s-7.875-10.448-7.875-17.851c0-7.999,3.098-14.273,9.3-18.824
		c6.199-4.55,13.849-6.825,22.95-6.825c8.1,0,14.749,1.5,19.949,4.5v-2.101c0-5.399-1.852-9.724-5.549-12.975
		c-3.701-3.248-8.25-4.875-13.65-4.875c-4.001,0-7.627,0.951-10.875,2.85c-3.251,1.901-5.475,4.5-6.675,7.801l-12.6-5.4
		c1.699-4.399,5.049-8.475,10.05-12.225c4.999-3.75,11.599-5.625,19.8-5.625c9.398,0,17.199,2.751,23.4,8.25
		c6.199,5.5,9.3,13.251,9.3,23.25v44.399h-13.2v-10.2h-0.6C511.675,691.769,503.625,695.969,493.026,695.969z M495.276,683.368
		c5.7,0,10.875-2.123,15.525-6.375c4.65-4.249,6.975-9.273,6.975-15.074c-3.899-3.199-9.75-4.801-17.549-4.801
		c-6.701,0-11.751,1.451-15.15,4.351c-3.401,2.901-5.1,6.3-5.1,10.2c0,3.6,1.549,6.449,4.65,8.55
		C487.725,682.318,491.275,683.368,495.276,683.368z"/>
	<path d="M579.427,695.969c-11.002,0-20.051-3.725-27.15-11.175c-7.102-7.449-10.649-16.774-10.649-27.976
		c0-11.198,3.548-20.524,10.649-27.975c7.1-7.448,16.148-11.175,27.15-11.175c8.198,0,15,2.001,20.399,6
		c5.4,4,9.35,9.051,11.851,15.149l-12.601,5.25c-3.801-9.199-10.649-13.8-20.55-13.8c-6.101,0-11.475,2.501-16.125,7.5
		c-4.649,5.002-6.975,11.351-6.975,19.05c0,7.702,2.325,14.051,6.975,19.05c4.65,5.002,10.024,7.5,16.125,7.5
		c10.299,0,17.4-4.598,21.3-13.8l12.301,5.25c-2.501,6-6.525,11.025-12.075,15.075S587.625,695.969,579.427,695.969z"/>
	<path d="M637.925,586.169v66.149l31.8-32.25h17.7v0.601l-28.65,28.649l30,43.65v0.6h-16.65l-23.1-34.649l-11.1,11.1v23.55h-13.801
		V586.169H637.925z"/>
	<path d="M727.171,609.269l3.6-10.95l16.65,6l0.75-0.3v-17.85h11.399v17.85l0.601,0.3l16.8-6l3.6,10.95l-16.8,5.7l-0.3,1.05
		l11.55,15.6l-9.3,6.75l-11.4-15.6h-0.899l-11.4,15.6l-9.3-6.75l11.55-15.6l-0.3-1.05L727.171,609.269z"/>
	<path d="M800.669,700.469l-11.101-4.5l48.45-116.7l11.1,4.5L800.669,700.469z"/>
</g>
<g>
</g>
<g>
</g>
<g>
</g>
<g>
</g>
<g>
</g>
<g>
</g>
</svg>
