<?xml version="1.0" encoding="utf-8"?>
<!-- Generator: Adobe Illustrator 24.0.1, SVG Export Plug-In . SVG Version: 6.00 Build 0)  -->
<svg version="1.1" id="Layer_1" xmlns="http://www.w3.org/2000/svg" xmlns:xlink="http://www.w3.org/1999/xlink" x="0px" y="0px"
	 viewBox="0 0 1000 300" style="enable-background:new 0 0 1000 300;" xml:space="preserve">
<style type="text/css">
	.st0{fill:#FFBC00;}
</style>
<g>
	<polygon points="54.93,242.7 54.93,235.85 43.65,235.85 43.65,242.7 8.96,242.7 8.96,164.63 39.98,164.63 49.29,180.72 
		58.6,164.63 89.63,164.63 89.63,242.7 	"/>
	<path class="st0" d="M80.95,173.31v60.72H63.61v-29.58l-13.53,22.73h-1.56l-13.53-22.73v29.58H17.63v-60.72h17.35l14.31,24.72
		l14.31-24.72H80.95z"/>
	<polygon points="118.1,242.7 116.01,234.9 111.82,234.9 109.74,242.7 72.56,242.7 97.43,164.63 130.41,164.63 155.28,242.7 	"/>
	<path class="st0" d="M124.76,234.03l-2.08-7.81h-17.52l-2.08,7.81H84.42l19.34-60.72h20.3l19.34,60.72H124.76z M108.89,212.34
		h10.06l-5.03-18.65L108.89,212.34z"/>
	<path d="M138.2,242.62v-78.07h32.96c8.83,0,16.33,2.72,22.28,8.08c6.13,5.52,9.38,13.11,9.38,21.93c0,5.09-1.22,9.81-3.61,14.01
		c-1,1.75-2.17,3.37-3.5,4.85l15.44,29.2H138.2z"/>
	<path class="st0" d="M178.19,233.94l-9.63-19.08h-4.34v19.08h-17.35v-60.72h24.29c6.65,0,12.14,1.95,16.48,5.86
		c4.34,3.9,6.51,9.07,6.51,15.48c0,3.59-0.82,6.82-2.47,9.72c-1.65,2.89-3.95,5.23-6.9,7.03l11.97,22.64H178.19z M164.23,189.18
		v11.28h6.59c1.85,0.06,3.31-0.4,4.38-1.39c1.07-0.98,1.6-2.37,1.6-4.16c0-1.79-0.54-3.19-1.6-4.21c-1.07-1.01-2.53-1.52-4.38-1.52
		H164.23z"/>
	<path d="M229.81,244.09c-11.5,0-21.22-3.93-28.89-11.68c-7.65-7.72-11.53-17.4-11.53-28.74c0-11.35,3.88-21.02,11.53-28.74
		c7.67-7.75,17.39-11.68,28.89-11.68c7.09,0,13.74,1.72,19.77,5.1c6.07,3.41,10.9,8.09,14.33,13.92l4.46,7.56l-24.03,13.81
		l23.98,13.78l-4.39,7.54c-3.44,5.91-8.27,10.63-14.36,14.05C243.55,242.38,236.89,244.09,229.81,244.09z M229.81,197.6
		c-2.39,0-3.44,0.75-4.14,1.49c-0.74,0.77-1.58,1.98-1.58,4.58s0.84,3.81,1.58,4.58c0.71,0.74,1.75,1.49,4.15,1.49
		c1.1,0,1.99-0.2,2.72-0.62c0.6-0.34,0.84-0.65,1.01-1.01l2.22-4.56l-2.17-4.34c-0.14-0.27-0.37-0.6-1.06-0.98
		C231.74,197.8,230.88,197.6,229.81,197.6z"/>
	<path class="st0" d="M229.81,235.42c-9.14,0-16.71-3.03-22.73-9.11c-6.02-6.07-9.02-13.62-9.02-22.64c0-9.02,3.01-16.57,9.02-22.64
		c6.01-6.07,13.59-9.11,22.73-9.11c5.61,0,10.78,1.33,15.53,3.99c4.74,2.66,8.44,6.25,11.1,10.76l-15.09,8.67
		c-0.98-1.97-2.52-3.53-4.6-4.68c-2.08-1.16-4.4-1.74-6.94-1.74c-4.28,0-7.75,1.39-10.41,4.16c-2.66,2.78-3.99,6.3-3.99,10.58
		c0,4.28,1.33,7.81,3.99,10.58c2.66,2.78,6.13,4.16,10.41,4.16c2.6,0,4.93-0.58,6.98-1.73c2.05-1.16,3.57-2.75,4.55-4.77l15.09,8.67
		c-2.66,4.57-6.36,8.18-11.1,10.84C240.59,234.09,235.42,235.42,229.81,235.42z"/>
	<rect x="252.1" y="164.63" width="66.79" height="78.07"/>
	<path class="st0" d="M292.87,173.31h17.35v60.72h-17.35v-22.38h-14.75v22.38h-17.35v-60.72h17.35v21.51h14.75V173.31z"/>
	<path d="M324.97,242.7v-24.73l15.68-16.98l-19.34-10.55l3.05-7.23c2.72-6.45,6.88-11.47,12.36-14.91
		c5.35-3.36,11.35-5.06,17.84-5.06c7.94,0,14.91,2.34,20.71,6.96c6.31,5.02,9.65,12.21,9.65,20.8c0,5.19-1.2,9.87-3.57,13.92
		c-0.67,1.15-1.45,2.34-2.35,3.6h7.22v34.18H324.97z"/>
	<path class="st0" d="M333.64,234.03v-12.66l19.78-21.43c0.35-0.4,0.85-0.95,1.52-1.65c0.66-0.69,1.13-1.18,1.39-1.47
		c0.26-0.29,0.61-0.68,1.04-1.17c0.43-0.49,0.72-0.9,0.87-1.21c0.14-0.32,0.29-0.66,0.43-1.04c0.14-0.38,0.22-0.77,0.22-1.17
		c0-0.98-0.35-1.81-1.04-2.47c-0.69-0.66-1.71-1-3.04-1c-3.24,0-5.64,2.05-7.2,6.16l-15.27-8.33c2.02-4.8,5.02-8.44,8.98-10.93
		c3.96-2.49,8.37-3.73,13.23-3.73c5.96,0,11.06,1.69,15.31,5.07s6.38,8.05,6.38,14.01c0,3.64-0.8,6.82-2.39,9.54
		c-1.59,2.72-4.09,5.99-7.5,9.8l-6.16,6.85h17.35v16.83H333.64z"/>
	<polygon points="383.35,242.7 383.35,202.44 375.39,204.34 367.04,174.03 393.11,164.63 418.04,164.63 418.04,242.7 	"/>
	<path class="st0" d="M394.62,173.31h14.75v60.72h-17.35v-42.59l-10.5,2.52l-3.99-14.49L394.62,173.31z"/>
	<path d="M467.23,252.42c-11.72,0-21.69-3.78-29.62-11.25c-8.09-7.6-12.19-17.3-12.19-28.83c0-11.06,3.9-20.6,11.58-28.36
		c7.7-7.78,17.35-11.72,28.67-11.72c7.76,0,14.8,1.95,20.92,5.8c6.05,3.8,10.65,8.68,13.67,14.49c2.95,5.68,4.45,11.76,4.45,18.05
		c0,19.09-8.93,25.56-16.4,27.63v10.65l-6.38,1.75C477.61,251.82,472.66,252.42,467.23,252.42z"/>
	<path class="st0" d="M465.67,180.94c6.13,0,11.57,1.49,16.31,4.47c4.74,2.98,8.27,6.69,10.58,11.15c2.31,4.45,3.47,9.14,3.47,14.05
		c0,13.24-4.86,19.86-14.57,19.86c-3.18,0-5.85-0.68-8.02-2.04c-2.17-1.36-3.69-3.17-4.56-5.42c-2.08,2.43-4.8,3.64-8.15,3.64
		c-3.99,0-7.19-1.33-9.59-3.99c-2.4-2.66-3.6-6.1-3.6-10.32c0-4.22,1.2-7.66,3.6-10.32c2.4-2.66,5.6-3.99,9.59-3.99
		c2.95,0,5.43,0.95,7.46,2.86v-1.82h13.18v20.47c0,3.47,1.27,5.2,3.82,5.2c1.91,0,3.47-1.11,4.68-3.34
		c1.21-2.22,1.82-5.83,1.82-10.8c0-7.23-2.5-13.32-7.5-18.26c-5-4.94-11.18-7.42-18.52-7.42c-7.69,0-14.16,2.63-19.39,7.89
		c-5.24,5.26-7.85,11.77-7.85,19.52c0,7.92,2.72,14.47,8.15,19.65s12.32,7.76,20.65,7.76c4.74,0,8.88-0.58,12.4-1.73v4.25
		c-3.59,0.98-7.72,1.48-12.4,1.48c-9.49,0-17.38-2.96-23.68-8.89c-6.3-5.93-9.46-13.43-9.46-22.51c0-8.73,3.02-16.15,9.07-22.25
		C449.2,183.99,456.7,180.94,465.67,180.94z M461.76,215.29c0.69,0.75,1.59,1.13,2.69,1.13c1.1,0,1.98-0.37,2.65-1.13
		c0.66-0.75,1-1.74,1-2.95s-0.33-2.2-1-2.95c-0.67-0.75-1.55-1.13-2.65-1.13c-1.1,0-1.99,0.38-2.69,1.13
		c-0.69,0.75-1.04,1.74-1.04,2.95S461.07,214.54,461.76,215.29z"/>
	<path d="M511.2,242.62v-78.07h32.96c8.83,0,16.32,2.72,22.28,8.08c6.14,5.52,9.38,13.11,9.38,21.93c0,5.09-1.21,9.81-3.61,14.01
		c-1,1.75-2.17,3.37-3.5,4.85l15.44,29.2H511.2z"/>
	<path class="st0" d="M551.19,233.94l-9.63-19.08h-4.34v19.08h-17.35v-60.72h24.29c6.65,0,12.14,1.95,16.48,5.86
		c4.34,3.9,6.51,9.07,6.51,15.48c0,3.59-0.82,6.82-2.47,9.72c-1.65,2.89-3.95,5.23-6.9,7.03l11.97,22.64H551.19z M537.23,189.18
		v11.28h6.59c1.85,0.06,3.31-0.4,4.38-1.39c1.07-0.98,1.6-2.37,1.6-4.16c0-1.79-0.53-3.19-1.6-4.21c-1.07-1.01-2.53-1.52-4.38-1.52
		H537.23z"/>
	<polygon points="565.42,242.7 565.42,164.63 622.24,164.63 622.24,197.77 620.07,197.77 620.07,209.39 622.67,209.39 622.67,242.7 
			"/>
	<path class="st0" d="M591.44,218.07H614v15.96h-39.9v-60.72h39.47v15.79h-22.12v6.59h19.95v15.61h-19.95V218.07z"/>
	<path d="M642.8,244.09c-8.21,0-15.3-1.83-21.08-5.44c-6.16-3.85-10.37-9.18-12.51-15.85l-2.14-6.66l11.76-6.81
		c-4.2-4.29-7.26-10.16-7.26-18.16c0-7.96,3.07-14.96,8.88-20.22c5.64-5.12,12.93-7.71,21.66-7.71c6.71,0,12.86,1.64,18.28,4.87
		c5.69,3.39,9.91,8.3,12.54,14.6l2.93,7l-10.26,5.99c3.2,2.3,5.64,5.27,7.27,8.83c1.52,3.36,2.3,7.21,2.3,11.44
		c0,8.81-3.34,16.12-9.65,21.14C659.7,241.75,652.06,244.09,642.8,244.09z"/>
	<path class="st0" d="M642.8,235.42c-6.59,0-12.09-1.37-16.48-4.12c-4.4-2.75-7.34-6.46-8.85-11.15l14.83-8.59
		c2.02,5.15,5.67,7.72,10.93,7.72c3.93,0,5.9-1.04,5.9-3.12c0-0.58-0.15-1.1-0.43-1.56c-0.29-0.46-0.84-0.87-1.65-1.21
		c-0.81-0.35-1.52-0.62-2.13-0.82c-0.61-0.2-1.66-0.51-3.17-0.91c-1.5-0.4-2.63-0.72-3.38-0.95c-12.09-3.64-18.13-10.15-18.13-19.52
		c0-5.55,2.01-10.15,6.03-13.79c4.02-3.64,9.3-5.46,15.83-5.46c5.15,0,9.76,1.21,13.84,3.64c4.08,2.43,7.07,5.93,8.98,10.5
		l-14.4,8.41c-1.68-4.28-4.45-6.42-8.33-6.42c-1.5,0-2.65,0.3-3.43,0.91c-0.78,0.61-1.17,1.37-1.17,2.3c0,1.27,0.68,2.26,2.04,2.95
		c1.36,0.69,3.98,1.59,7.85,2.69c2.89,0.87,5.26,1.69,7.11,2.47c1.85,0.78,3.79,1.88,5.81,3.3c2.02,1.42,3.54,3.24,4.55,5.46
		c1.01,2.23,1.52,4.84,1.52,7.85c0,6.19-2.13,10.97-6.38,14.36C655.85,233.73,650.08,235.42,642.8,235.42z"/>
	<polygon points="708.55,242.7 708.55,235.85 697.27,235.85 697.27,242.7 662.57,242.7 662.57,164.63 693.6,164.63 702.91,180.72 
		712.22,164.63 743.25,164.63 743.25,242.7 	"/>
	<path class="st0" d="M734.57,173.31v60.72h-17.35v-29.58l-13.53,22.73h-1.56l-13.53-22.73v29.58h-17.35v-60.72h17.35l14.31,24.72
		l14.31-24.72H734.57z"/>
	<polygon points="734.57,242.7 734.57,164.63 791.39,164.63 791.39,197.77 789.22,197.77 789.22,209.39 791.82,209.39 791.82,242.7 
			"/>
	<path class="st0" d="M760.6,218.07h22.55v15.96h-39.9v-60.72h39.47v15.79H760.6v6.59h19.95v15.61H760.6V218.07z"/>
	<path d="M781.41,242.7v-78.07h33.83c10.78,0,19.95,3.82,27.26,11.35c7.24,7.46,10.91,16.77,10.91,27.68
		c0,10.91-3.67,20.22-10.91,27.68c-7.31,7.53-16.48,11.35-27.26,11.35H781.41z M816.98,208.1c0.2-0.14,0.38-0.31,0.56-0.51
		c0.5-0.55,1.17-1.57,1.17-3.93s-0.67-3.37-1.17-3.93c-0.18-0.2-0.36-0.37-0.56-0.51V208.1z"/>
	<path class="st0" d="M815.24,173.31c8.38,0,15.4,2.91,21.04,8.72c5.64,5.81,8.46,13.03,8.46,21.64c0,8.62-2.82,15.83-8.46,21.64
		c-5.64,5.81-12.65,8.72-21.04,8.72h-25.16v-60.72H815.24z M815.24,217.2c3.53,0,6.43-1.26,8.72-3.77c2.28-2.52,3.43-5.77,3.43-9.76
		s-1.14-7.24-3.43-9.76c-2.29-2.52-5.19-3.77-8.72-3.77h-6.94v27.06H815.24z"/>
	<rect x="859.92" y="164.63" width="66.79" height="78.07"/>
	<path class="st0" d="M900.69,173.31h17.35v60.72h-17.35v-22.38h-14.75v22.38h-17.35v-60.72h17.35v21.51h14.75V173.31z"/>
	<path d="M967.85,242.63c-3.59,0.97-7.31,1.46-11.12,1.46c-11.33,0-21.07-3.91-28.93-11.64c-7.91-7.76-11.92-17.45-11.92-28.79
		c0-11.34,4.01-21.02,11.92-28.79c7.87-7.72,17.6-11.64,28.93-11.64c11.33,0,21.07,3.91,28.93,11.63
		c7.91,7.77,11.92,17.45,11.92,28.79c0,6.44-1.36,12.44-4.05,17.92l6.47,7.05l-24.91,21.82L967.85,242.63z"/>
	<path class="st0" d="M988.91,203.67c0,7.11-2.05,13.45-6.16,19l4.86,5.29l-11.88,10.41l-5.38-5.81c-4.28,1.91-8.82,2.86-13.62,2.86
		c-9.02,0-16.64-3.05-22.86-9.15c-6.22-6.1-9.32-13.63-9.32-22.6c0-8.96,3.11-16.49,9.32-22.6c6.22-6.1,13.84-9.15,22.86-9.15
		c9.02,0,16.64,3.05,22.86,9.15C985.8,187.17,988.91,194.71,988.91,203.67z M956.72,218.41h0.61l-7.46-8.15l11.97-10.32l8.67,9.45
		c0.69-1.73,1.04-3.64,1.04-5.72c0-4.22-1.4-7.73-4.21-10.54c-2.81-2.8-6.35-4.21-10.63-4.21c-4.28,0-7.82,1.4-10.63,4.21
		c-2.81,2.81-4.21,6.32-4.21,10.54c0,4.22,1.4,7.74,4.21,10.54C948.9,217.01,952.44,218.41,956.72,218.41z"/>
</g>
<g>
	<path class="st0" d="M80.95,173.31v60.72H63.61v-29.58l-13.53,22.73h-1.56l-13.53-22.73v29.58H17.63v-60.72h17.35l14.31,24.72
		l14.31-24.72H80.95z"/>
	<path class="st0" d="M124.76,234.03l-2.08-7.81h-17.52l-2.08,7.81H84.42l19.34-60.72h20.3l19.34,60.72H124.76z M108.89,212.34
		h10.06l-5.03-18.65L108.89,212.34z"/>
	<path class="st0" d="M178.19,233.94l-9.63-19.08h-4.34v19.08h-17.35v-60.72h24.29c6.65,0,12.14,1.95,16.48,5.86
		c4.34,3.9,6.51,9.07,6.51,15.48c0,3.59-0.82,6.82-2.47,9.72c-1.65,2.89-3.95,5.23-6.9,7.03l11.97,22.64H178.19z M164.23,189.18
		v11.28h6.59c1.85,0.06,3.31-0.4,4.38-1.39c1.07-0.98,1.6-2.37,1.6-4.16c0-1.79-0.54-3.19-1.6-4.21c-1.07-1.01-2.53-1.52-4.38-1.52
		H164.23z"/>
	<path class="st0" d="M229.81,235.42c-9.14,0-16.71-3.03-22.73-9.11c-6.02-6.07-9.02-13.62-9.02-22.64c0-9.02,3.01-16.57,9.02-22.64
		c6.01-6.07,13.59-9.11,22.73-9.11c5.61,0,10.78,1.33,15.53,3.99c4.74,2.66,8.44,6.25,11.1,10.76l-15.09,8.67
		c-0.98-1.97-2.52-3.53-4.6-4.68c-2.08-1.16-4.4-1.74-6.94-1.74c-4.28,0-7.75,1.39-10.41,4.16c-2.66,2.78-3.99,6.3-3.99,10.58
		c0,4.28,1.33,7.81,3.99,10.58c2.66,2.78,6.13,4.16,10.41,4.16c2.6,0,4.93-0.58,6.98-1.73c2.05-1.16,3.57-2.75,4.55-4.77l15.09,8.67
		c-2.66,4.57-6.36,8.18-11.1,10.84C240.59,234.09,235.42,235.42,229.81,235.42z"/>
	<path class="st0" d="M292.87,173.31h17.35v60.72h-17.35v-22.38h-14.75v22.38h-17.35v-60.72h17.35v21.51h14.75V173.31z"/>
	<path class="st0" d="M333.64,234.03v-12.66l19.78-21.43c0.35-0.4,0.85-0.95,1.52-1.65c0.66-0.69,1.13-1.18,1.39-1.47
		c0.26-0.29,0.61-0.68,1.04-1.17c0.43-0.49,0.72-0.9,0.87-1.21c0.14-0.32,0.29-0.66,0.43-1.04c0.14-0.38,0.22-0.77,0.22-1.17
		c0-0.98-0.35-1.81-1.04-2.47c-0.69-0.66-1.71-1-3.04-1c-3.24,0-5.64,2.05-7.2,6.16l-15.27-8.33c2.02-4.8,5.02-8.44,8.98-10.93
		c3.96-2.49,8.37-3.73,13.23-3.73c5.96,0,11.06,1.69,15.31,5.07s6.38,8.05,6.38,14.01c0,3.64-0.8,6.82-2.39,9.54
		c-1.59,2.72-4.09,5.99-7.5,9.8l-6.16,6.85h17.35v16.83H333.64z"/>
	<path class="st0" d="M394.62,173.31h14.75v60.72h-17.35v-42.59l-10.5,2.52l-3.99-14.49L394.62,173.31z"/>
	<path class="st0" d="M465.67,180.94c6.13,0,11.57,1.49,16.31,4.47c4.74,2.98,8.27,6.69,10.58,11.15c2.31,4.45,3.47,9.14,3.47,14.05
		c0,13.24-4.86,19.86-14.57,19.86c-3.18,0-5.85-0.68-8.02-2.04c-2.17-1.36-3.69-3.17-4.56-5.42c-2.08,2.43-4.8,3.64-8.15,3.64
		c-3.99,0-7.19-1.33-9.59-3.99c-2.4-2.66-3.6-6.1-3.6-10.32c0-4.22,1.2-7.66,3.6-10.32c2.4-2.66,5.6-3.99,9.59-3.99
		c2.95,0,5.43,0.95,7.46,2.86v-1.82h13.18v20.47c0,3.47,1.27,5.2,3.82,5.2c1.91,0,3.47-1.11,4.68-3.34
		c1.21-2.22,1.82-5.83,1.82-10.8c0-7.23-2.5-13.32-7.5-18.26c-5-4.94-11.18-7.42-18.52-7.42c-7.69,0-14.16,2.63-19.39,7.89
		c-5.24,5.26-7.85,11.77-7.85,19.52c0,7.92,2.72,14.47,8.15,19.65s12.32,7.76,20.65,7.76c4.74,0,8.88-0.58,12.4-1.73v4.25
		c-3.59,0.98-7.72,1.48-12.4,1.48c-9.49,0-17.38-2.96-23.68-8.89c-6.3-5.93-9.46-13.43-9.46-22.51c0-8.73,3.02-16.15,9.07-22.25
		C449.2,183.99,456.7,180.94,465.67,180.94z M461.76,215.29c0.69,0.75,1.59,1.13,2.69,1.13c1.1,0,1.98-0.37,2.65-1.13
		c0.66-0.75,1-1.74,1-2.95s-0.33-2.2-1-2.95c-0.67-0.75-1.55-1.13-2.65-1.13c-1.1,0-1.99,0.38-2.69,1.13
		c-0.69,0.75-1.04,1.74-1.04,2.95S461.07,214.54,461.76,215.29z"/>
	<path class="st0" d="M551.19,233.94l-9.63-19.08h-4.34v19.08h-17.35v-60.72h24.29c6.65,0,12.14,1.95,16.48,5.86
		c4.34,3.9,6.51,9.07,6.51,15.48c0,3.59-0.82,6.82-2.47,9.72c-1.65,2.89-3.95,5.23-6.9,7.03l11.97,22.64H551.19z M537.23,189.18
		v11.28h6.59c1.85,0.06,3.31-0.4,4.38-1.39c1.07-0.98,1.6-2.37,1.6-4.16c0-1.79-0.53-3.19-1.6-4.21c-1.07-1.01-2.53-1.52-4.38-1.52
		H537.23z"/>
	<path class="st0" d="M591.44,218.07H614v15.96h-39.9v-60.72h39.47v15.79h-22.12v6.59h19.95v15.61h-19.95V218.07z"/>
	<path class="st0" d="M642.8,235.42c-6.59,0-12.09-1.37-16.48-4.12c-4.4-2.75-7.34-6.46-8.85-11.15l14.83-8.59
		c2.02,5.15,5.67,7.72,10.93,7.72c3.93,0,5.9-1.04,5.9-3.12c0-0.58-0.15-1.1-0.43-1.56c-0.29-0.46-0.84-0.87-1.65-1.21
		c-0.81-0.35-1.52-0.62-2.13-0.82c-0.61-0.2-1.66-0.51-3.17-0.91c-1.5-0.4-2.63-0.72-3.38-0.95c-12.09-3.64-18.13-10.15-18.13-19.52
		c0-5.55,2.01-10.15,6.03-13.79c4.02-3.64,9.3-5.46,15.83-5.46c5.15,0,9.76,1.21,13.84,3.64c4.08,2.43,7.07,5.93,8.98,10.5
		l-14.4,8.41c-1.68-4.28-4.45-6.42-8.33-6.42c-1.5,0-2.65,0.3-3.43,0.91c-0.78,0.61-1.17,1.37-1.17,2.3c0,1.27,0.68,2.26,2.04,2.95
		c1.36,0.69,3.98,1.59,7.85,2.69c2.89,0.87,5.26,1.69,7.11,2.47c1.85,0.78,3.79,1.88,5.81,3.3c2.02,1.42,3.54,3.24,4.55,5.46
		c1.01,2.23,1.52,4.84,1.52,7.85c0,6.19-2.13,10.97-6.38,14.36C655.85,233.73,650.08,235.42,642.8,235.42z"/>
	<path class="st0" d="M734.57,173.31v60.72h-17.35v-29.58l-13.53,22.73h-1.56l-13.53-22.73v29.58h-17.35v-60.72h17.35l14.31,24.72
		l14.31-24.72H734.57z"/>
	<path class="st0" d="M760.6,218.07h22.55v15.96h-39.9v-60.72h39.47v15.79H760.6v6.59h19.95v15.61H760.6V218.07z"/>
	<path class="st0" d="M815.24,173.31c8.38,0,15.4,2.91,21.04,8.72c5.64,5.81,8.46,13.03,8.46,21.64c0,8.62-2.82,15.83-8.46,21.64
		c-5.64,5.81-12.65,8.72-21.04,8.72h-25.16v-60.72H815.24z M815.24,217.2c3.53,0,6.43-1.26,8.72-3.77c2.28-2.52,3.43-5.77,3.43-9.76
		s-1.14-7.24-3.43-9.76c-2.29-2.52-5.19-3.77-8.72-3.77h-6.94v27.06H815.24z"/>
	<path class="st0" d="M900.69,173.31h17.35v60.72h-17.35v-22.38h-14.75v22.38h-17.35v-60.72h17.35v21.51h14.75V173.31z"/>
	<path class="st0" d="M988.91,203.67c0,7.11-2.05,13.45-6.16,19l4.86,5.29l-11.88,10.41l-5.38-5.81c-4.28,1.91-8.82,2.86-13.62,2.86
		c-9.02,0-16.64-3.05-22.86-9.15c-6.22-6.1-9.32-13.63-9.32-22.6c0-8.96,3.11-16.49,9.32-22.6c6.22-6.1,13.84-9.15,22.86-9.15
		c9.02,0,16.64,3.05,22.86,9.15C985.8,187.17,988.91,194.71,988.91,203.67z M956.72,218.41h0.61l-7.46-8.15l11.97-10.32l8.67,9.45
		c0.69-1.73,1.04-3.64,1.04-5.72c0-4.22-1.4-7.73-4.21-10.54c-2.81-2.8-6.35-4.21-10.63-4.21c-4.28,0-7.82,1.4-10.63,4.21
		c-2.81,2.81-4.21,6.32-4.21,10.54c0,4.22,1.4,7.74,4.21,10.54C948.9,217.01,952.44,218.41,956.72,218.41z"/>
</g>
<g>
	<path d="M41.09,150.6c-10.7,0-19.61-2.23-26.74-6.68C7.22,139.46,2.44,133.43,0,125.83l24.07-13.93
		c3.28,8.35,9.19,12.53,17.73,12.53c6.38,0,9.57-1.69,9.57-5.07c0-0.94-0.24-1.78-0.7-2.53c-0.47-0.75-1.36-1.41-2.67-1.97
		c-1.32-0.56-2.46-1.01-3.45-1.34c-0.99-0.33-2.7-0.82-5.14-1.48c-2.44-0.66-4.27-1.17-5.49-1.55C14.31,104.58,4.5,94.02,4.5,78.82
		c0-9.01,3.26-16.47,9.78-22.38c6.52-5.91,15.08-8.87,25.68-8.87c8.35,0,15.83,1.97,22.45,5.91s11.47,9.62,14.57,17.03L53.62,84.17
		c-2.72-6.94-7.23-10.41-13.51-10.41c-2.44,0-4.29,0.49-5.56,1.48s-1.9,2.23-1.9,3.73c0,2.06,1.1,3.66,3.31,4.78
		c2.2,1.13,6.45,2.58,12.74,4.36c4.69,1.41,8.54,2.74,11.54,4.01c3,1.27,6.14,3.05,9.43,5.35c3.28,2.3,5.75,5.26,7.39,8.87
		c1.64,3.61,2.46,7.86,2.46,12.74c0,10.04-3.45,17.8-10.34,23.29C62.27,147.85,52.92,150.6,41.09,150.6z"/>
	<path d="M143.55,148.35l-3.38-12.67h-28.43l-3.38,12.67H78.11l31.38-98.51h32.93l31.38,98.51H143.55z M117.79,113.16h16.33
		l-8.16-30.26L117.79,113.16z"/>
	<path d="M232.91,49.83h28.15v98.51h-22.52l-30.96-45.04v45.04h-28.15V49.83h22.52l30.96,45.04V49.83z"/>
	<path d="M344.09,49.83c13.6,0,24.98,4.71,34.13,14.14c9.15,9.43,13.72,21.13,13.72,35.11c0,13.98-4.57,25.68-13.72,35.11
		c-9.15,9.43-20.53,14.14-34.13,14.14h-40.81V49.83H344.09z M344.09,121.04c5.72,0,10.44-2.04,14.14-6.12
		c3.7-4.08,5.56-9.36,5.56-15.83c0-6.47-1.85-11.75-5.56-15.83c-3.71-4.08-8.42-6.12-14.14-6.12h-11.26v43.91H344.09z"/>
	<path d="M402.5,49.83h28.15v98.51H402.5V49.83z"/>
	<path d="M472.86,122.45h36.59v25.9h-64.74V49.83h64.03v25.61h-35.89v10.7h32.37v25.33h-32.37V122.45z"/>
	<path d="M618.1,90.22v11.68c0,14.07-4.53,25.71-13.58,34.9c-9.06,9.2-20.95,13.79-35.68,13.79c-15.39,0-27.96-4.9-37.72-14.71
		c-9.76-9.8-14.64-22.03-14.64-36.66c0-14.64,4.88-26.9,14.64-36.8c9.76-9.9,21.95-14.85,36.59-14.85c9.19,0,17.61,2.06,25.26,6.19
		c7.65,4.13,13.67,9.71,18.08,16.75l-23.92,13.65c-3.94-6-10.23-9.01-18.86-9.01c-7.04,0-12.74,2.25-17.1,6.76
		c-4.36,4.5-6.54,10.32-6.54,17.45c0,6.76,2.02,12.64,6.05,17.66c4.03,5.02,10.27,7.53,18.72,7.53c9.76,0,16.28-3.47,19.56-10.41
		H568V90.22H618.1z"/>
	<path d="M714.43,135.75c-10.09,9.9-22.45,14.85-37.08,14.85c-14.64,0-27-4.95-37.08-14.85c-10.09-9.9-15.13-22.12-15.13-36.66
		c0-14.54,5.04-26.76,15.13-36.66c10.08-9.9,22.45-14.85,37.08-14.85c14.64,0,27,4.95,37.08,14.85
		c10.09,9.9,15.13,22.12,15.13,36.66C729.56,113.63,724.52,125.85,714.43,135.75z M660.11,116.19c4.55,4.55,10.3,6.83,17.24,6.83
		c6.94,0,12.69-2.27,17.24-6.83c4.55-4.55,6.83-10.25,6.83-17.1c0-6.85-2.28-12.55-6.83-17.1c-4.55-4.55-10.3-6.83-17.24-6.83
		c-6.94,0-12.69,2.28-17.24,6.83c-4.55,4.55-6.83,10.25-6.83,17.1C653.28,105.94,655.56,111.64,660.11,116.19z"/>
	<path d="M765.45,120.9l-12.67,47.15h-21.11l4.22-47.15H765.45z"/>
	<path d="M853.55,150.6c-14.83,0-27.12-4.93-36.87-14.78c-9.76-9.85-14.64-22.1-14.64-36.73s4.88-26.88,14.64-36.73
		c9.76-9.85,22.05-14.78,36.87-14.78c9.1,0,17.5,2.16,25.19,6.47c7.69,4.32,13.7,10.13,18.01,17.45l-24.49,14.07
		c-1.6-3.19-4.08-5.72-7.46-7.6c-3.38-1.88-7.13-2.81-11.26-2.81c-6.94,0-12.57,2.25-16.89,6.76c-4.32,4.5-6.47,10.23-6.47,17.17
		c0,6.94,2.16,12.67,6.47,17.17c4.31,4.5,9.94,6.76,16.89,6.76c4.22,0,8-0.94,11.33-2.81c3.33-1.88,5.79-4.46,7.39-7.74l24.49,14.07
		c-4.32,7.41-10.32,13.28-18.01,17.59C871.04,148.44,862.65,150.6,853.55,150.6z"/>
	<path d="M960.79,148.35l-3.38-12.67h-28.43l-3.38,12.67h-30.26l31.38-98.51h32.93l31.38,98.51H960.79z M935.03,113.16h16.33
		l-8.16-30.26L935.03,113.16z"/>
</g>
</svg>
