<?xml version="1.0" encoding="utf-8"?>
<!-- Generator: Adobe Illustrator 24.0.1, SVG Export Plug-In . SVG Version: 6.00 Build 0)  -->
<svg version="1.1" id="Layer_1" xmlns="http://www.w3.org/2000/svg" xmlns:xlink="http://www.w3.org/1999/xlink" x="0px" y="0px"
	 viewBox="0 0 1000 450" style="enable-background:new 0 0 1000 450;" xml:space="preserve">
<style type="text/css">
	.st0{fill:#FFBC00;}
	.st1{fill:#FF9700;}
</style>
<g>
	<path d="M41.46,131.08c-10.8,0-19.79-2.25-26.98-6.74C7.29,119.84,2.46,113.75,0,106.08l24.29-14.06
		c3.31,8.43,9.27,12.64,17.89,12.64c6.44,0,9.66-1.71,9.66-5.12c0-0.95-0.24-1.8-0.71-2.55c-0.47-0.76-1.37-1.42-2.69-1.99
		c-1.33-0.57-2.48-1.02-3.48-1.35s-2.72-0.83-5.19-1.49s-4.31-1.18-5.54-1.56C14.44,84.64,4.54,73.99,4.54,58.65
		c0-9.09,3.29-16.62,9.87-22.58s15.22-8.95,25.91-8.95c8.43,0,15.97,1.99,22.65,5.96s11.57,9.71,14.7,17.18L54.11,64.05
		c-2.74-7-7.3-10.5-13.63-10.5c-2.46,0-4.33,0.49-5.61,1.49c-1.28,1-1.92,2.25-1.92,3.76c0,2.08,1.11,3.69,3.34,4.82
		c2.22,1.14,6.51,2.6,12.86,4.4c4.73,1.42,8.62,2.76,11.64,4.05c3.03,1.28,6.2,3.08,9.52,5.4c3.31,2.32,5.8,5.31,7.46,8.95
		s2.48,7.93,2.48,12.86c0,10.13-3.48,17.96-10.43,23.5C62.83,128.3,53.4,131.08,41.46,131.08z"/>
	<path d="M144.85,128.81l-3.41-12.78h-28.69l-3.41,12.78H78.82l31.66-99.4h33.23l31.66,99.4H144.85z M118.86,93.3h16.48l-8.23-30.53
		L118.86,93.3z"/>
	<path d="M235.02,29.4h28.4v99.4H240.7l-31.24-45.45v45.45h-28.4V29.4h22.72l31.24,45.45V29.4z"/>
	<path d="M347.2,29.4c13.72,0,25.21,4.75,34.44,14.27c9.23,9.52,13.84,21.32,13.84,35.43s-4.61,25.91-13.84,35.43
		c-9.23,9.52-20.72,14.27-34.44,14.27h-41.18V29.4H347.2z M347.2,101.25c5.77,0,10.53-2.06,14.27-6.18
		c3.73-4.12,5.61-9.44,5.61-15.97s-1.87-11.86-5.61-15.97c-3.74-4.12-8.5-6.18-14.27-6.18h-11.36v44.31h11.36V101.25z"/>
	<path d="M406.14,29.4h28.4v99.4h-28.4V29.4z"/>
	<path d="M477.14,102.67h36.92v26.13h-65.33V29.4h64.61v25.84h-36.21v10.8h32.66v25.56h-32.66v11.08H477.14z"/>
	<path d="M623.69,70.15v11.79c0,14.2-4.57,25.94-13.7,35.22c-9.14,9.28-21.14,13.91-36,13.91c-15.53,0-28.21-4.94-38.06-14.84
		c-9.85-9.89-14.77-22.23-14.77-36.99c0-14.77,4.92-27.14,14.77-37.13c9.85-9.99,22.15-14.98,36.92-14.98
		c9.27,0,17.77,2.08,25.49,6.25c7.72,4.17,13.79,9.8,18.24,16.9l-24.14,13.77c-3.98-6.05-10.32-9.09-19.03-9.09
		c-7.1,0-12.86,2.27-17.25,6.82c-4.4,4.54-6.6,10.41-6.6,17.61c0,6.82,2.04,12.75,6.1,17.82c4.07,5.07,10.36,7.6,18.89,7.6
		c9.85,0,16.43-3.5,19.74-10.5h-21.15V70.15H623.69z"/>
	<path d="M720.9,116.09c-10.18,9.99-22.65,14.98-37.42,14.98c-14.77,0-27.24-4.99-37.42-14.98c-10.18-9.99-15.27-22.32-15.27-36.99
		s5.09-27,15.27-36.99c10.17-9.99,22.65-14.98,37.42-14.98c14.77,0,27.24,4.99,37.42,14.98c10.18,9.99,15.27,22.32,15.27,36.99
		S731.08,106.1,720.9,116.09z M666.08,96.36c4.59,4.59,10.39,6.89,17.4,6.89s12.8-2.29,17.4-6.89c4.59-4.59,6.89-10.34,6.89-17.25
		s-2.3-12.66-6.89-17.25c-4.59-4.59-10.39-6.89-17.4-6.89s-12.8,2.3-17.4,6.89s-6.89,10.34-6.89,17.25
		C659.19,86.01,661.49,91.77,666.08,96.36z"/>
	<path d="M772.38,101.11l-12.78,47.58h-21.3l4.26-47.58H772.38z"/>
	<path d="M861.28,131.08c-14.96,0-27.37-4.97-37.2-14.91c-9.85-9.94-14.77-22.3-14.77-37.06s4.92-27.12,14.77-37.06
		c9.85-9.94,22.25-14.91,37.2-14.91c9.18,0,17.66,2.18,25.42,6.53c7.76,4.36,13.82,10.22,18.17,17.61l-24.71,14.2
		c-1.61-3.22-4.12-5.77-7.53-7.67c-3.41-1.9-7.19-2.84-11.36-2.84c-7,0-12.68,2.27-17.04,6.82c-4.36,4.54-6.53,10.32-6.53,17.33
		c0,7,2.18,12.78,6.53,17.33s10.03,6.82,17.04,6.82c4.26,0,8.07-0.95,11.43-2.84c3.36-1.9,5.84-4.5,7.46-7.81l24.71,14.2
		c-4.36,7.48-10.41,13.4-18.17,17.75C878.92,128.9,870.46,131.08,861.28,131.08z"/>
	<path d="M969.49,128.81l-3.41-12.78h-28.69l-3.41,12.78h-30.53l31.66-99.4h33.23l31.66,99.4H969.49z M943.49,93.3h16.48
		l-8.23-30.53L943.49,93.3z"/>
</g>
<g>
	<path class="st0" d="M112.18,183.76v91.82H85.95v-44.73l-20.46,34.37h-2.36l-20.46-34.37v44.73H16.42v-91.82h26.24l21.64,37.39
		l21.64-37.39H112.18z"/>
	<path class="st0" d="M178.42,275.58l-3.15-11.81h-26.5l-3.15,11.81h-28.2l29.25-91.82h30.7l29.25,91.82H178.42z M154.42,242.79
		h15.22l-7.61-28.2L154.42,242.79z"/>
	<path class="st0" d="M259.23,275.45l-14.56-28.86h-6.56v28.86h-26.24v-91.82h36.73c10.06,0,18.36,2.95,24.92,8.85
		c6.56,5.9,9.84,13.71,9.84,23.42c0,5.42-1.25,10.32-3.74,14.69c-2.49,4.37-5.97,7.92-10.43,10.62l18.1,34.24H259.23z
		 M238.11,207.77v17.05h9.97c2.8,0.09,5-0.61,6.62-2.1c1.62-1.49,2.43-3.58,2.43-6.3c0-2.71-0.81-4.83-2.43-6.36
		c-1.62-1.53-3.83-2.3-6.62-2.3H238.11z"/>
	<path class="st0" d="M337.28,277.68c-13.82,0-25.27-4.59-34.37-13.77c-9.1-9.18-13.64-20.59-13.64-34.24
		c0-13.64,4.55-25.06,13.64-34.24c9.09-9.18,20.55-13.77,34.37-13.77c8.48,0,16.31,2.01,23.48,6.03
		c7.17,4.02,12.77,9.44,16.79,16.27l-22.83,13.12c-1.49-2.97-3.8-5.33-6.95-7.08c-3.15-1.75-6.65-2.62-10.49-2.62
		c-6.47,0-11.72,2.1-15.74,6.3c-4.02,4.2-6.03,9.53-6.03,16c0,6.47,2.01,11.81,6.03,16c4.02,4.2,9.27,6.3,15.74,6.3
		c3.94,0,7.45-0.87,10.56-2.62c3.1-1.75,5.4-4.15,6.89-7.21l22.83,13.12c-4.02,6.91-9.62,12.38-16.79,16.4
		C353.59,275.67,345.76,277.68,337.28,277.68z"/>
	<path class="st0" d="M432.64,183.76h26.24v91.82h-26.24v-33.84h-22.3v33.84h-26.24v-91.82h26.24v32.53h22.3V183.76z"/>
	<path class="st0" d="M494.29,275.58v-19.15l29.91-32.4c0.52-0.61,1.29-1.44,2.29-2.49c1-1.05,1.71-1.79,2.1-2.23
		c0.39-0.44,0.92-1.03,1.57-1.77c0.66-0.74,1.09-1.35,1.31-1.84c0.22-0.48,0.44-1,0.66-1.57c0.22-0.57,0.33-1.16,0.33-1.77
		c0-1.49-0.52-2.73-1.57-3.74c-1.05-1-2.58-1.51-4.59-1.51c-4.9,0-8.53,3.1-10.89,9.31l-23.09-12.59
		c3.06-7.26,7.59-12.77,13.58-16.53c5.99-3.76,12.66-5.64,20-5.64c9.01,0,16.72,2.56,23.15,7.67c6.43,5.12,9.64,12.18,9.64,21.19
		c0,5.51-1.2,10.32-3.61,14.43c-2.41,4.11-6.19,9.05-11.35,14.82l-9.31,10.36h26.24v25.45H494.29z"/>
	<path class="st0" d="M586.51,183.76h22.3v91.82h-26.24v-64.41l-15.87,3.8l-6.03-21.91L586.51,183.76z"/>
	<path class="st0" d="M653.41,250l-11.81,43.94h-19.68l3.94-43.94H653.41z"/>
	<path class="st0" d="M686.86,275.58v-19.15l29.91-32.4c0.52-0.61,1.29-1.44,2.29-2.49c1-1.05,1.71-1.79,2.1-2.23
		c0.39-0.44,0.92-1.03,1.57-1.77c0.66-0.74,1.09-1.35,1.31-1.84c0.22-0.48,0.44-1,0.66-1.57c0.22-0.57,0.33-1.16,0.33-1.77
		c0-1.49-0.52-2.73-1.57-3.74c-1.05-1-2.58-1.51-4.59-1.51c-4.9,0-8.53,3.1-10.89,9.31l-23.09-12.59
		c3.06-7.26,7.58-12.77,13.58-16.53c5.99-3.76,12.66-5.64,20-5.64c9.01,0,16.72,2.56,23.15,7.67c6.43,5.12,9.64,12.18,9.64,21.19
		c0,5.51-1.2,10.32-3.61,14.43c-2.41,4.11-6.19,9.05-11.35,14.82L727,250.14h26.24v25.45H686.86z"/>
	<path class="st0" d="M825.12,264.63c-6.74,8.7-16.27,13.05-28.6,13.05c-12.33,0-21.86-4.35-28.6-13.05
		c-6.74-8.7-10.1-20.35-10.1-34.96c0-14.6,3.37-26.26,10.1-34.96c6.73-8.7,16.27-13.05,28.6-13.05c12.33,0,21.86,4.35,28.6,13.05
		c6.73,8.7,10.1,20.35,10.1,34.96C835.22,244.28,831.85,255.93,825.12,264.63z M784.06,229.67c0,15.04,4.15,22.56,12.46,22.56
		c8.31,0,12.46-7.52,12.46-22.56c0-15.04-4.15-22.56-12.46-22.56C788.21,207.11,784.06,214.63,784.06,229.67z"/>
	<path class="st0" d="M839.15,275.58v-19.15l29.91-32.4c0.52-0.61,1.29-1.44,2.29-2.49c1-1.05,1.71-1.79,2.1-2.23
		c0.39-0.44,0.92-1.03,1.57-1.77c0.66-0.74,1.09-1.35,1.31-1.84c0.22-0.48,0.44-1,0.66-1.57c0.22-0.57,0.33-1.16,0.33-1.77
		c0-1.49-0.52-2.73-1.57-3.74c-1.05-1-2.58-1.51-4.59-1.51c-4.9,0-8.53,3.1-10.89,9.31l-23.09-12.59
		c3.06-7.26,7.58-12.77,13.58-16.53c5.99-3.76,12.66-5.64,20-5.64c9.01,0,16.72,2.56,23.15,7.67c6.43,5.12,9.64,12.18,9.64,21.19
		c0,5.51-1.2,10.32-3.61,14.43c-2.41,4.11-6.19,9.05-11.35,14.82l-9.31,10.36h26.24v25.45H839.15z"/>
	<path class="st0" d="M977.41,264.63c-6.74,8.7-16.27,13.05-28.6,13.05c-12.33,0-21.86-4.35-28.6-13.05
		c-6.74-8.7-10.1-20.35-10.1-34.96c0-14.6,3.37-26.26,10.1-34.96c6.73-8.7,16.27-13.05,28.6-13.05c12.33,0,21.86,4.35,28.6,13.05
		c6.73,8.7,10.1,20.35,10.1,34.96C987.51,244.28,984.15,255.93,977.41,264.63z M936.35,229.67c0,15.04,4.15,22.56,12.46,22.56
		c8.31,0,12.46-7.52,12.46-22.56c0-15.04-4.15-22.56-12.46-22.56C940.51,207.11,936.35,214.63,936.35,229.67z"/>
</g>
<g>
	<path d="M71.32,441.32c-16.91,0-31.26-5.44-42.66-16.16c-11.58-10.89-17.45-24.79-17.45-41.33c0-15.87,5.59-29.56,16.6-40.68
		c11.04-11.15,24.89-16.8,41.15-16.8c11.13,0,21.22,2.79,29.98,8.29c8.67,5.45,15.25,12.42,19.56,20.71
		c4.23,8.15,6.37,16.85,6.37,25.86c0,12.31-2.44,21.62-7.45,28.45c-3.11,4.24-8.49,9.13-17.35,10.91v16.16l-7.36,2.02
		C86.46,440.45,79.26,441.32,71.32,441.32z M66.51,415.04c1.55,0.16,3.15,0.24,4.81,0.24c0.69,0,1.38-0.01,2.05-0.03
		c-0.68-0.51-1.33-1.04-1.95-1.6C69.85,414.28,68.21,414.74,66.51,415.04z M78.56,353.77c-2.96-0.92-6.15-1.38-9.61-1.38
		c-1.08,0-2.14,0.04-3.17,0.13c1.71,0.26,3.37,0.68,4.95,1.25H78.56z"/>
	<path class="st1" d="M68.96,336.35c9.27,0,17.49,2.25,24.66,6.76c7.17,4.5,12.5,10.12,16,16.86c3.5,6.73,5.25,13.82,5.25,21.25
		c0,20.03-7.35,30.04-22.04,30.04c-4.81,0-8.85-1.03-12.13-3.08c-3.28-2.05-5.58-4.79-6.89-8.2c-3.15,3.67-7.26,5.51-12.33,5.51
		c-6.03,0-10.87-2.01-14.5-6.03c-3.63-4.02-5.44-9.22-5.44-15.61c0-6.38,1.81-11.59,5.44-15.61c3.63-4.02,8.46-6.03,14.5-6.03
		c4.46,0,8.22,1.44,11.28,4.33v-2.75H92.7v30.96c0,5.25,1.92,7.87,5.77,7.87c2.89,0,5.25-1.68,7.08-5.05
		c1.84-3.37,2.75-8.81,2.75-16.33c0-10.93-3.78-20.14-11.35-27.61c-7.57-7.48-16.9-11.22-28.01-11.22
		c-11.63,0-21.4,3.98-29.32,11.94c-7.92,7.96-11.87,17.8-11.87,29.51c0,11.98,4.11,21.89,12.33,29.71
		c8.22,7.83,18.63,11.74,31.22,11.74c7.17,0,13.42-0.88,18.76-2.62v6.43c-5.42,1.49-11.67,2.23-18.76,2.23
		c-14.34,0-26.28-4.48-35.81-13.45c-9.53-8.96-14.3-20.31-14.3-34.04c0-13.2,4.57-24.42,13.71-33.65
		C44.05,340.96,55.4,336.35,68.96,336.35z M63.05,388.3c1.05,1.14,2.4,1.71,4.07,1.71c1.66,0,2.99-0.57,4-1.71
		c1-1.14,1.51-2.62,1.51-4.46c0-1.84-0.5-3.32-1.51-4.46c-1.01-1.14-2.34-1.71-4-1.71c-1.66,0-3.02,0.57-4.07,1.71
		c-1.05,1.14-1.57,2.62-1.57,4.46C61.48,385.67,62,387.16,63.05,388.3z"/>
	<path d="M192.14,426.5l-4.96-9.84v9.84h-46.24V314.67h46.73c12.56,0,23.19,3.84,31.61,11.42c8.73,7.85,13.15,18.23,13.15,30.85
		c0,7.16-1.7,13.76-5.05,19.64c-1.76,3.09-3.89,5.88-6.39,8.35l21.97,41.56H192.14z"/>
	<path class="st1" d="M198.3,416.5l-14.56-28.86h-6.56v28.86h-26.24v-91.82h36.73c10.06,0,18.36,2.95,24.92,8.85
		c6.56,5.9,9.84,13.71,9.84,23.42c0,5.42-1.25,10.32-3.74,14.69c-2.49,4.37-5.97,7.92-10.43,10.62l18.1,34.24H198.3z M177.18,348.81
		v17.05h9.97c2.8,0.09,5-0.61,6.62-2.1c1.62-1.49,2.43-3.58,2.43-6.3c0-2.71-0.81-4.83-2.43-6.36c-1.62-1.53-3.83-2.3-6.62-2.3
		H177.18z"/>
	<polygon points="222.93,426.63 222.93,314.81 302.61,314.81 302.61,358.68 299.33,358.68 299.33,382.49 303.27,382.49 
		303.27,426.63 	"/>
	<path class="st1" d="M259.16,392.49h34.11v24.14h-60.34v-91.82h59.69v23.87h-33.45v9.97h30.17v23.61h-30.17V392.49z"/>
	<path d="M336.82,428.73c-11.82,0-21.99-2.61-30.22-7.75c-8.67-5.42-14.6-12.92-17.6-22.28l-2.46-7.67l19.15-11.08
		c-10.29-8.68-12.97-19.36-12.97-28.11c0-11.14,4.29-20.92,12.4-28.27c7.94-7.2,18.26-10.85,30.65-10.85
		c9.57,0,18.33,2.33,26.04,6.92c8.02,4.78,13.97,11.71,17.69,20.61l3.37,8.07l-17.5,10.22c1.26,0.76,2.53,1.59,3.81,2.49
		c4.53,3.18,7.98,7.32,10.26,12.32c2.12,4.67,3.19,10.05,3.19,16.01c0,12.34-4.64,22.55-13.41,29.53
		C361,425.42,350.1,428.73,336.82,428.73z"/>
	<path class="st1" d="M336.82,418.73c-9.97,0-18.28-2.08-24.92-6.23c-6.65-4.15-11.11-9.77-13.38-16.86l22.43-12.99
		c3.06,7.78,8.57,11.67,16.53,11.67c5.95,0,8.92-1.57,8.92-4.72c0-0.87-0.22-1.66-0.66-2.36c-0.44-0.7-1.27-1.31-2.49-1.84
		c-1.23-0.53-2.3-0.94-3.21-1.25c-0.92-0.31-2.51-0.76-4.79-1.38c-2.27-0.61-3.98-1.09-5.12-1.44
		c-18.28-5.51-27.42-15.35-27.42-29.51c0-8.4,3.04-15.35,9.12-20.86c6.08-5.51,14.06-8.26,23.94-8.26c7.78,0,14.76,1.84,20.92,5.51
		c6.17,3.67,10.69,8.96,13.58,15.87l-21.78,12.72c-2.54-6.47-6.73-9.71-12.59-9.71c-2.28,0-4,0.46-5.18,1.38s-1.77,2.08-1.77,3.48
		c0,1.92,1.03,3.41,3.08,4.46c2.05,1.05,6.01,2.41,11.87,4.07c4.37,1.31,7.96,2.56,10.76,3.74c2.8,1.18,5.73,2.84,8.79,4.99
		c3.06,2.14,5.36,4.9,6.89,8.26c1.53,3.37,2.3,7.33,2.3,11.87c0,9.36-3.21,16.59-9.64,21.71
		C356.56,416.17,347.84,418.73,336.82,418.73z"/>
	<polygon points="439.37,426.63 439.37,408.24 434.59,416.27 420.86,416.27 416.08,408.24 416.08,426.63 369.84,426.63 
		369.84,314.81 411.84,314.81 427.72,342.23 443.6,314.81 485.6,314.81 485.6,426.63 	"/>
	<path class="st1" d="M475.6,324.81v91.82h-26.23V371.9l-20.46,34.37h-2.36l-20.46-34.37v44.73h-26.24v-91.82h26.24l21.64,37.38
		l21.64-37.38H475.6z"/>
	<polygon points="478.72,426.63 478.72,314.81 558.4,314.81 558.4,358.68 555.12,358.68 555.12,382.49 559.06,382.49 559.06,426.63 
			"/>
	<path class="st1" d="M514.95,392.49h34.11v24.14h-60.34v-91.82h59.69v23.87h-33.45v9.97h30.17v23.61h-30.17V392.49z"/>
	<path d="M549.55,426.63V314.81h48.04c15.43,0,28.55,5.46,38.99,16.22c10.36,10.68,15.61,24.03,15.61,39.69
		c0,15.66-5.25,29.01-15.61,39.69c-10.44,10.76-23.56,16.22-38.99,16.22H549.55z M597.59,381.18c2.5,0,4.23-0.73,5.78-2.43
		c1.11-1.22,2.58-3.38,2.58-8.03s-1.48-6.81-2.58-8.03c-1.55-1.7-3.27-2.43-5.78-2.43h-0.49v20.93H597.59z"/>
	<path class="st1" d="M597.59,324.81c12.68,0,23.28,4.39,31.81,13.18s12.79,19.7,12.79,32.73c0,13.03-4.26,23.94-12.79,32.73
		c-8.53,8.79-19.13,13.18-31.81,13.18h-38.04v-91.82H597.59z M597.59,391.18c5.33,0,9.73-1.9,13.18-5.71
		c3.45-3.8,5.18-8.72,5.18-14.76s-1.73-10.95-5.18-14.76c-3.46-3.8-7.85-5.71-13.18-5.71H587.1v40.93H597.59z"/>
	<polygon points="716.8,426.63 716.8,392.79 714.5,392.79 714.5,426.63 668.26,426.63 668.26,314.81 714.5,314.81 714.5,347.34 
		716.8,347.34 716.8,314.81 763.04,314.81 763.04,426.63 	"/>
	<path class="st1" d="M726.8,324.81h26.24v91.82H726.8v-33.84h-22.3v33.84h-26.24v-91.82h26.24v32.53h22.3V324.81z"/>
	<path d="M829.34,426.1c-5.71,1.74-11.67,2.62-17.8,2.62c-16.29,0-30.28-5.62-41.57-16.7c-11.34-11.13-17.1-25.03-17.1-41.31
		c0-16.27,5.75-30.17,17.1-41.31c11.29-11.08,25.28-16.7,41.57-16.7c16.29,0,30.27,5.62,41.57,16.7
		c11.35,11.14,17.1,25.04,17.1,41.31c0,9.99-2.28,19.23-6.78,27.6l9.1,9.91l-32.99,28.9L829.34,426.1z M811.54,358.42
		c-3.8,0-6.66,1.09-9,3.43c-2.02,2.01-3.1,4.38-3.37,7.36l12.52-10.79C811.64,358.42,811.59,358.42,811.54,358.42z"/>
	<path class="st1" d="M860.21,370.72c0,10.76-3.11,20.33-9.31,28.73l7.35,8l-17.97,15.74l-8.13-8.79
		c-6.47,2.89-13.34,4.33-20.59,4.33c-13.64,0-25.17-4.61-34.57-13.84c-9.4-9.23-14.1-20.62-14.1-34.17c0-13.55,4.7-24.94,14.1-34.17
		c9.4-9.23,20.92-13.84,34.57-13.84c13.64,0,25.16,4.61,34.56,13.84C855.5,345.77,860.21,357.16,860.21,370.72z M811.54,393.02h0.92
		l-11.28-12.33l18.1-15.61l13.12,14.3c1.05-2.62,1.57-5.51,1.57-8.66c0-6.38-2.12-11.7-6.36-15.94c-4.24-4.24-9.6-6.36-16.07-6.36
		c-6.47,0-11.83,2.12-16.07,6.36c-4.24,4.24-6.36,9.56-6.36,15.94c0,6.38,2.12,11.7,6.36,15.94
		C799.71,390.9,805.07,393.02,811.54,393.02z"/>
</g>
<g>
	<polygon points="75.95,285.58 75.95,267.19 71.17,275.22 57.44,275.22 52.66,267.19 52.66,285.58 6.42,285.58 6.42,173.76 
		48.42,173.76 64.3,201.19 80.18,173.76 122.18,173.76 122.18,285.58 	"/>
	<path class="st0" d="M112.18,183.76v91.82H85.95v-44.73l-20.46,34.37h-2.36l-20.46-34.37v44.73H16.42v-91.82h26.24l21.64,37.39
		l21.64-37.39H112.18z"/>
	<polygon points="170.74,285.58 167.59,273.78 156.46,273.78 153.31,285.58 103.75,285.58 139.37,173.76 184.68,173.76 
		220.31,285.58 	"/>
	<path class="st0" d="M178.42,275.58l-3.15-11.81h-26.5l-3.15,11.81h-28.2l29.25-91.82h30.7l29.25,91.82H178.42z M154.42,242.79
		h15.22l-7.61-28.2L154.42,242.79z"/>
	<path d="M253.07,285.45l-4.96-9.84v9.84h-46.24V173.63h46.73c12.56,0,23.19,3.84,31.61,11.42c8.73,7.85,13.15,18.23,13.15,30.85
		c0,7.15-1.7,13.76-5.05,19.64c-1.76,3.09-3.89,5.88-6.39,8.35l21.97,41.56H253.07z"/>
	<path class="st0" d="M259.23,275.45l-14.56-28.86h-6.56v28.86h-26.24v-91.82h36.73c10.06,0,18.36,2.95,24.92,8.85
		c6.56,5.9,9.84,13.71,9.84,23.42c0,5.42-1.25,10.32-3.74,14.69c-2.49,4.37-5.97,7.92-10.43,10.62l18.1,34.24H259.23z
		 M238.11,207.77v17.05h9.97c2.8,0.09,5-0.61,6.62-2.1c1.62-1.49,2.43-3.58,2.43-6.3c0-2.71-0.81-4.83-2.43-6.36
		c-1.62-1.53-3.83-2.3-6.62-2.3H238.11z"/>
	<path d="M337.28,287.68c-16.52,0-30.47-5.63-41.47-16.74c-10.97-11.08-16.54-24.96-16.54-41.27c0-16.31,5.56-30.2,16.54-41.27
		c11-11.1,24.95-16.74,41.47-16.74c10.17,0,19.72,2.46,28.37,7.31c8.7,4.88,15.6,11.58,20.51,19.91l5.14,8.71l-38.31,22.01
		l38.26,21.99l-5.06,8.69c-4.92,8.44-11.83,15.2-20.54,20.09C357,285.22,347.45,287.68,337.28,287.68z M337.28,217.37
		c-4.82,0-7.09,1.72-8.52,3.21c-2.22,2.32-3.25,5.2-3.25,9.09s1.03,6.77,3.25,9.08c1.44,1.5,3.7,3.22,8.52,3.22
		c2.21,0,4.06-0.44,5.65-1.34c1.34-0.75,2.2-1.64,2.8-2.87l4.02-8.28l-3.97-7.93c-0.36-0.73-1.06-1.81-2.87-2.82
		C341.26,217.82,339.42,217.37,337.28,217.37z"/>
	<path class="st0" d="M337.28,277.68c-13.82,0-25.27-4.59-34.37-13.77c-9.1-9.18-13.64-20.59-13.64-34.24
		c0-13.64,4.55-25.06,13.64-34.24c9.09-9.18,20.55-13.77,34.37-13.77c8.48,0,16.31,2.01,23.48,6.03
		c7.17,4.02,12.77,9.44,16.79,16.27l-22.83,13.12c-1.49-2.97-3.8-5.33-6.95-7.08c-3.15-1.75-6.65-2.62-10.49-2.62
		c-6.47,0-11.72,2.1-15.74,6.3c-4.02,4.2-6.03,9.53-6.03,16c0,6.47,2.01,11.81,6.03,16c4.02,4.2,9.27,6.3,15.74,6.3
		c3.94,0,7.45-0.87,10.56-2.62c3.1-1.75,5.4-4.15,6.89-7.21l22.83,13.12c-4.02,6.91-9.62,12.38-16.79,16.4
		C353.59,275.67,345.76,277.68,337.28,277.68z"/>
	<polygon points="422.64,285.58 422.64,251.74 420.34,251.74 420.34,285.58 374.11,285.58 374.11,173.76 420.34,173.76 
		420.34,206.29 422.64,206.29 422.64,173.76 468.88,173.76 468.88,285.58 	"/>
	<path class="st0" d="M432.64,183.76h26.24v91.82h-26.24v-33.84h-22.3v33.84h-26.24v-91.82h26.24v32.53h22.3V183.76z"/>
	<path d="M484.29,285.58v-33.06l25.59-27.72l-30.29-16.52l3.51-8.33c3.86-9.15,9.74-16.26,17.48-21.11
		c7.58-4.76,16.1-7.17,25.32-7.17c11.28,0,21.17,3.31,29.38,9.85c8.78,6.98,13.41,17.02,13.41,29.01c0,7.28-1.67,13.84-4.98,19.48
		c-1.8,3.08-4.16,6.43-7.15,10.14h14.1v45.45H484.29z"/>
	<path class="st0" d="M494.29,275.58v-19.15l29.91-32.4c0.52-0.61,1.29-1.44,2.29-2.49c1-1.05,1.71-1.79,2.1-2.23
		c0.39-0.44,0.92-1.03,1.57-1.77c0.66-0.74,1.09-1.35,1.31-1.84c0.22-0.48,0.44-1,0.66-1.57c0.22-0.57,0.33-1.16,0.33-1.77
		c0-1.49-0.52-2.73-1.57-3.74c-1.05-1-2.58-1.51-4.59-1.51c-4.9,0-8.53,3.1-10.89,9.31l-23.09-12.59
		c3.06-7.26,7.59-12.77,13.58-16.53c5.99-3.76,12.66-5.64,20-5.64c9.01,0,16.72,2.56,23.15,7.67c6.43,5.12,9.64,12.18,9.64,21.19
		c0,5.51-1.2,10.32-3.61,14.43c-2.41,4.11-6.19,9.05-11.35,14.82l-9.31,10.36h26.24v25.45H494.29z"/>
	<polygon points="572.58,285.58 572.58,223.86 559.63,226.96 548.57,186.81 584.76,173.76 618.81,173.76 618.81,285.58 	"/>
	<path class="st0" d="M586.51,183.76h22.3v91.82h-26.24v-64.41l-15.87,3.8l-6.03-21.91L586.51,183.76z"/>
	<polygon points="610.99,303.95 616.72,240 666.45,240 649.27,303.95 	"/>
	<path class="st0" d="M653.41,250l-11.81,43.94h-19.68l3.94-43.94H653.41z"/>
	<path d="M676.86,285.58v-33.06l25.59-27.72l-30.29-16.52l3.51-8.33c3.86-9.15,9.74-16.26,17.47-21.11
		c7.58-4.76,16.1-7.17,25.32-7.17c11.28,0,21.17,3.31,29.38,9.85c8.78,6.98,13.41,17.02,13.41,29.01c0,7.28-1.67,13.84-4.98,19.48
		c-1.8,3.08-4.16,6.43-7.15,10.14h14.1v45.45H676.86z"/>
	<path class="st0" d="M686.86,275.58v-19.15l29.91-32.4c0.52-0.61,1.29-1.44,2.29-2.49c1-1.05,1.71-1.79,2.1-2.23
		c0.39-0.44,0.92-1.03,1.57-1.77c0.66-0.74,1.09-1.35,1.31-1.84c0.22-0.48,0.44-1,0.66-1.57c0.22-0.57,0.33-1.16,0.33-1.77
		c0-1.49-0.52-2.73-1.57-3.74c-1.05-1-2.58-1.51-4.59-1.51c-4.9,0-8.53,3.1-10.89,9.31l-23.09-12.59
		c3.06-7.26,7.58-12.77,13.58-16.53c5.99-3.76,12.66-5.64,20-5.64c9.01,0,16.72,2.56,23.15,7.67c6.43,5.12,9.64,12.18,9.64,21.19
		c0,5.51-1.2,10.32-3.61,14.43c-2.41,4.11-6.19,9.05-11.35,14.82L727,250.14h26.24v25.45H686.86z"/>
	<path d="M796.52,287.68c-15.53,0-27.81-5.7-36.5-16.93c-8.09-10.45-12.19-24.27-12.19-41.08c0-16.8,4.1-30.62,12.19-41.08
		c8.69-11.23,20.97-16.93,36.5-16.93c15.53,0,27.81,5.7,36.5,16.93c8.09,10.46,12.19,24.28,12.19,41.08
		c0,16.8-4.1,30.62-12.19,41.08C824.33,281.99,812.05,287.68,796.52,287.68z M796.23,242.22c0.07,0.01,0.16,0.01,0.29,0.01
		s0.22-0.01,0.29-0.01c0.4-0.52,2.17-3.34,2.17-12.55c0-9.21-1.77-12.03-2.17-12.55c-0.07-0.01-0.16-0.01-0.29-0.01
		s-0.22,0.01-0.29,0.01c-0.4,0.52-2.17,3.34-2.17,12.55C794.06,238.88,795.83,241.7,796.23,242.22z"/>
	<path class="st0" d="M825.12,264.63c-6.74,8.7-16.27,13.05-28.6,13.05c-12.33,0-21.86-4.35-28.6-13.05
		c-6.74-8.7-10.1-20.35-10.1-34.96c0-14.6,3.37-26.26,10.1-34.96c6.73-8.7,16.27-13.05,28.6-13.05c12.33,0,21.86,4.35,28.6,13.05
		c6.73,8.7,10.1,20.35,10.1,34.96C835.22,244.28,831.85,255.93,825.12,264.63z M784.06,229.67c0,15.04,4.15,22.56,12.46,22.56
		c8.31,0,12.46-7.52,12.46-22.56c0-15.04-4.15-22.56-12.46-22.56C788.21,207.11,784.06,214.63,784.06,229.67z"/>
	<path d="M829.15,285.58v-33.06l25.59-27.72l-30.29-16.52l3.51-8.33c3.86-9.15,9.74-16.26,17.47-21.11
		c7.58-4.76,16.1-7.17,25.32-7.17c11.28,0,21.17,3.31,29.38,9.85c8.78,6.98,13.41,17.02,13.41,29.01c0,7.28-1.67,13.84-4.98,19.48
		c-1.8,3.08-4.16,6.43-7.15,10.14h14.1v45.45H829.15z"/>
	<path class="st0" d="M839.15,275.58v-19.15l29.91-32.4c0.52-0.61,1.29-1.44,2.29-2.49c1-1.05,1.71-1.79,2.1-2.23
		c0.39-0.44,0.92-1.03,1.57-1.77c0.66-0.74,1.09-1.35,1.31-1.84c0.22-0.48,0.44-1,0.66-1.57c0.22-0.57,0.33-1.16,0.33-1.77
		c0-1.49-0.52-2.73-1.57-3.74c-1.05-1-2.58-1.51-4.59-1.51c-4.9,0-8.53,3.1-10.89,9.31l-23.09-12.59
		c3.06-7.26,7.58-12.77,13.58-16.53c5.99-3.76,12.66-5.64,20-5.64c9.01,0,16.72,2.56,23.15,7.67c6.43,5.12,9.64,12.18,9.64,21.19
		c0,5.51-1.2,10.32-3.61,14.43c-2.41,4.11-6.19,9.05-11.35,14.82l-9.31,10.36h26.24v25.45H839.15z"/>
	<path d="M948.82,287.68c-15.53,0-27.81-5.7-36.5-16.93c-8.09-10.45-12.19-24.27-12.19-41.08c0-16.8,4.1-30.62,12.19-41.08
		c8.69-11.23,20.97-16.93,36.5-16.93c15.53,0,27.81,5.7,36.5,16.93c8.09,10.46,12.19,24.28,12.19,41.08
		c0,16.8-4.1,30.62-12.19,41.08C976.63,281.99,964.34,287.68,948.82,287.68z M948.53,242.22c0.07,0.01,0.16,0.01,0.29,0.01
		s0.22-0.01,0.29-0.01c0.4-0.52,2.17-3.34,2.17-12.55c0-9.21-1.77-12.03-2.17-12.55c-0.07-0.01-0.16-0.01-0.29-0.01
		s-0.22,0.01-0.29,0.01c-0.4,0.52-2.17,3.34-2.17,12.55C946.35,238.88,948.13,241.7,948.53,242.22z"/>
	<path class="st0" d="M977.41,264.63c-6.74,8.7-16.27,13.05-28.6,13.05c-12.33,0-21.86-4.35-28.6-13.05
		c-6.74-8.7-10.1-20.35-10.1-34.96c0-14.6,3.37-26.26,10.1-34.96c6.73-8.7,16.27-13.05,28.6-13.05c12.33,0,21.86,4.35,28.6,13.05
		c6.73,8.7,10.1,20.35,10.1,34.96C987.51,244.28,984.15,255.93,977.41,264.63z M936.35,229.67c0,15.04,4.15,22.56,12.46,22.56
		c8.31,0,12.46-7.52,12.46-22.56c0-15.04-4.15-22.56-12.46-22.56C940.51,207.11,936.35,214.63,936.35,229.67z"/>
</g>
<g>
	<path class="st0" d="M112.18,183.76v91.82H85.95v-44.73l-20.46,34.37h-2.36l-20.46-34.37v44.73H16.42v-91.82h26.24l21.64,37.39
		l21.64-37.39H112.18z"/>
	<path class="st0" d="M178.42,275.58l-3.15-11.81h-26.5l-3.15,11.81h-28.2l29.25-91.82h30.7l29.25,91.82H178.42z M154.42,242.79
		h15.22l-7.61-28.2L154.42,242.79z"/>
	<path class="st0" d="M259.23,275.45l-14.56-28.86h-6.56v28.86h-26.24v-91.82h36.73c10.06,0,18.36,2.95,24.92,8.85
		c6.56,5.9,9.84,13.71,9.84,23.42c0,5.42-1.25,10.32-3.74,14.69c-2.49,4.37-5.97,7.92-10.43,10.62l18.1,34.24H259.23z
		 M238.11,207.77v17.05h9.97c2.8,0.09,5-0.61,6.62-2.1c1.62-1.49,2.43-3.58,2.43-6.3c0-2.71-0.81-4.83-2.43-6.36
		c-1.62-1.53-3.83-2.3-6.62-2.3H238.11z"/>
	<path class="st0" d="M337.28,277.68c-13.82,0-25.27-4.59-34.37-13.77c-9.1-9.18-13.64-20.59-13.64-34.24
		c0-13.64,4.55-25.06,13.64-34.24c9.09-9.18,20.55-13.77,34.37-13.77c8.48,0,16.31,2.01,23.48,6.03
		c7.17,4.02,12.77,9.44,16.79,16.27l-22.83,13.12c-1.49-2.97-3.8-5.33-6.95-7.08c-3.15-1.75-6.65-2.62-10.49-2.62
		c-6.47,0-11.72,2.1-15.74,6.3c-4.02,4.2-6.03,9.53-6.03,16c0,6.47,2.01,11.81,6.03,16c4.02,4.2,9.27,6.3,15.74,6.3
		c3.94,0,7.45-0.87,10.56-2.62c3.1-1.75,5.4-4.15,6.89-7.21l22.83,13.12c-4.02,6.91-9.62,12.38-16.79,16.4
		C353.59,275.67,345.76,277.68,337.28,277.68z"/>
	<path class="st0" d="M432.64,183.76h26.24v91.82h-26.24v-33.84h-22.3v33.84h-26.24v-91.82h26.24v32.53h22.3V183.76z"/>
	<path class="st0" d="M494.29,275.58v-19.15l29.91-32.4c0.52-0.61,1.29-1.44,2.29-2.49c1-1.05,1.71-1.79,2.1-2.23
		c0.39-0.44,0.92-1.03,1.57-1.77c0.66-0.74,1.09-1.35,1.31-1.84c0.22-0.48,0.44-1,0.66-1.57c0.22-0.57,0.33-1.16,0.33-1.77
		c0-1.49-0.52-2.73-1.57-3.74c-1.05-1-2.58-1.51-4.59-1.51c-4.9,0-8.53,3.1-10.89,9.31l-23.09-12.59
		c3.06-7.26,7.59-12.77,13.58-16.53c5.99-3.76,12.66-5.64,20-5.64c9.01,0,16.72,2.56,23.15,7.67c6.43,5.12,9.64,12.18,9.64,21.19
		c0,5.51-1.2,10.32-3.61,14.43c-2.41,4.11-6.19,9.05-11.35,14.82l-9.31,10.36h26.24v25.45H494.29z"/>
	<path class="st0" d="M586.51,183.76h22.3v91.82h-26.24v-64.41l-15.87,3.8l-6.03-21.91L586.51,183.76z"/>
	<path class="st0" d="M653.41,250l-11.81,43.94h-19.68l3.94-43.94H653.41z"/>
	<path class="st0" d="M686.86,275.58v-19.15l29.91-32.4c0.52-0.61,1.29-1.44,2.29-2.49c1-1.05,1.71-1.79,2.1-2.23
		c0.39-0.44,0.92-1.03,1.57-1.77c0.66-0.74,1.09-1.35,1.31-1.84c0.22-0.48,0.44-1,0.66-1.57c0.22-0.57,0.33-1.16,0.33-1.77
		c0-1.49-0.52-2.73-1.57-3.74c-1.05-1-2.58-1.51-4.59-1.51c-4.9,0-8.53,3.1-10.89,9.31l-23.09-12.59
		c3.06-7.26,7.58-12.77,13.58-16.53c5.99-3.76,12.66-5.64,20-5.64c9.01,0,16.72,2.56,23.15,7.67c6.43,5.12,9.64,12.18,9.64,21.19
		c0,5.51-1.2,10.32-3.61,14.43c-2.41,4.11-6.19,9.05-11.35,14.82L727,250.14h26.24v25.45H686.86z"/>
	<path class="st0" d="M825.12,264.63c-6.74,8.7-16.27,13.05-28.6,13.05c-12.33,0-21.86-4.35-28.6-13.05
		c-6.74-8.7-10.1-20.35-10.1-34.96c0-14.6,3.37-26.26,10.1-34.96c6.73-8.7,16.27-13.05,28.6-13.05c12.33,0,21.86,4.35,28.6,13.05
		c6.73,8.7,10.1,20.35,10.1,34.96C835.22,244.28,831.85,255.93,825.12,264.63z M784.06,229.67c0,15.04,4.15,22.56,12.46,22.56
		c8.31,0,12.46-7.52,12.46-22.56c0-15.04-4.15-22.56-12.46-22.56C788.21,207.11,784.06,214.63,784.06,229.67z"/>
	<path class="st0" d="M839.15,275.58v-19.15l29.91-32.4c0.52-0.61,1.29-1.44,2.29-2.49c1-1.05,1.71-1.79,2.1-2.23
		c0.39-0.44,0.92-1.03,1.57-1.77c0.66-0.74,1.09-1.35,1.31-1.84c0.22-0.48,0.44-1,0.66-1.57c0.22-0.57,0.33-1.16,0.33-1.77
		c0-1.49-0.52-2.73-1.57-3.74c-1.05-1-2.58-1.51-4.59-1.51c-4.9,0-8.53,3.1-10.89,9.31l-23.09-12.59
		c3.06-7.26,7.58-12.77,13.58-16.53c5.99-3.76,12.66-5.64,20-5.64c9.01,0,16.72,2.56,23.15,7.67c6.43,5.12,9.64,12.18,9.64,21.19
		c0,5.51-1.2,10.32-3.61,14.43c-2.41,4.11-6.19,9.05-11.35,14.82l-9.31,10.36h26.24v25.45H839.15z"/>
	<path class="st0" d="M977.41,264.63c-6.74,8.7-16.27,13.05-28.6,13.05c-12.33,0-21.86-4.35-28.6-13.05
		c-6.74-8.7-10.1-20.35-10.1-34.96c0-14.6,3.37-26.26,10.1-34.96c6.73-8.7,16.27-13.05,28.6-13.05c12.33,0,21.86,4.35,28.6,13.05
		c6.73,8.7,10.1,20.35,10.1,34.96C987.51,244.28,984.15,255.93,977.41,264.63z M936.35,229.67c0,15.04,4.15,22.56,12.46,22.56
		c8.31,0,12.46-7.52,12.46-22.56c0-15.04-4.15-22.56-12.46-22.56C940.51,207.11,936.35,214.63,936.35,229.67z"/>
</g>
<g>
	<path class="st1" d="M68.96,336.35c9.27,0,17.49,2.25,24.66,6.76c7.17,4.5,12.5,10.12,16,16.86c3.5,6.73,5.25,13.82,5.25,21.25
		c0,20.03-7.35,30.04-22.04,30.04c-4.81,0-8.85-1.03-12.13-3.08c-3.28-2.05-5.58-4.79-6.89-8.2c-3.15,3.67-7.26,5.51-12.33,5.51
		c-6.03,0-10.87-2.01-14.5-6.03c-3.63-4.02-5.44-9.22-5.44-15.61c0-6.38,1.81-11.59,5.44-15.61c3.63-4.02,8.46-6.03,14.5-6.03
		c4.46,0,8.22,1.44,11.28,4.33v-2.75H92.7v30.96c0,5.25,1.92,7.87,5.77,7.87c2.89,0,5.25-1.68,7.08-5.05
		c1.84-3.37,2.75-8.81,2.75-16.33c0-10.93-3.78-20.14-11.35-27.61c-7.57-7.48-16.9-11.22-28.01-11.22
		c-11.63,0-21.4,3.98-29.32,11.94c-7.92,7.96-11.87,17.8-11.87,29.51c0,11.98,4.11,21.89,12.33,29.71
		c8.22,7.83,18.63,11.74,31.22,11.74c7.17,0,13.42-0.88,18.76-2.62v6.43c-5.42,1.49-11.67,2.23-18.76,2.23
		c-14.34,0-26.28-4.48-35.81-13.45c-9.53-8.96-14.3-20.31-14.3-34.04c0-13.2,4.57-24.42,13.71-33.65
		C44.05,340.96,55.4,336.35,68.96,336.35z M63.05,388.3c1.05,1.14,2.4,1.71,4.07,1.71c1.66,0,2.99-0.57,4-1.71
		c1-1.14,1.51-2.62,1.51-4.46c0-1.84-0.5-3.32-1.51-4.46c-1.01-1.14-2.34-1.71-4-1.71c-1.66,0-3.02,0.57-4.07,1.71
		c-1.05,1.14-1.57,2.62-1.57,4.46C61.48,385.67,62,387.16,63.05,388.3z"/>
	<path class="st1" d="M198.3,416.5l-14.56-28.86h-6.56v28.86h-26.24v-91.82h36.73c10.06,0,18.36,2.95,24.92,8.85
		c6.56,5.9,9.84,13.71,9.84,23.42c0,5.42-1.25,10.32-3.74,14.69c-2.49,4.37-5.97,7.92-10.43,10.62l18.1,34.24H198.3z M177.18,348.81
		v17.05h9.97c2.8,0.09,5-0.61,6.62-2.1c1.62-1.49,2.43-3.58,2.43-6.3c0-2.71-0.81-4.83-2.43-6.36c-1.62-1.53-3.83-2.3-6.62-2.3
		H177.18z"/>
	<path class="st1" d="M259.16,392.49h34.11v24.14h-60.34v-91.82h59.69v23.87h-33.45v9.97h30.17v23.61h-30.17V392.49z"/>
	<path class="st1" d="M336.82,418.73c-9.97,0-18.28-2.08-24.92-6.23c-6.65-4.15-11.11-9.77-13.38-16.86l22.43-12.99
		c3.06,7.78,8.57,11.67,16.53,11.67c5.95,0,8.92-1.57,8.92-4.72c0-0.87-0.22-1.66-0.66-2.36c-0.44-0.7-1.27-1.31-2.49-1.84
		c-1.23-0.53-2.3-0.94-3.21-1.25c-0.92-0.31-2.51-0.76-4.79-1.38c-2.27-0.61-3.98-1.09-5.12-1.44
		c-18.28-5.51-27.42-15.35-27.42-29.51c0-8.4,3.04-15.35,9.12-20.86c6.08-5.51,14.06-8.26,23.94-8.26c7.78,0,14.76,1.84,20.92,5.51
		c6.17,3.67,10.69,8.96,13.58,15.87l-21.78,12.72c-2.54-6.47-6.73-9.71-12.59-9.71c-2.28,0-4,0.46-5.18,1.38s-1.77,2.08-1.77,3.48
		c0,1.92,1.03,3.41,3.08,4.46c2.05,1.05,6.01,2.41,11.87,4.07c4.37,1.31,7.96,2.56,10.76,3.74c2.8,1.18,5.73,2.84,8.79,4.99
		c3.06,2.14,5.36,4.9,6.89,8.26c1.53,3.37,2.3,7.33,2.3,11.87c0,9.36-3.21,16.59-9.64,21.71
		C356.56,416.17,347.84,418.73,336.82,418.73z"/>
	<path class="st1" d="M475.6,324.81v91.82h-26.23V371.9l-20.46,34.37h-2.36l-20.46-34.37v44.73h-26.24v-91.82h26.24l21.64,37.38
		l21.64-37.38H475.6z"/>
	<path class="st1" d="M514.95,392.49h34.11v24.14h-60.34v-91.82h59.69v23.87h-33.45v9.97h30.17v23.61h-30.17V392.49z"/>
	<path class="st1" d="M597.59,324.81c12.68,0,23.28,4.39,31.81,13.18s12.79,19.7,12.79,32.73c0,13.03-4.26,23.94-12.79,32.73
		c-8.53,8.79-19.13,13.18-31.81,13.18h-38.04v-91.82H597.59z M597.59,391.18c5.33,0,9.73-1.9,13.18-5.71
		c3.45-3.8,5.18-8.72,5.18-14.76s-1.73-10.95-5.18-14.76c-3.46-3.8-7.85-5.71-13.18-5.71H587.1v40.93H597.59z"/>
	<path class="st1" d="M726.8,324.81h26.24v91.82H726.8v-33.84h-22.3v33.84h-26.24v-91.82h26.24v32.53h22.3V324.81z"/>
	<path class="st1" d="M860.21,370.72c0,10.76-3.11,20.33-9.31,28.73l7.35,8l-17.97,15.74l-8.13-8.79
		c-6.47,2.89-13.34,4.33-20.59,4.33c-13.64,0-25.17-4.61-34.57-13.84c-9.4-9.23-14.1-20.62-14.1-34.17c0-13.55,4.7-24.94,14.1-34.17
		c9.4-9.23,20.92-13.84,34.57-13.84c13.64,0,25.16,4.61,34.56,13.84C855.5,345.77,860.21,357.16,860.21,370.72z M811.54,393.02h0.92
		l-11.28-12.33l18.1-15.61l13.12,14.3c1.05-2.62,1.57-5.51,1.57-8.66c0-6.38-2.12-11.7-6.36-15.94c-4.24-4.24-9.6-6.36-16.07-6.36
		c-6.47,0-11.83,2.12-16.07,6.36c-4.24,4.24-6.36,9.56-6.36,15.94c0,6.38,2.12,11.7,6.36,15.94
		C799.71,390.9,805.07,393.02,811.54,393.02z"/>
</g>
</svg>
