<?xml version="1.0" encoding="utf-8"?>
<!-- Generator: Adobe Illustrator 24.0.1, SVG Export Plug-In . SVG Version: 6.00 Build 0)  -->
<svg version="1.1" id="Layer_1" xmlns="http://www.w3.org/2000/svg" xmlns:xlink="http://www.w3.org/1999/xlink" x="0px" y="0px"
	 viewBox="0 0 1000 300" style="enable-background:new 0 0 1000 300;" xml:space="preserve">
<style type="text/css">
	.st0{fill:#1A1A1A;}
	.st1{fill:#C1262C;}
</style>
<g>
	<path class="st0" d="M92.68,222.49c-16.4,0-30.53-3.64-42.01-10.81c-12.18-7.61-20.49-18.14-24.72-31.31l-3.88-12.08l24.72-14.31
		c-12.57-11.82-15.93-25.92-15.93-37.59c0-15.69,6.05-29.47,17.48-39.84c11.15-10.11,25.59-15.24,42.91-15.24
		c13.34,0,25.56,3.25,36.32,9.66c11.25,6.7,19.6,16.42,24.81,28.89l5.31,12.71l-22.14,12.94c0.7,0.47,1.41,0.95,2.12,1.44
		c6.46,4.52,11.37,10.42,14.61,17.54c3,6.6,4.51,14.19,4.51,22.55c0,17.37-6.56,31.77-18.96,41.64
		C126.34,217.85,111.15,222.49,92.68,222.49z"/>
	<path class="st0" d="M92.68,206.74c-13.46,0-24.69-2.81-33.66-8.41c-8.98-5.61-15-13.2-18.07-22.76l30.29-17.54
		c4.13,10.51,11.57,15.77,22.32,15.77c8.03,0,12.05-2.13,12.05-6.38c0-1.18-0.3-2.24-0.89-3.19c-0.59-0.94-1.71-1.77-3.37-2.48
		c-1.66-0.71-3.1-1.27-4.34-1.68c-1.24-0.41-3.4-1.03-6.47-1.86c-3.07-0.83-5.38-1.48-6.91-1.95
		c-24.69-7.44-37.03-20.73-37.03-39.86c0-11.34,4.1-20.73,12.31-28.17c8.21-7.44,18.98-11.16,32.33-11.16
		c10.51,0,19.93,2.48,28.26,7.44s14.44,12.11,18.34,21.44l-29.41,17.18c-3.43-8.74-9.1-13.11-17.01-13.11c-3.07,0-5.4,0.62-7,1.86
		c-1.59,1.24-2.39,2.81-2.39,4.69c0,2.6,1.39,4.61,4.16,6.02c2.77,1.42,8.12,3.25,16.03,5.49c5.9,1.77,10.75,3.45,14.53,5.05
		c3.78,1.59,7.73,3.84,11.87,6.73c4.13,2.9,7.23,6.62,9.3,11.16c2.07,4.55,3.1,9.89,3.1,16.03c0,12.64-4.34,22.41-13.02,29.32
		C119.34,203.29,107.56,206.74,92.68,206.74z"/>
	<path class="st0" d="M181.08,222.14c-14.18,0-26.33-5.32-35.14-15.38c-8.41-9.59-12.67-23.13-12.67-40.23V99.58h120.07v120.07
		h-56.33C192.14,221.3,186.8,222.14,181.08,222.14z"/>
	<path class="st0" d="M204.82,115.33h32.77v88.58h-32.77v-8.68c-5.43,7.44-13.35,11.16-23.74,11.16c-9.69,0-17.45-3.34-23.3-10.01
		c-5.85-6.67-8.77-16.62-8.77-29.85v-51.2h32.77v47.66c0,7.91,3.66,11.87,10.98,11.87c3.9,0,6.88-1.24,8.95-3.72
		c2.07-2.48,3.1-5.9,3.1-10.28V115.33z"/>
	<path class="st0" d="M236.02,255.09V99.58h56.21c4.94-1.64,10.32-2.48,16.06-2.48c16.46,0,30.71,6.51,41.21,18.81
		c10.03,11.75,15.11,26.45,15.11,43.71s-5.08,31.95-15.11,43.7c-10.5,12.31-24.75,18.81-41.21,18.81c-2.75,0-5.42-0.19-7.99-0.57
		v33.52H236.02z M300.31,159.1c-0.01,0.14-0.02,0.32-0.02,0.53c0,0.21,0.01,0.38,0.02,0.53c0.01-0.14,0.02-0.32,0.02-0.53
		C300.33,159.41,300.32,159.24,300.31,159.1z"/>
	<path class="st0" d="M308.28,112.85c11.93,0,21.67,4.43,29.23,13.29c7.56,8.86,11.34,20.02,11.34,33.48
		c0,13.46-3.78,24.62-11.34,33.48c-7.56,8.86-17.3,13.29-29.23,13.29c-10.16,0-18.07-3.48-23.74-10.45v43.4h-32.77V115.33h32.77
		v7.97C290.21,116.34,298.12,112.85,308.28,112.85z M288.88,171.49c2.89,3.19,6.7,4.78,11.43,4.78c4.72,0,8.53-1.59,11.43-4.78
		c2.89-3.19,4.34-7.15,4.34-11.87c0-4.72-1.45-8.68-4.34-11.87c-2.9-3.19-6.7-4.78-11.43-4.78c-4.73,0-8.53,1.59-11.43,4.78
		c-2.9,3.19-4.34,7.15-4.34,11.87C284.54,164.35,285.99,168.3,288.88,171.49z"/>
	<path class="st0" d="M405.36,222.14c-19.26,0-35.18-5.92-47.32-17.59c-12.32-11.84-18.56-26.83-18.56-44.57
		c0-17.71,6.04-32.77,17.95-44.76c11.94-12.02,27.05-18.11,44.92-18.11c17.77,0,32.72,6.02,44.43,17.89
		c11.65,11.81,17.56,26.71,17.56,44.28c0,5.16-0.63,10.32-1.89,15.33l-2.75,10.99l5.98,5.04l-11.21,12.1
		C442.56,215.61,426.03,222.14,405.36,222.14z"/>
	<path class="st0" d="M388.36,170.78c2.83,5.91,8.86,8.86,18.07,8.86c5.43,0,10.45-1.89,15.06-5.67l21.44,18.07
		c-8.86,9.57-21.38,14.35-37.56,14.35c-15.12,0-27.25-4.4-36.41-13.2c-9.15-8.8-13.73-19.87-13.73-33.22
		c0-13.46,4.46-24.68,13.38-33.66c8.92-8.97,20.17-13.46,33.75-13.46c13.46,0,24.54,4.4,33.22,13.2
		c8.68,8.8,13.02,19.87,13.02,33.22c0,3.9-0.47,7.74-1.42,11.52H388.36z M387.82,149.7h29.76c-2.01-7.09-6.79-10.63-14.35-10.63
		C395.56,139.07,390.42,142.61,387.82,149.7z"/>
	<path class="st0" d="M442.59,219.66V99.58h62.02c4.13-1.18,8.5-1.77,13.08-1.77h15.75v69.16l-17.83-2.38
		c-0.74-0.1-1.45-0.15-2.12-0.15c-2.13,0-3.79,0.49-5.37,1.6c-1.04,0.73-1.26,3.07-1.26,4.9v48.7H442.59z"/>
	<path class="st0" d="M491.11,132.51c1.65-6.02,4.9-10.69,9.74-14c4.84-3.31,10.45-4.96,16.83-4.96v35.43
		c-7.09-0.94-13.29,0.44-18.6,4.16c-5.31,3.72-7.97,9.66-7.97,17.8v32.95h-32.77v-88.58h32.77V132.51z"/>
	<rect x="548.88" y="64.15" class="st0" width="132.48" height="155.51"/>
	<path class="st0" d="M630.18,79.9h35.43v124.01h-35.43V158.2h-30.12v45.71h-35.43V79.9h35.43v43.94h30.12V79.9z"/>
	<path class="st0" d="M718.23,222.14c-16.46,0-30.71-6.51-41.21-18.81c-10.02-11.74-15.11-26.45-15.11-43.7
		c0-17.26,5.08-31.96,15.11-43.71c10.5-12.31,24.75-18.81,41.21-18.81c5.74,0,11.12,0.84,16.06,2.48h56.21v120.07h-56.21
		C729.34,221.3,723.97,222.14,718.23,222.14z M726.2,159.09c-0.01,0.14-0.02,0.32-0.02,0.53c0,0.21,0.01,0.38,0.02,0.53
		c0.01-0.15,0.02-0.32,0.02-0.53C726.22,159.41,726.21,159.24,726.2,159.09z"/>
	<path class="st0" d="M741.97,115.33h32.77v88.58h-32.77v-7.97c-5.67,6.97-13.58,10.45-23.74,10.45c-11.93,0-21.67-4.43-29.23-13.29
		c-7.56-8.86-11.34-20.02-11.34-33.48c0-13.46,3.78-24.63,11.34-33.48c7.56-8.86,17.3-13.29,29.23-13.29
		c10.16,0,18.07,3.49,23.74,10.45V115.33z M714.77,171.49c2.89,3.19,6.7,4.78,11.43,4.78c4.72,0,8.53-1.59,11.43-4.78
		c2.89-3.19,4.34-7.15,4.34-11.87c0-4.72-1.45-8.68-4.34-11.87c-2.89-3.19-6.7-4.78-11.43-4.78c-4.72,0-8.53,1.59-11.43,4.78
		c-2.9,3.19-4.34,7.15-4.34,11.87C710.43,164.35,711.88,168.3,714.77,171.49z"/>
	<path class="st0" d="M831.96,222.14c-17.83,0-32.95-6.04-44.94-17.95c-12.02-11.93-18.11-26.93-18.11-44.56
		c0-17.63,6.09-32.63,18.11-44.57c11.99-11.91,27.11-17.95,44.94-17.95c11.49,0,22.22,2.82,31.88,8.4
		c9.76,5.64,17.39,13.36,22.67,22.97l7.47,13.58l-30.69,17.51l30.57,17.63l-7.29,13.48c-5.3,9.8-12.98,17.61-22.8,23.2
		C854.12,219.36,843.42,222.14,831.96,222.14z"/>
	<path class="st0" d="M831.96,206.39c-13.58,0-24.86-4.46-33.84-13.38c-8.98-8.92-13.46-20.05-13.46-33.39
		c0-13.35,4.49-24.48,13.46-33.39c8.97-8.92,20.25-13.38,33.84-13.38c8.74,0,16.74,2.1,24.01,6.29c7.26,4.19,12.84,9.83,16.74,16.92
		l-27.64,15.77c-2.95-4.96-7.32-7.44-13.11-7.44c-4.14,0-7.59,1.45-10.36,4.34c-2.78,2.9-4.16,6.53-4.16,10.9
		c0,4.37,1.39,8,4.16,10.9c2.77,2.89,6.23,4.34,10.36,4.34c6.14,0,10.51-2.54,13.11-7.62l27.64,15.94
		c-3.9,7.2-9.48,12.87-16.74,17.01C848.7,204.32,840.7,206.39,831.96,206.39z"/>
	<polygon class="st0" points="864.93,219.66 864.93,64.15 929.2,64.15 929.2,99.58 997.26,99.58 960.92,159.35 1000,219.66 	"/>
	<path class="st0" d="M971.03,203.91h-36.32l-21.26-35.43v35.43h-32.77V79.9h32.77v69.8l18.6-34.37h37.2l-26.93,44.29L971.03,203.91
		z"/>
</g>
<g>
	<path d="M70.6,206.09c-16.4,0-30.53-3.64-42.01-10.81c-12.18-7.61-20.49-18.14-24.72-31.31L0,151.89l24.72-14.31
		C12.15,125.75,8.79,111.66,8.79,99.99c0-15.69,6.05-29.47,17.48-39.84c11.15-10.11,25.59-15.24,42.91-15.24
		c13.34,0,25.56,3.25,36.32,9.66c11.25,6.7,19.6,16.42,24.81,28.89l5.31,12.71l-22.14,12.94c0.7,0.47,1.41,0.95,2.12,1.44
		c6.46,4.52,11.37,10.42,14.61,17.54c3,6.6,4.51,14.19,4.51,22.55c0,17.37-6.56,31.77-18.96,41.64
		C104.26,201.45,89.07,206.09,70.6,206.09z"/>
	<path d="M70.6,190.34c-13.46,0-24.69-2.81-33.66-8.41c-8.98-5.61-15-13.2-18.07-22.76l30.29-17.54
		c4.13,10.51,11.57,15.77,22.32,15.77c8.03,0,12.05-2.13,12.05-6.38c0-1.18-0.3-2.24-0.89-3.19c-0.59-0.94-1.71-1.77-3.37-2.48
		c-1.66-0.71-3.1-1.27-4.34-1.68c-1.24-0.41-3.4-1.03-6.47-1.86c-3.07-0.83-5.38-1.48-6.91-1.95
		c-24.69-7.44-37.03-20.73-37.03-39.86c0-11.34,4.1-20.73,12.31-28.17c8.21-7.44,18.98-11.16,32.33-11.16
		c10.51,0,19.93,2.48,28.26,7.44c8.33,4.96,14.44,12.11,18.34,21.44l-29.41,17.18c-3.43-8.74-9.1-13.11-17.01-13.11
		c-3.07,0-5.4,0.62-7,1.86c-1.59,1.24-2.39,2.81-2.39,4.69c0,2.6,1.39,4.61,4.16,6.02c2.77,1.42,8.12,3.25,16.03,5.49
		c5.9,1.77,10.75,3.45,14.53,5.05c3.78,1.59,7.73,3.84,11.87,6.73c4.13,2.9,7.23,6.62,9.3,11.16c2.07,4.55,3.1,9.89,3.1,16.03
		c0,12.64-4.34,22.41-13.02,29.32C97.27,186.88,85.48,190.34,70.6,190.34z"/>
	<path d="M159,205.73c-14.18,0-26.33-5.32-35.14-15.38c-8.41-9.59-12.67-23.13-12.67-40.23V83.18h120.07v120.07h-56.33
		C170.06,204.89,164.73,205.73,159,205.73z"/>
	<path d="M182.74,98.92h32.77v88.58h-32.77v-8.68c-5.43,7.44-13.35,11.16-23.74,11.16c-9.69,0-17.45-3.34-23.3-10.01
		c-5.85-6.67-8.77-16.62-8.77-29.85v-51.2h32.77v47.66c0,7.91,3.66,11.87,10.98,11.87c3.9,0,6.88-1.24,8.95-3.72
		c2.07-2.48,3.1-5.9,3.1-10.28V98.92z"/>
	<path d="M213.94,238.68V83.18h56.21c4.94-1.64,10.32-2.48,16.06-2.48c16.46,0,30.71,6.51,41.21,18.81
		c10.03,11.75,15.11,26.45,15.11,43.71s-5.08,31.95-15.11,43.7c-10.5,12.31-24.75,18.81-41.21,18.81c-2.75,0-5.42-0.19-7.99-0.57
		v33.52H213.94z M278.23,142.69c-0.01,0.14-0.02,0.32-0.02,0.53c0,0.21,0.01,0.38,0.02,0.53c0.01-0.14,0.02-0.32,0.02-0.53
		C278.25,143.01,278.24,142.83,278.23,142.69z"/>
	<path d="M286.2,96.44c11.93,0,21.67,4.43,29.23,13.29c7.56,8.86,11.34,20.02,11.34,33.48c0,13.46-3.78,24.62-11.34,33.48
		c-7.56,8.86-17.3,13.29-29.23,13.29c-10.16,0-18.07-3.48-23.74-10.45v43.4h-32.77V98.92h32.77v7.97
		C268.13,99.93,276.04,96.44,286.2,96.44z M266.8,155.08c2.89,3.19,6.7,4.78,11.43,4.78c4.72,0,8.53-1.59,11.43-4.78
		c2.89-3.19,4.34-7.15,4.34-11.87c0-4.72-1.45-8.68-4.34-11.87c-2.9-3.19-6.7-4.78-11.43-4.78c-4.73,0-8.53,1.59-11.43,4.78
		c-2.9,3.19-4.34,7.15-4.34,11.87C262.46,147.94,263.91,151.9,266.8,155.08z"/>
	<path d="M383.28,205.73c-19.26,0-35.18-5.92-47.32-17.59c-12.32-11.84-18.56-26.83-18.56-44.57c0-17.71,6.04-32.77,17.95-44.76
		c11.94-12.02,27.05-18.11,44.92-18.11c17.77,0,32.72,6.02,44.43,17.89c11.65,11.81,17.56,26.71,17.56,44.28
		c0,5.16-0.63,10.32-1.89,15.33l-2.75,10.99l5.98,5.04l-11.21,12.1C420.48,199.2,403.96,205.73,383.28,205.73z"/>
	<path d="M366.28,154.37c2.83,5.91,8.86,8.86,18.07,8.86c5.43,0,10.45-1.89,15.06-5.67l21.44,18.07
		c-8.86,9.57-21.38,14.35-37.56,14.35c-15.12,0-27.25-4.4-36.41-13.2c-9.15-8.8-13.73-19.87-13.73-33.22
		c0-13.46,4.46-24.68,13.38-33.66c8.92-8.97,20.17-13.46,33.75-13.46c13.46,0,24.54,4.4,33.22,13.2
		c8.68,8.8,13.02,19.87,13.02,33.22c0,3.9-0.47,7.74-1.42,11.52H366.28z M365.75,133.29h29.76c-2.01-7.09-6.79-10.63-14.35-10.63
		C373.48,122.66,368.34,126.21,365.75,133.29z"/>
	<path d="M420.51,203.25V83.18h62.02c4.13-1.18,8.5-1.77,13.08-1.77h15.75v69.16l-17.83-2.38c-0.74-0.1-1.45-0.15-2.12-0.15
		c-2.13,0-3.79,0.49-5.37,1.6c-1.04,0.73-1.26,3.07-1.26,4.9v48.7H420.51z"/>
	<path d="M469.03,116.11c1.65-6.02,4.9-10.69,9.74-14c4.84-3.31,10.45-4.96,16.83-4.96v35.43c-7.09-0.94-13.29,0.44-18.6,4.16
		c-5.31,3.72-7.97,9.66-7.97,17.8v32.95h-32.77V98.92h32.77V116.11z"/>
	<rect x="526.8" y="47.74" width="132.48" height="155.51"/>
	<path d="M608.1,63.49h35.43V187.5H608.1V141.8h-30.12v45.71h-35.43V63.49h35.43v43.94h30.12V63.49z"/>
	<path d="M696.15,205.73c-16.46,0-30.71-6.51-41.21-18.81c-10.02-11.74-15.11-26.45-15.11-43.7c0-17.26,5.08-31.96,15.11-43.71
		c10.5-12.31,24.75-18.81,41.21-18.81c5.74,0,11.12,0.84,16.06,2.48h56.21v120.07H712.2C707.27,204.89,701.89,205.73,696.15,205.73z
		 M704.12,142.69c-0.01,0.14-0.02,0.32-0.02,0.53c0,0.21,0.01,0.38,0.02,0.53c0.01-0.15,0.02-0.32,0.02-0.53
		C704.14,143.01,704.13,142.83,704.12,142.69z"/>
	<path d="M719.89,98.92h32.77v88.58h-32.77v-7.97c-5.67,6.97-13.58,10.45-23.74,10.45c-11.93,0-21.67-4.43-29.23-13.29
		c-7.56-8.86-11.34-20.02-11.34-33.48c0-13.46,3.78-24.63,11.34-33.48c7.56-8.86,17.3-13.29,29.23-13.29
		c10.16,0,18.07,3.49,23.74,10.45V98.92z M692.69,155.08c2.89,3.19,6.7,4.78,11.43,4.78c4.72,0,8.53-1.59,11.43-4.78
		c2.89-3.19,4.34-7.15,4.34-11.87c0-4.72-1.45-8.68-4.34-11.87c-2.9-3.19-6.7-4.78-11.43-4.78c-4.73,0-8.53,1.59-11.43,4.78
		c-2.9,3.19-4.34,7.15-4.34,11.87C688.35,147.94,689.8,151.9,692.69,155.08z"/>
	<path d="M809.88,205.73c-17.83,0-32.95-6.04-44.94-17.95c-12.02-11.93-18.11-26.93-18.11-44.56c0-17.63,6.09-32.63,18.11-44.57
		c11.99-11.91,27.11-17.95,44.94-17.95c11.49,0,22.22,2.82,31.88,8.4c9.76,5.64,17.39,13.36,22.67,22.97l7.47,13.58l-30.69,17.51
		l30.57,17.63l-7.29,13.48c-5.3,9.8-12.98,17.61-22.8,23.2C832.04,202.95,821.34,205.73,809.88,205.73z"/>
	<path d="M809.88,189.98c-13.58,0-24.86-4.46-33.84-13.38c-8.98-8.92-13.46-20.05-13.46-33.39c0-13.35,4.49-24.48,13.46-33.39
		c8.97-8.92,20.25-13.38,33.84-13.38c8.74,0,16.74,2.1,24.01,6.29c7.26,4.19,12.84,9.83,16.74,16.92l-27.64,15.77
		c-2.95-4.96-7.32-7.44-13.11-7.44c-4.14,0-7.59,1.45-10.36,4.34c-2.78,2.9-4.16,6.53-4.16,10.9c0,4.37,1.39,8,4.16,10.9
		c2.77,2.89,6.23,4.34,10.36,4.34c6.14,0,10.51-2.54,13.11-7.62l27.64,15.94c-3.9,7.2-9.48,12.87-16.74,17.01
		C826.62,187.92,818.62,189.98,809.88,189.98z"/>
	<polygon points="842.85,203.25 842.85,47.74 907.12,47.74 907.12,83.18 975.18,83.18 938.84,142.95 977.92,203.25 	"/>
	<path d="M948.95,187.5h-36.32l-21.26-35.43v35.43H858.6V63.49h32.77v69.8l18.6-34.37h37.2l-26.93,44.29L948.95,187.5z"/>
</g>
<g>
	<path class="st1" d="M70.6,190.34c-13.46,0-24.69-2.81-33.66-8.41c-8.98-5.61-15-13.2-18.07-22.76l30.29-17.54
		c4.13,10.51,11.57,15.77,22.32,15.77c8.03,0,12.05-2.13,12.05-6.38c0-1.18-0.3-2.24-0.89-3.19c-0.59-0.94-1.71-1.77-3.37-2.48
		c-1.66-0.71-3.1-1.27-4.34-1.68c-1.24-0.41-3.4-1.03-6.47-1.86c-3.07-0.83-5.38-1.48-6.91-1.95
		c-24.69-7.44-37.03-20.73-37.03-39.86c0-11.34,4.1-20.73,12.31-28.17c8.21-7.44,18.98-11.16,32.33-11.16
		c10.51,0,19.93,2.48,28.26,7.44c8.33,4.96,14.44,12.11,18.34,21.44l-29.41,17.18c-3.43-8.74-9.1-13.11-17.01-13.11
		c-3.07,0-5.4,0.62-7,1.86c-1.59,1.24-2.39,2.81-2.39,4.69c0,2.6,1.39,4.61,4.16,6.02c2.77,1.42,8.12,3.25,16.03,5.49
		c5.9,1.77,10.75,3.45,14.53,5.05c3.78,1.59,7.73,3.84,11.87,6.73c4.13,2.9,7.23,6.62,9.3,11.16c2.07,4.55,3.1,9.89,3.1,16.03
		c0,12.64-4.34,22.41-13.02,29.32C97.27,186.88,85.48,190.34,70.6,190.34z"/>
	<path class="st1" d="M182.74,98.92h32.77v88.58h-32.77v-8.68c-5.43,7.44-13.35,11.16-23.74,11.16c-9.69,0-17.45-3.34-23.3-10.01
		c-5.85-6.67-8.77-16.62-8.77-29.85v-51.2h32.77v47.66c0,7.91,3.66,11.87,10.98,11.87c3.9,0,6.88-1.24,8.95-3.72
		c2.07-2.48,3.1-5.9,3.1-10.28V98.92z"/>
	<path class="st1" d="M286.2,96.44c11.93,0,21.67,4.43,29.23,13.29c7.56,8.86,11.34,20.02,11.34,33.48
		c0,13.46-3.78,24.62-11.34,33.48c-7.56,8.86-17.3,13.29-29.23,13.29c-10.16,0-18.07-3.48-23.74-10.45v43.4h-32.77V98.92h32.77v7.97
		C268.13,99.93,276.04,96.44,286.2,96.44z M266.8,155.08c2.89,3.19,6.7,4.78,11.43,4.78c4.72,0,8.53-1.59,11.43-4.78
		c2.89-3.19,4.34-7.15,4.34-11.87c0-4.72-1.45-8.68-4.34-11.87c-2.9-3.19-6.7-4.78-11.43-4.78c-4.73,0-8.53,1.59-11.43,4.78
		c-2.9,3.19-4.34,7.15-4.34,11.87C262.46,147.94,263.91,151.9,266.8,155.08z"/>
	<path class="st1" d="M366.28,154.37c2.83,5.91,8.86,8.86,18.07,8.86c5.43,0,10.45-1.89,15.06-5.67l21.44,18.07
		c-8.86,9.57-21.38,14.35-37.56,14.35c-15.12,0-27.25-4.4-36.41-13.2c-9.15-8.8-13.73-19.87-13.73-33.22
		c0-13.46,4.46-24.68,13.38-33.66c8.92-8.97,20.17-13.46,33.75-13.46c13.46,0,24.54,4.4,33.22,13.2
		c8.68,8.8,13.02,19.87,13.02,33.22c0,3.9-0.47,7.74-1.42,11.52H366.28z M365.75,133.29h29.76c-2.01-7.09-6.79-10.63-14.35-10.63
		C373.48,122.66,368.34,126.21,365.75,133.29z"/>
	<path class="st1" d="M469.03,116.11c1.65-6.02,4.9-10.69,9.74-14c4.84-3.31,10.45-4.96,16.83-4.96v35.43
		c-7.09-0.94-13.29,0.44-18.6,4.16c-5.31,3.72-7.97,9.66-7.97,17.8v32.95h-32.77V98.92h32.77V116.11z"/>
	<path class="st1" d="M608.1,63.49h35.43V187.5H608.1V141.8h-30.12v45.71h-35.43V63.49h35.43v43.94h30.12V63.49z"/>
	<path class="st1" d="M719.89,98.92h32.77v88.58h-32.77v-7.97c-5.67,6.97-13.58,10.45-23.74,10.45c-11.93,0-21.67-4.43-29.23-13.29
		c-7.56-8.86-11.34-20.02-11.34-33.48c0-13.46,3.78-24.63,11.34-33.48c7.56-8.86,17.3-13.29,29.23-13.29
		c10.16,0,18.07,3.49,23.74,10.45V98.92z M692.69,155.08c2.89,3.19,6.7,4.78,11.43,4.78c4.72,0,8.53-1.59,11.43-4.78
		c2.89-3.19,4.34-7.15,4.34-11.87c0-4.72-1.45-8.68-4.34-11.87c-2.9-3.19-6.7-4.78-11.43-4.78c-4.73,0-8.53,1.59-11.43,4.78
		c-2.9,3.19-4.34,7.15-4.34,11.87C688.35,147.94,689.8,151.9,692.69,155.08z"/>
	<path class="st1" d="M809.88,189.98c-13.58,0-24.86-4.46-33.84-13.38c-8.98-8.92-13.46-20.05-13.46-33.39
		c0-13.35,4.49-24.48,13.46-33.39c8.97-8.92,20.25-13.38,33.84-13.38c8.74,0,16.74,2.1,24.01,6.29c7.26,4.19,12.84,9.83,16.74,16.92
		l-27.64,15.77c-2.95-4.96-7.32-7.44-13.11-7.44c-4.14,0-7.59,1.45-10.36,4.34c-2.78,2.9-4.16,6.53-4.16,10.9
		c0,4.37,1.39,8,4.16,10.9c2.77,2.89,6.23,4.34,10.36,4.34c6.14,0,10.51-2.54,13.11-7.62l27.64,15.94
		c-3.9,7.2-9.48,12.87-16.74,17.01C826.62,187.92,818.62,189.98,809.88,189.98z"/>
	<path class="st1" d="M948.95,187.5h-36.32l-21.26-35.43v35.43H858.6V63.49h32.77v69.8l18.6-34.37h37.2l-26.93,44.29L948.95,187.5z"
		/>
</g>
</svg>
