<?xml version="1.0" encoding="utf-8"?>
<!-- Generator: Adobe Illustrator 23.0.3, SVG Export Plug-In . SVG Version: 6.00 Build 0)  -->
<svg version="1.1" id="Layer_1" xmlns="http://www.w3.org/2000/svg" xmlns:xlink="http://www.w3.org/1999/xlink" x="0px" y="0px"
	 viewBox="0 0 2048 2048" style="enable-background:new 0 0 2048 2048;" xml:space="preserve">
<style type="text/css">
	.st0{fill:#C1272D;}
	.st1{fill:#FFBC00;}
</style>
<g>
	<polygon points="-2.2,609.1 359.4,262.5 1673.5,262.5 2038.4,609 1017.5,1799.3 	"/>
</g>
<g>
	<polygon class="st0" points="135.2,615.9 399.6,362.5 1633.5,362.5 1900.6,616 1017.5,1645.7 	"/>
</g>
<polygon class="st1" points="272.7,622.6 439.8,462.5 1593.6,462.5 1762.8,623.1 1017.6,1492 "/>
<g>
	<g>
		<path d="M1023.9,1494.3c-119.4,0-223.1-28.1-308.4-83.5c-41.5-27-78-60.2-108.4-98.8c-29.4-37.3-53.1-79.6-70.6-125.6l-30.1-79.4
			l223.7-129.7c-11.8-8.1-23.2-16.8-34.2-26.2c-39.5-33.7-70.1-73.5-91-118.4c-22.6-48.5-34.1-103.3-34.1-162.9
			c0-60.8,12.6-118,37.5-170.1c23.5-49,57.1-92,99.9-127.7c39.8-33.2,86-58.9,137.5-76.4c49.6-16.9,102-25.4,155.6-25.4
			c99.4,0,189,24.1,266.2,71.6c77.7,47.8,139.4,117.2,183.5,206.2l41.4,83.6l-213.3,124.8c23.4,11.8,46.2,25.4,67.5,41.1
			c94.8,70,142.9,169,142.9,294.2c0,61.3-12.3,118.5-36.6,170c-23.9,50.6-58.7,94.5-103.5,130.4
			C1266.2,1459.1,1153.6,1494.3,1023.9,1494.3z"/>
	</g>
	<g>
		<path class="st0" d="M630,1151l194.1-112.5c35.2,81.6,95.6,136.4,206.8,136.4c106.9,0,133.6-42.2,133.6-80.2
			c0-60.5-56.3-84.4-204-125.2c-146.3-40.8-289.8-111.1-289.8-299.6c0-189.9,160.4-299.6,330.5-299.6
			c161.8,0,288.4,77.4,360.1,222.2l-189.9,111.1c-33.8-70.3-80.2-113.9-170.2-113.9c-70.3,0-105.5,35.2-105.5,74.5
			c0,45,23.9,76,177.2,122.4c149.1,45,316.5,97.1,316.5,305.2c0,189.9-151.9,302.4-365.7,302.4C817.1,1394.3,684.9,1295.9,630,1151z
			"/>
	</g>
</g>
<g>
</g>
<g>
</g>
<g>
</g>
<g>
</g>
<g>
</g>
<g>
</g>
<g>
</g>
<g>
</g>
<g>
</g>
<g>
</g>
<g>
</g>
<g>
</g>
<g>
</g>
<g>
</g>
<g>
</g>
</svg>
