<?xml version="1.0" encoding="utf-8"?>
<!-- Generator: Adobe Illustrator 24.0.1, SVG Export Plug-In . SVG Version: 6.00 Build 0)  -->
<svg version="1.1" id="Layer_1" xmlns="http://www.w3.org/2000/svg" xmlns:xlink="http://www.w3.org/1999/xlink" x="0px" y="0px"
	 viewBox="0 0 1000 300" style="enable-background:new 0 0 1000 300;" xml:space="preserve">
<style type="text/css">
	.st0{fill:#1A1A1A;}
	.st1{fill:#C1262C;}
</style>
<g>
	<g>
		<path class="st0" d="M92.7,222.5c-16.4,0-30.5-3.6-42-10.8c-12.2-7.6-20.5-18.1-24.7-31.3l-3.9-12.1L46.8,154
			c-12.6-11.8-15.9-25.9-15.9-37.6c0-15.7,6-29.5,17.5-39.8c11.1-10.1,25.6-15.2,42.9-15.2c13.3,0,25.6,3.2,36.3,9.7
			c11.3,6.7,19.6,16.4,24.8,28.9l5.3,12.7l-22.1,12.9c0.7,0.5,1.4,0.9,2.1,1.4c6.5,4.5,11.4,10.4,14.6,17.5c3,6.6,4.5,14.2,4.5,22.6
			c0,17.4-6.6,31.8-19,41.6C126.3,217.9,111.2,222.5,92.7,222.5z"/>
		<path class="st0" d="M92.7,206.7c-13.5,0-24.7-2.8-33.7-8.4c-9-5.6-15-13.2-18.1-22.8L71.2,158c4.1,10.5,11.6,15.8,22.3,15.8
			c8,0,12.1-2.1,12.1-6.4c0-1.2-0.3-2.2-0.9-3.2c-0.6-0.9-1.7-1.8-3.4-2.5c-1.7-0.7-3.1-1.3-4.3-1.7c-1.2-0.4-3.4-1-6.5-1.9
			s-5.4-1.5-6.9-1.9c-24.7-7.4-37-20.7-37-39.9c0-11.3,4.1-20.7,12.3-28.2s19-11.2,32.3-11.2c10.5,0,19.9,2.5,28.3,7.4
			s14.4,12.1,18.3,21.4l-29.4,17.2c-3.4-8.7-9.1-13.1-17-13.1c-3.1,0-5.4,0.6-7,1.9c-1.6,1.2-2.4,2.8-2.4,4.7c0,2.6,1.4,4.6,4.2,6
			c2.8,1.4,8.1,3.2,16,5.5c5.9,1.8,10.8,3.4,14.5,5.1c3.8,1.6,7.7,3.8,11.9,6.7c4.1,2.9,7.2,6.6,9.3,11.2c2.1,4.6,3.1,9.9,3.1,16
			c0,12.6-4.3,22.4-13,29.3C119.3,203.3,107.6,206.7,92.7,206.7z"/>
		<path class="st0" d="M181.1,222.1c-14.2,0-26.3-5.3-35.1-15.4c-8.4-9.6-12.7-23.1-12.7-40.2V99.6h120.1v120.1H197
			C192.1,221.3,186.8,222.1,181.1,222.1z"/>
		<path class="st0" d="M204.8,115.3h32.8v88.6h-32.8v-8.7c-5.4,7.4-13.4,11.2-23.7,11.2c-9.7,0-17.4-3.3-23.3-10s-8.8-16.6-8.8-29.9
			v-51.2h32.8V163c0,7.9,3.7,11.9,11,11.9c3.9,0,6.9-1.2,8.9-3.7c2.1-2.5,3.1-5.9,3.1-10.3L204.8,115.3L204.8,115.3z"/>
		<path class="st0" d="M236,255.1V99.6h56.2c4.9-1.6,10.3-2.5,16.1-2.5c16.5,0,30.7,6.5,41.2,18.8c10,11.8,15.1,26.5,15.1,43.7
			s-5.1,31.9-15.1,43.7c-10.5,12.3-24.8,18.8-41.2,18.8c-2.8,0-5.4-0.2-8-0.6v33.5L236,255.1L236,255.1z M300.3,159.1
			c0,0.1,0,0.3,0,0.5c0,0.2,0,0.4,0,0.5c0-0.1,0-0.3,0-0.5C300.3,159.4,300.3,159.2,300.3,159.1z"/>
		<path class="st0" d="M308.3,112.8c11.9,0,21.7,4.4,29.2,13.3s11.3,20,11.3,33.5c0,13.5-3.8,24.6-11.3,33.5s-17.3,13.3-29.2,13.3
			c-10.2,0-18.1-3.5-23.7-10.4v43.4h-32.8v-124h32.8v8C290.2,116.3,298.1,112.8,308.3,112.8z M288.9,171.5c2.9,3.2,6.7,4.8,11.4,4.8
			c4.7,0,8.5-1.6,11.4-4.8c2.9-3.2,4.3-7.1,4.3-11.9s-1.5-8.7-4.3-11.9c-2.9-3.2-6.7-4.8-11.4-4.8c-4.7,0-8.5,1.6-11.4,4.8
			s-4.3,7.1-4.3,11.9C284.5,164.4,286,168.3,288.9,171.5z"/>
		<path class="st0" d="M405.4,222.1c-19.3,0-35.2-5.9-47.3-17.6c-12.3-11.8-18.6-26.8-18.6-44.6c0-17.7,6-32.8,18-44.8
			c11.9-12,27-18.1,44.9-18.1c17.8,0,32.7,6,44.4,17.9c11.6,11.8,17.6,26.7,17.6,44.3c0,5.2-0.6,10.3-1.9,15.3l-2.8,11l6,5
			l-11.2,12.1C442.6,215.6,426,222.1,405.4,222.1z"/>
		<path class="st0" d="M388.4,170.8c2.8,5.9,8.9,8.9,18.1,8.9c5.4,0,10.5-1.9,15.1-5.7l21.4,18.1c-8.9,9.6-21.4,14.4-37.6,14.4
			c-15.1,0-27.2-4.4-36.4-13.2c-9.1-8.8-13.7-19.9-13.7-33.2c0-13.5,4.5-24.7,13.4-33.7c8.9-9,20.2-13.5,33.8-13.5
			c13.5,0,24.5,4.4,33.2,13.2s13,19.9,13,33.2c0,3.9-0.5,7.7-1.4,11.5L388.4,170.8L388.4,170.8z M387.8,149.7h29.8
			c-2-7.1-6.8-10.6-14.4-10.6C395.6,139.1,390.4,142.6,387.8,149.7z"/>
		<path class="st0" d="M442.6,219.7V99.6h62c4.1-1.2,8.5-1.8,13.1-1.8h15.8V167l-17.8-2.4c-0.7-0.1-1.5-0.1-2.1-0.1
			c-2.1,0-3.8,0.5-5.4,1.6c-1,0.7-1.3,3.1-1.3,4.9v48.7L442.6,219.7L442.6,219.7z"/>
		<path class="st0" d="M491.1,132.5c1.6-6,4.9-10.7,9.7-14s10.5-5,16.8-5V149c-7.1-0.9-13.3,0.4-18.6,4.2s-8,9.7-8,17.8v32.9h-32.8
			v-88.6h32.8V132.5z"/>
		<rect x="548.9" y="64.2" class="st0" width="132.5" height="155.5"/>
		<path class="st0" d="M630.2,79.9h35.4v124h-35.4v-45.7h-30.1v45.7h-35.4v-124h35.4v43.9h30.1V79.9z"/>
		<path class="st0" d="M718.2,222.1c-16.5,0-30.7-6.5-41.2-18.8c-10-11.7-15.1-26.4-15.1-43.7c0-17.3,5.1-32,15.1-43.7
			c10.5-12.3,24.8-18.8,41.2-18.8c5.7,0,11.1,0.8,16.1,2.5h56.2v120.1h-56.2C729.3,221.3,724,222.1,718.2,222.1z M726.2,159.1
			c0,0.1,0,0.3,0,0.5c0,0.2,0,0.4,0,0.5c0-0.1,0-0.3,0-0.5C726.2,159.4,726.2,159.2,726.2,159.1z"/>
		<path class="st0" d="M742,115.3h32.8v88.6H742v-8c-5.7,7-13.6,10.4-23.7,10.4c-11.9,0-21.7-4.4-29.2-13.3s-11.3-20-11.3-33.5
			c0-13.5,3.8-24.6,11.3-33.5c7.6-8.9,17.3-13.3,29.2-13.3c10.2,0,18.1,3.5,23.7,10.4V115.3z M714.8,171.5c2.9,3.2,6.7,4.8,11.4,4.8
			c4.7,0,8.5-1.6,11.4-4.8c2.9-3.2,4.3-7.1,4.3-11.9s-1.5-8.7-4.3-11.9c-2.9-3.2-6.7-4.8-11.4-4.8c-4.7,0-8.5,1.6-11.4,4.8
			c-2.9,3.2-4.3,7.1-4.3,11.9C710.4,164.4,711.9,168.3,714.8,171.5z"/>
		<path class="st0" d="M832,222.1c-17.8,0-33-6-44.9-17.9c-12-11.9-18.1-26.9-18.1-44.6S775,127,787,115.1c12-11.9,27.1-18,44.9-18
			c11.5,0,22.2,2.8,31.9,8.4c9.8,5.6,17.4,13.4,22.7,23l7.5,13.6l-30.7,17.5l30.6,17.6l-7.3,13.5c-5.3,9.8-13,17.6-22.8,23.2
			C854.1,219.4,843.4,222.1,832,222.1z"/>
		<path class="st0" d="M832,206.4c-13.6,0-24.9-4.5-33.8-13.4c-9-8.9-13.5-20.1-13.5-33.4c0-13.4,4.5-24.5,13.5-33.4
			c9-8.9,20.2-13.4,33.8-13.4c8.7,0,16.7,2.1,24,6.3c7.3,4.2,12.8,9.8,16.7,16.9l-27.6,15.8c-3-5-7.3-7.4-13.1-7.4
			c-4.1,0-7.6,1.4-10.4,4.3c-2.8,2.9-4.2,6.5-4.2,10.9s1.4,8,4.2,10.9c2.8,2.9,6.2,4.3,10.4,4.3c6.1,0,10.5-2.5,13.1-7.6l27.6,15.9
			c-3.9,7.2-9.5,12.9-16.7,17C848.7,204.3,840.7,206.4,832,206.4z"/>
		<polygon class="st0" points="864.9,219.7 864.9,64.2 929.2,64.2 929.2,99.6 997.3,99.6 960.9,159.4 1000,219.7 		"/>
		<path class="st0" d="M971,203.9h-36.3l-21.3-35.4v35.4h-32.8v-124h32.8v69.8l18.6-34.4h37.2l-26.9,44.3L971,203.9z"/>
	</g>
	<g>
		<path d="M70.6,206.1c-16.4,0-30.5-3.6-42-10.8C16.4,187.7,8.1,177.1,3.9,164L0,151.9l24.7-14.3C12.1,125.8,8.8,111.7,8.8,100
			c0-15.7,6.1-29.5,17.5-39.8C37.4,50,51.9,44.9,69.2,44.9c13.3,0,25.6,3.2,36.3,9.7c11.2,6.7,19.6,16.4,24.8,28.9l5.3,12.7
			l-22.1,12.9c0.7,0.5,1.4,0.9,2.1,1.4c6.5,4.5,11.4,10.4,14.6,17.5c3,6.6,4.5,14.2,4.5,22.6c0,17.4-6.6,31.8-19,41.6
			C104.3,201.4,89.1,206.1,70.6,206.1z"/>
		<path d="M70.6,190.3c-13.5,0-24.7-2.8-33.7-8.4c-9-5.6-15-13.2-18.1-22.8l30.3-17.5c4.1,10.5,11.6,15.8,22.3,15.8
			c8,0,12.1-2.1,12.1-6.4c0-1.2-0.3-2.2-0.9-3.2c-0.6-0.9-1.7-1.8-3.4-2.5c-1.7-0.7-3.1-1.3-4.3-1.7c-1.2-0.4-3.4-1-6.5-1.9
			s-5.4-1.5-6.9-1.9c-24.7-7.4-37-20.7-37-39.9c0-11.3,4.1-20.7,12.3-28.2s19-11.2,32.3-11.2c10.5,0,19.9,2.5,28.3,7.4
			s14.4,12.1,18.3,21.4l-29.4,17.2c-3.4-8.7-9.1-13.1-17-13.1c-3.1,0-5.4,0.6-7,1.9c-1.6,1.2-2.4,2.8-2.4,4.7c0,2.6,1.4,4.6,4.2,6
			c2.8,1.4,8.1,3.2,16,5.5c5.9,1.8,10.8,3.4,14.5,5.1c3.8,1.6,7.7,3.8,11.9,6.7c4.1,2.9,7.2,6.6,9.3,11.2c2.1,4.6,3.1,9.9,3.1,16
			c0,12.6-4.3,22.4-13,29.3C97.3,186.9,85.5,190.3,70.6,190.3z"/>
		<path d="M159,205.7c-14.2,0-26.3-5.3-35.1-15.4c-8.4-9.6-12.7-23.1-12.7-40.2V83.2h120.1v120.1h-56.3
			C170.1,204.9,164.7,205.7,159,205.7z"/>
		<path d="M182.7,98.9h32.8v88.6h-32.8v-8.7c-5.4,7.4-13.4,11.2-23.7,11.2c-9.7,0-17.4-3.3-23.3-10s-8.8-16.6-8.8-29.9V98.9h32.8
			v47.7c0,7.9,3.7,11.9,11,11.9c3.9,0,6.9-1.2,8.9-3.7c2.1-2.5,3.1-5.9,3.1-10.3L182.7,98.9L182.7,98.9z"/>
		<path d="M213.9,238.7V83.2h56.2c4.9-1.6,10.3-2.5,16.1-2.5c16.5,0,30.7,6.5,41.2,18.8c10,11.8,15.1,26.4,15.1,43.7
			s-5.1,31.9-15.1,43.7c-10.5,12.3-24.8,18.8-41.2,18.8c-2.8,0-5.4-0.2-8-0.6v33.5H213.9z M278.2,142.7c0,0.1,0,0.3,0,0.5
			c0,0.2,0,0.4,0,0.5c0-0.1,0-0.3,0-0.5C278.2,143,278.2,142.8,278.2,142.7z"/>
		<path d="M286.2,96.4c11.9,0,21.7,4.4,29.2,13.3s11.3,20,11.3,33.5s-3.8,24.6-11.3,33.5S298.1,190,286.2,190
			c-10.2,0-18.1-3.5-23.7-10.4v43.4h-32.8v-124h32.8v8C268.1,99.9,276,96.4,286.2,96.4z M266.8,155.1c2.9,3.2,6.7,4.8,11.4,4.8
			c4.7,0,8.5-1.6,11.4-4.8c2.9-3.2,4.3-7.1,4.3-11.9s-1.5-8.7-4.3-11.9c-2.9-3.2-6.7-4.8-11.4-4.8c-4.7,0-8.5,1.6-11.4,4.8
			s-4.3,7.1-4.3,11.9C262.5,147.9,263.9,151.9,266.8,155.1z"/>
		<path d="M383.3,205.7c-19.3,0-35.2-5.9-47.3-17.6c-12.3-11.8-18.6-26.8-18.6-44.6c0-17.7,6-32.8,18-44.8
			c11.9-12,27-18.1,44.9-18.1c17.8,0,32.7,6,44.4,17.9c11.6,11.8,17.6,26.7,17.6,44.3c0,5.2-0.6,10.3-1.9,15.3l-2.8,11l6,5
			l-11.2,12.1C420.5,199.2,404,205.7,383.3,205.7z"/>
		<path d="M366.3,154.4c2.8,5.9,8.9,8.9,18.1,8.9c5.4,0,10.5-1.9,15.1-5.7l21.4,18.1c-8.9,9.6-21.4,14.4-37.6,14.4
			c-15.1,0-27.2-4.4-36.4-13.2c-9.1-8.8-13.7-19.9-13.7-33.2c0-13.5,4.5-24.7,13.4-33.7c8.9-9,20.2-13.5,33.8-13.5
			c13.5,0,24.5,4.4,33.2,13.2s13,19.9,13,33.2c0,3.9-0.5,7.7-1.4,11.5L366.3,154.4L366.3,154.4z M365.8,133.3h29.8
			c-2-7.1-6.8-10.6-14.4-10.6C373.5,122.7,368.3,126.2,365.8,133.3z"/>
		<path d="M420.5,203.2V83.2h62c4.1-1.2,8.5-1.8,13.1-1.8h15.8v69.2l-17.8-2.4c-0.7-0.1-1.5-0.1-2.1-0.1c-2.1,0-3.8,0.5-5.4,1.6
			c-1,0.7-1.3,3.1-1.3,4.9v48.7L420.5,203.2L420.5,203.2z"/>
		<path d="M469,116.1c1.6-6,4.9-10.7,9.7-14s10.5-5,16.8-5v35.4c-7.1-0.9-13.3,0.4-18.6,4.2s-8,9.7-8,17.8v32.9h-32.8V98.9H469
			L469,116.1L469,116.1z"/>
		<rect x="526.8" y="47.7" width="132.5" height="155.5"/>
		<path d="M608.1,63.5h35.4v124h-35.4v-45.7H578v45.7h-35.4v-124H578v43.9h30.1V63.5z"/>
		<path d="M696.2,205.7c-16.5,0-30.7-6.5-41.2-18.8c-10-11.7-15.1-26.4-15.1-43.7c0-17.3,5.1-32,15.1-43.7
			c10.5-12.3,24.8-18.8,41.2-18.8c5.7,0,11.1,0.8,16.1,2.5h56.2v120.1h-56.2C707.3,204.9,701.9,205.7,696.2,205.7z M704.1,142.7
			c0,0.1,0,0.3,0,0.5c0,0.2,0,0.4,0,0.5c0-0.1,0-0.3,0-0.5C704.1,143,704.1,142.8,704.1,142.7z"/>
		<path d="M719.9,98.9h32.8v88.6h-32.8v-8c-5.7,7-13.6,10.4-23.7,10.4c-11.9,0-21.7-4.4-29.2-13.3s-11.3-20-11.3-33.5
			c0-13.5,3.8-24.6,11.3-33.5c7.6-8.9,17.3-13.3,29.2-13.3c10.2,0,18.1,3.5,23.7,10.4V98.9z M692.7,155.1c2.9,3.2,6.7,4.8,11.4,4.8
			c4.7,0,8.5-1.6,11.4-4.8c2.9-3.2,4.3-7.1,4.3-11.9s-1.5-8.7-4.3-11.9c-2.9-3.2-6.7-4.8-11.4-4.8s-8.5,1.6-11.4,4.8
			c-2.9,3.2-4.3,7.1-4.3,11.9C688.3,147.9,689.8,151.9,692.7,155.1z"/>
		<path d="M809.9,205.7c-17.8,0-33-6-44.9-17.9c-12-11.9-18.1-26.9-18.1-44.6s6.1-32.6,18.1-44.6c12-11.9,27.1-18,44.9-18
			c11.5,0,22.2,2.8,31.9,8.4c9.8,5.6,17.4,13.4,22.7,23l7.5,13.6l-30.7,17.5l30.6,17.6l-7.3,13.5c-5.3,9.8-13,17.6-22.8,23.2
			C832,202.9,821.3,205.7,809.9,205.7z"/>
		<path d="M809.9,190c-13.6,0-24.9-4.5-33.8-13.4c-9-8.9-13.5-20.1-13.5-33.4c0-13.4,4.5-24.5,13.5-33.4c9-8.9,20.2-13.4,33.8-13.4
			c8.7,0,16.7,2.1,24,6.3c7.3,4.2,12.8,9.8,16.7,16.9L823,135.4c-3-5-7.3-7.4-13.1-7.4c-4.1,0-7.6,1.4-10.4,4.3
			c-2.8,2.9-4.2,6.5-4.2,10.9s1.4,8,4.2,10.9c2.8,2.9,6.2,4.3,10.4,4.3c6.1,0,10.5-2.5,13.1-7.6l27.6,15.9
			c-3.9,7.2-9.5,12.9-16.7,17C826.6,187.9,818.6,190,809.9,190z"/>
		<polygon points="842.8,203.2 842.8,47.7 907.1,47.7 907.1,83.2 975.2,83.2 938.8,142.9 977.9,203.2 		"/>
		<path d="M949,187.5h-36.3l-21.3-35.4v35.4h-32.8v-124h32.8v69.8L910,98.9h37.2l-26.9,44.3L949,187.5z"/>
	</g>
	<g>
		<path class="st1" d="M70.6,190.3c-13.5,0-24.7-2.8-33.7-8.4c-9-5.6-15-13.2-18.1-22.8l30.3-17.5c4.1,10.5,11.6,15.8,22.3,15.8
			c8,0,12.1-2.1,12.1-6.4c0-1.2-0.3-2.2-0.9-3.2c-0.6-0.9-1.7-1.8-3.4-2.5c-1.7-0.7-3.1-1.3-4.3-1.7c-1.2-0.4-3.4-1-6.5-1.9
			s-5.4-1.5-6.9-1.9c-24.7-7.4-37-20.7-37-39.9c0-11.3,4.1-20.7,12.3-28.2s19-11.2,32.3-11.2c10.5,0,19.9,2.5,28.3,7.4
			s14.4,12.1,18.3,21.4l-29.4,17.2c-3.4-8.7-9.1-13.1-17-13.1c-3.1,0-5.4,0.6-7,1.9c-1.6,1.2-2.4,2.8-2.4,4.7c0,2.6,1.4,4.6,4.2,6
			c2.8,1.4,8.1,3.2,16,5.5c5.9,1.8,10.8,3.4,14.5,5.1c3.8,1.6,7.7,3.8,11.9,6.7c4.1,2.9,7.2,6.6,9.3,11.2c2.1,4.6,3.1,9.9,3.1,16
			c0,12.6-4.3,22.4-13,29.3C97.3,186.9,85.5,190.3,70.6,190.3z"/>
		<path class="st1" d="M182.7,98.9h32.8v88.6h-32.8v-8.7c-5.4,7.4-13.4,11.2-23.7,11.2c-9.7,0-17.4-3.3-23.3-10s-8.8-16.6-8.8-29.9
			V98.9h32.8v47.7c0,7.9,3.7,11.9,11,11.9c3.9,0,6.9-1.2,8.9-3.7c2.1-2.5,3.1-5.9,3.1-10.3L182.7,98.9L182.7,98.9z"/>
		<path class="st1" d="M286.2,96.4c11.9,0,21.7,4.4,29.2,13.3s11.3,20,11.3,33.5s-3.8,24.6-11.3,33.5S298.1,190,286.2,190
			c-10.2,0-18.1-3.5-23.7-10.4v43.4h-32.8v-124h32.8v8C268.1,99.9,276,96.4,286.2,96.4z M266.8,155.1c2.9,3.2,6.7,4.8,11.4,4.8
			c4.7,0,8.5-1.6,11.4-4.8c2.9-3.2,4.3-7.1,4.3-11.9s-1.5-8.7-4.3-11.9c-2.9-3.2-6.7-4.8-11.4-4.8c-4.7,0-8.5,1.6-11.4,4.8
			s-4.3,7.1-4.3,11.9C262.5,147.9,263.9,151.9,266.8,155.1z"/>
		<path class="st1" d="M366.3,154.4c2.8,5.9,8.9,8.9,18.1,8.9c5.4,0,10.5-1.9,15.1-5.7l21.4,18.1c-8.9,9.6-21.4,14.4-37.6,14.4
			c-15.1,0-27.2-4.4-36.4-13.2c-9.1-8.8-13.7-19.9-13.7-33.2c0-13.5,4.5-24.7,13.4-33.7c8.9-9,20.2-13.5,33.8-13.5
			c13.5,0,24.5,4.4,33.2,13.2s13,19.9,13,33.2c0,3.9-0.5,7.7-1.4,11.5L366.3,154.4L366.3,154.4z M365.8,133.3h29.8
			c-2-7.1-6.8-10.6-14.4-10.6C373.5,122.7,368.3,126.2,365.8,133.3z"/>
		<path class="st1" d="M469,116.1c1.6-6,4.9-10.7,9.7-14s10.5-5,16.8-5v35.4c-7.1-0.9-13.3,0.4-18.6,4.2s-8,9.7-8,17.8v32.9h-32.8
			V98.9H469L469,116.1L469,116.1z"/>
		<path class="st1" d="M608.1,63.5h35.4v124h-35.4v-45.7H578v45.7h-35.4v-124H578v43.9h30.1V63.5z"/>
		<path class="st1" d="M719.9,98.9h32.8v88.6h-32.8v-8c-5.7,7-13.6,10.4-23.7,10.4c-11.9,0-21.7-4.4-29.2-13.3s-11.3-20-11.3-33.5
			c0-13.5,3.8-24.6,11.3-33.5c7.6-8.9,17.3-13.3,29.2-13.3c10.2,0,18.1,3.5,23.7,10.4V98.9z M692.7,155.1c2.9,3.2,6.7,4.8,11.4,4.8
			c4.7,0,8.5-1.6,11.4-4.8c2.9-3.2,4.3-7.1,4.3-11.9s-1.5-8.7-4.3-11.9c-2.9-3.2-6.7-4.8-11.4-4.8s-8.5,1.6-11.4,4.8
			c-2.9,3.2-4.3,7.1-4.3,11.9C688.3,147.9,689.8,151.9,692.7,155.1z"/>
		<path class="st1" d="M809.9,190c-13.6,0-24.9-4.5-33.8-13.4c-9-8.9-13.5-20.1-13.5-33.4c0-13.4,4.5-24.5,13.5-33.4
			c9-8.9,20.2-13.4,33.8-13.4c8.7,0,16.7,2.1,24,6.3c7.3,4.2,12.8,9.8,16.7,16.9L823,135.4c-3-5-7.3-7.4-13.1-7.4
			c-4.1,0-7.6,1.4-10.4,4.3c-2.8,2.9-4.2,6.5-4.2,10.9s1.4,8,4.2,10.9c2.8,2.9,6.2,4.3,10.4,4.3c6.1,0,10.5-2.5,13.1-7.6l27.6,15.9
			c-3.9,7.2-9.5,12.9-16.7,17C826.6,187.9,818.6,190,809.9,190z"/>
		<path class="st1" d="M949,187.5h-36.3l-21.3-35.4v35.4h-32.8v-124h32.8v69.8L910,98.9h37.2l-26.9,44.3L949,187.5z"/>
	</g>
</g>
</svg>
