<?xml version="1.0" encoding="utf-8"?>
<!-- Generator: Adobe Illustrator 24.0.1, SVG Export Plug-In . SVG Version: 6.00 Build 0)  -->
<svg version="1.1" id="Layer_1" xmlns="http://www.w3.org/2000/svg" xmlns:xlink="http://www.w3.org/1999/xlink" x="0px" y="0px"
	 viewBox="0 0 1000 450" style="enable-background:new 0 0 1000 450;" xml:space="preserve">
<style type="text/css">
	.st0{fill:#FFBC00;stroke:#000000;stroke-width:8;stroke-miterlimit:10;}
	.st1{font-family:'Gilroy-Heavy';}
	.st2{font-size:131.1767px;}
	.st3{fill:#FF9700;stroke:#000000;stroke-width:4;stroke-miterlimit:10;}
</style>
<g>
	<path d="M41.46,131.08c-10.8,0-19.79-2.25-26.98-6.74C7.29,119.84,2.46,113.75,0,106.08l24.29-14.06
		c3.31,8.43,9.27,12.64,17.89,12.64c6.44,0,9.66-1.71,9.66-5.12c0-0.95-0.24-1.8-0.71-2.55c-0.47-0.76-1.37-1.42-2.69-1.99
		c-1.33-0.57-2.48-1.02-3.48-1.35s-2.72-0.83-5.19-1.49s-4.31-1.18-5.54-1.56C14.44,84.64,4.54,73.99,4.54,58.65
		c0-9.09,3.29-16.62,9.87-22.58s15.22-8.95,25.91-8.95c8.43,0,15.97,1.99,22.65,5.96s11.57,9.71,14.7,17.18L54.11,64.05
		c-2.74-7-7.3-10.5-13.63-10.5c-2.46,0-4.33,0.49-5.61,1.49c-1.28,1-1.92,2.25-1.92,3.76c0,2.08,1.11,3.69,3.34,4.82
		c2.22,1.14,6.51,2.6,12.86,4.4c4.73,1.42,8.62,2.76,11.64,4.05c3.03,1.28,6.2,3.08,9.52,5.4c3.31,2.32,5.8,5.31,7.46,8.95
		s2.48,7.93,2.48,12.86c0,10.13-3.48,17.96-10.43,23.5C62.83,128.3,53.4,131.08,41.46,131.08z"/>
	<path d="M144.85,128.81l-3.41-12.78h-28.69l-3.41,12.78H78.82l31.66-99.4h33.23l31.66,99.4H144.85z M118.86,93.3h16.48l-8.23-30.53
		L118.86,93.3z"/>
	<path d="M235.02,29.4h28.4v99.4H240.7l-31.24-45.45v45.45h-28.4V29.4h22.72l31.24,45.45V29.4z"/>
	<path d="M347.2,29.4c13.72,0,25.21,4.75,34.44,14.27c9.23,9.52,13.84,21.32,13.84,35.43s-4.61,25.91-13.84,35.43
		c-9.23,9.52-20.72,14.27-34.44,14.27h-41.18V29.4H347.2z M347.2,101.25c5.77,0,10.53-2.06,14.27-6.18
		c3.73-4.12,5.61-9.44,5.61-15.97s-1.87-11.86-5.61-15.97c-3.74-4.12-8.5-6.18-14.27-6.18h-11.36v44.31h11.36V101.25z"/>
	<path d="M406.14,29.4h28.4v99.4h-28.4V29.4z"/>
	<path d="M477.14,102.67h36.92v26.13h-65.33V29.4h64.61v25.84h-36.21v10.8h32.66v25.56h-32.66v11.08H477.14z"/>
	<path d="M623.69,70.15v11.79c0,14.2-4.57,25.94-13.7,35.22c-9.14,9.28-21.14,13.91-36,13.91c-15.53,0-28.21-4.94-38.06-14.84
		c-9.85-9.89-14.77-22.23-14.77-36.99c0-14.77,4.92-27.14,14.77-37.13c9.85-9.99,22.15-14.98,36.92-14.98
		c9.27,0,17.77,2.08,25.49,6.25c7.72,4.17,13.79,9.8,18.24,16.9l-24.14,13.77c-3.98-6.05-10.32-9.09-19.03-9.09
		c-7.1,0-12.86,2.27-17.25,6.82c-4.4,4.54-6.6,10.41-6.6,17.61c0,6.82,2.04,12.75,6.1,17.82c4.07,5.07,10.36,7.6,18.89,7.6
		c9.85,0,16.43-3.5,19.74-10.5h-21.15V70.15H623.69z"/>
	<path d="M720.9,116.09c-10.18,9.99-22.65,14.98-37.42,14.98c-14.77,0-27.24-4.99-37.42-14.98c-10.18-9.99-15.27-22.32-15.27-36.99
		s5.09-27,15.27-36.99c10.17-9.99,22.65-14.98,37.42-14.98c14.77,0,27.24,4.99,37.42,14.98c10.18,9.99,15.27,22.32,15.27,36.99
		S731.08,106.1,720.9,116.09z M666.08,96.36c4.59,4.59,10.39,6.89,17.4,6.89s12.8-2.29,17.4-6.89c4.59-4.59,6.89-10.34,6.89-17.25
		s-2.3-12.66-6.89-17.25c-4.59-4.59-10.39-6.89-17.4-6.89s-12.8,2.3-17.4,6.89s-6.89,10.34-6.89,17.25
		C659.19,86.01,661.49,91.77,666.08,96.36z"/>
	<path d="M772.38,101.11l-12.78,47.58h-21.3l4.26-47.58H772.38z"/>
	<path d="M861.28,131.08c-14.96,0-27.37-4.97-37.2-14.91c-9.85-9.94-14.77-22.3-14.77-37.06s4.92-27.12,14.77-37.06
		c9.85-9.94,22.25-14.91,37.2-14.91c9.18,0,17.66,2.18,25.42,6.53c7.76,4.36,13.82,10.22,18.17,17.61l-24.71,14.2
		c-1.61-3.22-4.12-5.77-7.53-7.67c-3.41-1.9-7.19-2.84-11.36-2.84c-7,0-12.68,2.27-17.04,6.82c-4.36,4.54-6.53,10.32-6.53,17.33
		c0,7,2.18,12.78,6.53,17.33s10.03,6.82,17.04,6.82c4.26,0,8.07-0.95,11.43-2.84c3.36-1.9,5.84-4.5,7.46-7.81l24.71,14.2
		c-4.36,7.48-10.41,13.4-18.17,17.75C878.92,128.9,870.46,131.08,861.28,131.08z"/>
	<path d="M969.49,128.81l-3.41-12.78h-28.69l-3.41,12.78h-30.53l31.66-99.4h33.23l31.66,99.4H969.49z M943.49,93.3h16.48
		l-8.23-30.53L943.49,93.3z"/>
</g>
<text transform="matrix(1 0 0 1 5.2752 275.5844)" class="st0 st1 st2">MARCH 21, 2020</text>
<text transform="matrix(1 0 0 1 76.6019 415.6303)" class="st3 st1 st2">@ RESMED HQ</text>
</svg>
