<?xml version="1.0" encoding="utf-8"?>
<!-- Generator: Adobe Illustrator 24.0.1, SVG Export Plug-In . SVG Version: 6.00 Build 0)  -->
<svg version="1.1" id="Layer_1" xmlns="http://www.w3.org/2000/svg" xmlns:xlink="http://www.w3.org/1999/xlink" x="0px" y="0px"
	 viewBox="0 0 1000 450" style="enable-background:new 0 0 1000 450;" xml:space="preserve">
<style type="text/css">
	.st0{fill:#FFBC00;}
	.st1{fill:#FF9700;}
</style>
<g>
	<path d="M41.5,131.1c-10.8,0-19.8-2.2-27-6.7c-7.2-4.5-12-10.6-14.5-18.3L24.3,92c3.3,8.4,9.3,12.6,17.9,12.6
		c6.4,0,9.7-1.7,9.7-5.1c0-0.9-0.2-1.8-0.7-2.6c-0.5-0.8-1.4-1.4-2.7-2c-1.3-0.6-2.5-1-3.5-1.3s-2.7-0.8-5.2-1.5s-4.3-1.2-5.5-1.6
		c-19.8-6-29.7-16.6-29.7-32c0-9.1,3.3-16.6,9.9-22.6s15.2-9,25.9-9c8.4,0,16,2,22.7,6s11.6,9.7,14.7,17.2L54.1,64.1
		c-2.7-7-7.3-10.5-13.6-10.5c-2.5,0-4.3,0.5-5.6,1.5c-1.3,1-1.9,2.2-1.9,3.8c0,2.1,1.1,3.7,3.3,4.8c2.2,1.1,6.5,2.6,12.9,4.4
		c4.7,1.4,8.6,2.8,11.6,4.1c3,1.3,6.2,3.1,9.5,5.4c3.3,2.3,5.8,5.3,7.5,8.9s2.5,7.9,2.5,12.9c0,10.1-3.5,18-10.4,23.5
		C62.8,128.3,53.4,131.1,41.5,131.1z"/>
	<path d="M144.9,128.8l-3.4-12.8h-28.7l-3.4,12.8H78.8l31.7-99.4h33.2l31.7,99.4H144.9z M118.9,93.3h16.5l-8.2-30.5L118.9,93.3z"/>
	<path d="M235,29.4h28.4v99.4h-22.7l-31.2-45.4v45.4h-28.4V29.4h22.7L235,74.8V29.4z"/>
	<path d="M347.2,29.4c13.7,0,25.2,4.8,34.4,14.3s13.8,21.3,13.8,35.4s-4.6,25.9-13.8,35.4s-20.7,14.3-34.4,14.3H306V29.4H347.2z
		 M347.2,101.2c5.8,0,10.5-2.1,14.3-6.2c3.7-4.1,5.6-9.4,5.6-16s-1.9-11.9-5.6-16c-3.7-4.1-8.5-6.2-14.3-6.2h-11.4v44.3L347.2,101.2
		L347.2,101.2z"/>
	<path d="M406.1,29.4h28.4v99.4h-28.4V29.4z"/>
	<path d="M477.1,102.7h36.9v26.1h-65.3V29.4h64.6v25.8h-36.2V66h32.7v25.6h-32.7L477.1,102.7L477.1,102.7L477.1,102.7z"/>
	<path d="M623.7,70.2v11.8c0,14.2-4.6,25.9-13.7,35.2c-9.1,9.3-21.1,13.9-36,13.9c-15.5,0-28.2-4.9-38.1-14.8
		c-9.8-9.9-14.8-22.2-14.8-37c0-14.8,4.9-27.1,14.8-37.1c9.8-10,22.2-15,36.9-15c9.3,0,17.8,2.1,25.5,6.2s13.8,9.8,18.2,16.9
		l-24.1,13.8c-4-6-10.3-9.1-19-9.1c-7.1,0-12.9,2.3-17.2,6.8c-4.4,4.5-6.6,10.4-6.6,17.6c0,6.8,2,12.8,6.1,17.8
		c4.1,5.1,10.4,7.6,18.9,7.6c9.8,0,16.4-3.5,19.7-10.5h-21.2V70.2H623.7z"/>
	<path d="M720.9,116.1c-10.2,10-22.7,15-37.4,15c-14.8,0-27.2-5-37.4-15s-15.3-22.3-15.3-37s5.1-27,15.3-37c10.2-10,22.7-15,37.4-15
		c14.8,0,27.2,5,37.4,15s15.3,22.3,15.3,37S731.1,106.1,720.9,116.1z M666.1,96.4c4.6,4.6,10.4,6.9,17.4,6.9s12.8-2.3,17.4-6.9
		c4.6-4.6,6.9-10.3,6.9-17.2s-2.3-12.7-6.9-17.2S690.5,55,683.5,55s-12.8,2.3-17.4,6.9s-6.9,10.3-6.9,17.2
		C659.2,86,661.5,91.8,666.1,96.4z"/>
	<path d="M772.4,101.1l-12.8,47.6h-21.3l4.3-47.6H772.4z"/>
	<path d="M861.3,131.1c-15,0-27.4-5-37.2-14.9c-9.8-9.9-14.8-22.3-14.8-37.1S814.2,52,824.1,42c9.8-9.9,22.2-14.9,37.2-14.9
		c9.2,0,17.7,2.2,25.4,6.5c7.8,4.4,13.8,10.2,18.2,17.6l-24.7,14.2c-1.6-3.2-4.1-5.8-7.5-7.7c-3.4-1.9-7.2-2.8-11.4-2.8
		c-7,0-12.7,2.3-17,6.8c-4.4,4.5-6.5,10.3-6.5,17.3c0,7,2.2,12.8,6.5,17.3s10,6.8,17,6.8c4.3,0,8.1-0.9,11.4-2.8
		c3.4-1.9,5.8-4.5,7.5-7.8l24.7,14.2c-4.4,7.5-10.4,13.4-18.2,17.8C878.9,128.9,870.5,131.1,861.3,131.1z"/>
	<path d="M969.5,128.8l-3.4-12.8h-28.7l-3.4,12.8h-30.5l31.7-99.4h33.2l31.7,99.4H969.5z M943.5,93.3H960l-8.2-30.5L943.5,93.3z"/>
</g>
<g>
	<path class="st0" d="M112.2,183.8v91.8H85.9v-44.7l-20.5,34.4h-2.4l-20.5-34.4v44.7H16.4v-91.8h26.2l21.6,37.4l21.6-37.4
		L112.2,183.8L112.2,183.8z"/>
	<path class="st0" d="M178.4,275.6l-3.1-11.8h-26.5l-3.1,11.8h-28.2l29.2-91.8h30.7l29.2,91.8H178.4z M154.4,242.8h15.2l-7.6-28.2
		L154.4,242.8z"/>
	<path class="st0" d="M259.2,275.5l-14.6-28.9h-6.6v28.9h-26.2v-91.8h36.7c10.1,0,18.4,2.9,24.9,8.9c6.6,5.9,9.8,13.7,9.8,23.4
		c0,5.4-1.2,10.3-3.7,14.7c-2.5,4.4-6,7.9-10.4,10.6l18.1,34.2H259.2z M238.1,207.8v17.1h10c2.8,0.1,5-0.6,6.6-2.1
		c1.6-1.5,2.4-3.6,2.4-6.3c0-2.7-0.8-4.8-2.4-6.4s-3.8-2.3-6.6-2.3L238.1,207.8L238.1,207.8z"/>
	<path class="st0" d="M337.3,277.7c-13.8,0-25.3-4.6-34.4-13.8s-13.6-20.6-13.6-34.2c0-13.6,4.5-25.1,13.6-34.2
		c9.1-9.2,20.5-13.8,34.4-13.8c8.5,0,16.3,2,23.5,6s12.8,9.4,16.8,16.3l-22.8,13.1c-1.5-3-3.8-5.3-7-7.1c-3.1-1.8-6.6-2.6-10.5-2.6
		c-6.5,0-11.7,2.1-15.7,6.3s-6,9.5-6,16s2,11.8,6,16c4,4.2,9.3,6.3,15.7,6.3c3.9,0,7.5-0.9,10.6-2.6c3.1-1.8,5.4-4.1,6.9-7.2
		l22.8,13.1c-4,6.9-9.6,12.4-16.8,16.4C353.6,275.7,345.8,277.7,337.3,277.7z"/>
	<path class="st0" d="M432.6,183.8h26.2v91.8h-26.2v-33.8h-22.3v33.8h-26.2v-91.8h26.2v32.5h22.3V183.8z"/>
	<path class="st0" d="M494.3,275.6v-19.1l29.9-32.4c0.5-0.6,1.3-1.4,2.3-2.5s1.7-1.8,2.1-2.2c0.4-0.4,0.9-1,1.6-1.8
		c0.7-0.7,1.1-1.4,1.3-1.8c0.2-0.5,0.4-1,0.7-1.6s0.3-1.2,0.3-1.8c0-1.5-0.5-2.7-1.6-3.7c-1-1-2.6-1.5-4.6-1.5
		c-4.9,0-8.5,3.1-10.9,9.3l-23.1-12.6c3.1-7.3,7.6-12.8,13.6-16.5s12.7-5.6,20-5.6c9,0,16.7,2.6,23.2,7.7c6.4,5.1,9.6,12.2,9.6,21.2
		c0,5.5-1.2,10.3-3.6,14.4c-2.4,4.1-6.2,9.1-11.3,14.8l-9.3,10.4h26.2v25.4H494.3z"/>
	<path class="st0" d="M586.5,183.8h22.3v91.8h-26.2v-64.4l-15.9,3.8l-6-21.9L586.5,183.8z"/>
	<path class="st0" d="M653.4,250l-11.8,43.9h-19.7l3.9-43.9H653.4z"/>
	<path class="st0" d="M686.9,275.6v-19.1l29.9-32.4c0.5-0.6,1.3-1.4,2.3-2.5s1.7-1.8,2.1-2.2c0.4-0.4,0.9-1,1.6-1.8
		c0.7-0.7,1.1-1.4,1.3-1.8c0.2-0.5,0.4-1,0.7-1.6s0.3-1.2,0.3-1.8c0-1.5-0.5-2.7-1.6-3.7c-1-1-2.6-1.5-4.6-1.5
		c-4.9,0-8.5,3.1-10.9,9.3l-23.1-12.6c3.1-7.3,7.6-12.8,13.6-16.5c6-3.8,12.7-5.6,20-5.6c9,0,16.7,2.6,23.2,7.7
		c6.4,5.1,9.6,12.2,9.6,21.2c0,5.5-1.2,10.3-3.6,14.4c-2.4,4.1-6.2,9.1-11.3,14.8l-9.3,10.4h26.2v25.4L686.9,275.6L686.9,275.6z"/>
	<path class="st0" d="M825.1,264.6c-6.7,8.7-16.3,13-28.6,13c-12.3,0-21.9-4.4-28.6-13c-6.7-8.7-10.1-20.4-10.1-35
		c0-14.6,3.4-26.3,10.1-35s16.3-13.1,28.6-13.1c12.3,0,21.9,4.4,28.6,13.1c6.7,8.7,10.1,20.4,10.1,35S831.8,255.9,825.1,264.6z
		 M784.1,229.7c0,15,4.2,22.6,12.5,22.6s12.5-7.5,12.5-22.6s-4.2-22.6-12.5-22.6S784.1,214.6,784.1,229.7z"/>
	<path class="st0" d="M839.2,275.6v-19.1l29.9-32.4c0.5-0.6,1.3-1.4,2.3-2.5s1.7-1.8,2.1-2.2c0.4-0.4,0.9-1,1.6-1.8
		c0.7-0.7,1.1-1.4,1.3-1.8c0.2-0.5,0.4-1,0.7-1.6s0.3-1.2,0.3-1.8c0-1.5-0.5-2.7-1.6-3.7c-1-1-2.6-1.5-4.6-1.5
		c-4.9,0-8.5,3.1-10.9,9.3l-23.1-12.6c3.1-7.3,7.6-12.8,13.6-16.5c6-3.8,12.7-5.6,20-5.6c9,0,16.7,2.6,23.2,7.7
		c6.4,5.1,9.6,12.2,9.6,21.2c0,5.5-1.2,10.3-3.6,14.4c-2.4,4.1-6.2,9.1-11.3,14.8l-9.3,10.4h26.2v25.4H839.2z"/>
	<path class="st0" d="M977.4,264.6c-6.7,8.7-16.3,13-28.6,13c-12.3,0-21.9-4.4-28.6-13c-6.7-8.7-10.1-20.4-10.1-35
		c0-14.6,3.4-26.3,10.1-35s16.3-13.1,28.6-13.1c12.3,0,21.9,4.4,28.6,13.1c6.7,8.7,10.1,20.4,10.1,35
		C987.5,244.3,984.2,255.9,977.4,264.6z M936.3,229.7c0,15,4.2,22.6,12.5,22.6s12.5-7.5,12.5-22.6s-4.2-22.6-12.5-22.6
		C940.5,207.1,936.3,214.6,936.3,229.7z"/>
</g>
<g>
	<path d="M71.3,441.3c-16.9,0-31.3-5.4-42.7-16.2c-11.6-10.9-17.5-24.8-17.5-41.3c0-15.9,5.6-29.6,16.6-40.7
		c11-11.1,24.9-16.8,41.2-16.8c11.1,0,21.2,2.8,30,8.3c8.7,5.5,15.2,12.4,19.6,20.7c4.2,8.1,6.4,16.9,6.4,25.9
		c0,12.3-2.4,21.6-7.4,28.5c-3.1,4.2-8.5,9.1-17.3,10.9v16.2l-7.4,2C86.5,440.5,79.3,441.3,71.3,441.3z M66.5,415
		c1.6,0.2,3.2,0.2,4.8,0.2c0.7,0,1.4,0,2.1,0c-0.7-0.5-1.3-1-1.9-1.6C69.8,414.3,68.2,414.7,66.5,415z M78.6,353.8
		c-3-0.9-6.2-1.4-9.6-1.4c-1.1,0-2.1,0-3.2,0.1c1.7,0.3,3.4,0.7,4.9,1.2H78.6z"/>
	<path class="st1" d="M69,336.4c9.3,0,17.5,2.2,24.7,6.8c7.2,4.5,12.5,10.1,16,16.9c3.5,6.7,5.2,13.8,5.2,21.2c0,20-7.3,30-22,30
		c-4.8,0-8.8-1-12.1-3.1s-5.6-4.8-6.9-8.2c-3.2,3.7-7.3,5.5-12.3,5.5c-6,0-10.9-2-14.5-6s-5.4-9.2-5.4-15.6c0-6.4,1.8-11.6,5.4-15.6
		c3.6-4,8.5-6,14.5-6c4.5,0,8.2,1.4,11.3,4.3v-2.8h19.9v31c0,5.2,1.9,7.9,5.8,7.9c2.9,0,5.2-1.7,7.1-5c1.8-3.4,2.8-8.8,2.8-16.3
		c0-10.9-3.8-20.1-11.3-27.6c-7.6-7.5-16.9-11.2-28-11.2c-11.6,0-21.4,4-29.3,11.9s-11.9,17.8-11.9,29.5c0,12,4.1,21.9,12.3,29.7
		c8.2,7.8,18.6,11.7,31.2,11.7c7.2,0,13.4-0.9,18.8-2.6v6.4c-5.4,1.5-11.7,2.2-18.8,2.2c-14.3,0-26.3-4.5-35.8-13.5
		c-9.5-9-14.3-20.3-14.3-34c0-13.2,4.6-24.4,13.7-33.6C44,341,55.4,336.4,69,336.4z M63,388.3c1,1.1,2.4,1.7,4.1,1.7
		c1.7,0,3-0.6,4-1.7c1-1.1,1.5-2.6,1.5-4.5s-0.5-3.3-1.5-4.5c-1-1.1-2.3-1.7-4-1.7s-3,0.6-4.1,1.7c-1,1.1-1.6,2.6-1.6,4.5
		C61.5,385.7,62,387.2,63,388.3z"/>
	<path d="M192.1,426.5l-5-9.8v9.8h-46.2V314.7h46.7c12.6,0,23.2,3.8,31.6,11.4c8.7,7.9,13.1,18.2,13.1,30.9c0,7.2-1.7,13.8-5.1,19.6
		c-1.8,3.1-3.9,5.9-6.4,8.4l22,41.6L192.1,426.5L192.1,426.5z"/>
	<path class="st1" d="M198.3,416.5l-14.6-28.9h-6.6v28.9h-26.2v-91.8h36.7c10.1,0,18.4,3,24.9,8.9s9.8,13.7,9.8,23.4
		c0,5.4-1.2,10.3-3.7,14.7s-6,7.9-10.4,10.6l18.1,34.2H198.3z M177.2,348.8v17h10c2.8,0.1,5-0.6,6.6-2.1c1.6-1.5,2.4-3.6,2.4-6.3
		c0-2.7-0.8-4.8-2.4-6.4s-3.8-2.3-6.6-2.3L177.2,348.8L177.2,348.8z"/>
	<polygon points="222.9,426.6 222.9,314.8 302.6,314.8 302.6,358.7 299.3,358.7 299.3,382.5 303.3,382.5 303.3,426.6 	"/>
	<path class="st1" d="M259.2,392.5h34.1v24.1h-60.3v-91.8h59.7v23.9h-33.5v10h30.2v23.6h-30.2L259.2,392.5L259.2,392.5z"/>
	<path d="M336.8,428.7c-11.8,0-22-2.6-30.2-7.8c-8.7-5.4-14.6-12.9-17.6-22.3l-2.5-7.7l19.1-11.1c-10.3-8.7-13-19.4-13-28.1
		c0-11.1,4.3-20.9,12.4-28.3c7.9-7.2,18.3-10.9,30.6-10.9c9.6,0,18.3,2.3,26,6.9c8,4.8,14,11.7,17.7,20.6l3.4,8.1l-17.5,10.2
		c1.3,0.8,2.5,1.6,3.8,2.5c4.5,3.2,8,7.3,10.3,12.3c2.1,4.7,3.2,10,3.2,16c0,12.3-4.6,22.5-13.4,29.5
		C361,425.4,350.1,428.7,336.8,428.7z"/>
	<path class="st1" d="M336.8,418.7c-10,0-18.3-2.1-24.9-6.2c-6.6-4.1-11.1-9.8-13.4-16.9l22.4-13c3.1,7.8,8.6,11.7,16.5,11.7
		c6,0,8.9-1.6,8.9-4.7c0-0.9-0.2-1.7-0.7-2.4c-0.4-0.7-1.3-1.3-2.5-1.8c-1.2-0.5-2.3-0.9-3.2-1.2c-0.9-0.3-2.5-0.8-4.8-1.4
		c-2.3-0.6-4-1.1-5.1-1.4c-18.3-5.5-27.4-15.4-27.4-29.5c0-8.4,3-15.4,9.1-20.9s14.1-8.3,23.9-8.3c7.8,0,14.8,1.8,20.9,5.5
		c6.2,3.7,10.7,9,13.6,15.9l-21.8,12.7c-2.5-6.5-6.7-9.7-12.6-9.7c-2.3,0-4,0.5-5.2,1.4s-1.8,2.1-1.8,3.5c0,1.9,1,3.4,3.1,4.5
		s6,2.4,11.9,4.1c4.4,1.3,8,2.6,10.8,3.7c2.8,1.2,5.7,2.8,8.8,5c3.1,2.1,5.4,4.9,6.9,8.3c1.5,3.4,2.3,7.3,2.3,11.9
		c0,9.4-3.2,16.6-9.6,21.7C356.6,416.2,347.8,418.7,336.8,418.7z"/>
	<polygon points="439.4,426.6 439.4,408.2 434.6,416.3 420.9,416.3 416.1,408.2 416.1,426.6 369.8,426.6 369.8,314.8 411.8,314.8 
		427.7,342.2 443.6,314.8 485.6,314.8 485.6,426.6 	"/>
	<path class="st1" d="M475.6,324.8v91.8h-26.2v-44.7l-20.5,34.4h-2.4l-20.5-34.4v44.7h-26.2v-91.8h26.2l21.6,37.4l21.6-37.4H475.6z"
		/>
	<polygon points="478.7,426.6 478.7,314.8 558.4,314.8 558.4,358.7 555.1,358.7 555.1,382.5 559.1,382.5 559.1,426.6 	"/>
	<path class="st1" d="M515,392.5h34.1v24.1h-60.3v-91.8h59.7v23.9H515v10h30.2v23.6H515L515,392.5L515,392.5z"/>
	<path d="M549.5,426.6V314.8h48c15.4,0,28.5,5.5,39,16.2c10.4,10.7,15.6,24,15.6,39.7s-5.2,29-15.6,39.7
		c-10.4,10.8-23.6,16.2-39,16.2H549.5z M597.6,381.2c2.5,0,4.2-0.7,5.8-2.4c1.1-1.2,2.6-3.4,2.6-8s-1.5-6.8-2.6-8
		c-1.5-1.7-3.3-2.4-5.8-2.4h-0.5v20.9L597.6,381.2L597.6,381.2z"/>
	<path class="st1" d="M597.6,324.8c12.7,0,23.3,4.4,31.8,13.2s12.8,19.7,12.8,32.7s-4.3,23.9-12.8,32.7
		c-8.5,8.8-19.1,13.2-31.8,13.2h-38v-91.8H597.6z M597.6,391.2c5.3,0,9.7-1.9,13.2-5.7c3.5-3.8,5.2-8.7,5.2-14.8s-1.7-11-5.2-14.8
		c-3.5-3.8-7.8-5.7-13.2-5.7h-10.5v40.9L597.6,391.2L597.6,391.2z"/>
	<polygon points="716.8,426.6 716.8,392.8 714.5,392.8 714.5,426.6 668.3,426.6 668.3,314.8 714.5,314.8 714.5,347.3 716.8,347.3 
		716.8,314.8 763,314.8 763,426.6 	"/>
	<path class="st1" d="M726.8,324.8H753v91.8h-26.2v-33.8h-22.3v33.8h-26.2v-91.8h26.2v32.5h22.3V324.8z"/>
	<path d="M829.3,426.1c-5.7,1.7-11.7,2.6-17.8,2.6c-16.3,0-30.3-5.6-41.6-16.7c-11.3-11.1-17.1-25-17.1-41.3
		c0-16.3,5.8-30.2,17.1-41.3c11.3-11.1,25.3-16.7,41.6-16.7s30.3,5.6,41.6,16.7c11.3,11.1,17.1,25,17.1,41.3c0,10-2.3,19.2-6.8,27.6
		l9.1,9.9l-33,28.9L829.3,426.1z M811.5,358.4c-3.8,0-6.7,1.1-9,3.4c-2,2-3.1,4.4-3.4,7.4l12.5-10.8
		C811.6,358.4,811.6,358.4,811.5,358.4z"/>
	<path class="st1" d="M860.2,370.7c0,10.8-3.1,20.3-9.3,28.7l7.3,8l-18,15.7l-8.1-8.8c-6.5,2.9-13.3,4.3-20.6,4.3
		c-13.6,0-25.2-4.6-34.6-13.8s-14.1-20.6-14.1-34.2c0-13.5,4.7-24.9,14.1-34.2c9.4-9.2,20.9-13.8,34.6-13.8
		c13.6,0,25.2,4.6,34.6,13.8C855.5,345.8,860.2,357.2,860.2,370.7z M811.5,393h0.9l-11.3-12.3l18.1-15.6l13.1,14.3
		c1-2.6,1.6-5.5,1.6-8.7c0-6.4-2.1-11.7-6.4-15.9s-9.6-6.4-16.1-6.4c-6.5,0-11.8,2.1-16.1,6.4s-6.4,9.6-6.4,15.9s2.1,11.7,6.4,15.9
		C799.7,390.9,805.1,393,811.5,393z"/>
</g>
<g>
	<polygon points="75.9,285.6 75.9,267.2 71.2,275.2 57.4,275.2 52.7,267.2 52.7,285.6 6.4,285.6 6.4,173.8 48.4,173.8 64.3,201.2 
		80.2,173.8 122.2,173.8 122.2,285.6 	"/>
	<path class="st0" d="M112.2,183.8v91.8H85.9v-44.7l-20.5,34.4h-2.4l-20.5-34.4v44.7H16.4v-91.8h26.2l21.6,37.4l21.6-37.4
		L112.2,183.8L112.2,183.8z"/>
	<polygon points="170.7,285.6 167.6,273.8 156.5,273.8 153.3,285.6 103.8,285.6 139.4,173.8 184.7,173.8 220.3,285.6 	"/>
	<path class="st0" d="M178.4,275.6l-3.1-11.8h-26.5l-3.1,11.8h-28.2l29.2-91.8h30.7l29.2,91.8H178.4z M154.4,242.8h15.2l-7.6-28.2
		L154.4,242.8z"/>
	<path d="M253.1,285.5l-5-9.8v9.8h-46.2V173.6h46.7c12.6,0,23.2,3.8,31.6,11.4c8.7,7.9,13.1,18.2,13.1,30.9c0,7.1-1.7,13.8-5,19.6
		c-1.8,3.1-3.9,5.9-6.4,8.4l22,41.6H253.1z"/>
	<path class="st0" d="M259.2,275.5l-14.6-28.9h-6.6v28.9h-26.2v-91.8h36.7c10.1,0,18.4,2.9,24.9,8.9c6.6,5.9,9.8,13.7,9.8,23.4
		c0,5.4-1.2,10.3-3.7,14.7c-2.5,4.4-6,7.9-10.4,10.6l18.1,34.2H259.2z M238.1,207.8v17.1h10c2.8,0.1,5-0.6,6.6-2.1
		c1.6-1.5,2.4-3.6,2.4-6.3c0-2.7-0.8-4.8-2.4-6.4s-3.8-2.3-6.6-2.3L238.1,207.8L238.1,207.8z"/>
	<path d="M337.3,287.7c-16.5,0-30.5-5.6-41.5-16.7c-11-11.1-16.5-25-16.5-41.3s5.6-30.2,16.5-41.3c11-11.1,25-16.7,41.5-16.7
		c10.2,0,19.7,2.5,28.4,7.3c8.7,4.9,15.6,11.6,20.5,19.9l5.1,8.7l-38.3,22l38.3,22l-5.1,8.7c-4.9,8.4-11.8,15.2-20.5,20.1
		C357,285.2,347.5,287.7,337.3,287.7z M337.3,217.4c-4.8,0-7.1,1.7-8.5,3.2c-2.2,2.3-3.2,5.2-3.2,9.1s1,6.8,3.2,9.1
		c1.4,1.5,3.7,3.2,8.5,3.2c2.2,0,4.1-0.4,5.6-1.3c1.3-0.8,2.2-1.6,2.8-2.9l4-8.3l-4-7.9c-0.4-0.7-1.1-1.8-2.9-2.8
		C341.3,217.8,339.4,217.4,337.3,217.4z"/>
	<path class="st0" d="M337.3,277.7c-13.8,0-25.3-4.6-34.4-13.8s-13.6-20.6-13.6-34.2c0-13.6,4.5-25.1,13.6-34.2
		c9.1-9.2,20.5-13.8,34.4-13.8c8.5,0,16.3,2,23.5,6s12.8,9.4,16.8,16.3l-22.8,13.1c-1.5-3-3.8-5.3-7-7.1c-3.1-1.8-6.6-2.6-10.5-2.6
		c-6.5,0-11.7,2.1-15.7,6.3s-6,9.5-6,16s2,11.8,6,16c4,4.2,9.3,6.3,15.7,6.3c3.9,0,7.5-0.9,10.6-2.6c3.1-1.8,5.4-4.1,6.9-7.2
		l22.8,13.1c-4,6.9-9.6,12.4-16.8,16.4C353.6,275.7,345.8,277.7,337.3,277.7z"/>
	<polygon points="422.6,285.6 422.6,251.7 420.3,251.7 420.3,285.6 374.1,285.6 374.1,173.8 420.3,173.8 420.3,206.3 422.6,206.3 
		422.6,173.8 468.9,173.8 468.9,285.6 	"/>
	<path class="st0" d="M432.6,183.8h26.2v91.8h-26.2v-33.8h-22.3v33.8h-26.2v-91.8h26.2v32.5h22.3V183.8z"/>
	<path d="M484.3,285.6v-33.1l25.6-27.7l-30.3-16.5l3.5-8.3c3.9-9.1,9.7-16.3,17.5-21.1c7.6-4.8,16.1-7.2,25.3-7.2
		c11.3,0,21.2,3.3,29.4,9.9c8.8,7,13.4,17,13.4,29c0,7.3-1.7,13.8-5,19.5c-1.8,3.1-4.2,6.4-7.2,10.1h14.1v45.4L484.3,285.6
		L484.3,285.6z"/>
	<path class="st0" d="M494.3,275.6v-19.1l29.9-32.4c0.5-0.6,1.3-1.4,2.3-2.5s1.7-1.8,2.1-2.2c0.4-0.4,0.9-1,1.6-1.8
		c0.7-0.7,1.1-1.4,1.3-1.8c0.2-0.5,0.4-1,0.7-1.6s0.3-1.2,0.3-1.8c0-1.5-0.5-2.7-1.6-3.7c-1-1-2.6-1.5-4.6-1.5
		c-4.9,0-8.5,3.1-10.9,9.3l-23.1-12.6c3.1-7.3,7.6-12.8,13.6-16.5s12.7-5.6,20-5.6c9,0,16.7,2.6,23.2,7.7c6.4,5.1,9.6,12.2,9.6,21.2
		c0,5.5-1.2,10.3-3.6,14.4c-2.4,4.1-6.2,9.1-11.3,14.8l-9.3,10.4h26.2v25.4H494.3z"/>
	<polygon points="572.6,285.6 572.6,223.9 559.6,227 548.6,186.8 584.8,173.8 618.8,173.8 618.8,285.6 	"/>
	<path class="st0" d="M586.5,183.8h22.3v91.8h-26.2v-64.4l-15.9,3.8l-6-21.9L586.5,183.8z"/>
	<polygon points="611,304 616.7,240 666.5,240 649.3,304 	"/>
	<path class="st0" d="M653.4,250l-11.8,43.9h-19.7l3.9-43.9H653.4z"/>
	<path d="M676.9,285.6v-33.1l25.6-27.7l-30.3-16.5l3.5-8.3c3.9-9.1,9.7-16.3,17.5-21.1c7.6-4.8,16.1-7.2,25.3-7.2
		c11.3,0,21.2,3.3,29.4,9.9c8.8,7,13.4,17,13.4,29c0,7.3-1.7,13.8-5,19.5c-1.8,3.1-4.2,6.4-7.2,10.1h14.1v45.4L676.9,285.6
		L676.9,285.6z"/>
	<path class="st0" d="M686.9,275.6v-19.1l29.9-32.4c0.5-0.6,1.3-1.4,2.3-2.5s1.7-1.8,2.1-2.2c0.4-0.4,0.9-1,1.6-1.8
		c0.7-0.7,1.1-1.4,1.3-1.8c0.2-0.5,0.4-1,0.7-1.6s0.3-1.2,0.3-1.8c0-1.5-0.5-2.7-1.6-3.7c-1-1-2.6-1.5-4.6-1.5
		c-4.9,0-8.5,3.1-10.9,9.3l-23.1-12.6c3.1-7.3,7.6-12.8,13.6-16.5c6-3.8,12.7-5.6,20-5.6c9,0,16.7,2.6,23.2,7.7
		c6.4,5.1,9.6,12.2,9.6,21.2c0,5.5-1.2,10.3-3.6,14.4c-2.4,4.1-6.2,9.1-11.3,14.8l-9.3,10.4h26.2v25.4L686.9,275.6L686.9,275.6z"/>
	<path d="M796.5,287.7c-15.5,0-27.8-5.7-36.5-16.9c-8.1-10.5-12.2-24.3-12.2-41.1c0-16.8,4.1-30.6,12.2-41.1
		c8.7-11.2,21-16.9,36.5-16.9s27.8,5.7,36.5,16.9c8.1,10.5,12.2,24.3,12.2,41.1s-4.1,30.6-12.2,41.1
		C824.3,282,812,287.7,796.5,287.7z M796.2,242.2c0.1,0,0.2,0,0.3,0s0.2,0,0.3,0c0.4-0.5,2.2-3.3,2.2-12.6s-1.8-12-2.2-12.6
		c-0.1,0-0.2,0-0.3,0s-0.2,0-0.3,0c-0.4,0.5-2.2,3.3-2.2,12.6S795.8,241.7,796.2,242.2z"/>
	<path class="st0" d="M825.1,264.6c-6.7,8.7-16.3,13-28.6,13c-12.3,0-21.9-4.4-28.6-13c-6.7-8.7-10.1-20.4-10.1-35
		c0-14.6,3.4-26.3,10.1-35s16.3-13.1,28.6-13.1c12.3,0,21.9,4.4,28.6,13.1c6.7,8.7,10.1,20.4,10.1,35S831.8,255.9,825.1,264.6z
		 M784.1,229.7c0,15,4.2,22.6,12.5,22.6s12.5-7.5,12.5-22.6s-4.2-22.6-12.5-22.6S784.1,214.6,784.1,229.7z"/>
	<path d="M829.2,285.6v-33.1l25.6-27.7l-30.3-16.5l3.5-8.3c3.9-9.1,9.7-16.3,17.5-21.1c7.6-4.8,16.1-7.2,25.3-7.2
		c11.3,0,21.2,3.3,29.4,9.9c8.8,7,13.4,17,13.4,29c0,7.3-1.7,13.8-5,19.5c-1.8,3.1-4.2,6.4-7.2,10.1h14.1v45.4L829.2,285.6
		L829.2,285.6z"/>
	<path class="st0" d="M839.2,275.6v-19.1l29.9-32.4c0.5-0.6,1.3-1.4,2.3-2.5s1.7-1.8,2.1-2.2c0.4-0.4,0.9-1,1.6-1.8
		c0.7-0.7,1.1-1.4,1.3-1.8c0.2-0.5,0.4-1,0.7-1.6s0.3-1.2,0.3-1.8c0-1.5-0.5-2.7-1.6-3.7c-1-1-2.6-1.5-4.6-1.5
		c-4.9,0-8.5,3.1-10.9,9.3l-23.1-12.6c3.1-7.3,7.6-12.8,13.6-16.5c6-3.8,12.7-5.6,20-5.6c9,0,16.7,2.6,23.2,7.7
		c6.4,5.1,9.6,12.2,9.6,21.2c0,5.5-1.2,10.3-3.6,14.4c-2.4,4.1-6.2,9.1-11.3,14.8l-9.3,10.4h26.2v25.4H839.2z"/>
	<path d="M948.8,287.7c-15.5,0-27.8-5.7-36.5-16.9c-8.1-10.5-12.2-24.3-12.2-41.1c0-16.8,4.1-30.6,12.2-41.1
		c8.7-11.2,21-16.9,36.5-16.9s27.8,5.7,36.5,16.9c8.1,10.5,12.2,24.3,12.2,41.1s-4.1,30.6-12.2,41.1
		C976.6,282,964.3,287.7,948.8,287.7z M948.5,242.2c0.1,0,0.2,0,0.3,0s0.2,0,0.3,0c0.4-0.5,2.2-3.3,2.2-12.6s-1.8-12-2.2-12.6
		c-0.1,0-0.2,0-0.3,0s-0.2,0-0.3,0c-0.4,0.5-2.2,3.3-2.2,12.6C946.3,238.9,948.1,241.7,948.5,242.2z"/>
	<path class="st0" d="M977.4,264.6c-6.7,8.7-16.3,13-28.6,13c-12.3,0-21.9-4.4-28.6-13c-6.7-8.7-10.1-20.4-10.1-35
		c0-14.6,3.4-26.3,10.1-35s16.3-13.1,28.6-13.1c12.3,0,21.9,4.4,28.6,13.1c6.7,8.7,10.1,20.4,10.1,35
		C987.5,244.3,984.2,255.9,977.4,264.6z M936.3,229.7c0,15,4.2,22.6,12.5,22.6s12.5-7.5,12.5-22.6s-4.2-22.6-12.5-22.6
		C940.5,207.1,936.3,214.6,936.3,229.7z"/>
</g>
<g>
	<path class="st0" d="M112.2,183.8v91.8H85.9v-44.7l-20.5,34.4h-2.4l-20.5-34.4v44.7H16.4v-91.8h26.2l21.6,37.4l21.6-37.4
		L112.2,183.8L112.2,183.8z"/>
	<path class="st0" d="M178.4,275.6l-3.1-11.8h-26.5l-3.1,11.8h-28.2l29.2-91.8h30.7l29.2,91.8H178.4z M154.4,242.8h15.2l-7.6-28.2
		L154.4,242.8z"/>
	<path class="st0" d="M259.2,275.5l-14.6-28.9h-6.6v28.9h-26.2v-91.8h36.7c10.1,0,18.4,2.9,24.9,8.9c6.6,5.9,9.8,13.7,9.8,23.4
		c0,5.4-1.2,10.3-3.7,14.7c-2.5,4.4-6,7.9-10.4,10.6l18.1,34.2H259.2z M238.1,207.8v17.1h10c2.8,0.1,5-0.6,6.6-2.1
		c1.6-1.5,2.4-3.6,2.4-6.3c0-2.7-0.8-4.8-2.4-6.4s-3.8-2.3-6.6-2.3L238.1,207.8L238.1,207.8z"/>
	<path class="st0" d="M337.3,277.7c-13.8,0-25.3-4.6-34.4-13.8s-13.6-20.6-13.6-34.2c0-13.6,4.5-25.1,13.6-34.2
		c9.1-9.2,20.5-13.8,34.4-13.8c8.5,0,16.3,2,23.5,6s12.8,9.4,16.8,16.3l-22.8,13.1c-1.5-3-3.8-5.3-7-7.1c-3.1-1.8-6.6-2.6-10.5-2.6
		c-6.5,0-11.7,2.1-15.7,6.3s-6,9.5-6,16s2,11.8,6,16c4,4.2,9.3,6.3,15.7,6.3c3.9,0,7.5-0.9,10.6-2.6c3.1-1.8,5.4-4.1,6.9-7.2
		l22.8,13.1c-4,6.9-9.6,12.4-16.8,16.4C353.6,275.7,345.8,277.7,337.3,277.7z"/>
	<path class="st0" d="M432.6,183.8h26.2v91.8h-26.2v-33.8h-22.3v33.8h-26.2v-91.8h26.2v32.5h22.3V183.8z"/>
	<path class="st0" d="M494.3,275.6v-19.1l29.9-32.4c0.5-0.6,1.3-1.4,2.3-2.5s1.7-1.8,2.1-2.2c0.4-0.4,0.9-1,1.6-1.8
		c0.7-0.7,1.1-1.4,1.3-1.8c0.2-0.5,0.4-1,0.7-1.6s0.3-1.2,0.3-1.8c0-1.5-0.5-2.7-1.6-3.7c-1-1-2.6-1.5-4.6-1.5
		c-4.9,0-8.5,3.1-10.9,9.3l-23.1-12.6c3.1-7.3,7.6-12.8,13.6-16.5s12.7-5.6,20-5.6c9,0,16.7,2.6,23.2,7.7c6.4,5.1,9.6,12.2,9.6,21.2
		c0,5.5-1.2,10.3-3.6,14.4c-2.4,4.1-6.2,9.1-11.3,14.8l-9.3,10.4h26.2v25.4H494.3z"/>
	<path class="st0" d="M586.5,183.8h22.3v91.8h-26.2v-64.4l-15.9,3.8l-6-21.9L586.5,183.8z"/>
	<path class="st0" d="M653.4,250l-11.8,43.9h-19.7l3.9-43.9H653.4z"/>
	<path class="st0" d="M686.9,275.6v-19.1l29.9-32.4c0.5-0.6,1.3-1.4,2.3-2.5s1.7-1.8,2.1-2.2c0.4-0.4,0.9-1,1.6-1.8
		c0.7-0.7,1.1-1.4,1.3-1.8c0.2-0.5,0.4-1,0.7-1.6s0.3-1.2,0.3-1.8c0-1.5-0.5-2.7-1.6-3.7c-1-1-2.6-1.5-4.6-1.5
		c-4.9,0-8.5,3.1-10.9,9.3l-23.1-12.6c3.1-7.3,7.6-12.8,13.6-16.5c6-3.8,12.7-5.6,20-5.6c9,0,16.7,2.6,23.2,7.7
		c6.4,5.1,9.6,12.2,9.6,21.2c0,5.5-1.2,10.3-3.6,14.4c-2.4,4.1-6.2,9.1-11.3,14.8l-9.3,10.4h26.2v25.4L686.9,275.6L686.9,275.6z"/>
	<path class="st0" d="M825.1,264.6c-6.7,8.7-16.3,13-28.6,13c-12.3,0-21.9-4.4-28.6-13c-6.7-8.7-10.1-20.4-10.1-35
		c0-14.6,3.4-26.3,10.1-35s16.3-13.1,28.6-13.1c12.3,0,21.9,4.4,28.6,13.1c6.7,8.7,10.1,20.4,10.1,35S831.8,255.9,825.1,264.6z
		 M784.1,229.7c0,15,4.2,22.6,12.5,22.6s12.5-7.5,12.5-22.6s-4.2-22.6-12.5-22.6S784.1,214.6,784.1,229.7z"/>
	<path class="st0" d="M839.2,275.6v-19.1l29.9-32.4c0.5-0.6,1.3-1.4,2.3-2.5s1.7-1.8,2.1-2.2c0.4-0.4,0.9-1,1.6-1.8
		c0.7-0.7,1.1-1.4,1.3-1.8c0.2-0.5,0.4-1,0.7-1.6s0.3-1.2,0.3-1.8c0-1.5-0.5-2.7-1.6-3.7c-1-1-2.6-1.5-4.6-1.5
		c-4.9,0-8.5,3.1-10.9,9.3l-23.1-12.6c3.1-7.3,7.6-12.8,13.6-16.5c6-3.8,12.7-5.6,20-5.6c9,0,16.7,2.6,23.2,7.7
		c6.4,5.1,9.6,12.2,9.6,21.2c0,5.5-1.2,10.3-3.6,14.4c-2.4,4.1-6.2,9.1-11.3,14.8l-9.3,10.4h26.2v25.4H839.2z"/>
	<path class="st0" d="M977.4,264.6c-6.7,8.7-16.3,13-28.6,13c-12.3,0-21.9-4.4-28.6-13c-6.7-8.7-10.1-20.4-10.1-35
		c0-14.6,3.4-26.3,10.1-35s16.3-13.1,28.6-13.1c12.3,0,21.9,4.4,28.6,13.1c6.7,8.7,10.1,20.4,10.1,35
		C987.5,244.3,984.2,255.9,977.4,264.6z M936.3,229.7c0,15,4.2,22.6,12.5,22.6s12.5-7.5,12.5-22.6s-4.2-22.6-12.5-22.6
		C940.5,207.1,936.3,214.6,936.3,229.7z"/>
</g>
<g>
	<path class="st1" d="M69,336.4c9.3,0,17.5,2.2,24.7,6.8c7.2,4.5,12.5,10.1,16,16.9c3.5,6.7,5.2,13.8,5.2,21.2c0,20-7.3,30-22,30
		c-4.8,0-8.8-1-12.1-3.1s-5.6-4.8-6.9-8.2c-3.2,3.7-7.3,5.5-12.3,5.5c-6,0-10.9-2-14.5-6s-5.4-9.2-5.4-15.6c0-6.4,1.8-11.6,5.4-15.6
		c3.6-4,8.5-6,14.5-6c4.5,0,8.2,1.4,11.3,4.3v-2.8h19.9v31c0,5.2,1.9,7.9,5.8,7.9c2.9,0,5.2-1.7,7.1-5c1.8-3.4,2.8-8.8,2.8-16.3
		c0-10.9-3.8-20.1-11.3-27.6c-7.6-7.5-16.9-11.2-28-11.2c-11.6,0-21.4,4-29.3,11.9s-11.9,17.8-11.9,29.5c0,12,4.1,21.9,12.3,29.7
		c8.2,7.8,18.6,11.7,31.2,11.7c7.2,0,13.4-0.9,18.8-2.6v6.4c-5.4,1.5-11.7,2.2-18.8,2.2c-14.3,0-26.3-4.5-35.8-13.5
		c-9.5-9-14.3-20.3-14.3-34c0-13.2,4.6-24.4,13.7-33.6C44,341,55.4,336.4,69,336.4z M63,388.3c1,1.1,2.4,1.7,4.1,1.7
		c1.7,0,3-0.6,4-1.7c1-1.1,1.5-2.6,1.5-4.5s-0.5-3.3-1.5-4.5c-1-1.1-2.3-1.7-4-1.7s-3,0.6-4.1,1.7c-1,1.1-1.6,2.6-1.6,4.5
		C61.5,385.7,62,387.2,63,388.3z"/>
	<path class="st1" d="M198.3,416.5l-14.6-28.9h-6.6v28.9h-26.2v-91.8h36.7c10.1,0,18.4,3,24.9,8.9s9.8,13.7,9.8,23.4
		c0,5.4-1.2,10.3-3.7,14.7s-6,7.9-10.4,10.6l18.1,34.2H198.3z M177.2,348.8v17h10c2.8,0.1,5-0.6,6.6-2.1c1.6-1.5,2.4-3.6,2.4-6.3
		c0-2.7-0.8-4.8-2.4-6.4s-3.8-2.3-6.6-2.3L177.2,348.8L177.2,348.8z"/>
	<path class="st1" d="M259.2,392.5h34.1v24.1h-60.3v-91.8h59.7v23.9h-33.5v10h30.2v23.6h-30.2L259.2,392.5L259.2,392.5z"/>
	<path class="st1" d="M336.8,418.7c-10,0-18.3-2.1-24.9-6.2c-6.6-4.1-11.1-9.8-13.4-16.9l22.4-13c3.1,7.8,8.6,11.7,16.5,11.7
		c6,0,8.9-1.6,8.9-4.7c0-0.9-0.2-1.7-0.7-2.4c-0.4-0.7-1.3-1.3-2.5-1.8c-1.2-0.5-2.3-0.9-3.2-1.2c-0.9-0.3-2.5-0.8-4.8-1.4
		c-2.3-0.6-4-1.1-5.1-1.4c-18.3-5.5-27.4-15.4-27.4-29.5c0-8.4,3-15.4,9.1-20.9s14.1-8.3,23.9-8.3c7.8,0,14.8,1.8,20.9,5.5
		c6.2,3.7,10.7,9,13.6,15.9l-21.8,12.7c-2.5-6.5-6.7-9.7-12.6-9.7c-2.3,0-4,0.5-5.2,1.4s-1.8,2.1-1.8,3.5c0,1.9,1,3.4,3.1,4.5
		s6,2.4,11.9,4.1c4.4,1.3,8,2.6,10.8,3.7c2.8,1.2,5.7,2.8,8.8,5c3.1,2.1,5.4,4.9,6.9,8.3c1.5,3.4,2.3,7.3,2.3,11.9
		c0,9.4-3.2,16.6-9.6,21.7C356.6,416.2,347.8,418.7,336.8,418.7z"/>
	<path class="st1" d="M475.6,324.8v91.8h-26.2v-44.7l-20.5,34.4h-2.4l-20.5-34.4v44.7h-26.2v-91.8h26.2l21.6,37.4l21.6-37.4H475.6z"
		/>
	<path class="st1" d="M515,392.5h34.1v24.1h-60.3v-91.8h59.7v23.9H515v10h30.2v23.6H515L515,392.5L515,392.5z"/>
	<path class="st1" d="M597.6,324.8c12.7,0,23.3,4.4,31.8,13.2s12.8,19.7,12.8,32.7s-4.3,23.9-12.8,32.7
		c-8.5,8.8-19.1,13.2-31.8,13.2h-38v-91.8H597.6z M597.6,391.2c5.3,0,9.7-1.9,13.2-5.7c3.5-3.8,5.2-8.7,5.2-14.8s-1.7-11-5.2-14.8
		c-3.5-3.8-7.8-5.7-13.2-5.7h-10.5v40.9L597.6,391.2L597.6,391.2z"/>
	<path class="st1" d="M726.8,324.8H753v91.8h-26.2v-33.8h-22.3v33.8h-26.2v-91.8h26.2v32.5h22.3V324.8z"/>
	<path class="st1" d="M860.2,370.7c0,10.8-3.1,20.3-9.3,28.7l7.3,8l-18,15.7l-8.1-8.8c-6.5,2.9-13.3,4.3-20.6,4.3
		c-13.6,0-25.2-4.6-34.6-13.8s-14.1-20.6-14.1-34.2c0-13.5,4.7-24.9,14.1-34.2c9.4-9.2,20.9-13.8,34.6-13.8
		c13.6,0,25.2,4.6,34.6,13.8C855.5,345.8,860.2,357.2,860.2,370.7z M811.5,393h0.9l-11.3-12.3l18.1-15.6l13.1,14.3
		c1-2.6,1.6-5.5,1.6-8.7c0-6.4-2.1-11.7-6.4-15.9s-9.6-6.4-16.1-6.4c-6.5,0-11.8,2.1-16.1,6.4s-6.4,9.6-6.4,15.9s2.1,11.7,6.4,15.9
		C799.7,390.9,805.1,393,811.5,393z"/>
</g>
</svg>
