<?xml version="1.0" encoding="utf-8"?>
<!-- Generator: Adobe Illustrator 23.0.3, SVG Export Plug-In . SVG Version: 6.00 Build 0)  -->
<svg version="1.1" id="Layer_1" xmlns="http://www.w3.org/2000/svg" xmlns:xlink="http://www.w3.org/1999/xlink" x="0px" y="0px"
	 viewBox="0 0 1080 2048" style="enable-background:new 0 0 1080 2048;" xml:space="preserve">
<style type="text/css">
	.st0{fill:#FFFFFF;}
</style>
<g>
	<path class="st0" d="M539.7,2043c-56.6,0-102.7-46.1-102.7-102.7v-645.3c0-62.2-50.6-112.7-112.7-112.7H6.1V433.1
		c0-56.6,46.1-102.7,102.7-102.7s102.7,46.1,102.7,102.7V864c0,62.2,50.6,112.7,112.7,112.7c62.2,0,112.7-50.6,112.7-112.7V107.7
		C437,51.1,483.1,5,539.7,5c56.6,0,102.7,46.1,102.7,102.7V864c0,62.2,50.6,112.7,112.7,112.7S867.9,926.2,867.9,864V433.1
		c0-56.6,46.1-102.7,102.7-102.7c56.6,0,102.7,46.1,102.7,102.7v543.7h0.5v205.5H755.2c-62.2,0-112.7,50.6-112.7,112.7v645.3
		C642.5,1996.9,596.4,2043,539.7,2043z"/>
	<path class="st0" d="M539.7,10c53.9,0,97.7,43.8,97.7,97.7V864c0,64.9,52.8,117.7,117.7,117.7S872.9,928.9,872.9,864V433.1
		c0-53.9,43.8-97.7,97.7-97.7c53.9,0,97.7,43.8,97.7,97.7v538.7v10h0.5v195.5h-206H755.2c-64.9,0-117.7,52.8-117.7,117.7v645.3
		c0,53.9-43.8,97.7-97.7,97.7c-53.9,0-97.7-43.8-97.7-97.7v-645.3c0-64.9-52.8-117.7-117.7-117.7H216.5H11.1V433.1
		c0-53.9,43.8-97.7,97.7-97.7c53.9,0,97.7,43.8,97.7,97.7V864c0,64.9,52.8,117.7,117.7,117.7c64.9,0,117.7-52.8,117.7-117.7V107.7
		C442,53.8,485.8,10,539.7,10 M539.7,0L539.7,0C480.2,0,432,48.2,432,107.7V864c0,59.5-48.2,107.7-107.7,107.7h0
		c-59.5,0-107.7-48.2-107.7-107.7V433.1c0-59.5-48.2-107.7-107.7-107.7h0c-59.5,0-107.7,48.2-107.7,107.7v754.1h0.5h214.9h107.7
		c59.5,0,107.7,48.2,107.7,107.7v645.3c0,59.5,48.2,107.7,107.7,107.7h0c59.5,0,107.7-48.2,107.7-107.7v-645.3
		c0-59.5,48.2-107.7,107.7-107.7h107.7h215.5h0.5V971.7h-0.5V433.1c0-59.5-48.2-107.7-107.7-107.7c-59.5,0-107.7,48.2-107.7,107.7
		V864c0,59.5-48.2,107.7-107.7,107.7c-59.5,0-107.7-48.2-107.7-107.7V107.7C647.5,48.2,599.2,0,539.7,0L539.7,0z"/>
</g>
</svg>
