<?xml version="1.0" encoding="utf-8"?>
<!-- Generator: Adobe Illustrator 23.0.3, SVG Export Plug-In . SVG Version: 6.00 Build 0)  -->
<svg version="1.1" id="Layer_1" xmlns="http://www.w3.org/2000/svg" xmlns:xlink="http://www.w3.org/1999/xlink" x="0px" y="0px"
	 viewBox="0 0 1800 450" style="enable-background:new 0 0 1800 450;" xml:space="preserve">
<style type="text/css">
	.st0{fill:#FFFFFF;}
</style>
<g>
	<g>
		<path class="st0" d="M224.8,266.4c0-10.4,8.3-18.7,18.7-18.7h59.1c21.6,0,38.4,6.1,49.6,17.3c9.5,9.5,14.6,22.8,14.6,38.9v0.5
			c0,26.7-13.4,43.3-34,51.8l26,31.6c3.6,4.6,6.1,8.5,6.1,14.3c0,10.4-8.7,17.3-17.7,17.3c-8.5,0-14.1-4.1-18.5-9.7l-36.5-46.2
			h-29.9v37.2c0,10.4-8.3,18.7-18.7,18.7c-10.4,0-18.7-8.3-18.7-18.7V266.4z M300.2,330.3c18.2,0,28.7-9.7,28.7-24.1v-0.5
			c0-16-11.2-24.3-29.4-24.3h-37.2v48.8H300.2z"/>
		<path class="st0" d="M402.2,264.9c0-10.4,8.3-18.7,18.7-18.7c10.4,0,18.7,8.3,18.7,18.7v135.6c0,10.4-8.3,18.7-18.7,18.7
			c-10.4,0-18.7-8.3-18.7-18.7V264.9z"/>
		<path class="st0" d="M521.8,282.2h-36c-9.5,0-17.3-7.8-17.3-17.3s7.8-17.3,17.3-17.3h109.4c9.5,0,17.3,7.8,17.3,17.3
			s-7.8,17.3-17.3,17.3h-36v118.3c0,10.4-8.3,18.7-18.7,18.7c-10.4,0-18.7-8.3-18.7-18.7V282.2z"/>
		<path class="st0" d="M624.8,333.2v-0.5c0-48.4,38.2-88,90.6-88c52.5,0,90.2,39.1,90.2,87.5v0.5c0,48.4-38.2,88-90.6,88
			S624.8,381.5,624.8,333.2z M766.5,333.2v-0.5c0-29.2-21.4-53.5-51.5-53.5c-30.1,0-51,23.8-51,53v0.5c0,29.2,21.4,53.5,51.5,53.5
			C745.6,386.2,766.5,362.4,766.5,333.2z"/>
		<path class="st0" d="M838.9,265.4c0-10.4,8.3-18.7,18.7-18.7h3.9c9,0,14.3,4.4,19.4,10.9l72.2,94.8v-87.7
			c0-10.2,8.3-18.5,18.5-18.5c10.2,0,18.5,8.3,18.5,18.5V400c0,10.5-8.3,18.7-18.7,18.7h-1.2c-9,0-14.3-4.4-19.4-10.9l-74.8-98.2
			v91.1c0,10.2-8.3,18.5-18.5,18.5c-10.2,0-18.5-8.3-18.5-18.5V265.4z"/>
		<path class="st0" d="M1103.8,264.9c0-10.4,8.3-18.7,18.7-18.7c10.4,0,18.7,8.3,18.7,18.7V315h69v-50.1c0-10.4,8.3-18.7,18.7-18.7
			s18.7,8.3,18.7,18.7v135.6c0,10.4-8.3,18.7-18.7,18.7s-18.7-8.3-18.7-18.7v-51h-69v51c0,10.4-8.3,18.7-18.7,18.7
			c-10.5,0-18.7-8.3-18.7-18.7V264.9z"/>
		<path class="st0" d="M1279,393.7l59.3-133.9c4.1-9.2,11.7-14.8,21.9-14.8h2.2c10.2,0,17.5,5.6,21.6,14.8l59.3,133.9
			c1.2,2.7,1.9,5.1,1.9,7.5c0,10-7.8,18-17.7,18c-8.7,0-14.6-5.1-18-12.9l-11.4-26.7h-74.8l-11.9,27.9c-3.2,7.3-9.5,11.7-17.3,11.7
			c-9.7,0-17.3-7.8-17.3-17.5C1276.8,399,1277.7,396.4,1279,393.7z M1384.2,346.6l-23.6-56.1l-23.6,56.1H1384.2z"/>
		<path class="st0" d="M1461,333.2v-0.5c0-48.4,36.5-88,88.7-88c25.5,0,42.8,6.8,56.9,17.3c3.9,2.9,7.3,8.3,7.3,14.8
			c0,10.2-8.3,18.2-18.5,18.2c-5.1,0-8.5-1.9-11.2-3.6c-10.4-7.8-21.4-12.2-34.8-12.2c-28.7,0-49.3,23.8-49.3,53v0.5
			c0,29.2,20.2,53.5,49.3,53.5c15.8,0,26.2-4.9,36.9-13.4c2.9-2.4,6.8-4.1,11.2-4.1c9.5,0,17.5,7.8,17.5,17.3
			c0,5.8-2.9,10.5-6.3,13.4c-15.3,13.4-33.3,21.4-60.5,21.4C1498.2,420.7,1461,382,1461,333.2z"/>
		<path class="st0" d="M1647.8,264.9c0-10.4,8.3-18.7,18.7-18.7c10.4,0,18.7,8.3,18.7,18.7V322l69-68.5c4.6-4.6,9.2-7.3,15.8-7.3
			c10.4,0,17.3,8,17.3,17.3c0,5.8-2.7,10.2-6.8,14.1l-47.9,44.7l52.2,65.6c2.9,3.6,5.1,7.5,5.1,13.1c0,10.5-8,18.2-19,18.2
			c-7.3,0-11.7-3.6-15.8-9l-48.6-63.7l-21.4,19.9v34c0,10.4-8.3,18.7-18.7,18.7c-10.5,0-18.7-8.3-18.7-18.7V264.9z"/>
	</g>
	<g>
		<path class="st0" d="M107.1,417.9c-10.2,0-18.5-8.3-18.5-18.5V282.9c0-11.2-9.1-20.3-20.3-20.3H10.9V127.5
			c0-10.2,8.3-18.5,18.5-18.5s18.5,8.3,18.5,18.5v77.7c0,11.2,9.1,20.3,20.3,20.3c11.2,0,20.3-9.1,20.3-20.3V68.8
			c0-10.2,8.3-18.5,18.5-18.5s18.5,8.3,18.5,18.5v136.4c0,11.2,9.1,20.3,20.3,20.3s20.3-9.1,20.3-20.3v-77.7
			c0-10.2,8.3-18.5,18.5-18.5c10.2,0,18.5,8.3,18.5,18.5v98.1h0.1v37.1H146c-11.2,0-20.3,9.1-20.3,20.3v116.4
			C125.7,409.6,117.4,417.9,107.1,417.9z"/>
		<path class="st0" d="M107.1,51.1c9.7,0,17.6,7.9,17.6,17.6v136.4c0,11.7,9.5,21.2,21.2,21.2s21.3-9.5,21.3-21.2v-77.7
			c0-9.7,7.9-17.6,17.6-17.6s17.6,7.9,17.6,17.6v97.2v1.8h0.1v35.3h-37.2H146c-11.7,0-21.2,9.5-21.2,21.2v116.4
			c0,9.7-7.9,17.6-17.6,17.6s-17.6-7.9-17.6-17.6V282.9c0-11.7-9.5-21.2-21.2-21.2H48.8H11.8V127.5c0-9.7,7.9-17.6,17.6-17.6
			S47,117.7,47,127.5v77.7c0,11.7,9.5,21.2,21.2,21.2s21.2-9.5,21.2-21.2V68.8C89.5,59,97.4,51.1,107.1,51.1 M107.1,49.3L107.1,49.3
			c-10.7,0-19.4,8.7-19.4,19.4v136.4c0,10.7-8.7,19.4-19.4,19.4l0,0c-10.7,0-19.4-8.7-19.4-19.4v-77.7c0-10.7-8.7-19.4-19.4-19.4
			l0,0c-10.7,0-19.4,8.7-19.4,19.4v136h0.1h38.8h19.4c10.7,0,19.4,8.7,19.4,19.4v116.4c0,10.7,8.7,19.4,19.4,19.4l0,0
			c10.7,0,19.4-8.7,19.4-19.4V282.9c0-10.7,8.7-19.4,19.4-19.4h19.4h38.9h0.1v-38.9h-0.1v-97.2c0-10.7-8.7-19.4-19.4-19.4
			c-10.7,0-19.4,8.7-19.4,19.4v77.7c0,10.7-8.7,19.4-19.4,19.4c-10.7,0-19.4-8.7-19.4-19.4V68.8C126.6,58,117.9,49.3,107.1,49.3
			L107.1,49.3z"/>
	</g>
</g>
<g>
</g>
<g>
</g>
<g>
</g>
<g>
</g>
<g>
</g>
<g>
</g>
<g>
</g>
<g>
</g>
<g>
</g>
<g>
</g>
<g>
</g>
<g>
</g>
<g>
</g>
<g>
</g>
<g>
</g>
</svg>
