<svg width="206" height="40" fill="none" xmlns="http://www.w3.org/2000/svg"><path fill-rule="evenodd" clip-rule="evenodd" d="M.493 3.617C0 4.757 0 6.211 0 9.12v21.759c0 2.908 0 4.362.493 5.503a6 6 0 0 0 3.124 3.123C4.757 40 6.211 40 9.12 40h21.759c2.908 0 4.362 0 5.503-.494a6 6 0 0 0 3.123-3.123c.494-1.14.494-2.595.494-5.503V9.119c0-2.908 0-4.362-.494-5.502A6 6 0 0 0 36.382.493C35.242 0 33.787 0 30.879 0H9.119C6.212 0 4.758 0 3.618.493A6 6 0 0 0 .493 3.617zm25.892 13.615a3.615 3.615 0 1 1 0-7.23 3.615 3.615 0 0 1 0 7.23zm-9.16-3.616a3.613 3.613 0 1 1-7.226 0 3.613 3.613 0 0 1 7.227 0zm9.16 9.165a3.615 3.615 0 1 0 0 7.23 3.615 3.615 0 0 0 0-7.23zm-12.772.004a3.613 3.613 0 1 1-.001 7.226 3.613 3.613 0 0 1 0-7.226z" fill="#211F6D"/><path d="M63.047 31.999c4.796 0 7.687-2.406 7.687-6.375 0-3-2.063-5.172-5.125-5.515v-.125c2.25-.375 4.016-2.516 4.016-4.906 0-3.406-2.625-5.625-6.625-5.625h-9v22.546h9.047zM57.5 12.312h4.656c2.531 0 3.969 1.156 3.969 3.25 0 2.234-1.672 3.484-4.703 3.484H57.5v-6.734zm0 16.828v-7.422h4.625c3.312 0 5.03 1.25 5.03 3.687 0 2.438-1.671 3.735-4.827 3.735H57.5zm16.288 2.859h3.375V9.453h-3.375v22.546zm14.226.312c4.703 0 7.797-3.234 7.797-8.53 0-5.282-3.11-8.516-7.797-8.516-4.688 0-7.797 3.234-7.797 8.515 0 5.297 3.094 8.531 7.797 8.531zm0-2.78c-2.64 0-4.36-2.094-4.36-5.75 0-3.641 1.72-5.735 4.36-5.735 2.64 0 4.36 2.094 4.36 5.734 0 3.657-1.704 5.75-4.36 5.75zm24.835-8.313c-.297-3.234-2.875-5.953-7.109-5.953-4.672 0-7.735 3.297-7.735 8.515 0 5.313 3.063 8.531 7.766 8.531 3.953 0 6.75-2.375 7.109-5.874h-3.25c-.391 1.906-1.75 3.046-3.828 3.046-2.625 0-4.359-2.093-4.359-5.703 0-3.53 1.718-5.703 4.328-5.703 2.203 0 3.515 1.391 3.859 3.141h3.219zm6.273 1.391h-.032V9.453h-3.375v22.546h3.375v-5.906l1.407-1.39 5.577 7.296h3.922l-7.078-9.36 6.813-7.077h-3.969l-6.64 7.047zm12.116-2.391c0 2.39 1.547 3.89 4.672 4.61l2.672.624c1.796.406 2.406 1.031 2.406 2.094 0 1.344-1.25 2.187-3.281 2.187-2.063 0-3.235-.843-3.547-2.562h-3.344c.313 3.125 2.781 5.14 6.891 5.14 3.874 0 6.671-2.062 6.671-5.062 0-2.375-1.281-3.687-4.64-4.468l-2.672-.61c-1.781-.406-2.531-1.11-2.531-2.14 0-1.313 1.219-2.203 3.047-2.203 1.89 0 3.062 1 3.249 2.593h3.172c-.109-3.031-2.593-5.156-6.421-5.156-3.782 0-6.344 2.016-6.344 4.953zm17.069-8.547v3.891h-2.39v2.672h2.39v9.437c0 3.172 1.297 4.437 4.625 4.437.75 0 1.5-.062 1.875-.156V29.28c-.218.047-.765.078-1.109.078-1.375 0-2-.64-2-2.062v-9.062h3.125v-2.672h-3.125v-3.89h-3.391zm15.117 17.937c-1.813 0-3-.937-3-2.375 0-1.406 1.141-2.296 3.156-2.437l4.047-.25v1.297c0 2.14-1.844 3.765-4.203 3.765zm-.938 2.672c2.157 0 4.235-1.156 5.188-2.984h.078v2.703h3.234V20.67c0-3.297-2.547-5.406-6.531-5.406-4.062 0-6.593 2.188-6.781 5.156h3.187c.297-1.468 1.516-2.406 3.469-2.406 2.062 0 3.297 1.094 3.297 2.922v1.265l-4.5.266c-3.906.219-6.109 1.984-6.109 4.86 0 2.952 2.25 4.952 5.468 4.952zm26.21-11.062c-.297-3.234-2.875-5.953-7.109-5.953-4.672 0-7.734 3.297-7.734 8.515 0 5.313 3.062 8.531 7.765 8.531 3.953 0 6.75-2.375 7.109-5.874h-3.25c-.39 1.906-1.749 3.046-3.828 3.046-2.624 0-4.359-2.093-4.359-5.703 0-3.53 1.719-5.703 4.328-5.703 2.203 0 3.516 1.391 3.859 3.141h3.219zm6.273 1.391h-.031V9.453h-3.375v22.546h3.375v-5.906l1.406-1.39 5.578 7.296h3.922l-7.078-9.36 6.812-7.077h-3.969l-6.64 7.047z" fill="#211F6D"/></svg>