<?xml version="1.0" encoding="utf-8"?>
<!-- Generator: Adobe Illustrator 23.0.0, SVG Export Plug-In . SVG Version: 6.00 Build 0)  -->
<svg version="1.1" id="Layer_1" xmlns="http://www.w3.org/2000/svg" xmlns:xlink="http://www.w3.org/1999/xlink" x="0px" y="0px"
	 viewBox="0 0 295.1 120.8" style="enable-background:new 0 0 295.1 120.8;" xml:space="preserve">
<style type="text/css">
	.st0{fill:url(#SVGID_1_);}
	.st1{fill:#5A5A5A;}
	.st2{fill:url(#SVGID_2_);}
</style>
<g>
	
		<linearGradient id="SVGID_1_" gradientUnits="userSpaceOnUse" x1="87.8" y1="40.25" x2="157.6" y2="40.25" gradientTransform="matrix(1 0 0 -1 0 119.6)">
		<stop  offset="0" style="stop-color:#F47521"/>
		<stop  offset="0.9987" style="stop-color:#F79720"/>
	</linearGradient>
	<path class="st0" d="M87.8,75.5h69.8v7.7H87.8V75.5z"/>
	<g>
		<path class="st1" d="M232.9,91.1c0,9.6-7.4,16.4-16.5,16.4c-9.3,0-16.6-6.8-16.6-16.4s7.3-16.3,16.6-16.3
			C225.5,74.8,232.9,81.5,232.9,91.1z M228.1,91.1c0-7.2-5.4-12-11.8-12c-6.5,0-11.9,4.9-11.9,12c0,7.2,5.4,12.2,11.9,12.2
			C222.8,103.3,228.1,98.3,228.1,91.1z"/>
		<path class="st1" d="M258.2,75.4V80c-0.6-0.1-1.6-0.1-2.2-0.1c-8.3,0-12.5,6.3-12.5,14.7v12h-4.9V75.4h4.9v7.7
			c2.5-4.6,6.8-8,12.5-8C256.8,75.2,257.3,75.2,258.2,75.4z"/>
		<path class="st1" d="M295,91.2c0,9.9-7.3,16.4-15.6,16.4c-5.2,0-9.6-2.1-12.4-5.8v15.7h-4.8v-42h4.8v5c2.8-3.7,7.2-5.8,12.4-5.8
			C287.7,74.7,295,81.3,295,91.2z M290.3,91.2c0-7.5-5.2-12.2-11.7-12.2c-5.9,0-11.7,4.7-11.7,12.2c0,7.4,5.8,12.1,11.7,12.1
			C285.1,103.3,290.3,98.6,290.3,91.2z"/>
		<path class="st1" d="M191.3,97.2c-1.8,3.9-5.6,5.9-9.8,5.9c-6.4,0-11.6-4.6-11.6-11.9c0-7.2,5.2-12,11.6-12c4.1,0,7.9,2,9.6,5.9
			h5.2c-1.9-6.4-8-10.3-14.8-10.3c-8.8,0-16.3,6.6-16.3,16.4c0,9.9,7.5,16.4,16.3,16.4c6.9,0,13.1-3.9,14.8-10.3h-0.1h-4.9V97.2z"/>
	</g>
	<path class="st1" d="M50.9,44.3c0,14.8-11.1,24.8-23,24.8c-6.4,0-11.6-1.9-15.5-5.1v3.7H0V0h12.4v24.5c3.9-3.3,9.1-5.2,15.5-5.2
		C39.9,19.4,50.9,29.6,50.9,44.3z M38.9,44.3c0-8.6-5.6-14.1-13.2-14.1c-6.7,0-13.3,5.5-13.3,14.1s6.7,14,13.3,14
		C33.3,58.4,38.9,53,38.9,44.3z"/>
	<path class="st1" d="M86.7,20.6L86,32.5h-2.7c-11.5,0-16.7,7-16.7,20.1v15.2H54.2V20.9h12.4v8.6c3.8-5.5,9.2-9.2,16.8-9.2
		C84.6,20.2,85.5,20.2,86.7,20.6z"/>
	<path class="st1" d="M137.4,67.8H125v-3.7c-3.9,3.2-9.1,5.1-15.5,5.1c-11.9,0-23-10.1-23-24.8c0-14.8,11.1-24.9,23-24.9
		c6.4,0,11.6,1.9,15.5,5.2v-3.8h12.4V67.8z M125,44.3c0-8.6-6.7-14.1-13.3-14.1c-7.5,0-13.2,5.5-13.2,14.1s5.6,14,13.2,14
		C118.4,58.4,125,53,125,44.3z"/>
	<path class="st1" d="M158.9,7.9c0,4.1-3.2,7.2-7.5,7.2c-4.4,0-7.5-3.1-7.5-7.2c0-3.9,3.1-7.4,7.5-7.4
		C155.7,0.4,158.9,3.9,158.9,7.9z"/>
	<rect x="145.2" y="20.9" class="st1" width="12.4" height="46.9"/>
	<path class="st1" d="M211.3,39.2v28.6h-12.4v-26c0-6.6-3.8-11-9.5-11c-7,0-11.7,4.7-11.7,16.2v20.8h-12.4V20.9h12.4v4.2
		c3.7-3.7,8.6-5.6,14.8-5.6C203.8,19.4,211.3,27.5,211.3,39.2z"/>
	
		<linearGradient id="SVGID_2_" gradientUnits="userSpaceOnUse" x1="218.0535" y1="81.4842" x2="295.0673" y2="81.4842" gradientTransform="matrix(1 0 0 -1 0 119.6)">
		<stop  offset="0" style="stop-color:#F47521"/>
		<stop  offset="0.9987" style="stop-color:#F79720"/>
	</linearGradient>
	<path class="st2" d="M288,19.9c-8.1-8.5-22.5-13.4-35.1-11.9c-11.8,1.4-23.6,8.4-29.8,17.8c-4.9,7.3-6.3,15.6-3.9,23.8
		C222,59.6,231,67,242,68.3c1.1,0.1,2.3,0.2,3.4,0.2c7.8,0,14.6-3.3,19.1-9.3c2.3,0,4.5-0.1,6.5-0.2h0.5c9.4-0.4,21.2-5.5,23.3-18.1
		C295.9,33,293.6,25.8,288,19.9z M240.1,64.3c-9.2-2.5-15.5-9.7-16.4-18.7c-0.7-6.6,1.3-12.9,5.8-18.3c6-7.1,15.8-12,25.6-12.7
		c0.9-0.1,1.9-0.1,2.8-0.1c8.8,0,17,2.9,22.9,8.1c4.6,4.1,8.9,11,7.2,18.5c-1.2,5.5-5.7,9.8-12,11.4c-2.7,0.7-5.5,0.9-8.2,1
		c1.4-3.6,1.2-7.6-0.8-11c-2.6-4.4-7.5-6.7-12.7-6c-4.2,0.6-7.9,3.4-9.4,7.2c-1.3,3.3-0.7,6.7,1.6,9.5c3.8,4.5,9.9,5.7,16,5.9
		C256.6,64.5,248.3,66.5,240.1,64.3z M265.4,53.5c-3.9,0.1-8,0.3-11.6-1c-2.3-0.8-4.1-2.3-4.9-4c-0.6-1.2-0.6-2.6-0.1-3.9
		c1.2-3.3,4.9-4.9,8.3-4.9c0.4,0,0.9,0,1.3,0.1c3.4,0.4,6,2.3,7.5,5.2c1.3,2.6,1.5,5.7,0.5,8.6L265.4,53.5z"/>
	<g>
		<path class="st1" d="M293.2,12.8c0-0.1,0-0.3,0-0.5c0-0.3,0-0.5-0.1-0.6c-0.1-0.2-0.2-0.3-0.4-0.4c0.3-0.2,0.5-0.5,0.5-0.8
			c0-0.4-0.1-0.7-0.4-0.9c-0.3-0.2-0.6-0.3-1.1-0.3h-1.3v3.9h0.7v-1.6h0.7c0.2,0,0.4,0.1,0.5,0.2s0.2,0.3,0.2,0.5
			c0,0.5,0,0.8,0.1,0.9h0.7v-0.1C293.2,13,293.2,12.9,293.2,12.8z M292.3,10.8c-0.1,0.1-0.3,0.1-0.6,0.1h-0.6V9.8h0.7
			c0.3,0,0.5,0.1,0.6,0.1c0.1,0.1,0.2,0.2,0.2,0.5C292.5,10.6,292.4,10.7,292.3,10.8z"/>
		<path class="st1" d="M291.7,8.3c1.5,0,2.7,1.2,2.7,2.8s-1.2,2.8-2.7,2.8s-2.7-1.2-2.7-2.8S290.2,8.3,291.7,8.3 M291.7,7.8
			c-1.8,0-3.3,1.5-3.3,3.4s1.5,3.4,3.3,3.4s3.3-1.5,3.3-3.4S293.5,7.8,291.7,7.8L291.7,7.8z"/>
	</g>
</g>
</svg>
