<?xml version="1.0" encoding="utf-8"?>
<!-- Generator: Adobe Illustrator 24.0.1, SVG Export Plug-In . SVG Version: 6.00 Build 0)  -->
<svg version="1.1" id="Layer_1" xmlns="http://www.w3.org/2000/svg" xmlns:xlink="http://www.w3.org/1999/xlink" x="0px" y="0px"
	 viewBox="0 0 1920 198" style="enable-background:new 0 0 1920 198;" xml:space="preserve">
<g>
	<path d="M107.2,46.16c25.34,0,42.7,15.16,42.7,41.02c0,37.79-22.49,64.67-56.03,64.67H43.92L66.41,46.16H107.2z M75.64,130.31
		h14.58c18.75,0,32.08-15.38,32.08-39.77c0-14.14-7.62-22.85-21.24-22.85H88.89L75.64,130.31z"/>
	<path d="M215.16,128.63h-34.5l-11.94,23.22h-28.42L199.2,46.16h32.89l12.16,105.69h-27.32L215.16,128.63z M190.41,109.29h23.66
		l-2.93-39.55h-0.59L190.41,109.29z"/>
	<path d="M266.95,151.84l17.8-84.08h-30.4l4.61-21.61h87.74l-4.61,21.61h-30.4l-17.87,84.08H266.95z"/>
	<path d="M393.36,128.63h-34.5l-11.94,23.22h-28.42l58.89-105.69h32.89l12.16,105.69h-27.32L393.36,128.63z M368.61,109.29h23.66
		l-2.93-39.55h-0.59L368.61,109.29z"/>
	<path d="M491.8,120.72c1.03,7.32,8.79,12.52,19.26,12.52c10.11,0,16.85-4.25,16.85-10.99c0-5.2-2.86-8.13-13.55-11.43l-10.11-3.08
		c-17.58-5.42-26.73-14.65-26.73-29.08c0-20.65,17.72-34.35,42.41-34.35c25.85,0,42.26,12.3,42.41,32.81H537.5
		c-0.29-7.47-6.88-12.45-17.07-12.45c-9.81,0-15.6,4.83-15.6,10.69c0,5.2,3.52,8.64,13.04,11.43l10.55,3.15
		c18.6,5.49,27.03,13.62,27.03,28.42c0,20.87-17.65,35.3-44.9,35.3c-26.95,0-44.09-12.16-44.31-32.96H491.8z"/>
	<path d="M644.29,84.02C644,73.69,635.72,66.3,624.95,66.3c-17.5,0-29.81,17.14-29.81,41.09c0,14.94,7.62,24.1,20.07,24.1
		c11.21,0,20.21-6.81,23.73-17.8h26.15c-4.1,23.95-24.76,39.99-51.56,39.99c-27.91,0-46-17.58-46-44.75
		c0-38.75,23.73-64.6,59.99-64.6c24.9,0,42.85,15.82,43.21,38.31c0,1.68-0.15,3.08-0.29,4.1h-26.15
		C644.36,86.29,644.36,85.85,644.29,84.02z"/>
	<path d="M670.22,151.84L692.7,46.16h26.88L697.1,151.84H670.22z"/>
	<path d="M786.45,151.84h-72.44L736.5,46.16h72.36l-4.61,21.61h-45.48l-4.47,21.09h42.77l-4.17,19.78h-42.77l-4.61,21.61h45.48
		L786.45,151.84z"/>
	<path d="M801.25,151.84l22.49-105.69h21.09l31.2,64.6h0.51l13.62-64.6h25.85l-22.49,105.69h-21.09l-31.2-64.6h-0.51l-13.62,64.6
		H801.25z"/>
	<path d="M994.9,84.02c-0.29-10.33-8.57-17.72-19.34-17.72c-17.5,0-29.81,17.14-29.81,41.09c0,14.94,7.62,24.1,20.07,24.1
		c11.21,0,20.21-6.81,23.73-17.8h26.15c-4.1,23.95-24.76,39.99-51.56,39.99c-27.91,0-46-17.58-46-44.75
		c0-38.75,23.73-64.6,59.99-64.6c24.9,0,42.85,15.82,43.21,38.31c0,1.68-0.15,3.08-0.29,4.1H994.9
		C994.97,86.29,994.97,85.85,994.9,84.02z"/>
	<path d="M1093.26,151.84h-72.44l22.49-105.69h72.36l-4.61,21.61h-45.48l-4.47,21.09h42.77l-4.17,19.78h-42.77l-4.61,21.61h45.48
		L1093.26,151.84z"/>
	<path d="M1207.01,128.63h-34.5l-11.94,23.22h-28.42l58.89-105.69h32.89l12.16,105.69h-27.32L1207.01,128.63z M1182.25,109.29h23.66
		l-2.93-39.55h-0.59L1182.25,109.29z"/>
	<path d="M1317.31,151.84h-71.78l22.49-105.69h26.88l-17.72,83.5H1322L1317.31,151.84z"/>
	<path d="M1400.51,151.84h-71.78l22.49-105.69h26.88l-17.72,83.5h44.82L1400.51,151.84z"/>
	<path d="M1411.94,151.84l22.49-105.69h26.88l-22.49,105.69H1411.94z"/>
	<path d="M1523.12,128.63h-34.5l-11.94,23.22h-28.42l58.89-105.69h32.89l12.16,105.69h-27.32L1523.12,128.63z M1498.37,109.29h23.66
		l-2.93-39.55h-0.59L1498.37,109.29z"/>
	<path d="M1561.65,151.84l22.49-105.69h21.09l31.2,64.6h0.51l13.62-64.6h25.85l-22.49,105.69h-21.09l-31.2-64.6h-0.51l-13.62,64.6
		H1561.65z"/>
	<path d="M1755.3,84.02c-0.29-10.33-8.57-17.72-19.34-17.72c-17.5,0-29.81,17.14-29.81,41.09c0,14.94,7.62,24.1,20.07,24.1
		c11.21,0,20.21-6.81,23.73-17.8h26.15c-4.1,23.95-24.76,39.99-51.56,39.99c-27.91,0-46-17.58-46-44.75
		c0-38.75,23.73-64.6,59.99-64.6c24.9,0,42.85,15.82,43.21,38.31c0,1.68-0.15,3.08-0.29,4.1h-26.15
		C1755.37,86.29,1755.37,85.85,1755.3,84.02z"/>
	<path d="M1853.67,151.84h-72.44l22.49-105.69h72.36l-4.61,21.61h-45.48l-4.47,21.09h42.77l-4.17,19.78h-42.77l-4.61,21.61h45.48
		L1853.67,151.84z"/>
</g>
</svg>
