<?xml version="1.0" encoding="utf-8"?>
<!-- Generator: Adobe Illustrator 24.0.1, SVG Export Plug-In . SVG Version: 6.00 Build 0)  -->
<svg version="1.1" id="Layer_1" xmlns="http://www.w3.org/2000/svg" xmlns:xlink="http://www.w3.org/1999/xlink" x="0px" y="0px"
	 viewBox="0 0 1920 198" style="enable-background:new 0 0 1920 198;" xml:space="preserve">
<style type="text/css">
	.st0{fill:#00519B;}
</style>
<g>
	<path class="st0" d="M73.19,82.27c5.77,10.08,11.36,20.28,17.42,30.19c2.28,3.73,2.3,6.55-0.01,10.23
		c-6.21,9.9-12.05,20.03-18.52,30.89c-6.99-11.85-13.72-23.02-20.09-34.39c-0.68-1.22,0.28-3.82,1.16-5.4
		c4.92-8.84,10.07-17.56,15.1-26.33c0.94-1.63,1.71-3.35,1.62-6.06c-7.85,4.75-16.13,8.93-23.42,14.42
		c-7.58,5.71-13.77,5.84-21.43,0.08c-7.54-5.68-16.12-9.98-25.21-15.46c11.85-7.12,22.87-13.93,34.16-20.28
		c1.43-0.8,4.5,0.36,6.35,1.42c9.96,5.69,19.78,11.63,30.61,16.78c-0.68-1.42-1.28-2.89-2.07-4.25
		c-5.2-8.91-10.52-17.75-15.59-26.74c-0.95-1.69-1.9-4.5-1.15-5.85C58.36,30.3,65,19.3,72.07,7.28
		c7.15,12.09,13.87,23.23,20.24,34.56c0.67,1.2-0.3,3.77-1.18,5.33c-5.75,10.16-11.69,20.21-16.77,31.36
		c1.43-0.65,2.93-1.19,4.28-1.98c8.71-5.14,17.33-10.44,26.13-15.43c1.64-0.93,4.47-1.6,5.86-0.81
		c11.14,6.34,22.06,13.06,33.89,20.17c-11.99,7.16-23.12,13.94-34.45,20.39c-1.17,0.67-3.71-0.22-5.19-1.09
		C94.67,93.73,84.56,87.5,74.42,81.33C74.01,81.64,73.6,81.96,73.19,82.27z"/>
	<path class="st0" d="M1211.35,88.86c2.51-9.28,5.01-18.56,7.54-27.92c7.34,0,14.37,0,22.15,0c-3.53,13.32-6.88,26.11-10.33,38.88
		c-3.51,12.99-3.55,12.98-16.85,12.98c-3.74,0-7.49,0-11.58,0c-2.02-8.59-3.95-16.77-5.88-24.94c-0.46-0.06-0.91-0.12-1.37-0.18
		c-1.81,6.49-3.96,12.91-5.31,19.49c-0.89,4.32-2.65,6.03-7.12,5.72c-5.3-0.37-10.65-0.09-16.77-0.09
		c4.6-17.12,8.94-33.53,13.55-49.86c0.31-1.08,2.61-2.21,4.02-2.27c6.14-0.25,12.32-0.37,18.44,0.09c1.52,0.11,3.79,2.41,4.12,4.03
		c1.61,7.93,2.69,15.97,3.95,23.97C1210.39,88.8,1210.87,88.83,1211.35,88.86z"/>
	<path class="st0" d="M1517.54,88.77c2.51-9.29,5.02-18.57,7.52-27.82c7.43,0,14.46,0,22.18,0c-3.96,14.82-8.08,29.04-11.45,43.44
		c-1.49,6.38-3.85,8.91-10.93,8.63c-16.69-0.67-16.7-0.21-20.29-16.64c-0.62-2.83-1.33-5.64-3.46-8.6
		c-1.82,6.67-3.84,13.3-5.36,20.04c-0.85,3.75-2.48,5.29-6.42,5.06c-5.5-0.31-11.02-0.08-17.28-0.08
		c3.97-14.92,7.52-29.09,11.53-43.12c3.14-11,0.18-8.83,12.01-9.11c1.59-0.04,3.17-0.01,4.76-0.01c11.72,0,11.66,0.01,13.23,11.94
		c0.72,5.46,1.71,10.89,2.58,16.34C1516.62,88.81,1517.08,88.79,1517.54,88.77z"/>
	<path class="st0" d="M426.55,60.56c0.87,5.09,1.68,9.72,2.45,14.36c0.77,4.62,1.51,9.25,3.62,13.95c2.06-7.66,4.38-15.26,6.08-23
		c0.88-4,2.4-5.72,6.69-5.41c5.31,0.38,10.67,0.09,16.9,0.09c-1.3,5.2-2.4,9.88-3.65,14.52c-2.98,11.09-6.18,22.12-8.98,33.25
		c-0.83,3.3-2.17,4.66-5.6,4.52c-5.35-0.22-10.72-0.27-16.06,0.01c-3.87,0.21-5.09-1.54-5.76-5.04c-1.29-6.76-3.04-13.43-6.01-20.27
		c-1.78,6.66-3.73,13.27-5.29,19.98c-0.9,3.85-2.5,5.71-6.81,5.36c-5.28-0.43-10.61-0.1-16.91-0.1c1.76-6.77,3.27-12.64,4.82-18.49
		c2.58-9.76,5.22-19.5,7.76-29.28c0.77-2.96,1.86-4.76,5.55-4.57C412.25,60.81,419.18,60.56,426.55,60.56z"/>
	<path class="st0" d="M1844.62,112.8c3.36-12.73,6.33-24.2,9.43-35.63c1.45-5.35,1.59-12.78,5.15-15.36
		c3.85-2.79,10.99-1.05,16.7-1.23c2.55-0.08,5.1-0.01,8.08-0.01c0.89,5.08,1.74,9.71,2.51,14.36c0.77,4.61,1.45,9.24,3.59,13.9
		c2.11-7.87,4.47-15.68,6.23-23.62c0.82-3.7,2.44-4.86,6.05-4.7c5.53,0.25,11.08,0.06,17.45,0.06c-3.36,12.73-6.5,24.91-9.79,37.05
		c-4.13,15.21-4.18,15.2-20.05,15.19c-9.27,0-9.23-0.01-11.23-9.26c-1.05-4.84-2.22-9.65-3.38-14.46c-0.13-0.53-0.57-0.99-1.41-2.42
		c-2.06,7.57-4.11,14.31-5.67,21.16c-0.86,3.77-2.51,5.29-6.46,5.05C1856.52,112.56,1851.18,112.8,1844.62,112.8z"/>
	<path class="st0" d="M1125.58,115.14c-4.99-0.48-9.95-0.76-14.84-1.46c-7.96-1.14-12.34-6.04-12.59-14.04
		c-0.35-11.07,2.77-21.36,9.14-30.19c2.69-3.73,7.54-7.71,11.77-8.17c11.48-1.24,23.24-1.54,34.74-0.5
		c8.46,0.76,11.82,6.45,11.78,15.18c-0.06,10.39-3.36,19.87-8.61,28.68c-3.43,5.76-9.23,7.98-15.43,8.96
		C1136.25,114.43,1130.89,114.65,1125.58,115.14z M1120.06,93.83c1.96,2.41,3.62,6.32,5.59,6.48c3.69,0.29,8.54-0.51,11.06-2.85
		c2.72-2.52,3.61-7.25,4.8-11.16c1.15-3.79,1.07-7.68-3.38-9.52c-4.42-1.83-9.02-1.43-11.67,2.69
		C1123.86,83.49,1122.46,88.3,1120.06,93.83z"/>
	<path class="st0" d="M1377.5,58.72c5.3,0.59,10.69,0.73,15.87,1.88c8.16,1.81,11.75,6.61,11.74,14.83
		c-0.02,10.58-3.29,20.27-8.68,29.27c-3.34,5.58-8.92,8.33-14.87,8.73c-10.43,0.7-20.96,0.81-31.39,0.13
		c-8.27-0.54-12.35-6.06-12.53-14.58c-0.22-10.66,3.11-20.33,8.68-29.21c4.51-7.19,11.86-9.59,19.82-10.28
		c3.74-0.33,7.53-0.06,11.3-0.06C1377.47,59.2,1377.48,58.96,1377.5,58.72z M1368.29,101.12c6.86,0.13,10.62-4.16,12.72-14.51
		c0.83-4.08,1.17-8.13-3.64-9.96c-4.73-1.8-9.42-1.04-11.92,3.53c-2.21,4.04-3.71,8.7-4.49,13.26
		C1360.09,98.54,1363.28,101.01,1368.29,101.12z"/>
	<path class="st0" d="M1803.85,115.14c-4.61-0.46-8.96-0.79-13.28-1.33c-9.12-1.13-13.55-5.64-13.69-14.83
		c-0.16-10.99,2.87-21.35,9.49-30.07c2.69-3.54,7.34-7.3,11.43-7.73c11.3-1.18,22.87-1.58,34.17-0.51
		c9.06,0.86,13.58,6.96,12.09,15.92c-1.56,9.4-4.75,18.66-8.29,27.56c-2.56,6.44-9.21,8.44-15.6,9.46
		C1814.71,114.48,1809.14,114.67,1803.85,115.14z M1821.73,83.35c-2.03-2.42-3.51-5.61-5.94-6.77c-4.04-1.92-8.45-0.73-10.94,3.2
		c-1.96,3.09-2.98,6.8-4.27,10.29c-1.51,4.09-1.33,7.88,3,10.22c4.08,2.21,10.24,0.8,12.54-3.35
		C1818.27,93.06,1819.56,88.7,1821.73,83.35z"/>
	<path class="st0" d="M741.85,112.65c4.54-16.72,8.73-32.6,13.3-48.38c0.46-1.57,3.15-3.5,4.84-3.54c12.5-0.29,25.02-0.3,37.52-0.08
		c9.14,0.16,14.94,5.24,13.69,14.17c-1.37,9.83-4.58,19.56-8.25,28.84c-2.15,5.44-7.85,8.74-13.93,8.87
		C773.58,112.87,758.11,112.65,741.85,112.65z M767.88,98.98c13.54,1.98,20.01-3.42,19.55-15.68c-0.07-1.86-2.54-5.02-4.11-5.16
		c-3.3-0.29-8.83,0.01-9.75,1.88C770.77,85.75,769.73,92.33,767.88,98.98z"/>
	<path class="st0" d="M1545.82,111.76c4.59-16.91,9.18-33.81,13.87-51.06c14.69,0,29.12-0.33,43.53,0.14
		c7.42,0.24,11.29,5.02,11.7,12.45c0.6,10.84-2.87,20.72-7.84,30.03c-2.94,5.52-8.18,9.05-14.43,9.21
		c-14.84,0.39-29.7,0.13-44.55,0.1C1547.57,112.63,1547.04,112.24,1545.82,111.76z M1571.66,98.87c13.23,2.35,20.38-3.64,19.59-15.8
		c-0.12-1.83-2.69-4.83-4.31-4.97c-3.3-0.27-8.81,0.05-9.72,1.92C1574.45,85.72,1573.45,92.26,1571.66,98.87z"/>
	<path class="st0" d="M980.4,112.32c-0.24-2.43-0.41-4.2-0.67-6.9c-5.63,0-11.31-0.12-16.97,0.1c-1.09,0.04-2.7,1.2-3.1,2.23
		c-1.89,4.83-5.56,5.36-10.06,5.12c-5.49-0.29-11.01-0.07-17.26-0.07c0.86-1.97,1.26-3.23,1.92-4.33
		c8.74-14.65,17.59-29.23,26.23-43.93c1.7-2.9,3.62-4.12,7.06-4.06c11.28,0.21,22.56,0.08,34.3,0.08c0,17.38,0,34.32,0,51.75
		C994.81,112.32,987.82,112.32,980.4,112.32z M979.48,92.89c0-6.33,0-11.83,0-17.32c-0.36-0.07-0.72-0.15-1.07-0.22
		c-3.43,5.56-6.86,11.12-10.82,17.55C972.41,92.89,975.85,92.89,979.48,92.89z"/>
	<path class="st0" d="M1658.37,105.39c-5.7,0-11.01-0.15-16.3,0.11c-1.28,0.06-3.12,1.19-3.62,2.31c-2.08,4.66-5.69,5.31-10.2,5.07
		c-5.5-0.3-11.03-0.07-17.61-0.07c2.09-3.66,3.68-6.53,5.36-9.35c7.62-12.77,15.37-25.46,22.84-38.31c1.89-3.25,3.87-4.83,7.89-4.69
		c9.71,0.34,19.44,0.26,29.15,0.04c3.84-0.09,5.31,1.17,5.27,5.07c-0.14,14.09-0.14,28.19,0,42.28c0.04,3.99-1.68,5.24-5.39,5
		c-2.96-0.2-5.97-0.26-8.92,0.02C1661.61,113.34,1657.66,112.51,1658.37,105.39z M1658.2,92.84c0-6.16,0-11.68,0-17.2
		c-0.37-0.1-0.74-0.2-1.11-0.31c-3.38,5.56-6.77,11.12-10.66,17.51C1650.96,92.84,1654.37,92.84,1658.2,92.84z"/>
	<path class="st0" d="M579.69,112.61c3.4-14.8,0.69-13.17,14.77-11.99c5.33,0.45,10.72,0.6,16.04,0.28c1.73-0.1,3.34-2.11,5-3.25
		c-1.54-1.12-2.98-2.96-4.65-3.22c-4.29-0.65-8.69-0.51-13.03-0.84c-7.84-0.59-11.38-4.7-10.9-12.48
		c0.8-13.02,9.08-21.34,22.17-21.67c9.71-0.25,19.44-0.01,29.16,0.25c3.3,0.09,6.59,0.88,10.64,1.47
		c-1.47,5.31-2.82,10.2-3.97,14.37c-8.85,0-17.1-0.03-25.35,0.03c-1.57,0.01-3.27,0.03-4.65,0.63c-1.09,0.47-2.68,2.18-2.46,2.77
		c0.44,1.21,1.83,2.71,3.01,2.87c3.12,0.44,6.33,0.25,9.5,0.3c11.2,0.16,14.97,2.36,16.01,9.38c1.35,9.03-4.11,19.54-12.56,21.11
		c-8.85,1.65-18.07,1.7-27.13,1.72C594.23,114.35,587.15,113.25,579.69,112.61z"/>
	<path class="st0" d="M167.27,113.86c3.49-16.71,1.55-14.26,15.35-13.16c5.32,0.42,10.72,0.53,16.03,0.15
		c1.62-0.11,3.1-2.31,4.64-3.55c-1.46-1-2.83-2.65-4.39-2.87c-4.3-0.59-8.68-0.54-13.03-0.82c-8.54-0.57-12.5-5.59-11.06-13.94
		c2.37-13.76,9.33-19.97,23.45-20.27c12.44-0.26,24.89-0.05,38.82-0.05c-1.8,6.47-2.83,11.19-4.56,15.64
		c-0.37,0.96-3.25,1.35-4.96,1.32c-7.12-0.11-14.24-0.75-21.34-0.59c-2.08,0.05-4.11,2.09-6.17,3.22c2.01,1.06,3.92,2.76,6.04,3.06
		c5.08,0.72,10.45,0.05,15.3,1.41c2.79,0.79,6.13,4.06,6.9,6.86c3.07,11.15-4.98,22.84-16.57,23.42
		C197.19,114.41,182.58,113.86,167.27,113.86z"/>
	<path class="st0" d="M847.91,60.56c-2.88,10.51-5.48,20-8.09,29.5c-0.37,1.34-1.15,2.74-0.98,4c0.33,2.41,0.52,6.06,2.01,6.85
		c3.13,1.66,6.8,0.72,8.35-3.15c1.39-3.47,2.37-7.12,3.41-10.73c2.51-8.71,4.96-17.44,7.45-26.26c7.3,0,14.19,0,21.6,0
		c-0.22,1.53-0.27,2.82-0.6,4.03c-3.11,11.26-6.46,22.45-9.37,33.76c-2.34,9.08-8.35,14.11-17.14,14.9
		c-9.21,0.82-18.6,0.93-27.8,0.15c-10.35-0.88-14-6.89-11.37-17c2.79-10.73,5.88-21.37,8.71-32.09c0.78-2.96,2.24-4.16,5.4-4.03
		C835.2,60.73,840.94,60.56,847.91,60.56z"/>
	<path class="st0" d="M1475.84,60.56c-4.17,14.47-7.88,28-12.02,41.4c-2.34,7.58-8.78,10.91-15.94,11.53
		c-9.02,0.78-18.21,0.91-27.23,0.19c-10.77-0.86-14.55-6.82-11.85-17.21c2.79-10.74,5.73-21.44,8.92-32.06
		c0.47-1.55,2.66-3.56,4.17-3.66c6.1-0.42,12.25-0.17,19.35-0.17c-2.37,8.78-4.56,16.9-6.76,25.01c-0.78,2.87-2.08,5.71-2.21,8.6
		c-0.1,2.31,0.53,5.98,2.02,6.75c3.16,1.64,6.76,0.65,8.37-3.19c1.14-2.73,1.87-5.63,2.68-8.49c2.29-8,4.67-15.97,6.72-24.03
		c0.86-3.39,2.25-4.98,6.01-4.75C1463.6,60.81,1469.15,60.56,1475.84,60.56z"/>
	<path class="st0" d="M708.95,83.25c10.03,0,19.88,0,29.72,0c0.13,10-0.71,10.91-9.63,10.93c-6.55,0.02-13.11-0.19-19.64,0.16
		c-1.85,0.1-3.62,1.79-5.42,2.75c0.24,0.76,0.48,1.51,0.71,2.27c9.96,0,19.92,0,29.47,0c0.55,1.23,0.9,1.62,0.83,1.9
		c-3.84,14.2-0.51,11.28-14.29,11.49c-13.85,0.21-27.7,0.05-42.65,0.05c1.89-7.47,3.55-14.1,5.24-20.71
		c2.36-9.21,4.62-18.45,7.26-27.57c0.45-1.57,2.57-3.76,3.95-3.78c16.64-0.26,33.28-0.17,50.91-0.17c-1.25,5.07-2.09,9.67-3.66,14
		c-0.42,1.17-3.06,2.1-4.71,2.15c-7.53,0.23-15.08,0.28-22.61,0.04C710.29,76.63,708.5,78.2,708.95,83.25z"/>
	<path class="st0" d="M578.75,83.24c-1.31,10.94-1.31,10.94-11.38,10.95c-6.15,0.01-12.32-0.2-18.45,0.18
		c-1.82,0.11-3.55,1.87-5.32,2.87c0.26,0.73,0.52,1.46,0.78,2.2c9.78,0,19.56,0,30.61,0c-1.15,4.58-1.91,8.13-3.02,11.57
		c-0.25,0.78-1.72,1.66-2.63,1.67c-17.03,0.1-34.06,0.07-51.76,0.07c4.56-17.72,8.95-34.74,13.35-51.84c18.14,0,35.91,0,53.65,0
		c0.08,0.73,0.22,1.13,0.14,1.49c-3.14,14.44-3.14,14.44-17.95,14.44c-4.37,0-8.74,0.15-13.1-0.03c-4.3-0.18-5.64,1.9-5.07,6.45
		C558.62,83.24,568.66,83.24,578.75,83.24z"/>
	<path class="st0" d="M324.06,112.8c1.93-7.77,3.61-14.64,5.36-21.48c2.31-9.02,4.57-18.05,7.14-26.99
		c0.42-1.46,2.29-3.57,3.51-3.58c16.82-0.24,33.65-0.16,51.31-0.16c-1.28,5.17-2.09,9.64-3.63,13.84c-0.44,1.2-2.98,2.24-4.58,2.29
		c-7.54,0.24-15.09,0.3-22.62,0.04c-4.43-0.15-6.2,1.56-5.61,6.48c9.82,0,19.67,0,29.47,0c0.61,9.46-0.64,10.93-8.9,10.95
		c-6.75,0.02-13.51-0.18-20.24,0.16c-1.81,0.09-3.54,1.83-5.31,2.81c0.26,0.75,0.52,1.51,0.78,2.26c9.97,0,19.94,0,29.63,0
		c0.39,1.24,0.67,1.65,0.59,1.95c-3.88,14-0.42,11.16-14.41,11.39c-11.71,0.19-23.42,0.04-35.13,0.04
		C329.28,112.8,327.14,112.8,324.06,112.8z"/>
	<path class="st0" d="M1337.97,60.58c-1.39,5.22-2.27,9.89-3.99,14.23c-0.54,1.36-3.34,2.47-5.16,2.55
		c-6.93,0.3-13.89,0.29-20.83,0.09c-4.53-0.13-6.7,1.51-5.97,6.93c9.57,0,19.19,0,29.48,0c-1.16,4.64-1.74,8.59-3.23,12.16
		c-0.57,1.38-3.14,2.65-4.85,2.73c-6.93,0.31-13.91,0.43-20.83,0.02c-4.49-0.26-6.77,1.36-7.07,5.66c-0.46,6.5-3.74,8.78-10.14,7.95
		c-4.26-0.55-8.65-0.1-13.95-0.1c2.35-9.3,4.48-17.87,6.67-26.42c1.87-7.29,3.64-14.61,5.83-21.8c0.48-1.59,2.56-3.81,3.94-3.84
		C1304.31,60.48,1320.75,60.58,1337.97,60.58z"/>
	<path class="st0" d="M286.59,98.28c0.06,0.26,0.31,0.67,0.22,0.98c-4.52,14.52,0.5,13.15-17.11,14.61
		c-7.45,0.62-15.04,0.47-22.49-0.17c-8.21-0.71-12.88-5.43-11.7-13.4c1.48-10.04,3.86-20.25,7.88-29.5
		c1.93-4.45,8.06-8.48,13.08-9.92c13.2-3.77,26.63-1.54,40.27,1.13c-1.57,5.85-3,11.15-4.32,16.05c-6.25,0-11.96-0.2-17.65,0.05
		c-8.39,0.36-13.14,3.68-15.14,10.11c-2.08,6.66,0.15,10.88,7.03,11.22C273.1,99.76,279.62,98.74,286.59,98.28z"/>
	<path class="st0" d="M523.59,62.26c-1.62,5.95-3.06,11.23-4.31,15.85c-6.58,0-12.52-0.29-18.42,0.07
		c-8.79,0.54-13.77,4.87-14.84,11.94c-0.81,5.34,1.25,8.94,6.59,9.15c5.88,0.23,11.8-0.65,17.7-1.07c0.92-0.07,1.84-0.27,3.64-0.54
		c-1.15,4.62-1.93,8.63-3.25,12.46c-0.39,1.12-2.29,2.35-3.56,2.42c-11.03,0.58-22.11,1.54-33.12,1.09
		c-8.66-0.35-13.32-6.47-12.03-15.17c1.18-7.98,3.36-15.87,5.84-23.57c2.8-8.69,9.36-13.81,18.34-14.99
		C498.45,58.26,510.67,59.04,523.59,62.26z"/>
	<path class="st0" d="M942.63,60.69c-1.96,7.34-3.38,12.64-4.61,17.23c-8.07,0.4-15.54,0.37-22.89,1.34
		c-2.8,0.37-6.44,2.44-7.66,4.79c-1.76,3.38-2.9,8.11-1.88,11.53c0.62,2.09,5.76,3.82,8.94,3.95c5.65,0.23,11.36-0.89,17.96-1.53
		c-1.02,4.13-1.84,8.3-3.18,12.29c-0.36,1.07-2.31,2.19-3.59,2.26c-10.82,0.58-21.67,1.54-32.47,1.14
		c-8.84-0.33-13.06-4.93-12.01-13.5c1.16-9.48,3.55-18.96,6.64-28.01c2.84-8.33,10.45-12.19,18.71-12.48
		C918.16,59.29,929.77,60.26,942.63,60.69z"/>
	<path class="st0" d="M1018.37,112.78c3.06-12.07,5.87-23.14,8.86-34.92c-5-0.24-9.25-0.44-14.51-0.7
		c1.37-5.22,2.47-9.94,3.94-14.54c0.29-0.91,2.02-1.94,3.09-1.95c16.25-0.12,32.5-0.09,49.71-0.09c-1.41,5.21-2.2,9.92-4.09,14.13
		c-0.69,1.53-3.98,2.57-6.14,2.65c-10.88,0.43-8.65-1.19-11.58,9.23c-2.09,7.44-3.77,15-6.03,22.38c-0.47,1.54-2.63,3.53-4.12,3.63
		C1031.4,113.02,1025.25,112.78,1018.37,112.78z"/>
	<path class="st0" d="M1748.02,60.58c-0.6,2.65-0.93,4.39-1.39,6.1c-2.76,10.28-2.77,10.42-13.44,10.75
		c-3.38,0.1-4.89,1.24-5.66,4.53c-2.04,8.68-4.61,17.23-6.57,25.92c-0.87,3.84-2.6,5.2-6.47,4.99c-5.5-0.29-11.03-0.07-17.37-0.07
		c3.02-11.94,5.82-23,8.82-34.84c-4.88-0.31-9.3-0.6-14.57-0.93c1.36-5.05,2.4-9.6,3.89-13.99c0.36-1.07,2.17-2.34,3.33-2.35
		C1714.85,60.53,1731.11,60.58,1748.02,60.58z"/>
	<path class="st0" d="M1736.38,170.65c1.27-2.19,3.01-4.24,3.74-6.6c2.85-9.19,9.1-11.97,18.09-10.51c2.48,0.4,5.08,0.06,8.6,0.06
		c-3.14,11.63-6,22.48-9.12,33.25c-0.29,1.01-2.28,2.05-3.56,2.16c-3.52,0.3-7.08,0.1-11.41,0.1c1.33-5.52,2.49-10.38,3.66-15.24
		c-0.37-0.19-0.75-0.37-1.12-0.56c-2.16,3.35-4.67,6.52-6.39,10.08c-2.62,5.43-6.44,7.03-12.33,4.98
		c-0.58-5.09-1.18-10.35-1.78-15.61c-0.38-0.09-0.76-0.17-1.14-0.26c-0.92,3.2-2.17,6.34-2.67,9.6c-0.84,5.45-3.33,8.09-9.11,7.09
		c-2.09-0.36-4.29-0.06-7.38-0.06c2.99-11.55,5.67-22.39,8.75-33.12c0.33-1.14,2.97-2.34,4.5-2.29c5.53,0.2,11.09,0.72,16.51,1.76
		c0.58,0.11,0.41,4.43,0.48,6.79c0.07,2.7,0.02,5.4,0.02,8.11C1735.28,170.48,1735.83,170.57,1736.38,170.65z"/>
	<path class="st0" d="M1354.1,172.08c1.02-3.8,2.5-7.54,2.94-11.41c0.69-6.14,3.92-7.9,9.56-7.13c2.28,0.31,4.63,0.05,7.52,0.05
		c-2.97,11.27-5.62,21.79-8.64,32.21c-0.4,1.38-2.57,3.02-4.05,3.16c-4.49,0.41-9.03,0.15-13.7,0.15
		c-1.45-5.82-2.76-11.12-4.07-16.41c-0.44-0.04-0.87-0.08-1.31-0.11c-0.97,3.61-2.2,7.17-2.84,10.83c-0.8,4.51-2.99,6.42-7.65,5.79
		c-2.67-0.36-5.44-0.07-9.16-0.07c3.18-11.8,6.02-22.66,9.15-33.43c0.28-0.96,2.3-1.9,3.6-2.02c14.09-1.37,14.07-1.33,16.22,12.9
		c0.29,1.92,0.91,3.79,1.37,5.68C1353.4,172.2,1353.75,172.14,1354.1,172.08z"/>
	<path class="st0" d="M1676.87,190.25c-1.58,0-3.17,0.05-4.75-0.01c-12.38-0.48-16.1-5.45-13.23-17.68
		c4.24-18.06,23.9-26.98,40.2-17.89c2.35,1.31,4.6,4.7,4.92,7.37c0.98,8.14-1.3,16.06-6.45,22.22c-2.57,3.08-7.64,4.38-11.84,5.66
		c-2.72,0.83-5.89,0.16-8.86,0.16C1676.87,190.13,1676.87,190.19,1676.87,190.25z M1688.03,167.17c-1.21-0.71-3.27-2.8-5.54-3.06
		c-4.51-0.51-9.12,6.19-8.74,12.17c0.23,3.68,2.51,5.07,6.06,4.86C1684.4,180.86,1688.26,175.38,1688.03,167.17z"/>
	<path class="st0" d="M1614.41,189.12c-3.97,0-7.51,0.05-11.05-0.03c-0.94-0.02-2.13-0.13-2.78-0.69c-6.93-5.94-8.7-5.18-16.9-0.49
		c-4.13,2.36-10.29,1.17-17.11,1.72c2.11-3.71,3.47-6.18,4.9-8.61c1.71-2.91,3.48-5.77,5.21-8.67c12.56-21,12.56-21,37.73-18.27
		C1614.41,165.39,1614.41,176.77,1614.41,189.12z M1591.87,174.25c0.25,0.58,0.5,1.17,0.76,1.75c2.14-0.28,5.89-0.08,6.15-0.94
		c0.99-3.27,0.87-6.88,1.16-10.37c-0.56-0.14-1.11-0.27-1.67-0.41C1596.13,167.6,1594,170.93,1591.87,174.25z"/>
	<path class="st0" d="M1507.47,153.6c0,12.16,0,23.26,0,35.46c-4.19,0-8.25,0.04-12.3-0.04c-0.72-0.01-1.63-0.34-2.11-0.84
		c-5.32-5.55-10.69-5.63-16.09-0.78c-1.48,1.33-4.24,1.48-6.45,1.67c-2.95,0.25-5.95,0.02-8.93-0.05c-0.35-0.01-0.7-0.28-1.82-0.77
		c4.82-8.01,10.29-15.6,14.15-23.94c4.1-8.86,9.89-12.36,19.45-10.84C1497.78,154.18,1502.39,153.6,1507.47,153.6z M1491.95,162.47
		c-3.12,5-5.42,8.69-8.01,12.85C1493.11,176.59,1493.42,176.09,1491.95,162.47z"/>
	<path class="st0" d="M1457.61,188.51c-10.93,1.89-20.23,2.15-23.32-11.42c-0.46,0.35-0.92,0.7-1.37,1.05
		c-1.05,3.42-2.11,6.83-3.28,10.62c-4.58,0-9.25,0-14.71,0c3-11.2,5.78-22.04,8.97-32.76c0.34-1.16,3.02-2.25,4.64-2.29
		c8.12-0.23,16.25-0.11,24.37-0.11c3.98,0,8.25-0.49,9.34,4.94c1.3,6.51-1.15,12.7-6.07,14.76c-2.14,0.9-4.51,1.22-7.48,1.99
		C1451.71,179.75,1454.58,184,1457.61,188.51z M1435.5,170.71c4.58,0.56,9.39,2.29,11.42-3.68c0.29-0.84-2.11-3.51-3.62-3.89
		C1437.91,161.78,1435.21,164.31,1435.5,170.71z"/>
	<path class="st0" d="M1849.19,167.46c2.76,0.33,5.51,0.68,8.27,0.99c4.72,0.52,10.55-0.87,11.24,6.53
		c0.69,7.39-3.68,14.29-10.67,14.77c-9.98,0.69-20.05,0.18-31.06,0.18c0.84-4.17,1.36-6.74,1.9-9.39c7.4,0,14.28,0.03,21.15-0.07
		c0.48-0.01,0.95-1.07,2.42-2.85c-3.43-0.65-5.91-1.28-8.42-1.55c-4.89-0.52-11.02,1.23-11.9-6.43c-0.91-7.9,3.39-15.38,10.71-16.05
		c10.13-0.93,20.41-0.23,30.66-0.23c-0.64,10.44-1.15,10.9-10.22,10.47c-3.36-0.16-6.73-0.27-10.08-0.05
		c-1.44,0.1-2.82,1.1-4.22,1.69C1849.05,166.12,1849.12,166.79,1849.19,167.46z"/>
	<path class="st0" d="M1062.01,112.8c4.71-17.85,9.19-34.79,13.72-51.96c7.26,0,14.32,0,22.11,0c-3.41,12.76-6.65,25.12-10.03,37.45
		c-4.01,14.63-4.06,14.62-19.28,14.51C1066.63,112.79,1064.71,112.8,1062.01,112.8z"/>
	<path class="st0" d="M1740.98,112.13c1.8-6.89,3.57-13.71,5.37-20.52c2.37-9,4.91-17.96,7.05-27.01c0.75-3.17,2.2-4.19,5.3-4.09
		c5.71,0.18,11.43,0.05,17.9,0.05c-3.29,12.38-6.33,24.02-9.47,35.64C1762.13,114.71,1761.49,115.09,1740.98,112.13z"/>
	<path class="st0" d="M327.55,60.57c-4.58,16.89-8.91,33.14-13.5,49.32c-0.34,1.22-2.4,2.69-3.72,2.76
		c-5.9,0.3-11.83,0.13-18.52,0.13c0.95-3.91,1.67-7.13,2.51-10.32c3.28-12.46,6.72-24.88,9.82-37.38c0.81-3.26,2.03-4.73,5.53-4.58
		C315.4,60.74,321.13,60.57,327.55,60.57z"/>
	<path class="st0" d="M1282.85,153.31c-1.51,5.09-2.39,8.07-3.14,10.62c-5.43,0-10.36-0.17-15.27,0.04
		c-7.56,0.32-12.51,6.5-10.85,13.75c0.35,1.51,2.24,2.91,3.75,3.79c0.57,0.33,2.56-0.68,3.1-1.57c5.04-8.2,5.58-8.48,16.99-6.79
		c-1.13,4.18-2.01,8.39-3.5,12.37c-0.55,1.47-2.45,3.32-3.86,3.43c-7.87,0.62-15.79,1.24-23.66,0.91c-6.15-0.26-9.2-4.11-8.76-10.45
		c0.34-4.86,1.42-9.78,2.89-14.44c2.13-6.76,6.8-11.45,14.14-11.76C1263.66,152.8,1272.65,153.23,1282.85,153.31z"/>
	<path class="st0" d="M1372.28,189.14c2.9-11.29,5.52-21.83,8.41-32.28c0.36-1.29,2.19-3.07,3.36-3.1
		c11.24-0.24,22.48-0.14,33.78-0.14c-1.25,10.93-1.25,10.92-10.81,10.94c-3.17,0.01-6.37-0.21-9.5,0.16
		c-1.58,0.19-3.02,1.47-4.53,2.26c0.23,0.64,0.45,1.27,0.68,1.91c6.65,0,13.29,0,19.95,0c0.57,5.53-1.24,8.02-6.54,7.64
		c-3.94-0.28-7.93-0.17-11.89,0.03c-1.65,0.09-3.27,0.88-4.9,1.34c0.08,0.73,0.15,1.46,0.23,2.2c6.7,0,13.41,0,20.08,0
		c0.66,7.35-2.02,9.43-8.15,9.15C1392.61,188.82,1382.74,189.14,1372.28,189.14z"/>
	<path class="st0" d="M1317.69,180.29c0.31,6.71-1.69,9.29-7.82,8.99c-9.86-0.49-19.76-0.13-30.53-0.13
		c2.92-11.47,5.57-22.31,8.56-33.06c0.31-1.1,2.57-2.34,3.94-2.37c10.88-0.19,21.76-0.11,32.64-0.11
		c-0.09,9.95-1.02,10.93-9.96,10.96c-3.37,0.01-6.76-0.2-10.09,0.16c-1.54,0.17-2.95,1.48-4.43,2.27c0.24,0.66,0.47,1.31,0.71,1.97
		c6.65,0,13.3,0,19.89,0c0.66,5.76-1.54,7.92-6.7,7.57c-3.94-0.27-7.93-0.18-11.88,0.04c-1.59,0.09-3.13,0.98-4.69,1.51
		c0.1,0.73,0.2,1.46,0.3,2.19C1304.33,180.29,1311.05,180.29,1317.69,180.29z"/>
	<path class="st0" d="M1823.91,180.07c-1.54,9.4-1.65,9.59-11.09,9.99c-4.95,0.21-9.94,0.35-14.86-0.06
		c-6.22-0.51-8.75-3.55-8.78-9.71c-0.01-2.18,0.06-4.4,0.47-6.52c3.33-17.27,8.89-21.74,26.36-21.3c1.78,0.05,3.58,0.11,5.34,0.37
		c10.84,1.58,10.93,1.78,6.49,12.19c-5.2,0.35-10.45,0.03-15.27,1.31c-2.7,0.72-5.58,3.7-6.8,6.38c-1.73,3.81-0.13,7.14,4.76,7.32
		C1814.84,180.2,1819.18,180.07,1823.91,180.07z"/>
	<path class="st0" d="M1632.13,165.4c-3.55-0.3-6.43-0.54-9.89-0.82c1.04-3.81,1.96-7.18,2.92-10.73c11.73,0,23.19,0,34.64,0
		c0.48,8.95-0.73,10.29-8.68,11.31c-1.56,0.2-3.62,2.05-4.16,3.6c-1.69,4.84-3.09,9.84-3.99,14.89c-0.79,4.41-2.9,6.01-7.24,5.55
		c-2.92-0.31-5.89-0.06-9.45-0.06C1628.27,181.06,1630.1,173.62,1632.13,165.4z"/>
	<path class="st0" d="M1511.13,189.14c3.13-12.26,6.03-23.65,8.99-35.25c4.96,0,9.64,0,15.05,0c-1.86,7.74-3.64,15.11-5.63,23.35
		c5.28,0,9.89,0,14.47,0c0.19,10.56-1.08,11.89-10.64,11.89C1526.29,189.14,1519.21,189.14,1511.13,189.14z"/>
	<path class="st0" d="M1764.92,189.11c3.26-12.38,6.22-23.61,9.26-35.15c4.81,0,9.48,0,15,0c-3.01,11.17-5.85,22-8.96,32.75
		c-0.3,1.05-2.24,2.18-3.5,2.29C1773.22,189.31,1769.67,189.11,1764.92,189.11z"/>
</g>
</svg>
