<svg xmlns="http://www.w3.org/2000/svg" width="82" height="61" viewBox="0 0 82 61">
    <g fill="#00000" fill-rule="nonzero">
        <ellipse cx="79.046" cy="24.23" rx="2.704" ry="2.702" transform="rotate(-2.74 79.046 24.23)"/>
        <path d="M77.107 29.047a2.433 2.433 0 1 0-4.858.236 2.433 2.433 0 0 0 4.858-.236zM72.008 32.692a2.187 2.187 0 1 0-4.372.21 2.188 2.188 0 1 0 4.371-.21z"/>
        <ellipse cx="64.631" cy="34.856" rx="1.969" ry="1.97" transform="rotate(-2.722 64.63 34.856)"/>
        <path d="M61.24 35.112a1.774 1.774 0 1 0-3.544.167 1.774 1.774 0 0 0 3.543-.167zM56.478 33.698a1.596 1.596 0 1 0-3.188.153c.04.881.79 1.563 1.67 1.522a1.605 1.605 0 0 0 1.518-1.675z"/>
        <ellipse cx="51.204" cy="31.246" rx="1.437" ry="1.437" transform="rotate(-2.734 51.204 31.246)"/>
        <path d="M49.63 28.146a1.295 1.295 0 0 0-1.355-1.23 1.29 1.29 0 0 0-1.227 1.352 1.29 1.29 0 0 0 1.352 1.23 1.295 1.295 0 0 0 1.23-1.352zM47.252 24.956a1.163 1.163 0 0 0-2.325.112 1.164 1.164 0 0 0 2.324-.112zM45.378 21.76a1.046 1.046 0 1 0-.993 1.094 1.042 1.042 0 0 0 .993-1.095z"/>
        <ellipse cx="42.984" cy="18.645" rx="1" ry="1" transform="rotate(-89.921 42.984 18.645)"/>
        <ellipse cx="3.097" cy="19.129" rx="3.036" ry="3.037"/>
        <ellipse cx="6.927" cy="13.054" rx="2.704" ry="2.702" transform="rotate(-2.722 6.927 13.054)"/>
        <ellipse cx="11.291" cy="8.122" rx="2.433" ry="2.434" transform="rotate(-2.74 11.291 8.122)"/>
        <ellipse cx="16.143" cy="4.488" rx="2.189" ry="2.19" transform="rotate(-2.728 16.143 4.488)"/>
        <ellipse cx="21.338" cy="2.43" rx="1.969" ry="1.97" transform="rotate(-2.74 21.338 2.43)"/>
        <ellipse cx="26.498" cy="2.092" rx="1.772" ry="1.773" transform="rotate(-2.728 26.498 2.092)"/>
        <ellipse cx="31.083" cy="3.513" rx="1.596" ry="1.597" transform="rotate(-2.734 31.083 3.513)"/>
        <ellipse cx="34.766" cy="6.043" rx="1.437" ry="1.437" transform="rotate(-2.717 34.766 6.043)"/>
        <ellipse cx="37.629" cy="9.08" rx="1.294" ry="1.292" transform="rotate(-2.722 37.63 9.08)"/>
        <path d="M38.716 12.329a1.163 1.163 0 1 0 1.108-1.217 1.16 1.16 0 0 0-1.108 1.217z"/>
        <ellipse cx="41.635" cy="15.473" rx="1.047" ry="1.047" transform="rotate(-2.711 41.635 15.473)"/>
        <g>
            <path d="M14.018 51.424c-.25.434-.58.847-.973 1.16-.474.348-.972.575-2.107.969l2.379 5.79H9.345l-1.921-5.235H4.879l-1.196 5.234H.064l3.304-14.596H9.8c.309 0 .6 0 .908.02.414.04 1.366.126 2.315.787.64.45 1.613 1.423 1.613 3.43.003.437-.061 1.448-.617 2.44zm-3.31-3.37c-.373-.478-.807-.64-1.84-.64h-2.46l-.912 3.99h3.06c.081 0 .457-.02.786-.085.64-.143 1.054-.475 1.362-1.034.291-.54.312-.973.312-1.22.003-.163.003-.62-.309-1.01zM33.783 52.085c-.309-.434-.39-.56-.597-.746-.518-.478-1.325-.681-2.006-.681-.887 0-1.362.373-1.362.827 0 .58.742.766 1.674 1.034.454.125.888.247 1.325.413 1.074.393 2.128.909 2.5 2.007.143.393.143.827.143.953 0 1.26-.827 2.128-1.118 2.396-.681.64-2.006 1.387-4.175 1.387-.766 0-2.955-.041-4.527-1.861-.227-.268-.352-.414-.66-.97l2.666-1.322c.187.329.292.495.393.62.312.373 1.054.973 2.359.973a3.7 3.7 0 0 0 1.033-.166c.25-.085.434-.186.58-.393a.738.738 0 0 0 .125-.393.647.647 0 0 0-.126-.373c-.25-.353-.7-.475-1.446-.705-2.108-.661-3.02-.973-3.656-2.004-.122-.206-.414-.745-.414-1.406 0-.309.061-.889.475-1.53.579-.911 1.86-1.84 4.259-1.84 2.46 0 3.68.909 4.384 1.715.183.227.33.414.597.888l-2.426 1.177zM51.602 59.342h-3.388l2.606-11.291-5.456 11.291h-3.06l-.413-11.457-2.5 11.457h-3.413l3.27-14.6h5.391l.248 9.573 4.526-9.57h5.476zM75.02 59.342h-3.185l.145-.745c-.166.122-.328.227-.494.352a4.244 4.244 0 0 1-2.359.682c-1.22 0-1.92-.495-2.294-.807-.68-.56-1.507-1.593-1.507-3.682 0-.705.125-2.484 1.199-4.18 1.447-2.274 3.453-2.623 4.463-2.623.372 0 1.426.04 2.314.702.352.267.6.62.684.742l1.135-5.037h3.206L75.02 59.342zm-1.925-7.278c-.267-.786-.949-1.26-1.758-1.22a2.09 2.09 0 0 0-1.119.393c-1.179.787-1.694 2.502-1.694 3.844 0 .726.166 1.14.353 1.427.328.52.806.706 1.406.706.515 0 1.382-.167 2.087-1.217.535-.807.847-2.112.847-3.044.004-.333-.017-.577-.122-.889zM25.122 54.586c.04-.454.085-.928.085-1.406 0-.227 0-.953-.207-1.655-.146-.559-.414-1.057-.783-1.528-1.284-1.594-3.246-1.675-3.907-1.675-.539 0-1.924.061-3.185.847-1.342.845-2.335 2.356-2.707 3.909-.166.661-.166 1.197-.166 1.447 0 2.068.993 3.93 2.893 4.716.95.393 1.922.413 2.294.413 2.626 0 3.928-1.22 4.568-2.047.183-.244.356-.499.522-.766l-2.48-1.23c-.167.267-.319.531-.526.752-.494.522-1.24.827-2.006.827-.227 0-.684 0-1.2-.288-1.138-.62-.972-2.027-.951-2.316h7.756zm-6.367-3.433c.25-.207.725-.6 1.572-.6 1.2 0 1.755.786 1.921 1.22.102.312.102.742.102.807h-4.564c.39-.848.596-1.095.969-1.427zM64.597 54.586c.04-.454.085-.928.085-1.406 0-.227 0-.953-.207-1.655a4.112 4.112 0 0 0-.786-1.528c-1.28-1.594-3.246-1.675-3.904-1.675-.538 0-1.924.061-3.185.847-1.341.845-2.334 2.356-2.707 3.909-.166.661-.166 1.197-.166 1.447 0 2.068.993 3.93 2.894 4.716.948.393 1.92.413 2.294.413 2.626 0 3.927-1.22 4.57-2.047.184-.244.353-.499.522-.766l-2.48-1.23c-.163.267-.318.531-.522.752-.494.522-1.24.827-2.002.827-.227 0-.685 0-1.196-.288-1.139-.62-.976-2.027-.953-2.316h7.743zm-6.367-3.433c.25-.207.725-.6 1.572-.6 1.2 0 1.756.786 1.922 1.22.101.312.101.742.101.807h-4.564c.39-.848.596-1.095.97-1.427z"/>
        </g>
    </g>
</svg>
