<?xml version="1.0" encoding="utf-8"?>
<!-- Generator: Adobe Illustrator 23.0.3, SVG Export Plug-In . SVG Version: 6.00 Build 0)  -->
<svg version="1.1" id="Layer_1" xmlns="http://www.w3.org/2000/svg" xmlns:xlink="http://www.w3.org/1999/xlink" x="0px" y="0px"
	 viewBox="0 0 2500 942" style="enable-background:new 0 0 2500 942;" xml:space="preserve" height="60">
<style type="text/css">
	.st0{fill:#000000;}
	.st1{fill:#000000;}
	.st2{fill:#000000;}
	.st3{fill-rule:evenodd;clip-rule:evenodd;fill:#000000;}
</style>
<title>Repl.it logo</title>
<g>
	<path class="st0" d="M602.9,470.2c0,26-7.7,51.5-22.2,73.2c-14.5,21.7-35.1,38.5-59.2,48.5c-24.1,10-50.6,12.6-76.2,7.5
		c-25.6-5.1-49.1-17.6-67.6-36.1c-37.7-37.6-49-94.3-28.6-143.5c10-24.1,26.9-44.6,48.6-59.1c21.7-14.5,47.2-22.2,73.3-22.2
		c35,0,68.5,13.9,93.3,38.6C589,401.8,602.9,435.3,602.9,470.2L602.9,470.2z"/>
	<g>
		<path class="st1" d="M912.1,306.6c30.7,464.7-459,400.9-459,400.9C789.4,712.3,931.2,75,385.6,8.1c28.2-5.3,56.8-8,85.4-8.1
			C673.4,0,845.5,127.7,912.1,306.6z"/>
		<path class="st1" d="M703.1,498.1c0,0,115.6-486.7-404.9-464.9C123.6,101.9,0,271.5,0,470.2c0.2,21.4,1.8,42.8,4.8,63.9
			C114.4-16.5,738.6,161.8,703.1,498.1L703.1,498.1z"/>
		<path class="st1" d="M31.3,641.5c-7.5-532.1,481.3-395.8,481.3-395.8C177,196.9-31.4,809.1,517,939.7c-15.2,1.5-30.7,2.3-46.4,2.3
			c-0.4,0-0.8,0-1.2-0.1c-0.4,0-0.8-0.1-1.2-0.1c-20.8-0.2-41.5-1.9-62.1-4.8c-6.1-0.8-12.1-1.7-18.1-2.8
			c-19.8-3.3-39.4-8-58.6-13.8c-2.3-0.7-4.4-1.5-6.6-2.4l0,0l0,0c-1.7-0.6-3.3-1.3-5-1.9c-16-5.5-31.8-11.9-47.1-19.1l-3.5-1.7
			c-4.1-1.9-8.2-3.9-12.2-5.9c-17.8-9.1-35-19.3-51.6-30.6c-1.3-0.9-2.6-1.9-3.8-2.9l-0.1,0l0,0c-1.1-0.8-2.1-1.6-3.2-2.4
			c-15.6-11.2-30.5-23.3-44.7-36.3c-0.8-0.8-1.7-1.5-2.5-2.3l-0.1-0.1l0,0l-0.1-0.1c-1.2-1.1-2.5-2.2-3.7-3.3
			C95.2,763.9,56.3,705.8,31.3,641.5z"/>
		<path class="st1" d="M635.1,910.5c-525-4.2-394-486-394-486c-53.5,334.1,560.1,547.6,698.8,2.5c1.3,14.2,2.2,28.6,2.2,43.2
			c0,1.8-0.1,3.5-0.2,5.3v0.1c-0.1,1.6-0.2,3.1-0.3,4.7c-0.3,12.8-0.7,25.6-1.9,38.1C921.2,699.2,799.8,849.3,635.1,910.5
			L635.1,910.5z"/>
		<g>
			<path class="st2" d="M1977.3,670.1h45V249.6h-45V670.1L1977.3,670.1z M1245.5,410v-45.1h-3c-18.8,0-34.8,3.2-48,9.6
				c-32,14.8-52.9,37.8-62.5,69.1v-73.9h-45v300.4h45V537.9c0-34.4,9.6-64.1,28.8-88.9c20.4-26,46.8-39,79.3-39L1245.5,410
				L1245.5,410z"/>
			<path class="st3" d="M1423.8,634c40.4,0,69.5-16.8,87.1-50.5h49.2c-10.4,27.2-27,49.3-49.8,66.1c-22.4,16.8-51.4,25.2-87.1,25.2
				c-45.2,0-82.1-15-110.5-45c-27.6-29.2-41.4-65.9-41.4-109.9c0-44.4,13.2-81.1,39.6-109.9c28-30,64.5-45.1,109.3-45.1
				c44.8,0,81.3,15,109.3,45.1c26.4,28.8,39.6,65.5,39.6,109.9v18h-251.6c3.2,27.6,14.2,50.5,33,68.5
				C1369.8,624.8,1394.2,634,1423.8,634L1423.8,634z M1420.2,405.8c-27.6,0-50.8,8.6-69.7,25.8c-17.6,16.4-28.4,37.8-32.4,64.3
				h204.2c-4-26.4-14.8-47.9-32.4-64.3C1471.1,414.4,1447.8,405.8,1420.2,405.8L1420.2,405.8z M1665.7,417.8
				c24-35.2,59.9-52.9,107.5-52.9c43.2,0,78.3,15,105.1,45.1c26.8,29.6,40.2,66.3,40.2,109.9s-13.4,80.3-40.2,109.9
				c-26.8,30-62.9,45-108.1,45c-45.2,0-80.1-17.8-104.5-53.5V789h-45V369.7h45L1665.7,417.8L1665.7,417.8z M1767.2,405.8
				c-32.4,0-58,11.2-76.9,33.6c-18,21.2-27,48.1-27,80.5c0,32.4,9,59.3,27,80.5c18.8,22.4,44.4,33.6,76.9,33.6
				c32,0,58.1-11.2,78.1-33.6c18.8-21.2,28.2-48.1,28.2-80.5c0-32.4-9.4-59.3-28.2-80.5C1825.3,417,1799.3,405.8,1767.2,405.8
				L1767.2,405.8z"/>
			<path class="st2" d="M2230.3,369.7h45v300.4h-45V369.7L2230.3,369.7z M2277.1,319.3v-58.9h-48.6v58.9H2277.1L2277.1,319.3z
				 M2385.9,670.1V409.4h-61.3v-39.7h61.3V262.2h45v107.5h69.1v39.7h-69.1v260.7H2385.9L2385.9,670.1z M2077.3,511.9h54.9v54.9
				h-54.9V511.9z M2132.1,621.6v-54.9h54.9v54.9H2132.1z M2132.1,621.6v54.9h-54.9v-54.9H2132.1z"/>
		</g>
	</g>
</g>
</svg>
